<?xml version="1.0" encoding="UTF-8"?>
<svg width="1296px" height="487px" viewBox="0 0 1296 487" version="1.1" xmlns="http://www.w3.org/2000/svg" xmlns:xlink="http://www.w3.org/1999/xlink" xmlns:sketch="http://www.bohemiancoding.com/sketch/ns">
    <!-- Generator: Sketch 3.5.1 (25234) - http://www.bohemiancoding.com/sketch -->
    <title>Untitled</title>
    <desc>Created with Sketch.</desc>
    <defs></defs>
    <g id="Page-1" stroke="none" stroke-width="1" fill="none" fill-rule="evenodd" sketch:type="MSPage">
        <g id="ogimg" sketch:type="MSLayerGroup">
            <g id="Group" sketch:type="MSShapeGroup">
                <g id="Rectangle-path">
                    <g>
                        <g fill="#CCCCCC">
                            <rect x="0" y="486" width="1296" height="1"></rect>
                            <rect x="0" y="365" width="1296" height="1"></rect>
                            <rect x="0" y="243" width="1296" height="1"></rect>
                            <rect x="0" y="122" width="1296" height="1"></rect>
                            <rect x="0" y="0" width="1296" height="1"></rect>
                        </g>
                        <g transform="translate(14.000000, 98.000000)" fill="#00A5FF">
                            <rect x="0" y="381" width="36" height="7"></rect>
                            <rect x="0" y="373" width="36" height="7"></rect>
                            <rect x="37" y="381" width="36" height="7"></rect>
                            <rect x="37" y="373" width="36" height="7"></rect>
                            <rect x="74" y="381" width="35" height="7"></rect>
                            <rect x="74" y="373" width="35" height="7"></rect>
                            <rect x="110" y="381" width="36" height="7"></rect>
                            <rect x="110" y="373" width="36" height="7"></rect>
                            <rect x="110" y="365" width="36" height="7"></rect>
                            <rect x="110" y="357" width="36" height="7"></rect>
                            <rect x="147" y="381" width="35" height="7"></rect>
                            <rect x="147" y="373" width="35" height="7"></rect>
                            <rect x="147" y="365" width="35" height="7"></rect>
                            <rect x="183" y="381" width="36" height="7"></rect>
                            <rect x="183" y="373" width="36" height="7"></rect>
                            <rect x="183" y="365" width="36" height="7"></rect>
                            <rect x="183" y="357" width="36" height="7"></rect>
                            <rect x="183" y="349" width="36" height="7"></rect>
                            <rect x="220" y="381" width="36" height="7"></rect>
                            <rect x="220" y="373" width="36" height="7"></rect>
                            <rect x="220" y="365" width="36" height="7"></rect>
                            <rect x="220" y="357" width="36" height="7"></rect>
                            <rect x="220" y="349" width="36" height="7"></rect>
                            <rect x="220" y="340" width="36" height="8"></rect>
                            <rect x="257" y="381" width="35" height="7"></rect>
                            <rect x="257" y="373" width="35" height="7"></rect>
                            <rect x="293" y="381" width="36" height="7"></rect>
                            <rect x="293" y="373" width="36" height="7"></rect>
                            <rect x="293" y="365" width="36" height="7"></rect>
                            <rect x="293" y="357" width="36" height="7"></rect>
                            <rect x="330" y="381" width="36" height="7"></rect>
                            <rect x="330" y="373" width="36" height="7"></rect>
                            <rect x="330" y="365" width="36" height="7"></rect>
                            <rect x="330" y="357" width="36" height="7"></rect>
                            <rect x="330" y="349" width="36" height="7"></rect>
                            <rect x="367" y="381" width="35" height="7"></rect>
                            <rect x="367" y="373" width="35" height="7"></rect>
                            <rect x="367" y="365" width="35" height="7"></rect>
                            <rect x="367" y="357" width="35" height="7"></rect>
                            <rect x="367" y="349" width="35" height="7"></rect>
                            <rect x="367" y="340" width="35" height="8"></rect>
                            <rect x="367" y="332" width="35" height="7"></rect>
                            <rect x="367" y="324" width="35" height="7"></rect>
                            <rect x="367" y="316" width="35" height="7"></rect>
                            <rect x="367" y="308" width="35" height="7"></rect>
                            <rect x="367" y="300" width="35" height="7"></rect>
                            <rect x="403" y="381" width="36" height="7"></rect>
                            <rect x="403" y="373" width="36" height="7"></rect>
                            <rect x="403" y="365" width="36" height="7"></rect>
                            <rect x="403" y="357" width="36" height="7"></rect>
                            <rect x="403" y="349" width="36" height="7"></rect>
                            <rect x="403" y="340" width="36" height="8"></rect>
                            <rect x="403" y="332" width="36" height="7"></rect>
                            <rect x="403" y="324" width="36" height="7"></rect>
                            <rect x="403" y="316" width="36" height="7"></rect>
                            <rect x="403" y="308" width="36" height="7"></rect>
                            <rect x="403" y="300" width="36" height="7"></rect>
                            <rect x="403" y="292" width="36" height="7"></rect>
                            <rect x="403" y="284" width="36" height="7"></rect>
                            <rect x="403" y="276" width="36" height="7"></rect>
                            <rect x="440" y="381" width="35" height="7"></rect>
                            <rect x="440" y="373" width="35" height="7"></rect>
                            <rect x="440" y="365" width="35" height="7"></rect>
                            <rect x="440" y="357" width="35" height="7"></rect>
                            <rect x="440" y="349" width="35" height="7"></rect>
                            <rect x="440" y="340" width="35" height="8"></rect>
                            <rect x="440" y="332" width="35" height="7"></rect>
                            <rect x="440" y="324" width="35" height="7"></rect>
                            <rect x="440" y="316" width="35" height="7"></rect>
                            <rect x="440" y="308" width="35" height="7"></rect>
                            <rect x="440" y="300" width="35" height="7"></rect>
                            <rect x="440" y="292" width="35" height="7"></rect>
                            <rect x="440" y="284" width="35" height="7"></rect>
                            <rect x="440" y="276" width="35" height="7"></rect>
                            <rect x="440" y="268" width="35" height="7"></rect>
                            <rect x="440" y="259" width="35" height="8"></rect>
                            <rect x="476" y="381" width="36" height="7"></rect>
                            <rect x="476" y="373" width="36" height="7"></rect>
                            <rect x="476" y="365" width="36" height="7"></rect>
                            <rect x="476" y="357" width="36" height="7"></rect>
                            <rect x="476" y="349" width="36" height="7"></rect>
                            <rect x="476" y="340" width="36" height="8"></rect>
                            <rect x="476" y="332" width="36" height="7"></rect>
                            <rect x="476" y="324" width="36" height="7"></rect>
                            <rect x="476" y="316" width="36" height="7"></rect>
                            <rect x="476" y="308" width="36" height="7"></rect>
                            <rect x="476" y="300" width="36" height="7"></rect>
                            <rect x="476" y="292" width="36" height="7"></rect>
                            <rect x="476" y="284" width="36" height="7"></rect>
                            <rect x="476" y="276" width="36" height="7"></rect>
                            <rect x="513" y="381" width="36" height="7"></rect>
                            <rect x="513" y="373" width="36" height="7"></rect>
                            <rect x="513" y="365" width="36" height="7"></rect>
                            <rect x="513" y="357" width="36" height="7"></rect>
                            <rect x="513" y="349" width="36" height="7"></rect>
                            <rect x="513" y="340" width="36" height="8"></rect>
                            <rect x="513" y="332" width="36" height="7"></rect>
                            <rect x="513" y="324" width="36" height="7"></rect>
                            <rect x="513" y="316" width="36" height="7"></rect>
                            <rect x="513" y="308" width="36" height="7"></rect>
                            <rect x="513" y="300" width="36" height="7"></rect>
                            <rect x="513" y="292" width="36" height="7"></rect>
                            <rect x="513" y="284" width="36" height="7"></rect>
                            <rect x="513" y="276" width="36" height="7"></rect>
                            <rect x="513" y="268" width="36" height="7"></rect>
                            <rect x="513" y="259" width="36" height="8"></rect>
                            <rect x="513" y="251" width="36" height="7"></rect>
                            <rect x="513" y="243" width="36" height="7"></rect>
                            <rect x="513" y="235" width="36" height="7"></rect>
                            <rect x="513" y="227" width="36" height="7"></rect>
                            <rect x="513" y="219" width="36" height="7"></rect>
                            <rect x="550" y="381" width="35" height="7"></rect>
                            <rect x="550" y="373" width="35" height="7"></rect>
                            <rect x="550" y="365" width="35" height="7"></rect>
                            <rect x="550" y="357" width="35" height="7"></rect>
                            <rect x="550" y="349" width="35" height="7"></rect>
                            <rect x="550" y="340" width="35" height="8"></rect>
                            <rect x="550" y="332" width="35" height="7"></rect>
                            <rect x="550" y="324" width="35" height="7"></rect>
                            <rect x="550" y="316" width="35" height="7"></rect>
                            <rect x="550" y="308" width="35" height="7"></rect>
                            <rect x="550" y="300" width="35" height="7"></rect>
                            <rect x="550" y="292" width="35" height="7"></rect>
                            <rect x="550" y="284" width="35" height="7"></rect>
                            <rect x="550" y="276" width="35" height="7"></rect>
                            <rect x="550" y="268" width="35" height="7"></rect>
                            <rect x="550" y="259" width="35" height="8"></rect>
                            <rect x="550" y="251" width="35" height="7"></rect>
                            <rect x="550" y="243" width="35" height="7"></rect>
                            <rect x="586" y="381" width="36" height="7"></rect>
                            <rect x="586" y="373" width="36" height="7"></rect>
                            <rect x="586" y="365" width="36" height="7"></rect>
                            <rect x="586" y="357" width="36" height="7"></rect>
                            <rect x="586" y="349" width="36" height="7"></rect>
                            <rect x="586" y="340" width="36" height="8"></rect>
                            <rect x="586" y="332" width="36" height="7"></rect>
                            <rect x="586" y="324" width="36" height="7"></rect>
                            <rect x="586" y="316" width="36" height="7"></rect>
                            <rect x="586" y="308" width="36" height="7"></rect>
                            <rect x="586" y="300" width="36" height="7"></rect>
                            <rect x="586" y="292" width="36" height="7"></rect>
                            <rect x="586" y="284" width="36" height="7"></rect>
                            <rect x="586" y="276" width="36" height="7"></rect>
                            <rect x="586" y="268" width="36" height="7"></rect>
                            <rect x="586" y="259" width="36" height="8"></rect>
                            <rect x="586" y="251" width="36" height="7"></rect>
                            <rect x="586" y="243" width="36" height="7"></rect>
                            <rect x="586" y="235" width="36" height="7"></rect>
                            <rect x="586" y="227" width="36" height="7"></rect>
                            <rect x="586" y="219" width="36" height="7"></rect>
                            <rect x="586" y="211" width="36" height="7"></rect>
                            <rect x="586" y="203" width="36" height="7"></rect>
                            <rect x="586" y="195" width="36" height="7"></rect>
                            <rect x="586" y="187" width="36" height="7"></rect>
                            <rect x="623" y="381" width="35" height="7"></rect>
                            <rect x="623" y="373" width="35" height="7"></rect>
                            <rect x="623" y="365" width="35" height="7"></rect>
                            <rect x="623" y="357" width="35" height="7"></rect>
                            <rect x="623" y="349" width="35" height="7"></rect>
                            <rect x="623" y="340" width="35" height="8"></rect>
                            <rect x="623" y="332" width="35" height="7"></rect>
                            <rect x="623" y="324" width="35" height="7"></rect>
                            <rect x="623" y="316" width="35" height="7"></rect>
                            <rect x="659" y="381" width="36" height="7"></rect>
                            <rect x="659" y="373" width="36" height="7"></rect>
                            <rect x="659" y="365" width="36" height="7"></rect>
                            <rect x="659" y="357" width="36" height="7"></rect>
                            <rect x="659" y="349" width="36" height="7"></rect>
                            <rect x="659" y="340" width="36" height="8"></rect>
                            <rect x="659" y="332" width="36" height="7"></rect>
                            <rect x="659" y="324" width="36" height="7"></rect>
                            <rect x="659" y="316" width="36" height="7"></rect>
                            <rect x="659" y="308" width="36" height="7"></rect>
                            <rect x="659" y="300" width="36" height="7"></rect>
                            <rect x="659" y="292" width="36" height="7"></rect>
                            <rect x="659" y="284" width="36" height="7"></rect>
                            <rect x="659" y="276" width="36" height="7"></rect>
                            <rect x="659" y="268" width="36" height="7"></rect>
                            <rect x="659" y="259" width="36" height="8"></rect>
                            <rect x="659" y="251" width="36" height="7"></rect>
                            <rect x="659" y="243" width="36" height="7"></rect>
                            <rect x="659" y="235" width="36" height="7"></rect>
                            <rect x="659" y="227" width="36" height="7"></rect>
                            <rect x="659" y="219" width="36" height="7"></rect>
                            <rect x="659" y="211" width="36" height="7"></rect>
                            <rect x="659" y="203" width="36" height="7"></rect>
                            <rect x="659" y="195" width="36" height="7"></rect>
                            <rect x="659" y="187" width="36" height="7"></rect>
                            <rect x="659" y="178" width="36" height="8"></rect>
                            <rect x="659" y="170" width="36" height="7"></rect>
                            <rect x="659" y="162" width="36" height="7"></rect>
                            <rect x="696" y="381" width="36" height="7"></rect>
                            <rect x="696" y="373" width="36" height="7"></rect>
                            <rect x="696" y="365" width="36" height="7"></rect>
                            <rect x="696" y="357" width="36" height="7"></rect>
                            <rect x="696" y="349" width="36" height="7"></rect>
                            <rect x="696" y="340" width="36" height="8"></rect>
                            <rect x="696" y="332" width="36" height="7"></rect>
                            <rect x="696" y="324" width="36" height="7"></rect>
                            <rect x="696" y="316" width="36" height="7"></rect>
                            <rect x="696" y="308" width="36" height="7"></rect>
                            <rect x="696" y="300" width="36" height="7"></rect>
                            <rect x="696" y="292" width="36" height="7"></rect>
                            <rect x="696" y="284" width="36" height="7"></rect>
                            <rect x="696" y="276" width="36" height="7"></rect>
                            <rect x="696" y="268" width="36" height="7"></rect>
                            <rect x="696" y="259" width="36" height="8"></rect>
                            <rect x="696" y="251" width="36" height="7"></rect>
                            <rect x="696" y="243" width="36" height="7"></rect>
                            <rect x="696" y="235" width="36" height="7"></rect>
                            <rect x="696" y="227" width="36" height="7"></rect>
                            <rect x="696" y="219" width="36" height="7"></rect>
                            <rect x="696" y="211" width="36" height="7"></rect>
                            <rect x="696" y="203" width="36" height="7"></rect>
                            <rect x="696" y="195" width="36" height="7"></rect>
                            <rect x="696" y="187" width="36" height="7"></rect>
                            <rect x="696" y="178" width="36" height="8"></rect>
                            <rect x="696" y="170" width="36" height="7"></rect>
                            <rect x="733" y="381" width="35" height="7"></rect>
                            <rect x="733" y="373" width="35" height="7"></rect>
                            <rect x="733" y="365" width="35" height="7"></rect>
                            <rect x="733" y="357" width="35" height="7"></rect>
                            <rect x="733" y="349" width="35" height="7"></rect>
                            <rect x="733" y="340" width="35" height="8"></rect>
                            <rect x="733" y="332" width="35" height="7"></rect>
                            <rect x="733" y="324" width="35" height="7"></rect>
                            <rect x="733" y="316" width="35" height="7"></rect>
                            <rect x="733" y="308" width="35" height="7"></rect>
                            <rect x="733" y="300" width="35" height="7"></rect>
                            <rect x="733" y="292" width="35" height="7"></rect>
                            <rect x="733" y="284" width="35" height="7"></rect>
                            <rect x="733" y="276" width="35" height="7"></rect>
                            <rect x="733" y="268" width="35" height="7"></rect>
                            <rect x="733" y="259" width="35" height="8"></rect>
                            <rect x="733" y="251" width="35" height="7"></rect>
                            <rect x="733" y="243" width="35" height="7"></rect>
                            <rect x="733" y="235" width="35" height="7"></rect>
                            <rect x="733" y="227" width="35" height="7"></rect>
                            <rect x="733" y="219" width="35" height="7"></rect>
                            <rect x="733" y="211" width="35" height="7"></rect>
                            <rect x="733" y="203" width="35" height="7"></rect>
                            <rect x="733" y="195" width="35" height="7"></rect>
                            <rect x="733" y="187" width="35" height="7"></rect>
                            <rect x="733" y="178" width="35" height="8"></rect>
                            <rect x="733" y="170" width="35" height="7"></rect>
                            <rect x="733" y="162" width="35" height="7"></rect>
                            <rect x="733" y="154" width="35" height="7"></rect>
                            <rect x="733" y="146" width="35" height="7"></rect>
                            <rect x="733" y="138" width="35" height="7"></rect>
                            <rect x="733" y="130" width="35" height="7"></rect>
                            <rect x="733" y="122" width="35" height="7"></rect>
                            <rect x="733" y="114" width="35" height="7"></rect>
                            <rect x="733" y="106" width="35" height="7"></rect>
                            <rect x="733" y="97" width="35" height="8"></rect>
                            <rect x="733" y="89" width="35" height="7"></rect>
                            <rect x="769" y="381" width="36" height="7"></rect>
                            <rect x="769" y="373" width="36" height="7"></rect>
                            <rect x="769" y="365" width="36" height="7"></rect>
                            <rect x="769" y="357" width="36" height="7"></rect>
                            <rect x="769" y="349" width="36" height="7"></rect>
                            <rect x="769" y="340" width="36" height="8"></rect>
                            <rect x="769" y="332" width="36" height="7"></rect>
                            <rect x="769" y="324" width="36" height="7"></rect>
                            <rect x="769" y="316" width="36" height="7"></rect>
                            <rect x="769" y="308" width="36" height="7"></rect>
                            <rect x="769" y="300" width="36" height="7"></rect>
                            <rect x="769" y="292" width="36" height="7"></rect>
                            <rect x="769" y="284" width="36" height="7"></rect>
                            <rect x="769" y="276" width="36" height="7"></rect>
                            <rect x="769" y="268" width="36" height="7"></rect>
                            <rect x="769" y="259" width="36" height="8"></rect>
                            <rect x="769" y="251" width="36" height="7"></rect>
                            <rect x="769" y="243" width="36" height="7"></rect>
                            <rect x="769" y="235" width="36" height="7"></rect>
                            <rect x="769" y="227" width="36" height="7"></rect>
                            <rect x="769" y="219" width="36" height="7"></rect>
                            <rect x="769" y="211" width="36" height="7"></rect>
                            <rect x="769" y="203" width="36" height="7"></rect>
                            <rect x="769" y="195" width="36" height="7"></rect>
                            <rect x="769" y="187" width="36" height="7"></rect>
                            <rect x="769" y="178" width="36" height="8"></rect>
                            <rect x="769" y="170" width="36" height="7"></rect>
                            <rect x="769" y="162" width="36" height="7"></rect>
                            <rect x="769" y="154" width="36" height="7"></rect>
                            <rect x="769" y="146" width="36" height="7"></rect>
                            <rect x="769" y="138" width="36" height="7"></rect>
                            <rect x="769" y="130" width="36" height="7"></rect>
                            <rect x="769" y="122" width="36" height="7"></rect>
                            <rect x="769" y="114" width="36" height="7"></rect>
                            <rect x="769" y="106" width="36" height="7"></rect>
                            <rect x="769" y="97" width="36" height="8"></rect>
                            <rect x="769" y="89" width="36" height="7"></rect>
                            <rect x="769" y="81" width="36" height="7"></rect>
                            <rect x="769" y="73" width="36" height="7"></rect>
                            <rect x="769" y="65" width="36" height="7"></rect>
                            <rect x="769" y="57" width="36" height="7"></rect>
                            <rect x="769" y="49" width="36" height="7"></rect>
                            <rect x="769" y="41" width="36" height="7"></rect>
                            <rect x="769" y="33" width="36" height="7"></rect>
                            <rect x="769" y="25" width="36" height="7"></rect>
                            <rect x="769" y="16" width="36" height="8"></rect>
                            <rect x="769" y="8" width="36" height="7"></rect>
                            <rect x="769" y="0" width="36" height="7"></rect>
                            <rect x="806" y="381" width="36" height="7"></rect>
                            <rect x="806" y="373" width="36" height="7"></rect>
                            <rect x="806" y="365" width="36" height="7"></rect>
                            <rect x="806" y="357" width="36" height="7"></rect>
                            <rect x="806" y="349" width="36" height="7"></rect>
                            <rect x="806" y="340" width="36" height="8"></rect>
                            <rect x="806" y="332" width="36" height="7"></rect>
                            <rect x="806" y="324" width="36" height="7"></rect>
                            <rect x="806" y="316" width="36" height="7"></rect>
                            <rect x="806" y="308" width="36" height="7"></rect>
                            <rect x="806" y="300" width="36" height="7"></rect>
                            <rect x="806" y="292" width="36" height="7"></rect>
                            <rect x="806" y="284" width="36" height="7"></rect>
                            <rect x="806" y="276" width="36" height="7"></rect>
                            <rect x="806" y="268" width="36" height="7"></rect>
                            <rect x="806" y="259" width="36" height="8"></rect>
                            <rect x="806" y="251" width="36" height="7"></rect>
                            <rect x="806" y="243" width="36" height="7"></rect>
                            <rect x="806" y="235" width="36" height="7"></rect>
                            <rect x="806" y="227" width="36" height="7"></rect>
                            <rect x="806" y="219" width="36" height="7"></rect>
                            <rect x="806" y="211" width="36" height="7"></rect>
                            <rect x="806" y="203" width="36" height="7"></rect>
                            <rect x="806" y="195" width="36" height="7"></rect>
                            <rect x="806" y="187" width="36" height="7"></rect>
                            <rect x="806" y="178" width="36" height="8"></rect>
                            <rect x="806" y="170" width="36" height="7"></rect>
                            <rect x="806" y="162" width="36" height="7"></rect>
                            <rect x="806" y="154" width="36" height="7"></rect>
                            <rect x="806" y="146" width="36" height="7"></rect>
                            <rect x="806" y="138" width="36" height="7"></rect>
                            <rect x="806" y="130" width="36" height="7"></rect>
                            <rect x="843" y="381" width="35" height="7"></rect>
                            <rect x="843" y="373" width="35" height="7"></rect>
                            <rect x="843" y="365" width="35" height="7"></rect>
                            <rect x="843" y="357" width="35" height="7"></rect>
                            <rect x="843" y="349" width="35" height="7"></rect>
                            <rect x="843" y="340" width="35" height="8"></rect>
                            <rect x="843" y="332" width="35" height="7"></rect>
                            <rect x="843" y="324" width="35" height="7"></rect>
                            <rect x="843" y="316" width="35" height="7"></rect>
                            <rect x="843" y="308" width="35" height="7"></rect>
                            <rect x="843" y="300" width="35" height="7"></rect>
                            <rect x="843" y="292" width="35" height="7"></rect>
                            <rect x="843" y="284" width="35" height="7"></rect>
                            <rect x="843" y="276" width="35" height="7"></rect>
                            <rect x="843" y="268" width="35" height="7"></rect>
                            <rect x="843" y="259" width="35" height="8"></rect>
                            <rect x="843" y="251" width="35" height="7"></rect>
                            <rect x="843" y="243" width="35" height="7"></rect>
                            <rect x="843" y="235" width="35" height="7"></rect>
                            <rect x="843" y="227" width="35" height="7"></rect>
                            <rect x="843" y="219" width="35" height="7"></rect>
                            <rect x="843" y="211" width="35" height="7"></rect>
                            <rect x="843" y="203" width="35" height="7"></rect>
                            <rect x="843" y="195" width="35" height="7"></rect>
                            <rect x="843" y="187" width="35" height="7"></rect>
                            <rect x="843" y="178" width="35" height="8"></rect>
                            <rect x="843" y="170" width="35" height="7"></rect>
                            <rect x="843" y="162" width="35" height="7"></rect>
                            <rect x="843" y="154" width="35" height="7"></rect>
                            <rect x="843" y="146" width="35" height="7"></rect>
                            <rect x="843" y="138" width="35" height="7"></rect>
                            <rect x="843" y="130" width="35" height="7"></rect>
                            <rect x="843" y="122" width="35" height="7"></rect>
                            <rect x="843" y="114" width="35" height="7"></rect>
                            <rect x="879" y="381" width="36" height="7"></rect>
                            <rect x="879" y="373" width="36" height="7"></rect>
                            <rect x="879" y="365" width="36" height="7"></rect>
                            <rect x="879" y="357" width="36" height="7"></rect>
                            <rect x="879" y="349" width="36" height="7"></rect>
                            <rect x="879" y="340" width="36" height="8"></rect>
                            <rect x="879" y="332" width="36" height="7"></rect>
                            <rect x="879" y="324" width="36" height="7"></rect>
                            <rect x="879" y="316" width="36" height="7"></rect>
                            <rect x="879" y="308" width="36" height="7"></rect>
                            <rect x="879" y="300" width="36" height="7"></rect>
                            <rect x="879" y="292" width="36" height="7"></rect>
                            <rect x="879" y="284" width="36" height="7"></rect>
                            <rect x="879" y="276" width="36" height="7"></rect>
                            <rect x="879" y="268" width="36" height="7"></rect>
                            <rect x="879" y="259" width="36" height="8"></rect>
                            <rect x="879" y="251" width="36" height="7"></rect>
                            <rect x="879" y="243" width="36" height="7"></rect>
                            <rect x="879" y="235" width="36" height="7"></rect>
                            <rect x="879" y="227" width="36" height="7"></rect>
                            <rect x="879" y="219" width="36" height="7"></rect>
                            <rect x="879" y="211" width="36" height="7"></rect>
                            <rect x="879" y="203" width="36" height="7"></rect>
                            <rect x="879" y="195" width="36" height="7"></rect>
                            <rect x="879" y="187" width="36" height="7"></rect>
                            <rect x="879" y="178" width="36" height="8"></rect>
                            <rect x="879" y="170" width="36" height="7"></rect>
                            <rect x="916" y="381" width="35" height="7"></rect>
                            <rect x="916" y="373" width="35" height="7"></rect>
                            <rect x="916" y="365" width="35" height="7"></rect>
                            <rect x="916" y="357" width="35" height="7"></rect>
                            <rect x="916" y="349" width="35" height="7"></rect>
                            <rect x="916" y="340" width="35" height="8"></rect>
                            <rect x="916" y="332" width="35" height="7"></rect>
                            <rect x="916" y="324" width="35" height="7"></rect>
                            <rect x="916" y="316" width="35" height="7"></rect>
                            <rect x="916" y="308" width="35" height="7"></rect>
                            <rect x="916" y="300" width="35" height="7"></rect>
                            <rect x="916" y="292" width="35" height="7"></rect>
                            <rect x="916" y="284" width="35" height="7"></rect>
                            <rect x="916" y="276" width="35" height="7"></rect>
                            <rect x="916" y="268" width="35" height="7"></rect>
                            <rect x="916" y="259" width="35" height="8"></rect>
                            <rect x="916" y="251" width="35" height="7"></rect>
                            <rect x="916" y="243" width="35" height="7"></rect>
                            <rect x="916" y="235" width="35" height="7"></rect>
                            <rect x="916" y="227" width="35" height="7"></rect>
                            <rect x="916" y="219" width="35" height="7"></rect>
                            <rect x="916" y="211" width="35" height="7"></rect>
                            <rect x="916" y="203" width="35" height="7"></rect>
                            <rect x="916" y="195" width="35" height="7"></rect>
                            <rect x="916" y="187" width="35" height="7"></rect>
                            <rect x="916" y="178" width="35" height="8"></rect>
                            <rect x="916" y="170" width="35" height="7"></rect>
                            <rect x="916" y="162" width="35" height="7"></rect>
                            <rect x="916" y="154" width="35" height="7"></rect>
                            <rect x="952" y="381" width="36" height="7"></rect>
                            <rect x="952" y="373" width="36" height="7"></rect>
                            <rect x="952" y="365" width="36" height="7"></rect>
                            <rect x="952" y="357" width="36" height="7"></rect>
                            <rect x="952" y="349" width="36" height="7"></rect>
                            <rect x="952" y="340" width="36" height="8"></rect>
                            <rect x="952" y="332" width="36" height="7"></rect>
                            <rect x="952" y="324" width="36" height="7"></rect>
                            <rect x="952" y="316" width="36" height="7"></rect>
                            <rect x="952" y="308" width="36" height="7"></rect>
                            <rect x="952" y="300" width="36" height="7"></rect>
                            <rect x="952" y="292" width="36" height="7"></rect>
                            <rect x="952" y="284" width="36" height="7"></rect>
                            <rect x="952" y="276" width="36" height="7"></rect>
                            <rect x="952" y="268" width="36" height="7"></rect>
                            <rect x="952" y="259" width="36" height="8"></rect>
                            <rect x="952" y="251" width="36" height="7"></rect>
                            <rect x="952" y="243" width="36" height="7"></rect>
                            <rect x="952" y="235" width="36" height="7"></rect>
                            <rect x="952" y="227" width="36" height="7"></rect>
                            <rect x="952" y="219" width="36" height="7"></rect>
                            <rect x="952" y="211" width="36" height="7"></rect>
                            <rect x="952" y="203" width="36" height="7"></rect>
                            <rect x="952" y="195" width="36" height="7"></rect>
                            <rect x="952" y="187" width="36" height="7"></rect>
                            <rect x="989" y="381" width="36" height="7"></rect>
                            <rect x="989" y="373" width="36" height="7"></rect>
                            <rect x="989" y="365" width="36" height="7"></rect>
                            <rect x="989" y="357" width="36" height="7"></rect>
                            <rect x="989" y="349" width="36" height="7"></rect>
                            <rect x="989" y="340" width="36" height="8"></rect>
                            <rect x="989" y="332" width="36" height="7"></rect>
                            <rect x="989" y="324" width="36" height="7"></rect>
                            <rect x="989" y="316" width="36" height="7"></rect>
                            <rect x="989" y="308" width="36" height="7"></rect>
                            <rect x="989" y="300" width="36" height="7"></rect>
                            <rect x="989" y="292" width="36" height="7"></rect>
                            <rect x="989" y="284" width="36" height="7"></rect>
                            <rect x="989" y="276" width="36" height="7"></rect>
                            <rect x="989" y="268" width="36" height="7"></rect>
                            <rect x="1026" y="381" width="35" height="7"></rect>
                            <rect x="1026" y="373" width="35" height="7"></rect>
                            <rect x="1026" y="365" width="35" height="7"></rect>
                            <rect x="1026" y="357" width="35" height="7"></rect>
                            <rect x="1026" y="349" width="35" height="7"></rect>
                            <rect x="1026" y="340" width="35" height="8"></rect>
                            <rect x="1026" y="332" width="35" height="7"></rect>
                            <rect x="1026" y="324" width="35" height="7"></rect>
                            <rect x="1026" y="316" width="35" height="7"></rect>
                            <rect x="1026" y="308" width="35" height="7"></rect>
                            <rect x="1026" y="300" width="35" height="7"></rect>
                            <rect x="1026" y="292" width="35" height="7"></rect>
                            <rect x="1026" y="284" width="35" height="7"></rect>
                            <rect x="1026" y="276" width="35" height="7"></rect>
                            <rect x="1026" y="268" width="35" height="7"></rect>
                            <rect x="1026" y="259" width="35" height="8"></rect>
                            <rect x="1026" y="251" width="35" height="7"></rect>
                            <rect x="1026" y="243" width="35" height="7"></rect>
                            <rect x="1026" y="235" width="35" height="7"></rect>
                            <rect x="1026" y="227" width="35" height="7"></rect>
                            <rect x="1026" y="219" width="35" height="7"></rect>
                            <rect x="1026" y="211" width="35" height="7"></rect>
                            <rect x="1026" y="203" width="35" height="7"></rect>
                            <rect x="1026" y="195" width="35" height="7"></rect>
                            <rect x="1026" y="187" width="35" height="7"></rect>
                            <rect x="1026" y="178" width="35" height="8"></rect>
                            <rect x="1026" y="170" width="35" height="7"></rect>
                            <rect x="1026" y="162" width="35" height="7"></rect>
                            <rect x="1026" y="154" width="35" height="7"></rect>
                            <rect x="1026" y="146" width="35" height="7"></rect>
                            <rect x="1062" y="381" width="36" height="7"></rect>
                            <rect x="1062" y="373" width="36" height="7"></rect>
                            <rect x="1062" y="365" width="36" height="7"></rect>
                            <rect x="1062" y="357" width="36" height="7"></rect>
                            <rect x="1062" y="349" width="36" height="7"></rect>
                            <rect x="1062" y="340" width="36" height="8"></rect>
                            <rect x="1062" y="332" width="36" height="7"></rect>
                            <rect x="1062" y="324" width="36" height="7"></rect>
                            <rect x="1062" y="316" width="36" height="7"></rect>
                            <rect x="1062" y="308" width="36" height="7"></rect>
                            <rect x="1062" y="300" width="36" height="7"></rect>
                            <rect x="1062" y="292" width="36" height="7"></rect>
                            <rect x="1062" y="284" width="36" height="7"></rect>
                            <rect x="1062" y="276" width="36" height="7"></rect>
                            <rect x="1062" y="268" width="36" height="7"></rect>
                            <rect x="1062" y="259" width="36" height="8"></rect>
                            <rect x="1062" y="251" width="36" height="7"></rect>
                            <rect x="1062" y="243" width="36" height="7"></rect>
                            <rect x="1062" y="235" width="36" height="7"></rect>
                            <rect x="1062" y="227" width="36" height="7"></rect>
                            <rect x="1062" y="219" width="36" height="7"></rect>
                            <rect x="1062" y="211" width="36" height="7"></rect>
                            <rect x="1062" y="203" width="36" height="7"></rect>
                            <rect x="1062" y="195" width="36" height="7"></rect>
                            <rect x="1062" y="187" width="36" height="7"></rect>
                            <rect x="1062" y="178" width="36" height="8"></rect>
                            <rect x="1099" y="381" width="36" height="7"></rect>
                            <rect x="1099" y="373" width="36" height="7"></rect>
                            <rect x="1099" y="365" width="36" height="7"></rect>
                            <rect x="1099" y="357" width="36" height="7"></rect>
                            <rect x="1099" y="349" width="36" height="7"></rect>
                            <rect x="1099" y="340" width="36" height="8"></rect>
                            <rect x="1099" y="332" width="36" height="7"></rect>
                            <rect x="1099" y="324" width="36" height="7"></rect>
                            <rect x="1099" y="316" width="36" height="7"></rect>
                            <rect x="1099" y="308" width="36" height="7"></rect>
                            <rect x="1099" y="300" width="36" height="7"></rect>
                            <rect x="1099" y="292" width="36" height="7"></rect>
                            <rect x="1099" y="284" width="36" height="7"></rect>
                            <rect x="1099" y="276" width="36" height="7"></rect>
                            <rect x="1099" y="268" width="36" height="7"></rect>
                            <rect x="1099" y="259" width="36" height="8"></rect>
                            <rect x="1099" y="251" width="36" height="7"></rect>
                            <rect x="1099" y="243" width="36" height="7"></rect>
                            <rect x="1099" y="235" width="36" height="7"></rect>
                            <rect x="1099" y="227" width="36" height="7"></rect>
                            <rect x="1099" y="219" width="36" height="7"></rect>
                            <rect x="1136" y="381" width="35" height="7"></rect>
                            <rect x="1136" y="373" width="35" height="7"></rect>
                            <rect x="1136" y="365" width="35" height="7"></rect>
                            <rect x="1136" y="357" width="35" height="7"></rect>
                            <rect x="1136" y="349" width="35" height="7"></rect>
                            <rect x="1136" y="340" width="35" height="8"></rect>
                            <rect x="1136" y="332" width="35" height="7"></rect>
                            <rect x="1136" y="324" width="35" height="7"></rect>
                            <rect x="1136" y="316" width="35" height="7"></rect>
                            <rect x="1136" y="308" width="35" height="7"></rect>
                            <rect x="1136" y="300" width="35" height="7"></rect>
                            <rect x="1136" y="292" width="35" height="7"></rect>
                            <rect x="1136" y="284" width="35" height="7"></rect>
                            <rect x="1136" y="276" width="35" height="7"></rect>
                            <rect x="1136" y="268" width="35" height="7"></rect>
                            <rect x="1136" y="259" width="35" height="8"></rect>
                            <rect x="1136" y="251" width="35" height="7"></rect>
                            <rect x="1136" y="243" width="35" height="7"></rect>
                            <rect x="1136" y="235" width="35" height="7"></rect>
                            <rect x="1172" y="381" width="36" height="7"></rect>
                            <rect x="1172" y="373" width="36" height="7"></rect>
                            <rect x="1172" y="365" width="36" height="7"></rect>
                            <rect x="1172" y="357" width="36" height="7"></rect>
                            <rect x="1172" y="349" width="36" height="7"></rect>
                            <rect x="1172" y="340" width="36" height="8"></rect>
                            <rect x="1172" y="332" width="36" height="7"></rect>
                            <rect x="1172" y="324" width="36" height="7"></rect>
                            <rect x="1172" y="316" width="36" height="7"></rect>
                            <rect x="1172" y="308" width="36" height="7"></rect>
                            <rect x="1172" y="300" width="36" height="7"></rect>
                            <rect x="1209" y="381" width="35" height="7"></rect>
                            <rect x="1209" y="373" width="35" height="7"></rect>
                            <rect x="1209" y="365" width="35" height="7"></rect>
                            <rect x="1245" y="381" width="36" height="7"></rect>
                            <rect x="1245" y="373" width="36" height="7"></rect>
                        </g>
                        <rect fill="#333333" x="0" y="486" width="1296" height="1"></rect>
                    </g>
                </g>
            </g>
        </g>
        <text id="Top-25-" sketch:type="MSTextLayer" font-family="Helvetica" font-size="100" font-weight="bold" fill="#000000">
            <tspan x="88" y="150">Top 25 </tspan>
            <tspan x="88" y="270">classes</tspan>
        </text>
    </g>
</svg>