<?xml version="1.0" encoding="UTF-8"?>
<svg width="1296px" height="501px" viewBox="0 0 1296 501" version="1.1" xmlns="http://www.w3.org/2000/svg" xmlns:xlink="http://www.w3.org/1999/xlink" xmlns:sketch="http://www.bohemiancoding.com/sketch/ns">
    <!-- Generator: Sketch 3.5.1 (25234) - http://www.bohemiancoding.com/sketch -->
    <title>Untitled</title>
    <desc>Created with Sketch.</desc>
    <defs></defs>
    <g id="Page-1" stroke="none" stroke-width="1" fill="none" fill-rule="evenodd" sketch:type="MSPage">
        <g id="cover" sketch:type="MSLayerGroup">
            <g id="Group" sketch:type="MSShapeGroup">
                <rect id="Rectangle-path" fill-opacity="0" fill="#FFFFFF" x="0" y="0" width="1296" height="501"></rect>
                <g id="Rectangle-path">
                    <g fill="#CCCCCC">
                        <rect x="0" y="500" width="1296" height="1"></rect>
                        <rect x="0" y="375" width="1296" height="1"></rect>
                        <rect x="0" y="250" width="1296" height="1"></rect>
                        <rect x="0" y="125" width="1296" height="1"></rect>
                        <rect x="0" y="0" width="1296" height="1"></rect>
                    </g>
                    <g transform="translate(14.000000, 101.000000)" fill="#00A5FF">
                        <rect x="0" y="392" width="36" height="7"></rect>
                        <rect x="0" y="383" width="36" height="8"></rect>
                        <rect x="37" y="392" width="36" height="7"></rect>
                        <rect x="37" y="383" width="36" height="8"></rect>
                        <rect x="74" y="392" width="35" height="7"></rect>
                        <rect x="74" y="383" width="35" height="8"></rect>
                        <rect x="110" y="392" width="36" height="7"></rect>
                        <rect x="110" y="383" width="36" height="8"></rect>
                        <rect x="110" y="375" width="36" height="7"></rect>
                        <rect x="110" y="367" width="36" height="7"></rect>
                        <rect x="147" y="392" width="35" height="7"></rect>
                        <rect x="147" y="383" width="35" height="8"></rect>
                        <rect x="147" y="375" width="35" height="7"></rect>
                        <rect x="183" y="392" width="36" height="7"></rect>
                        <rect x="183" y="383" width="36" height="8"></rect>
                        <rect x="183" y="375" width="36" height="7"></rect>
                        <rect x="183" y="367" width="36" height="7"></rect>
                        <rect x="183" y="358" width="36" height="8"></rect>
                        <rect x="220" y="392" width="36" height="7"></rect>
                        <rect x="220" y="383" width="36" height="8"></rect>
                        <rect x="220" y="375" width="36" height="7"></rect>
                        <rect x="220" y="367" width="36" height="7"></rect>
                        <rect x="220" y="358" width="36" height="8"></rect>
                        <rect x="220" y="350" width="36" height="7"></rect>
                        <rect x="257" y="392" width="35" height="7"></rect>
                        <rect x="257" y="383" width="35" height="8"></rect>
                        <rect x="293" y="392" width="36" height="7"></rect>
                        <rect x="293" y="383" width="36" height="8"></rect>
                        <rect x="293" y="375" width="36" height="7"></rect>
                        <rect x="293" y="367" width="36" height="7"></rect>
                        <rect x="330" y="392" width="36" height="7"></rect>
                        <rect x="330" y="383" width="36" height="8"></rect>
                        <rect x="330" y="375" width="36" height="7"></rect>
                        <rect x="330" y="367" width="36" height="7"></rect>
                        <rect x="330" y="358" width="36" height="8"></rect>
                        <rect x="367" y="392" width="35" height="7"></rect>
                        <rect x="367" y="383" width="35" height="8"></rect>
                        <rect x="367" y="375" width="35" height="7"></rect>
                        <rect x="367" y="367" width="35" height="7"></rect>
                        <rect x="367" y="358" width="35" height="8"></rect>
                        <rect x="367" y="350" width="35" height="7"></rect>
                        <rect x="367" y="342" width="35" height="7"></rect>
                        <rect x="367" y="333" width="35" height="8"></rect>
                        <rect x="367" y="325" width="35" height="7"></rect>
                        <rect x="367" y="317" width="35" height="7"></rect>
                        <rect x="367" y="308" width="35" height="8"></rect>
                        <rect x="403" y="392" width="36" height="7"></rect>
                        <rect x="403" y="383" width="36" height="8"></rect>
                        <rect x="403" y="375" width="36" height="7"></rect>
                        <rect x="403" y="367" width="36" height="7"></rect>
                        <rect x="403" y="358" width="36" height="8"></rect>
                        <rect x="403" y="350" width="36" height="7"></rect>
                        <rect x="403" y="342" width="36" height="7"></rect>
                        <rect x="403" y="333" width="36" height="8"></rect>
                        <rect x="403" y="325" width="36" height="7"></rect>
                        <rect x="403" y="317" width="36" height="7"></rect>
                        <rect x="403" y="308" width="36" height="8"></rect>
                        <rect x="403" y="300" width="36" height="7"></rect>
                        <rect x="403" y="292" width="36" height="7"></rect>
                        <rect x="403" y="283" width="36" height="8"></rect>
                        <rect x="440" y="392" width="35" height="7"></rect>
                        <rect x="440" y="383" width="35" height="8"></rect>
                        <rect x="440" y="375" width="35" height="7"></rect>
                        <rect x="440" y="367" width="35" height="7"></rect>
                        <rect x="440" y="358" width="35" height="8"></rect>
                        <rect x="440" y="350" width="35" height="7"></rect>
                        <rect x="440" y="342" width="35" height="7"></rect>
                        <rect x="440" y="333" width="35" height="8"></rect>
                        <rect x="440" y="325" width="35" height="7"></rect>
                        <rect x="440" y="317" width="35" height="7"></rect>
                        <rect x="440" y="308" width="35" height="8"></rect>
                        <rect x="440" y="300" width="35" height="7"></rect>
                        <rect x="440" y="292" width="35" height="7"></rect>
                        <rect x="440" y="283" width="35" height="8"></rect>
                        <rect x="440" y="275" width="35" height="7"></rect>
                        <rect x="440" y="267" width="35" height="7"></rect>
                        <rect x="476" y="392" width="36" height="7"></rect>
                        <rect x="476" y="383" width="36" height="8"></rect>
                        <rect x="476" y="375" width="36" height="7"></rect>
                        <rect x="476" y="367" width="36" height="7"></rect>
                        <rect x="476" y="358" width="36" height="8"></rect>
                        <rect x="476" y="350" width="36" height="7"></rect>
                        <rect x="476" y="342" width="36" height="7"></rect>
                        <rect x="476" y="333" width="36" height="8"></rect>
                        <rect x="476" y="325" width="36" height="7"></rect>
                        <rect x="476" y="317" width="36" height="7"></rect>
                        <rect x="476" y="308" width="36" height="8"></rect>
                        <rect x="476" y="300" width="36" height="7"></rect>
                        <rect x="476" y="292" width="36" height="7"></rect>
                        <rect x="476" y="283" width="36" height="8"></rect>
                        <rect x="513" y="392" width="36" height="7"></rect>
                        <rect x="513" y="383" width="36" height="8"></rect>
                        <rect x="513" y="375" width="36" height="7"></rect>
                        <rect x="513" y="367" width="36" height="7"></rect>
                        <rect x="513" y="358" width="36" height="8"></rect>
                        <rect x="513" y="350" width="36" height="7"></rect>
                        <rect x="513" y="342" width="36" height="7"></rect>
                        <rect x="513" y="333" width="36" height="8"></rect>
                        <rect x="513" y="325" width="36" height="7"></rect>
                        <rect x="513" y="317" width="36" height="7"></rect>
                        <rect x="513" y="308" width="36" height="8"></rect>
                        <rect x="513" y="300" width="36" height="7"></rect>
                        <rect x="513" y="292" width="36" height="7"></rect>
                        <rect x="513" y="283" width="36" height="8"></rect>
                        <rect x="513" y="275" width="36" height="7"></rect>
                        <rect x="513" y="267" width="36" height="7"></rect>
                        <rect x="513" y="258" width="36" height="8"></rect>
                        <rect x="513" y="250" width="36" height="7"></rect>
                        <rect x="513" y="242" width="36" height="7"></rect>
                        <rect x="513" y="233" width="36" height="8"></rect>
                        <rect x="513" y="225" width="36" height="7"></rect>
                        <rect x="550" y="392" width="35" height="7"></rect>
                        <rect x="550" y="383" width="35" height="8"></rect>
                        <rect x="550" y="375" width="35" height="7"></rect>
                        <rect x="550" y="367" width="35" height="7"></rect>
                        <rect x="550" y="358" width="35" height="8"></rect>
                        <rect x="550" y="350" width="35" height="7"></rect>
                        <rect x="550" y="342" width="35" height="7"></rect>
                        <rect x="550" y="333" width="35" height="8"></rect>
                        <rect x="550" y="325" width="35" height="7"></rect>
                        <rect x="550" y="317" width="35" height="7"></rect>
                        <rect x="550" y="308" width="35" height="8"></rect>
                        <rect x="550" y="300" width="35" height="7"></rect>
                        <rect x="550" y="292" width="35" height="7"></rect>
                        <rect x="550" y="283" width="35" height="8"></rect>
                        <rect x="550" y="275" width="35" height="7"></rect>
                        <rect x="550" y="267" width="35" height="7"></rect>
                        <rect x="550" y="258" width="35" height="8"></rect>
                        <rect x="550" y="250" width="35" height="7"></rect>
                        <rect x="586" y="392" width="36" height="7"></rect>
                        <rect x="586" y="383" width="36" height="8"></rect>
                        <rect x="586" y="375" width="36" height="7"></rect>
                        <rect x="586" y="367" width="36" height="7"></rect>
                        <rect x="586" y="358" width="36" height="8"></rect>
                        <rect x="586" y="350" width="36" height="7"></rect>
                        <rect x="586" y="342" width="36" height="7"></rect>
                        <rect x="586" y="333" width="36" height="8"></rect>
                        <rect x="586" y="325" width="36" height="7"></rect>
                        <rect x="586" y="317" width="36" height="7"></rect>
                        <rect x="586" y="308" width="36" height="8"></rect>
                        <rect x="586" y="300" width="36" height="7"></rect>
                        <rect x="586" y="292" width="36" height="7"></rect>
                        <rect x="586" y="283" width="36" height="8"></rect>
                        <rect x="586" y="275" width="36" height="7"></rect>
                        <rect x="586" y="267" width="36" height="7"></rect>
                        <rect x="586" y="258" width="36" height="8"></rect>
                        <rect x="586" y="250" width="36" height="7"></rect>
                        <rect x="586" y="242" width="36" height="7"></rect>
                        <rect x="586" y="233" width="36" height="8"></rect>
                        <rect x="586" y="225" width="36" height="7"></rect>
                        <rect x="586" y="217" width="36" height="7"></rect>
                        <rect x="586" y="208" width="36" height="8"></rect>
                        <rect x="586" y="200" width="36" height="7"></rect>
                        <rect x="586" y="192" width="36" height="7"></rect>
                        <rect x="623" y="392" width="35" height="7"></rect>
                        <rect x="623" y="383" width="35" height="8"></rect>
                        <rect x="623" y="375" width="35" height="7"></rect>
                        <rect x="623" y="367" width="35" height="7"></rect>
                        <rect x="623" y="358" width="35" height="8"></rect>
                        <rect x="623" y="350" width="35" height="7"></rect>
                        <rect x="623" y="342" width="35" height="7"></rect>
                        <rect x="623" y="333" width="35" height="8"></rect>
                        <rect x="623" y="325" width="35" height="7"></rect>
                        <rect x="659" y="392" width="36" height="7"></rect>
                        <rect x="659" y="383" width="36" height="8"></rect>
                        <rect x="659" y="375" width="36" height="7"></rect>
                        <rect x="659" y="367" width="36" height="7"></rect>
                        <rect x="659" y="358" width="36" height="8"></rect>
                        <rect x="659" y="350" width="36" height="7"></rect>
                        <rect x="659" y="342" width="36" height="7"></rect>
                        <rect x="659" y="333" width="36" height="8"></rect>
                        <rect x="659" y="325" width="36" height="7"></rect>
                        <rect x="659" y="317" width="36" height="7"></rect>
                        <rect x="659" y="308" width="36" height="8"></rect>
                        <rect x="659" y="300" width="36" height="7"></rect>
                        <rect x="659" y="292" width="36" height="7"></rect>
                        <rect x="659" y="283" width="36" height="8"></rect>
                        <rect x="659" y="275" width="36" height="7"></rect>
                        <rect x="659" y="267" width="36" height="7"></rect>
                        <rect x="659" y="258" width="36" height="8"></rect>
                        <rect x="659" y="250" width="36" height="7"></rect>
                        <rect x="659" y="242" width="36" height="7"></rect>
                        <rect x="659" y="233" width="36" height="8"></rect>
                        <rect x="659" y="225" width="36" height="7"></rect>
                        <rect x="659" y="217" width="36" height="7"></rect>
                        <rect x="659" y="208" width="36" height="8"></rect>
                        <rect x="659" y="200" width="36" height="7"></rect>
                        <rect x="659" y="192" width="36" height="7"></rect>
                        <rect x="659" y="183" width="36" height="8"></rect>
                        <rect x="659" y="175" width="36" height="7"></rect>
                        <rect x="659" y="167" width="36" height="7"></rect>
                        <rect x="696" y="392" width="36" height="7"></rect>
                        <rect x="696" y="383" width="36" height="8"></rect>
                        <rect x="696" y="375" width="36" height="7"></rect>
                        <rect x="696" y="367" width="36" height="7"></rect>
                        <rect x="696" y="358" width="36" height="8"></rect>
                        <rect x="696" y="350" width="36" height="7"></rect>
                        <rect x="696" y="342" width="36" height="7"></rect>
                        <rect x="696" y="333" width="36" height="8"></rect>
                        <rect x="696" y="325" width="36" height="7"></rect>
                        <rect x="696" y="317" width="36" height="7"></rect>
                        <rect x="696" y="308" width="36" height="8"></rect>
                        <rect x="696" y="300" width="36" height="7"></rect>
                        <rect x="696" y="292" width="36" height="7"></rect>
                        <rect x="696" y="283" width="36" height="8"></rect>
                        <rect x="696" y="275" width="36" height="7"></rect>
                        <rect x="696" y="267" width="36" height="7"></rect>
                        <rect x="696" y="258" width="36" height="8"></rect>
                        <rect x="696" y="250" width="36" height="7"></rect>
                        <rect x="696" y="242" width="36" height="7"></rect>
                        <rect x="696" y="233" width="36" height="8"></rect>
                        <rect x="696" y="225" width="36" height="7"></rect>
                        <rect x="696" y="217" width="36" height="7"></rect>
                        <rect x="696" y="208" width="36" height="8"></rect>
                        <rect x="696" y="200" width="36" height="7"></rect>
                        <rect x="696" y="192" width="36" height="7"></rect>
                        <rect x="696" y="183" width="36" height="8"></rect>
                        <rect x="696" y="175" width="36" height="7"></rect>
                        <rect x="733" y="392" width="35" height="7"></rect>
                        <rect x="733" y="383" width="35" height="8"></rect>
                        <rect x="733" y="375" width="35" height="7"></rect>
                        <rect x="733" y="367" width="35" height="7"></rect>
                        <rect x="733" y="358" width="35" height="8"></rect>
                        <rect x="733" y="350" width="35" height="7"></rect>
                        <rect x="733" y="342" width="35" height="7"></rect>
                        <rect x="733" y="333" width="35" height="8"></rect>
                        <rect x="733" y="325" width="35" height="7"></rect>
                        <rect x="733" y="317" width="35" height="7"></rect>
                        <rect x="733" y="308" width="35" height="8"></rect>
                        <rect x="733" y="300" width="35" height="7"></rect>
                        <rect x="733" y="292" width="35" height="7"></rect>
                        <rect x="733" y="283" width="35" height="8"></rect>
                        <rect x="733" y="275" width="35" height="7"></rect>
                        <rect x="733" y="267" width="35" height="7"></rect>
                        <rect x="733" y="258" width="35" height="8"></rect>
                        <rect x="733" y="250" width="35" height="7"></rect>
                        <rect x="733" y="242" width="35" height="7"></rect>
                        <rect x="733" y="233" width="35" height="8"></rect>
                        <rect x="733" y="225" width="35" height="7"></rect>
                        <rect x="733" y="217" width="35" height="7"></rect>
                        <rect x="733" y="208" width="35" height="8"></rect>
                        <rect x="733" y="200" width="35" height="7"></rect>
                        <rect x="733" y="192" width="35" height="7"></rect>
                        <rect x="733" y="183" width="35" height="8"></rect>
                        <rect x="733" y="175" width="35" height="7"></rect>
                        <rect x="733" y="167" width="35" height="7"></rect>
                        <rect x="733" y="158" width="35" height="8"></rect>
                        <rect x="733" y="150" width="35" height="7"></rect>
                        <rect x="733" y="142" width="35" height="7"></rect>
                        <rect x="733" y="133" width="35" height="8"></rect>
                        <rect x="733" y="125" width="35" height="7"></rect>
                        <rect x="733" y="117" width="35" height="7"></rect>
                        <rect x="733" y="108" width="35" height="8"></rect>
                        <rect x="733" y="100" width="35" height="7"></rect>
                        <rect x="733" y="92" width="35" height="7"></rect>
                        <rect x="769" y="392" width="36" height="7"></rect>
                        <rect x="769" y="383" width="36" height="8"></rect>
                        <rect x="769" y="375" width="36" height="7"></rect>
                        <rect x="769" y="367" width="36" height="7"></rect>
                        <rect x="769" y="358" width="36" height="8"></rect>
                        <rect x="769" y="350" width="36" height="7"></rect>
                        <rect x="769" y="342" width="36" height="7"></rect>
                        <rect x="769" y="333" width="36" height="8"></rect>
                        <rect x="769" y="325" width="36" height="7"></rect>
                        <rect x="769" y="317" width="36" height="7"></rect>
                        <rect x="769" y="308" width="36" height="8"></rect>
                        <rect x="769" y="300" width="36" height="7"></rect>
                        <rect x="769" y="292" width="36" height="7"></rect>
                        <rect x="769" y="283" width="36" height="8"></rect>
                        <rect x="769" y="275" width="36" height="7"></rect>
                        <rect x="769" y="267" width="36" height="7"></rect>
                        <rect x="769" y="258" width="36" height="8"></rect>
                        <rect x="769" y="250" width="36" height="7"></rect>
                        <rect x="769" y="242" width="36" height="7"></rect>
                        <rect x="769" y="233" width="36" height="8"></rect>
                        <rect x="769" y="225" width="36" height="7"></rect>
                        <rect x="769" y="217" width="36" height="7"></rect>
                        <rect x="769" y="208" width="36" height="8"></rect>
                        <rect x="769" y="200" width="36" height="7"></rect>
                        <rect x="769" y="192" width="36" height="7"></rect>
                        <rect x="769" y="183" width="36" height="8"></rect>
                        <rect x="769" y="175" width="36" height="7"></rect>
                        <rect x="769" y="167" width="36" height="7"></rect>
                        <rect x="769" y="158" width="36" height="8"></rect>
                        <rect x="769" y="150" width="36" height="7"></rect>
                        <rect x="769" y="142" width="36" height="7"></rect>
                        <rect x="769" y="133" width="36" height="8"></rect>
                        <rect x="769" y="125" width="36" height="7"></rect>
                        <rect x="769" y="117" width="36" height="7"></rect>
                        <rect x="769" y="108" width="36" height="8"></rect>
                        <rect x="769" y="100" width="36" height="7"></rect>
                        <rect x="769" y="92" width="36" height="7"></rect>
                        <rect x="769" y="83" width="36" height="8"></rect>
                        <rect x="769" y="75" width="36" height="7"></rect>
                        <rect x="769" y="67" width="36" height="7"></rect>
                        <rect x="769" y="58" width="36" height="8"></rect>
                        <rect x="769" y="50" width="36" height="7"></rect>
                        <rect x="769" y="42" width="36" height="7"></rect>
                        <rect x="769" y="33" width="36" height="8"></rect>
                        <rect x="769" y="25" width="36" height="7"></rect>
                        <rect x="769" y="17" width="36" height="7"></rect>
                        <rect x="769" y="8" width="36" height="8"></rect>
                        <rect x="769" y="0" width="36" height="7"></rect>
                        <rect x="806" y="392" width="36" height="7"></rect>
                        <rect x="806" y="383" width="36" height="8"></rect>
                        <rect x="806" y="375" width="36" height="7"></rect>
                        <rect x="806" y="367" width="36" height="7"></rect>
                        <rect x="806" y="358" width="36" height="8"></rect>
                        <rect x="806" y="350" width="36" height="7"></rect>
                        <rect x="806" y="342" width="36" height="7"></rect>
                        <rect x="806" y="333" width="36" height="8"></rect>
                        <rect x="806" y="325" width="36" height="7"></rect>
                        <rect x="806" y="317" width="36" height="7"></rect>
                        <rect x="806" y="308" width="36" height="8"></rect>
                        <rect x="806" y="300" width="36" height="7"></rect>
                        <rect x="806" y="292" width="36" height="7"></rect>
                        <rect x="806" y="283" width="36" height="8"></rect>
                        <rect x="806" y="275" width="36" height="7"></rect>
                        <rect x="806" y="267" width="36" height="7"></rect>
                        <rect x="806" y="258" width="36" height="8"></rect>
                        <rect x="806" y="250" width="36" height="7"></rect>
                        <rect x="806" y="242" width="36" height="7"></rect>
                        <rect x="806" y="233" width="36" height="8"></rect>
                        <rect x="806" y="225" width="36" height="7"></rect>
                        <rect x="806" y="217" width="36" height="7"></rect>
                        <rect x="806" y="208" width="36" height="8"></rect>
                        <rect x="806" y="200" width="36" height="7"></rect>
                        <rect x="806" y="192" width="36" height="7"></rect>
                        <rect x="806" y="183" width="36" height="8"></rect>
                        <rect x="806" y="175" width="36" height="7"></rect>
                        <rect x="806" y="167" width="36" height="7"></rect>
                        <rect x="806" y="158" width="36" height="8"></rect>
                        <rect x="806" y="150" width="36" height="7"></rect>
                        <rect x="806" y="142" width="36" height="7"></rect>
                        <rect x="806" y="133" width="36" height="8"></rect>
                        <rect x="843" y="392" width="35" height="7"></rect>
                        <rect x="843" y="383" width="35" height="8"></rect>
                        <rect x="843" y="375" width="35" height="7"></rect>
                        <rect x="843" y="367" width="35" height="7"></rect>
                        <rect x="843" y="358" width="35" height="8"></rect>
                        <rect x="843" y="350" width="35" height="7"></rect>
                        <rect x="843" y="342" width="35" height="7"></rect>
                        <rect x="843" y="333" width="35" height="8"></rect>
                        <rect x="843" y="325" width="35" height="7"></rect>
                        <rect x="843" y="317" width="35" height="7"></rect>
                        <rect x="843" y="308" width="35" height="8"></rect>
                        <rect x="843" y="300" width="35" height="7"></rect>
                        <rect x="843" y="292" width="35" height="7"></rect>
                        <rect x="843" y="283" width="35" height="8"></rect>
                        <rect x="843" y="275" width="35" height="7"></rect>
                        <rect x="843" y="267" width="35" height="7"></rect>
                        <rect x="843" y="258" width="35" height="8"></rect>
                        <rect x="843" y="250" width="35" height="7"></rect>
                        <rect x="843" y="242" width="35" height="7"></rect>
                        <rect x="843" y="233" width="35" height="8"></rect>
                        <rect x="843" y="225" width="35" height="7"></rect>
                        <rect x="843" y="217" width="35" height="7"></rect>
                        <rect x="843" y="208" width="35" height="8"></rect>
                        <rect x="843" y="200" width="35" height="7"></rect>
                        <rect x="843" y="192" width="35" height="7"></rect>
                        <rect x="843" y="183" width="35" height="8"></rect>
                        <rect x="843" y="175" width="35" height="7"></rect>
                        <rect x="843" y="167" width="35" height="7"></rect>
                        <rect x="843" y="158" width="35" height="8"></rect>
                        <rect x="843" y="150" width="35" height="7"></rect>
                        <rect x="843" y="142" width="35" height="7"></rect>
                        <rect x="843" y="133" width="35" height="8"></rect>
                        <rect x="843" y="125" width="35" height="7"></rect>
                        <rect x="843" y="117" width="35" height="7"></rect>
                        <rect x="879" y="392" width="36" height="7"></rect>
                        <rect x="879" y="383" width="36" height="8"></rect>
                        <rect x="879" y="375" width="36" height="7"></rect>
                        <rect x="879" y="367" width="36" height="7"></rect>
                        <rect x="879" y="358" width="36" height="8"></rect>
                        <rect x="879" y="350" width="36" height="7"></rect>
                        <rect x="879" y="342" width="36" height="7"></rect>
                        <rect x="879" y="333" width="36" height="8"></rect>
                        <rect x="879" y="325" width="36" height="7"></rect>
                        <rect x="879" y="317" width="36" height="7"></rect>
                        <rect x="879" y="308" width="36" height="8"></rect>
                        <rect x="879" y="300" width="36" height="7"></rect>
                        <rect x="879" y="292" width="36" height="7"></rect>
                        <rect x="879" y="283" width="36" height="8"></rect>
                        <rect x="879" y="275" width="36" height="7"></rect>
                        <rect x="879" y="267" width="36" height="7"></rect>
                        <rect x="879" y="258" width="36" height="8"></rect>
                        <rect x="879" y="250" width="36" height="7"></rect>
                        <rect x="879" y="242" width="36" height="7"></rect>
                        <rect x="879" y="233" width="36" height="8"></rect>
                        <rect x="879" y="225" width="36" height="7"></rect>
                        <rect x="879" y="217" width="36" height="7"></rect>
                        <rect x="879" y="208" width="36" height="8"></rect>
                        <rect x="879" y="200" width="36" height="7"></rect>
                        <rect x="879" y="192" width="36" height="7"></rect>
                        <rect x="879" y="183" width="36" height="8"></rect>
                        <rect x="879" y="175" width="36" height="7"></rect>
                        <rect x="916" y="392" width="35" height="7"></rect>
                        <rect x="916" y="383" width="35" height="8"></rect>
                        <rect x="916" y="375" width="35" height="7"></rect>
                        <rect x="916" y="367" width="35" height="7"></rect>
                        <rect x="916" y="358" width="35" height="8"></rect>
                        <rect x="916" y="350" width="35" height="7"></rect>
                        <rect x="916" y="342" width="35" height="7"></rect>
                        <rect x="916" y="333" width="35" height="8"></rect>
                        <rect x="916" y="325" width="35" height="7"></rect>
                        <rect x="916" y="317" width="35" height="7"></rect>
                        <rect x="916" y="308" width="35" height="8"></rect>
                        <rect x="916" y="300" width="35" height="7"></rect>
                        <rect x="916" y="292" width="35" height="7"></rect>
                        <rect x="916" y="283" width="35" height="8"></rect>
                        <rect x="916" y="275" width="35" height="7"></rect>
                        <rect x="916" y="267" width="35" height="7"></rect>
                        <rect x="916" y="258" width="35" height="8"></rect>
                        <rect x="916" y="250" width="35" height="7"></rect>
                        <rect x="916" y="242" width="35" height="7"></rect>
                        <rect x="916" y="233" width="35" height="8"></rect>
                        <rect x="916" y="225" width="35" height="7"></rect>
                        <rect x="916" y="217" width="35" height="7"></rect>
                        <rect x="916" y="208" width="35" height="8"></rect>
                        <rect x="916" y="200" width="35" height="7"></rect>
                        <rect x="916" y="192" width="35" height="7"></rect>
                        <rect x="916" y="183" width="35" height="8"></rect>
                        <rect x="916" y="175" width="35" height="7"></rect>
                        <rect x="916" y="167" width="35" height="7"></rect>
                        <rect x="916" y="158" width="35" height="8"></rect>
                        <rect x="952" y="392" width="36" height="7"></rect>
                        <rect x="952" y="383" width="36" height="8"></rect>
                        <rect x="952" y="375" width="36" height="7"></rect>
                        <rect x="952" y="367" width="36" height="7"></rect>
                        <rect x="952" y="358" width="36" height="8"></rect>
                        <rect x="952" y="350" width="36" height="7"></rect>
                        <rect x="952" y="342" width="36" height="7"></rect>
                        <rect x="952" y="333" width="36" height="8"></rect>
                        <rect x="952" y="325" width="36" height="7"></rect>
                        <rect x="952" y="317" width="36" height="7"></rect>
                        <rect x="952" y="308" width="36" height="8"></rect>
                        <rect x="952" y="300" width="36" height="7"></rect>
                        <rect x="952" y="292" width="36" height="7"></rect>
                        <rect x="952" y="283" width="36" height="8"></rect>
                        <rect x="952" y="275" width="36" height="7"></rect>
                        <rect x="952" y="267" width="36" height="7"></rect>
                        <rect x="952" y="258" width="36" height="8"></rect>
                        <rect x="952" y="250" width="36" height="7"></rect>
                        <rect x="952" y="242" width="36" height="7"></rect>
                        <rect x="952" y="233" width="36" height="8"></rect>
                        <rect x="952" y="225" width="36" height="7"></rect>
                        <rect x="952" y="217" width="36" height="7"></rect>
                        <rect x="952" y="208" width="36" height="8"></rect>
                        <rect x="952" y="200" width="36" height="7"></rect>
                        <rect x="952" y="192" width="36" height="7"></rect>
                        <rect x="989" y="392" width="36" height="7"></rect>
                        <rect x="989" y="383" width="36" height="8"></rect>
                        <rect x="989" y="375" width="36" height="7"></rect>
                        <rect x="989" y="367" width="36" height="7"></rect>
                        <rect x="989" y="358" width="36" height="8"></rect>
                        <rect x="989" y="350" width="36" height="7"></rect>
                        <rect x="989" y="342" width="36" height="7"></rect>
                        <rect x="989" y="333" width="36" height="8"></rect>
                        <rect x="989" y="325" width="36" height="7"></rect>
                        <rect x="989" y="317" width="36" height="7"></rect>
                        <rect x="989" y="308" width="36" height="8"></rect>
                        <rect x="989" y="300" width="36" height="7"></rect>
                        <rect x="989" y="292" width="36" height="7"></rect>
                        <rect x="989" y="283" width="36" height="8"></rect>
                        <rect x="989" y="275" width="36" height="7"></rect>
                        <rect x="1026" y="392" width="35" height="7"></rect>
                        <rect x="1026" y="383" width="35" height="8"></rect>
                        <rect x="1026" y="375" width="35" height="7"></rect>
                        <rect x="1026" y="367" width="35" height="7"></rect>
                        <rect x="1026" y="358" width="35" height="8"></rect>
                        <rect x="1026" y="350" width="35" height="7"></rect>
                        <rect x="1026" y="342" width="35" height="7"></rect>
                        <rect x="1026" y="333" width="35" height="8"></rect>
                        <rect x="1026" y="325" width="35" height="7"></rect>
                        <rect x="1026" y="317" width="35" height="7"></rect>
                        <rect x="1026" y="308" width="35" height="8"></rect>
                        <rect x="1026" y="300" width="35" height="7"></rect>
                        <rect x="1026" y="292" width="35" height="7"></rect>
                        <rect x="1026" y="283" width="35" height="8"></rect>
                        <rect x="1026" y="275" width="35" height="7"></rect>
                        <rect x="1026" y="267" width="35" height="7"></rect>
                        <rect x="1026" y="258" width="35" height="8"></rect>
                        <rect x="1026" y="250" width="35" height="7"></rect>
                        <rect x="1026" y="242" width="35" height="7"></rect>
                        <rect x="1026" y="233" width="35" height="8"></rect>
                        <rect x="1026" y="225" width="35" height="7"></rect>
                        <rect x="1026" y="217" width="35" height="7"></rect>
                        <rect x="1026" y="208" width="35" height="8"></rect>
                        <rect x="1026" y="200" width="35" height="7"></rect>
                        <rect x="1026" y="192" width="35" height="7"></rect>
                        <rect x="1026" y="183" width="35" height="8"></rect>
                        <rect x="1026" y="175" width="35" height="7"></rect>
                        <rect x="1026" y="167" width="35" height="7"></rect>
                        <rect x="1026" y="158" width="35" height="8"></rect>
                        <rect x="1026" y="150" width="35" height="7"></rect>
                        <rect x="1062" y="392" width="36" height="7"></rect>
                        <rect x="1062" y="383" width="36" height="8"></rect>
                        <rect x="1062" y="375" width="36" height="7"></rect>
                        <rect x="1062" y="367" width="36" height="7"></rect>
                        <rect x="1062" y="358" width="36" height="8"></rect>
                        <rect x="1062" y="350" width="36" height="7"></rect>
                        <rect x="1062" y="342" width="36" height="7"></rect>
                        <rect x="1062" y="333" width="36" height="8"></rect>
                        <rect x="1062" y="325" width="36" height="7"></rect>
                        <rect x="1062" y="317" width="36" height="7"></rect>
                        <rect x="1062" y="308" width="36" height="8"></rect>
                        <rect x="1062" y="300" width="36" height="7"></rect>
                        <rect x="1062" y="292" width="36" height="7"></rect>
                        <rect x="1062" y="283" width="36" height="8"></rect>
                        <rect x="1062" y="275" width="36" height="7"></rect>
                        <rect x="1062" y="267" width="36" height="7"></rect>
                        <rect x="1062" y="258" width="36" height="8"></rect>
                        <rect x="1062" y="250" width="36" height="7"></rect>
                        <rect x="1062" y="242" width="36" height="7"></rect>
                        <rect x="1062" y="233" width="36" height="8"></rect>
                        <rect x="1062" y="225" width="36" height="7"></rect>
                        <rect x="1062" y="217" width="36" height="7"></rect>
                        <rect x="1062" y="208" width="36" height="8"></rect>
                        <rect x="1062" y="200" width="36" height="7"></rect>
                        <rect x="1062" y="192" width="36" height="7"></rect>
                        <rect x="1062" y="183" width="36" height="8"></rect>
                        <rect x="1099" y="392" width="36" height="7"></rect>
                        <rect x="1099" y="383" width="36" height="8"></rect>
                        <rect x="1099" y="375" width="36" height="7"></rect>
                        <rect x="1099" y="367" width="36" height="7"></rect>
                        <rect x="1099" y="358" width="36" height="8"></rect>
                        <rect x="1099" y="350" width="36" height="7"></rect>
                        <rect x="1099" y="342" width="36" height="7"></rect>
                        <rect x="1099" y="333" width="36" height="8"></rect>
                        <rect x="1099" y="325" width="36" height="7"></rect>
                        <rect x="1099" y="317" width="36" height="7"></rect>
                        <rect x="1099" y="308" width="36" height="8"></rect>
                        <rect x="1099" y="300" width="36" height="7"></rect>
                        <rect x="1099" y="292" width="36" height="7"></rect>
                        <rect x="1099" y="283" width="36" height="8"></rect>
                        <rect x="1099" y="275" width="36" height="7"></rect>
                        <rect x="1099" y="267" width="36" height="7"></rect>
                        <rect x="1099" y="258" width="36" height="8"></rect>
                        <rect x="1099" y="250" width="36" height="7"></rect>
                        <rect x="1099" y="242" width="36" height="7"></rect>
                        <rect x="1099" y="233" width="36" height="8"></rect>
                        <rect x="1099" y="225" width="36" height="7"></rect>
                        <rect x="1136" y="392" width="35" height="7"></rect>
                        <rect x="1136" y="383" width="35" height="8"></rect>
                        <rect x="1136" y="375" width="35" height="7"></rect>
                        <rect x="1136" y="367" width="35" height="7"></rect>
                        <rect x="1136" y="358" width="35" height="8"></rect>
                        <rect x="1136" y="350" width="35" height="7"></rect>
                        <rect x="1136" y="342" width="35" height="7"></rect>
                        <rect x="1136" y="333" width="35" height="8"></rect>
                        <rect x="1136" y="325" width="35" height="7"></rect>
                        <rect x="1136" y="317" width="35" height="7"></rect>
                        <rect x="1136" y="308" width="35" height="8"></rect>
                        <rect x="1136" y="300" width="35" height="7"></rect>
                        <rect x="1136" y="292" width="35" height="7"></rect>
                        <rect x="1136" y="283" width="35" height="8"></rect>
                        <rect x="1136" y="275" width="35" height="7"></rect>
                        <rect x="1136" y="267" width="35" height="7"></rect>
                        <rect x="1136" y="258" width="35" height="8"></rect>
                        <rect x="1136" y="250" width="35" height="7"></rect>
                        <rect x="1136" y="242" width="35" height="7"></rect>
                        <rect x="1172" y="392" width="36" height="7"></rect>
                        <rect x="1172" y="383" width="36" height="8"></rect>
                        <rect x="1172" y="375" width="36" height="7"></rect>
                        <rect x="1172" y="367" width="36" height="7"></rect>
                        <rect x="1172" y="358" width="36" height="8"></rect>
                        <rect x="1172" y="350" width="36" height="7"></rect>
                        <rect x="1172" y="342" width="36" height="7"></rect>
                        <rect x="1172" y="333" width="36" height="8"></rect>
                        <rect x="1172" y="325" width="36" height="7"></rect>
                        <rect x="1172" y="317" width="36" height="7"></rect>
                        <rect x="1172" y="308" width="36" height="8"></rect>
                        <rect x="1209" y="392" width="35" height="7"></rect>
                        <rect x="1209" y="383" width="35" height="8"></rect>
                        <rect x="1209" y="375" width="35" height="7"></rect>
                        <rect x="1245" y="392" width="36" height="7"></rect>
                        <rect x="1245" y="383" width="36" height="8"></rect>
                    </g>
                    <rect fill="#333333" x="0" y="500" width="1296" height="1"></rect>
                </g>
            </g>
        </g>
        <text id="Top-25-" sketch:type="MSTextLayer" font-family="Hind" font-size="120" font-weight="420" line-spacing="105" fill="#666666">
            <tspan x="116" y="168">Top 25 </tspan>
            <tspan x="116" y="273">classes</tspan>
        </text>
    </g>
</svg>