<?xml version="1.0" standalone="no"?>
<!DOCTYPE svg PUBLIC "-//W3C//DTD SVG 20010904//EN"
 "http://www.w3.org/TR/2001/REC-SVG-20010904/DTD/svg10.dtd">
<svg version="1.0" xmlns="http://www.w3.org/2000/svg"
 width="920.000000pt" height="555.000000pt" viewBox="0 0 920.000000 555.000000"
 preserveAspectRatio="xMidYMid meet">

<g transform="translate(0.000000,555.000000) scale(0.100000,-0.100000)"
fill="#000000" stroke="none">
<path d="M4390 5119 c-75 -9 -258 -58 -358 -97 -114 -44 -259 -131 -388 -233
-69 -54 -204 -195 -243 -253 -160 -238 -213 -355 -267 -583 -25 -107 -28 -136
-28 -313 -1 -170 2 -208 22 -295 62 -267 165 -478 324 -666 l47 -56 -28 -21
c-61 -45 -236 -221 -324 -326 -89 -105 -201 -259 -245 -336 -11 -19 -35 -62
-54 -95 -37 -65 -132 -273 -167 -365 -91 -241 -153 -559 -168 -856 -6 -124 -5
-134 16 -167 34 -55 105 -65 150 -19 27 26 28 32 34 162 35 744 325 1359 862
1828 33 28 64 52 70 52 5 0 21 -9 35 -21 14 -11 50 -36 80 -56 30 -19 66 -43
80 -53 64 -43 200 -102 335 -144 245 -77 590 -78 844 -1 133 40 260 94 346
149 71 46 132 87 155 105 14 12 30 21 35 21 24 0 239 -205 341 -325 145 -171
246 -326 342 -527 59 -121 69 -147 122 -308 73 -224 113 -451 127 -720 6 -130
7 -136 34 -162 45 -46 116 -36 150 19 21 33 22 44 16 162 -22 445 -145 894
-334 1223 -20 35 -41 72 -47 83 -10 18 -99 152 -143 215 -81 116 -342 394
-434 462 l-28 21 47 56 c157 186 261 396 320 651 24 104 26 134 26 310 0 176
-3 206 -27 310 -34 143 -68 239 -128 355 -41 80 -69 127 -145 239 -35 51 -174
194 -238 245 -129 102 -274 189 -388 233 -109 42 -282 87 -373 97 -109 13
-296 12 -405 0z m532 -228 c268 -70 507 -222 679 -432 129 -156 214 -326 266
-534 25 -99 27 -128 28 -285 0 -157 -3 -186 -28 -286 -83 -336 -264 -599 -540
-785 -224 -150 -454 -220 -727 -220 -273 0 -503 70 -727 220 -277 187 -457
448 -540 785 -25 100 -28 128 -27 286 0 155 3 188 27 285 81 331 274 608 556
795 139 93 360 177 525 200 34 5 135 7 226 5 144 -3 180 -8 282 -34z"/>
</g>
</svg>
