<?xml version="1.0" encoding="UTF-8" standalone="no"?>
<svg width="1066px" height="341px" viewBox="0 0 1066 341" version="1.1" xmlns="http://www.w3.org/2000/svg" xmlns:xlink="http://www.w3.org/1999/xlink" xmlns:sketch="http://www.bohemiancoding.com/sketch/ns">
    <!-- Generator: Sketch 3.3.2 (12043) - http://www.bohemiancoding.com/sketch -->
    <title>Artboard 1</title>
    <desc>Created with Sketch.</desc>
    <defs></defs>
    <g id="Page-1" stroke="none" stroke-width="1" fill="none" fill-rule="evenodd" sketch:type="MSPage">
        <g id="Artboard-1" sketch:type="MSArtboardGroup">
            <g id="Group" sketch:type="MSLayerGroup" transform="translate(5.000000, 13.000000)">
                <g transform="translate(11.000000, 307.000000)">
                    <g transform="translate(0.000000, 7.000000)" fill="#000000">
                        <path d="M1,0 L1,6" id="Shape" sketch:type="MSShapeGroup"></path>
                        <text id="1" sketch:type="MSTextLayer" font-family="Helvetica" font-size="0.8" font-weight="normal">
                            <tspan x="0.5" y="9">1</tspan>
                        </text>
                    </g>
                    <g transform="translate(86.904762, 7.000000)" fill="#000000">
                        <path d="M1,0 L1,6" id="Shape" sketch:type="MSShapeGroup"></path>
                        <text id="31" sketch:type="MSTextLayer" font-family="Helvetica" font-size="0.8" font-weight="normal">
                            <tspan x="0.5" y="9">31</tspan>
                        </text>
                    </g>
                    <g transform="translate(173.809524, 7.000000)" fill="#000000">
                        <path d="M1,0 L1,6" id="Shape" sketch:type="MSShapeGroup"></path>
                        <text id="62" sketch:type="MSTextLayer" font-family="Helvetica" font-size="0.8" font-weight="normal">
                            <tspan x="0.5" y="9">62</tspan>
                        </text>
                    </g>
                    <g transform="translate(260.714286, 7.000000)" fill="#000000">
                        <path d="M1,0 L1,6" id="Shape" sketch:type="MSShapeGroup"></path>
                        <text id="92" sketch:type="MSTextLayer" font-family="Helvetica" font-size="0.8" font-weight="normal">
                            <tspan x="0.5" y="9">92</tspan>
                        </text>
                    </g>
                    <g transform="translate(347.619048, 7.000000)" fill="#000000">
                        <path d="M1,0 L1,6" id="Shape" sketch:type="MSShapeGroup"></path>
                        <text id="123" sketch:type="MSTextLayer" font-family="Helvetica" font-size="0.8" font-weight="normal">
                            <tspan x="0" y="9">123</tspan>
                        </text>
                    </g>
                    <g transform="translate(434.523810, 7.000000)" fill="#000000">
                        <path d="M1,0 L1,6" id="Shape" sketch:type="MSShapeGroup"></path>
                        <text id="153" sketch:type="MSTextLayer" font-family="Helvetica" font-size="0.8" font-weight="normal">
                            <tspan x="0" y="9">153</tspan>
                        </text>
                    </g>
                    <g transform="translate(521.428571, 7.000000)" fill="#000000">
                        <path d="M1,0 L1,6" id="Shape" sketch:type="MSShapeGroup"></path>
                        <text id="184" sketch:type="MSTextLayer" font-family="Helvetica" font-size="0.8" font-weight="normal">
                            <tspan x="0" y="9">184</tspan>
                        </text>
                    </g>
                    <g transform="translate(608.333333, 7.000000)" fill="#000000">
                        <path d="M1,0 L1,6" id="Shape" sketch:type="MSShapeGroup"></path>
                        <text id="214" sketch:type="MSTextLayer" font-family="Helvetica" font-size="0.8" font-weight="normal">
                            <tspan x="0" y="9">214</tspan>
                        </text>
                    </g>
                    <g transform="translate(695.238095, 7.000000)" fill="#000000">
                        <path d="M1,0 L1,6" id="Shape" sketch:type="MSShapeGroup"></path>
                        <text id="244" sketch:type="MSTextLayer" font-family="Helvetica" font-size="0.8" font-weight="normal">
                            <tspan x="0" y="9">244</tspan>
                        </text>
                    </g>
                    <g transform="translate(782.142857, 7.000000)" fill="#000000">
                        <path d="M1,0 L1,6" id="Shape" sketch:type="MSShapeGroup"></path>
                        <text id="275" sketch:type="MSTextLayer" font-family="Helvetica" font-size="0.8" font-weight="normal">
                            <tspan x="0" y="9">275</tspan>
                        </text>
                    </g>
                    <g transform="translate(869.047619, 7.000000)" fill="#000000">
                        <path d="M1,0 L1,6" id="Shape" sketch:type="MSShapeGroup"></path>
                        <text id="305" sketch:type="MSTextLayer" font-family="Helvetica" font-size="0.8" font-weight="normal">
                            <tspan x="0" y="9">305</tspan>
                        </text>
                    </g>
                    <g transform="translate(955.952381, 7.000000)" fill="#000000">
                        <path d="M1,0 L1,6" id="Shape" sketch:type="MSShapeGroup"></path>
                        <text id="336" sketch:type="MSTextLayer" font-family="Helvetica" font-size="0.8" font-weight="normal">
                            <tspan x="0" y="9">336</tspan>
                        </text>
                    </g>
                    <path d="M1,13 L1,7 L1041,7 L1041,13" id="Shape" stroke="#979797" sketch:type="MSShapeGroup"></path>
                    <text id="days-index" fill="#000000" sketch:type="MSTextLayer" font-family="Helvetica" font-size="0.8" font-weight="normal">
                        <tspan x="1027" y="1">days index</tspan>
                    </text>
                </g>
                <g transform="translate(0.000000, 1.000000)">
                    <g transform="translate(1.333333, 312.260388)" fill="#000000">
                        <path d="M6.66666667,0.869806094 L2.66666667,0.869806094" id="Shape" sketch:type="MSShapeGroup"></path>
                        <text id="0" sketch:type="MSTextLayer" font-family="Helvetica" font-size="0.533333333" font-weight="normal">
                            <tspan x="0" y="0">0</tspan>
                        </text>
                    </g>
                    <g transform="translate(0.000000, 258.948213)" fill="#000000">
                        <path d="M8,0.869806094 L4,0.869806094" id="Shape" sketch:type="MSShapeGroup"></path>
                        <text id="5,000" sketch:type="MSTextLayer" font-family="Helvetica" font-size="0.533333333" font-weight="normal">
                            <tspan x="0" y="0">5,000</tspan>
                        </text>
                    </g>
                    <g transform="translate(0.000000, 205.636012)" fill="#000000">
                        <path d="M8,0.869806094 L4,0.869806094" id="Shape" sketch:type="MSShapeGroup"></path>
                        <text id="10,000" sketch:type="MSTextLayer" font-family="Helvetica" font-size="0.533333333" font-weight="normal">
                            <tspan x="0" y="0">10,000</tspan>
                        </text>
                    </g>
                    <g transform="translate(0.000000, 152.323823)" fill="#000000">
                        <path d="M8,0.869806094 L4,0.869806094" id="Shape" sketch:type="MSShapeGroup"></path>
                        <text id="15,000" sketch:type="MSTextLayer" font-family="Helvetica" font-size="0.533333333" font-weight="normal">
                            <tspan x="0" y="0">15,000</tspan>
                        </text>
                    </g>
                    <g transform="translate(0.000000, 99.011642)" fill="#000000">
                        <path d="M8,0.869806094 L4,0.869806094" id="Shape" sketch:type="MSShapeGroup"></path>
                        <text id="20,000" sketch:type="MSTextLayer" font-family="Helvetica" font-size="0.533333333" font-weight="normal">
                            <tspan x="0" y="0">20,000</tspan>
                        </text>
                    </g>
                    <g transform="translate(0.000000, 45.699454)" fill="#000000">
                        <path d="M8,0.869806094 L4,0.869806094" id="Shape" sketch:type="MSShapeGroup"></path>
                        <text id="25,000" sketch:type="MSTextLayer" font-family="Helvetica" font-size="0.533333333" font-weight="normal">
                            <tspan x="0" y="0">25,000</tspan>
                        </text>
                    </g>
                    <path d="M4,0 L8,0 L8,313.130194 L4,313.130194" id="Shape" stroke="#979797" sketch:type="MSShapeGroup"></path>
                    <text id="number-of-users" fill="#000000" sketch:type="MSTextLayer" transform="translate(11.666667, 2.609418) rotate(-90.000000) translate(-11.666667, -2.609418) " font-family="Helvetica" font-size="0.533333333" font-weight="normal">
                        <tspan x="9.66666667" y="2.17451524">number of users</tspan>
                    </text>
                </g>
                <path d="M12,299.620888 L14.8571429,301.619009 L17.7142857,301.459649 L20.5714286,286.357292 L23.4285714,296.948556 L26.2857143,296.556287 L29.1428571,295.9924 L32,285.621787 L34.8571429,294.766559 L37.7142857,288.465738 L40.5714286,282.949455 L43.4285714,289.581253 L46.2857143,292.817472 L49.1428571,290.194173 L52,290.647734 L54.8571429,299.289911 L57.7142857,295.771748 L60.5714286,293.871695 L63.4285714,288.919299 L66.2857143,281.44167 L69.1428571,281.833939 L72,290.75806 L74.8571429,299.449271 L77.7142857,299.902832 L80.5714286,293.369101 L83.4285714,289.029624 L86.2857143,292.707147 L89.1428571,290.537409 L92,287.914109 L94.8571429,298.897642 L97.7142857,295.097536 L100.571429,283.341724 L103.428571,291.199363 L106.285714,289.801904 L109.142857,290.807094 L112,282.777837 L114.857143,300.062191 L117.714286,298.395048 L120.571429,293.76137 L123.428571,290.696768 L126.285714,282.508152 L129.142857,286.90892 L132,286.626977 L134.857143,296.494994 L137.714286,291.37098 L140.571429,282.164916 L143.428571,289.973522 L146.285714,279.333224 L149.142857,276.097005 L152,287.963143 L154.857143,299.167327 L157.714286,297.941487 L160.571429,278.046092 L163.428571,290.978711 L166.285714,277.9848 L169.142857,287.019246 L172,253.075716 L174.857143,280.608099 L177.714286,292.707147 L180.571429,284.236587 L183.428571,275.422792 L186.285714,245.769705 L189.142857,256.189352 L192,246.492951 L194.857143,290.194173 L197.714286,286.626977 L200.571429,277.9848 L203.428571,273.804683 L206.285714,288.576063 L209.142857,303.801005 L212,302.403547 L214.857143,304.131982 L217.714286,303.801005 L220.571429,295.489805 L223.428571,272.578842 L226.285714,282.164916 L229.142857,287.129571 L232,283.341724 L234.857143,295.771748 L237.714286,297.561476 L240.571429,291.481306 L243.428571,297.107915 L246.285714,296.666612 L249.142857,262.600499 L252,289.924488 L254.857143,208.148654 L257.714286,279.492584 L260.571429,279.774527 L263.428571,291.199363 L266.285714,296.997589 L269.142857,298.22343 L272,302.011278 L274.857143,305.308789 L277.714286,295.330446 L280.571429,295.882074 L283.428571,297.720835 L286.285714,306.804315 L289.142857,309.206963 L292,308.53275 L294.857143,303.850039 L297.714286,308.201773 L300.571429,306.693989 L303.428571,305.357823 L306.285714,303.629387 L309.142857,307.086258 L312,303.580354 L314.857143,304.242308 L317.714286,304.131982 L320.571429,291.652924 L323.428571,293.491685 L326.285714,287.080538 L329.142857,292.204552 L332,296.274343 L334.857143,304.806195 L337.714286,303.801005 L340.571429,289.13995 L343.428571,282.054591 L346.285714,285.008867 L349.142857,281.000368 L352,290.194173 L354.857143,293.712336 L357.714286,303.470028 L360.571429,300.515752 L363.428571,292.37617 L366.285714,286.737302 L369.142857,285.683079 L372,286.737302 L374.857143,297.892453 L377.714286,298.664733 L380.571429,280.497773 L383.428571,249.336902 L386.285714,280.718424 L389.142857,281.44167 L392,277.482205 L394.857143,294.153639 L397.714286,301.398357 L400.571429,289.581253 L403.428571,289.13995 L406.285714,265.947044 L409.142857,248.785274 L412,267.785805 L414.857143,291.922609 L417.714286,285.621787 L420.571429,280.05647 L423.428571,289.752871 L426.285714,285.965023 L429.142857,282.226208 L432,279.161607 L434.857143,300.013157 L437.714286,304.021657 L440.571429,299.669922 L443.428571,281.331345 L446.285714,279.051281 L449.142857,283.121072 L452,284.175295 L454.857143,299.669922 L457.714286,295.83304 L460.571429,281.282311 L463.428571,265.334123 L466.285714,276.869285 L469.142857,286.296 L472,287.963143 L474.857143,297.831161 L477.714286,298.174396 L480.571429,284.849508 L483.428571,285.008867 L486.285714,276.930577 L489.142857,280.559065 L492,269.857476 L494.857143,287.019246 L497.714286,294.484616 L500.571429,271.022024 L503.428571,277.322846 L506.285714,284.849508 L509.142857,276.427982 L512,291.150329 L514.857143,298.664733 L517.714286,294.717525 L520.571429,295.097536 L523.428571,276.930577 L526.285714,288.024435 L529.142857,286.626977 L532,293.822662 L534.857143,295.83304 L537.714286,302.244187 L540.571429,304.524251 L543.428571,298.554407 L546.285714,301.459649 L549.142857,295.882074 L552,293.651044 L554.857143,304.413926 L557.714286,304.413926 L560.571429,296.102725 L563.428571,282.164916 L566.285714,279.100315 L569.142857,277.040902 L572,285.965023 L574.857143,290.75806 L577.714286,296.323377 L580.571429,279.823561 L583.428571,272.247865 L586.285714,270.960732 L589.142857,271.463327 L592,281.221019 L594.857143,295.269154 L597.714286,298.051812 L600.571429,286.90892 L603.428571,264.43926 L606.285714,277.151228 L609.142857,284.126262 L612,285.008867 L614.857143,296.445961 L617.714286,288.416704 L620.571429,276.538308 L623.428571,278.217709 L626.285714,272.689168 L629.142857,274.307277 L632,287.803784 L634.857143,299.902832 L637.714286,293.76137 L640.571429,243.649001 L643.428571,217.955379 L646.285714,224.305234 L649.142857,241.197319 L652,228.044049 L654.857143,252.793773 L657.714286,290.194173 L660.571429,266.903199 L663.428571,263.495362 L666.285714,275.704736 L669.142857,242.815429 L672,275.925387 L674.857143,297.671802 L677.714286,299.669922 L680.571429,285.29081 L683.428571,288.808973 L686.285714,285.008867 L689.142857,284.788216 L692,285.793405 L694.857143,299.400237 L697.714286,295.943366 L700.571429,285.854697 L703.428571,288.698647 L706.285714,280.608099 L709.142857,284.126262 L712,291.812283 L714.857143,303.29841 L717.714286,304.462959 L720.571429,303.850039 L723.428571,284.898541 L726.285714,286.234708 L729.142857,278.377069 L732,267.785805 L734.857143,288.858007 L737.714286,298.174396 L740.571429,274.699546 L743.428571,290.194173 L746.285714,286.798594 L749.142857,284.395947 L752,296.213051 L754.857143,302.011278 L757.714286,301.962244 L760.571429,272.640134 L763.428571,280.497773 L766.285714,294.325256 L769.142857,296.887264 L772,300.785437 L774.857143,305.750092 L777.714286,306.191395 L780.571429,301.851918 L783.428571,301.398357 L786.285714,303.188085 L789.142857,306.142361 L792,304.91652 L794.857143,307.809504 L797.714286,304.806195 L800.571429,289.13995 L803.428571,297.782127 L806.285714,303.237118 L809.142857,304.806195 L812,305.07588 L814.857143,308.201773 L817.714286,306.583664 L820.571429,297.438892 L823.428571,302.293221 L826.285714,302.575164 L829.142857,290.14514 L832,301.459649 L834.857143,307.91983 L837.714286,308.15274 L840.571429,299.057002 L843.428571,301.680301 L846.285714,302.857108 L849.142857,290.034814 L852,299.338945 L854.857143,304.242308 L857.714286,306.363012 L860.571429,292.425203 L863.428571,296.494994 L866.285714,302.464839 L869.142857,303.188085 L872,304.082949 L874.857143,306.473338 L877.714286,307.037225 L880.571429,294.325256 L883.428571,298.113104 L886.285714,296.274343 L889.142857,296.715646 L892,301.06738 L894.857143,306.142361 L897.714286,304.855228 L900.571429,294.214931 L903.428571,303.960364 L906.285714,304.193274 L909.142857,303.629387 L912,304.91652 L914.857143,306.583664 L917.714286,299.84154 L920.571429,298.726025 L923.428571,300.957055 L926.285714,303.739713 L929.142857,302.967433 L932,304.634577 L934.857143,308.422425 L937.714286,306.693989 L940.571429,281.784906 L943.428571,289.752871 L946.285714,300.626078 L949.142857,302.011278 L952,291.260655 L954.857143,299.338945 L957.714286,306.30172 L960.571429,287.52184 L963.428571,300.515752 L966.285714,284.959833 L969.142857,289.752871 L972,301.006088 L974.857143,299.338945 L977.714286,300.45446 L980.571429,289.311568 L983.428571,278.769338 L986.285714,294.717525 L989.142857,299.228619 L992,302.857108 L994.857143,305.750092 L997.714286,306.583664 L1000.57143,264.561844 L1003.42857,282.618478 L1006.28571,298.444081 L1009.14286,299.228619 L1012,300.785437 L1014.85714,301.398357 L1017.71429,304.352634 L1020.57143,304.131982 L1023.42857,266.167695 L1026.28571,267.736771 L1029.14286,297.500184 L1032,301.851918 L1034.85714,303.237118 L1037.71429,300.895763 L1040.57143,296.887264 L1043.42857,300.957055 L1046.28571,295.600131 L1049.14286,299.620888 L1052,301.900952" id="Shape" stroke="#6207C4" sketch:type="MSShapeGroup"></path>
                <path d="M12,283.121072 L14.8571429,287.52184 L17.7142857,286.577943 L20.5714286,265.616067 L23.4285714,274.527929 L26.2857143,276.489274 L29.1428571,266.841907 L32,268.680668 L34.8571429,281.723614 L37.7142857,268.570343 L40.5714286,249.226576 L43.4285714,259.597189 L46.2857143,274.760838 L49.1428571,275.030523 L52,273.865975 L54.8571429,278.720304 L57.7142857,279.823561 L60.5714286,274.699546 L63.4285714,276.489274 L66.2857143,267.123851 L69.1428571,248.834307 L72,271.13235 L74.8571429,284.67789 L77.7142857,285.352102 L80.5714286,275.925387 L83.4285714,268.962612 L86.2857143,276.317656 L89.1428571,269.354881 L92,270.470396 L94.8571429,282.287501 L97.7142857,284.285621 L100.571429,271.634945 L103.428571,275.986679 L106.285714,276.097005 L109.142857,280.21583 L112,273.865975 L114.857143,285.180485 L117.714286,286.185674 L120.571429,279.664201 L123.428571,271.916888 L126.285714,257.084215 L129.142857,264.328934 L132,276.256364 L134.857143,279.44355 L137.714286,276.820251 L140.571429,254.460916 L143.428571,267.172884 L146.285714,259.756548 L149.142857,257.537776 L152,275.263433 L154.857143,285.965023 L157.714286,287.239897 L160.571429,261.877252 L163.428571,277.874474 L166.285714,262.943734 L169.142857,267.234176 L172,237.630123 L174.857143,266.621256 L177.714286,277.151228 L180.571429,268.790994 L183.428571,267.062559 L186.285714,196.331549 L189.142857,211.433907 L192,224.084583 L194.857143,259.376537 L197.714286,273.473706 L200.571429,261.877252 L203.428571,260.933355 L206.285714,276.317656 L209.142857,291.420014 L212,287.301189 L214.857143,289.532219 L217.714286,290.476117 L220.571429,280.277122 L223.428571,255.919667 L226.285714,266.780615 L229.142857,269.685858 L232,268.288399 L234.857143,286.234708 L237.714286,282.777837 L240.571429,269.624566 L243.428571,280.559065 L246.285714,284.395947 L249.142857,232.11384 L252,268.509051 L254.857143,119.851346 L257.714286,259.879132 L260.571429,263.887631 L263.428571,278.879663 L266.285714,288.196053 L269.142857,289.250276 L272,283.010747 L274.857143,291.199363 L277.714286,285.572754 L280.571429,280.326155 L283.428571,283.844318 L286.285714,296.887264 L289.142857,300.344134 L292,298.284722 L294.857143,292.75618 L297.714286,290.083848 L300.571429,285.401136 L303.428571,250.513709 L306.285714,246.443918 L309.142857,283.403016 L312,281.551996 L314.857143,288.576063 L317.714286,292.37617 L320.571429,278.940955 L323.428571,277.482205 L326.285714,274.478895 L329.142857,277.653823 L332,282.005557 L334.857143,290.917419 L337.714286,289.360601 L340.571429,272.137539 L343.428571,260.651412 L346.285714,258.922976 L349.142857,260.259143 L352,271.74527 L354.857143,279.774527 L357.714286,284.236587 L360.571429,283.280431 L363.428571,275.153108 L366.285714,272.309157 L369.142857,264.672169 L372,268.509051 L374.857143,284.175295 L377.714286,281.613288 L380.571429,255.527398 L383.428571,201.345238 L386.285714,252.242144 L389.142857,267.957422 L392,267.28321 L394.857143,281.502962 L397.714286,285.180485 L400.571429,274.368569 L403.428571,266.621256 L406.285714,239.076615 L409.142857,228.656969 L412,237.127528 L414.857143,258.371348 L417.714286,270.51943 L420.571429,265.6651 L423.428571,276.378948 L426.285714,274.037592 L429.142857,257.366159 L432,257.697136 L434.857143,282.667511 L437.714286,287.350223 L440.571429,286.234708 L443.428571,270.078127 L446.285714,260.099783 L449.142857,262.882442 L452,267.062559 L454.857143,283.341724 L457.714286,271.414293 L460.571429,214.670126 L463.428571,196.380583 L466.285714,215.33208 L469.142857,248.172353 L472,266.67029 L474.857143,270.850407 L477.714286,270.740081 L480.571429,263.936665 L483.428571,264.892821 L486.285714,250.12144 L489.142857,221.522576 L492,137.466678 L494.857143,231.831896 L497.714286,263.556654 L500.571429,221.914845 L503.428571,233.891309 L506.285714,235.178442 L509.142857,245.218077 L512,263.605688 L514.857143,281.67458 L517.714286,264.892821 L520.571429,274.98149 L523.428571,249.900789 L526.285714,265.89801 L529.142857,255.417072 L532,239.137907 L534.857143,249.116251 L537.714286,276.820251 L540.571429,282.336534 L543.428571,275.422792 L546.285714,278.487394 L549.142857,274.920198 L552,258.371348 L554.857143,277.371879 L557.714286,273.424672 L560.571429,269.906509 L563.428571,252.855065 L566.285714,231.280268 L569.142857,254.191231 L572,249.50852 L574.857143,255.858375 L577.714286,277.653823 L580.571429,221.240633 L583.428571,212.880399 L586.285714,234.737139 L589.142857,243.710293 L592,261.987578 L594.857143,279.774527 L597.714286,281.44167 L600.571429,259.989458 L603.428571,245.598088 L606.285714,244.151596 L609.142857,249.116251 L612,264.169575 L614.857143,274.037592 L617.714286,268.680668 L620.571429,247.167164 L623.428571,244.212888 L626.285714,255.527398 L629.142857,255.024803 L632,266.228987 L634.857143,281.000368 L637.714286,274.527929 L640.571429,231.169942 L643.428571,177.539411 L646.285714,205.696972 L649.142857,233.842275 L652,212.941691 L654.857143,257.366159 L657.714286,275.484085 L660.571429,237.630123 L663.428571,242.374127 L666.285714,246.051649 L669.142857,201.847832 L672,225.02848 L674.857143,273.473706 L677.714286,280.559065 L680.571429,248.895599 L683.428571,256.250644 L686.285714,256.140318 L689.142857,259.425571 L692,258.261022 L694.857143,275.153108 L697.714286,277.151228 L700.571429,264.169575 L703.428571,234.786173 L706.285714,239.640502 L709.142857,245.65938 L712,254.240265 L714.857143,281.06166 L717.714286,284.126262 L720.571429,282.336534 L723.428571,261.264332 L726.285714,249.618845 L729.142857,243.207698 L732,230.213787 L734.857143,252.855065 L737.714286,271.696237 L740.571429,247.829118 L743.428571,260.823029 L746.285714,264.500552 L749.142857,263.777306 L752,273.081437 L754.857143,280.497773 L757.714286,282.115883 L760.571429,166.899113 L763.428571,239.689535 L766.285714,260.43076 L769.142857,275.312467 L772,283.231398 L774.857143,289.973522 L777.714286,291.763249 L780.571429,281.282311 L783.428571,280.497773 L786.285714,284.567564 L789.142857,288.073469 L792,292.535529 L794.857143,295.048502 L797.714286,287.301189 L800.571429,258.763617 L803.428571,273.253054 L806.285714,282.336534 L809.142857,283.231398 L812,286.516651 L814.857143,293.258775 L817.714286,292.032934 L820.571429,271.524619 L823.428571,278.83063 L826.285714,286.577943 L829.142857,269.857476 L832,283.010747 L834.857143,293.320067 L837.714286,289.973522 L840.571429,258.481674 L843.428571,270.960732 L846.285714,282.336534 L849.142857,270.960732 L852,268.852286 L854.857143,283.783026 L857.714286,286.406325 L860.571429,261.938545 L863.428571,258.873943 L866.285714,264.610877 L869.142857,281.613288 L872,278.83063 L874.857143,289.581253 L877.714286,286.90892 L880.571429,255.9687 L883.428571,252.793773 L886.285714,251.678258 L889.142857,247.326523 L892,268.741961 L894.857143,284.395947 L897.714286,275.815061 L900.571429,257.366159 L903.428571,281.723614 L906.285714,280.448739 L909.142857,283.954644 L912,288.637355 L914.857143,292.75618 L917.714286,277.9848 L920.571429,268.741961 L923.428571,269.51424 L926.285714,268.239366 L929.142857,274.086626 L932,283.783026 L934.857143,287.914109 L937.714286,287.190863 L940.571429,258.028113 L943.428571,247.387815 L946.285714,273.142729 L949.142857,278.107384 L952,277.261554 L954.857143,278.83063 L957.714286,287.350223 L960.571429,265.836718 L963.428571,274.809872 L966.285714,269.011645 L969.142857,268.349691 L972,280.105504 L974.857143,282.728803 L977.714286,278.487394 L980.571429,256.250644 L983.428571,251.849875 L986.285714,269.967801 L989.142857,275.766028 L992,280.779716 L994.857143,291.873575 L997.714286,284.457239 L1000.57143,214.71916 L1003.42857,256.642913 L1006.28571,272.468516 L1009.14286,277.764148 L1012,278.940955 L1014.85714,277.322846 L1017.71429,282.287501 L1020.57143,282.005557 L1023.42857,247.939443 L1026.28571,222.527765 L1029.14286,267.565153 L1032,280.779716 L1034.85714,278.769338 L1037.71429,278.156417 L1040.57143,268.619376 L1043.42857,289.078658 L1046.28571,269.072938 L1049.14286,270.629755 L1052,279.602909" id="Shape" stroke="#2A628F" sketch:type="MSShapeGroup"></path>
                <path d="M12,268.741961 L14.8571429,275.140849 L17.7142857,274.037592 L20.5714286,237.973358 L23.4285714,257.476484 L26.2857143,259.04556 L29.1428571,248.834307 L32,240.302456 L34.8571429,262.490173 L37.7142857,243.036081 L40.5714286,218.176031 L43.4285714,235.178442 L46.2857143,253.578311 L49.1428571,251.224697 L52,250.513709 L54.8571429,264.010215 L57.7142857,261.595309 L60.5714286,254.571242 L63.4285714,251.408573 L66.2857143,234.565521 L69.1428571,216.668247 L72,247.89041 L74.8571429,270.127161 L77.7142857,271.254934 L80.5714286,255.294488 L83.4285714,243.992236 L86.2857143,255.024803 L89.1428571,245.892289 L92,244.384505 L94.8571429,267.185143 L97.7142857,265.383157 L100.571429,240.976668 L103.428571,253.186042 L106.285714,251.898909 L109.142857,257.022923 L112,242.643812 L114.857143,271.242676 L117.714286,270.580722 L120.571429,259.425571 L123.428571,248.613656 L126.285714,225.592367 L129.142857,237.237854 L132,248.883341 L134.857143,261.938545 L137.714286,254.191231 L140.571429,222.625833 L143.428571,243.146406 L146.285714,225.089772 L149.142857,219.634781 L152,249.226576 L154.857143,271.13235 L157.714286,271.181384 L160.571429,225.923344 L163.428571,254.853185 L166.285714,226.928533 L169.142857,240.253422 L172,176.705839 L174.857143,233.229355 L177.714286,255.858375 L180.571429,239.027581 L183.428571,228.485351 L186.285714,128.101254 L189.142857,153.623258 L192,156.577534 L194.857143,235.570711 L197.714286,246.100682 L200.571429,225.862052 L203.428571,220.738038 L206.285714,250.89372 L209.142857,281.221019 L212,275.704736 L214.857143,279.664201 L217.714286,280.277122 L220.571429,261.766927 L223.428571,214.498509 L226.285714,234.945532 L229.142857,242.815429 L232,237.630123 L234.857143,268.006456 L237.714286,266.339313 L240.571429,247.105872 L243.428571,263.66698 L246.285714,267.062559 L249.142857,180.714338 L252,244.433539 L254.857143,14 L257.714286,225.371716 L260.571429,229.662158 L263.428571,256.079026 L266.285714,271.193642 L269.142857,273.473706 L272,271.022024 L274.857143,282.508152 L277.714286,266.903199 L280.571429,262.208229 L283.428571,267.565153 L286.285714,289.691578 L289.142857,295.551097 L292,292.817472 L294.857143,282.606219 L297.714286,284.285621 L300.571429,278.095125 L303.428571,241.871532 L306.285714,236.073305 L309.142857,276.489274 L312,271.13235 L314.857143,278.818371 L317.714286,282.508152 L320.571429,256.593879 L323.428571,256.97389 L326.285714,247.559433 L329.142857,255.858375 L332,264.2799 L334.857143,281.723614 L337.714286,279.161607 L340.571429,247.277489 L343.428571,228.706003 L346.285714,229.931843 L349.142857,227.25951 L352,247.939443 L354.857143,259.486863 L357.714286,273.706615 L360.571429,269.796184 L363.428571,253.529277 L366.285714,245.046459 L369.142857,236.355249 L372,241.246353 L374.857143,268.067748 L377.714286,266.278021 L380.571429,222.025171 L383.428571,136.68214 L386.285714,218.960569 L389.142857,235.399093 L392,230.765415 L394.857143,261.656601 L397.714286,272.578842 L400.571429,249.949822 L403.428571,241.761206 L406.285714,191.023659 L409.142857,163.442242 L412,190.913333 L414.857143,236.293957 L417.714286,242.141217 L420.571429,231.721571 L423.428571,252.131819 L426.285714,246.002615 L429.142857,225.592367 L432,222.858742 L434.857143,268.680668 L437.714286,277.371879 L440.571429,271.90463 L443.428571,237.409472 L446.285714,225.151064 L449.142857,232.003514 L452,237.237854 L454.857143,269.011645 L457.714286,253.247334 L460.571429,181.952437 L463.428571,147.714706 L466.285714,178.201365 L469.142857,220.468353 L472,240.633433 L474.857143,254.681567 L477.714286,254.914477 L480.571429,234.786173 L483.428571,235.901688 L486.285714,213.052017 L489.142857,188.081641 L492,93.3241531 L494.857143,204.851142 L497.714286,244.04127 L500.571429,178.936869 L503.428571,197.214154 L506.285714,206.027949 L509.142857,207.646059 L512,240.756017 L514.857143,266.339313 L517.714286,245.610346 L520.571429,256.079026 L523.428571,212.831365 L526.285714,239.922445 L529.142857,228.044049 L532,218.960569 L534.857143,230.949291 L537.714286,265.064438 L540.571429,272.860785 L543.428571,259.977199 L546.285714,265.947044 L549.142857,256.802272 L552,238.022392 L554.857143,267.785805 L557.714286,263.838598 L560.571429,252.009235 L563.428571,221.019981 L566.285714,196.380583 L569.142857,217.232133 L572,221.473542 L574.857143,232.616434 L577.714286,259.977199 L580.571429,187.064193 L583.428571,171.128264 L586.285714,191.697871 L589.142857,201.17362 L592,229.208597 L594.857143,261.043681 L597.714286,265.493483 L600.571429,232.898378 L603.428571,196.037347 L606.285714,207.302824 L609.142857,219.242512 L612,235.178442 L614.857143,256.483553 L617.714286,243.097373 L620.571429,209.705471 L623.428571,208.430597 L626.285714,214.216565 L629.142857,215.33208 L632,240.032771 L634.857143,266.903199 L637.714286,254.289298 L640.571429,160.818943 L643.428571,81.4947902 L646.285714,116.002207 L649.142857,161.039595 L652,126.985739 L654.857143,196.159931 L657.714286,251.678258 L660.571429,190.533322 L663.428571,191.869489 L666.285714,207.756385 L669.142857,130.663262 L672,186.953868 L674.857143,257.145507 L677.714286,266.228987 L680.571429,220.18641 L683.428571,231.059617 L686.285714,227.149185 L689.142857,230.213787 L692,230.054427 L694.857143,260.553345 L697.714286,259.094594 L700.571429,236.024272 L703.428571,209.48482 L706.285714,206.2486 L709.142857,215.785641 L712,232.052548 L714.857143,270.36007 L717.714286,274.589221 L720.571429,272.186573 L723.428571,232.162873 L726.285714,221.853553 L729.142857,207.584767 L732,183.999591 L734.857143,227.713072 L737.714286,255.870633 L740.571429,208.528664 L743.428571,237.017203 L746.285714,237.299146 L749.142857,234.173252 L752,255.294488 L754.857143,268.509051 L757.714286,270.078127 L760.571429,125.539247 L763.428571,206.187308 L766.285714,240.756017 L769.142857,258.19973 L772,270.016835 L774.857143,281.723614 L777.714286,283.954644 L780.571429,269.13423 L783.428571,267.89613 L786.285714,273.755649 L789.142857,280.21583 L792,283.452049 L794.857143,288.858007 L797.714286,278.107384 L800.571429,233.903567 L803.428571,257.035182 L806.285714,271.573653 L809.142857,274.037592 L812,277.592531 L814.857143,287.460548 L817.714286,284.616598 L820.571429,254.963511 L823.428571,267.123851 L826.285714,275.153108 L829.142857,246.002615 L832,270.470396 L834.857143,287.239897 L837.714286,284.126262 L840.571429,243.538675 L843.428571,258.641033 L846.285714,271.193642 L849.142857,246.995546 L852,254.191231 L854.857143,274.025334 L857.714286,278.769338 L860.571429,240.363748 L863.428571,241.368937 L866.285714,253.075716 L869.142857,270.801373 L872,268.913578 L874.857143,282.054591 L877.714286,279.946145 L880.571429,236.293957 L883.428571,236.906877 L886.285714,233.952601 L889.142857,230.042169 L892,255.809341 L894.857143,276.538308 L897.714286,266.67029 L900.571429,237.581089 L903.428571,271.683978 L906.285714,270.642014 L909.142857,273.584031 L912,279.553876 L914.857143,285.339844 L917.714286,263.826339 L920.571429,253.467985 L923.428571,256.471295 L926.285714,257.979079 L929.142857,263.05406 L932,274.417603 L934.857143,282.336534 L937.714286,279.884853 L940.571429,225.813018 L943.428571,223.140686 L946.285714,259.768806 L949.142857,266.118661 L952,254.522208 L954.857143,264.169575 L957.714286,279.651943 L960.571429,239.358558 L963.428571,261.325624 L966.285714,239.971479 L969.142857,244.102562 L972,267.111592 L974.857143,268.067748 L977.714286,264.941854 L980.571429,231.562211 L983.428571,216.619213 L986.285714,250.685327 L989.142857,260.994647 L992,269.636824 L994.857143,283.623667 L997.714286,277.040902 L1000.57143,165.281004 L1003.42857,225.26139 L1006.28571,256.912598 L1009.14286,262.992768 L1012,265.726392 L1014.85714,264.721203 L1017.71429,272.640134 L1020.57143,272.137539 L1023.42857,200.107138 L1026.28571,176.264536 L1029.14286,251.065337 L1032,268.631635 L1034.85714,268.006456 L1037.71429,265.05218 L1040.57143,251.50664 L1043.42857,276.035713 L1046.28571,250.673068 L1049.14286,256.250644 L1052,267.503861" id="Shape" stroke="#43217A" sketch:type="MSShapeGroup"></path>
                <g transform="translate(925.000000, 0.000000)">
                    <rect id="Rectangle-path" fill="#6207C4" sketch:type="MSShapeGroup" x="109" y="4" width="18" height="18"></rect>
                    <text id="Returning-Visitors" fill="#000000" sketch:type="MSTextLayer" font-family="Helvetica" font-size="13" font-weight="normal">
                        <tspan x="0" y="13">Returning Visitors</tspan>
                    </text>
                </g>
                <g transform="translate(955.000000, 20.000000)">
                    <rect id="Rectangle-path" fill="#2A628F" sketch:type="MSShapeGroup" x="79" y="4" width="18" height="18"></rect>
                    <text id="New-Visitors" fill="#000000" sketch:type="MSTextLayer" font-family="Helvetica" font-size="13" font-weight="normal">
                        <tspan x="0" y="13">New Visitors</tspan>
                    </text>
                </g>
                <g transform="translate(954.000000, 40.000000)">
                    <rect id="Rectangle-path" fill="#43217A" sketch:type="MSShapeGroup" x="80" y="4" width="18" height="18"></rect>
                    <text id="Total-Visitors" fill="#000000" sketch:type="MSTextLayer" font-family="Helvetica" font-size="13" font-weight="normal">
                        <tspan x="0" y="13">Total Visitors</tspan>
                    </text>
                </g>
            </g>
        </g>
    </g>
</svg>