<?xml version="1.0" encoding="utf-8"?>
<!-- Generator: Adobe Illustrator 16.0.3, SVG Export Plug-In . SVG Version: 6.00 Build 0)  -->
<!DOCTYPE svg PUBLIC "-//W3C//DTD SVG 1.1//EN" "http://www.w3.org/Graphics/SVG/1.1/DTD/svg11.dtd">
<svg version="1.1" id="Layer_1" xmlns="http://www.w3.org/2000/svg" xmlns:xlink="http://www.w3.org/1999/xlink" x="0px" y="0px"
	 width="720px" height="300px" viewBox="0 100 720 300" enable-background="new 0 100 720 300" xml:space="preserve">
<g transform="translate(40,40)">
	<g transform="translate(0,410)">
		<g transform="translate(30,0)">
			<path fill="none" d="M0-50"/>
		</g>
		<g transform="translate(79,0)">
			<path fill="none" d="M0-50"/>
		</g>
		<g transform="translate(128,0)">
			<path fill="none" d="M0-50"/>
		</g>
		<g transform="translate(177,0)">
			<path fill="none" d="M0-50"/>
		</g>
		<g transform="translate(226,0)">
			<path fill="none" d="M0-50"/>
		</g>
		<g transform="translate(275,0)">
			<path fill="none" d="M0-50"/>
		</g>
		<g transform="translate(324,0)">
			<path fill="none" d="M0-50"/>
		</g>
		<g transform="translate(373,0)">
			<path fill="none" d="M0-50"/>
		</g>
		<g transform="translate(422,0)">
			<path fill="none" d="M0-50"/>
		</g>
		<g transform="translate(471,0)">
			<path fill="none" d="M0-50"/>
		</g>
		<g transform="translate(520,0)">
			<path fill="none" d="M0-50"/>
		</g>
		<g transform="translate(569,0)">
			<path fill="none" d="M0-50"/>
		</g>
	</g>
	<g>
		<g transform="translate(0,410)">
			<line fill="none" x1="0" y1="-50" x2="-6" y2="-50"/>
		</g>
		<g transform="translate(0,375.8333333333333)">
			<line fill="none" x1="0" y1="-50" x2="-6" y2="-50"/>
		</g>
		<g transform="translate(0,341.6666666666667)">
			<line fill="none" x1="0" y1="-50" x2="-6" y2="-50"/>
		</g>
		<g transform="translate(0,307.5)">
			<line fill="none" x1="0" y1="-50" x2="-6" y2="-50"/>
		</g>
		<g transform="translate(0,273.33333333333337)">
			<line fill="none" x1="0" y1="-50" x2="-6" y2="-50"/>
		</g>
		<g transform="translate(0,239.16666666666663)">
			<line fill="none" x1="0" y1="-50.001" x2="-6" y2="-50.001"/>
		</g>
		<g transform="translate(0,205)">
			<line fill="none" x1="0" y1="-50" x2="-6" y2="-50"/>
		</g>
		<g transform="translate(0,170.83333333333331)">
			<line fill="none" x1="0" y1="-50" x2="-6" y2="-50"/>
		</g>
		<g transform="translate(0,136.66666666666669)">
			<line fill="none" x1="0" y1="-50" x2="-6" y2="-50"/>
		</g>
		<g transform="translate(0,102.5)">
			<line fill="none" x1="0" y1="-50" x2="-6" y2="-50"/>
		</g>
		<g transform="translate(0,68.33333333333331)">
			<line fill="none" x1="0" y1="-50" x2="-6" y2="-50"/>
		</g>
		<g transform="translate(0,34.16666666666668)">
			<line fill="none" x1="0" y1="-50" x2="-6" y2="-50"/>
		</g>
		<g transform="translate(0,0)">
			<line fill="none" x1="0" y1="-50" x2="-6" y2="-50"/>
		</g>
	</g>
	<g>
		<rect x="8" y="357.663" fill="#9EDAE5" width="43" height="2.337"/>
		<rect x="155" y="347.689" fill="#9EDAE5" width="43" height="12.311"/>
		<rect x="57" y="358.975" fill="#9EDAE5" width="43" height="1.025"/>
		<polygon fill="#9EDAE5" points="106,360 149,360 149,360 		"/>
		<polygon fill="#9EDAE5" points="204,360 247,360 247,360 		"/>
		<rect x="253" y="359.282" fill="#9EDAE5" width="43" height="0.718"/>
		<rect x="547" y="358.449" fill="#9EDAE5" width="43" height="1.551"/>
		<polygon fill="#9EDAE5" points="302,360 345,360 345,360 		"/>
		<polygon fill="#9EDAE5" points="498,360 541,360 541,360 		"/>
		<polygon fill="#9EDAE5" points="351,360 394,360 394,360 		"/>
		<polygon fill="#9EDAE5" points="400,360 443,360 443,360 		"/>
		<polygon fill="#9EDAE5" points="449,360 492,360 492,360 		"/>
	</g>
	<g>
		<rect x="8" y="325.492" fill="#3182BD" width="43" height="32.171"/>
		<rect x="155" y="287.336" fill="#3182BD" width="43" height="60.354"/>
		<rect x="57" y="351.539" fill="#3182BD" width="43" height="7.436"/>
		<rect x="106" y="358.08" fill="#3182BD" width="43" height="1.92"/>
		<rect x="204" y="358.292" fill="#3182BD" width="43" height="1.708"/>
		<rect x="253" y="351.854" fill="#3182BD" width="43" height="7.428"/>
		<rect x="547" y="351.055" fill="#3182BD" width="43" height="7.395"/>
		<rect x="302" y="358.295" fill="#3182BD" width="43" height="1.705"/>
		<rect x="498" y="338.748" fill="#3182BD" width="43" height="21.252"/>
		<rect x="351" y="356.361" fill="#3182BD" width="43" height="3.639"/>
		<polygon fill="#3182BD" points="400,360 443,360 443,360 		"/>
		<rect x="449" y="359.487" fill="#3182BD" width="43" height="0.513"/>
	</g>
	<g>
		<rect x="8" y="317.959" fill="#C6DBEF" width="43" height="7.533"/>
		<rect x="155" y="231.655" fill="#C6DBEF" width="43" height="55.681"/>
		<rect x="57" y="351.17" fill="#C6DBEF" width="43" height="0.369"/>
		<rect x="106" y="347.857" fill="#C6DBEF" width="43" height="10.223"/>
		<rect x="204" y="357.424" fill="#C6DBEF" width="43" height="0.868"/>
		<rect x="253" y="346.456" fill="#C6DBEF" width="43" height="5.398"/>
		<rect x="547" y="342.097" fill="#C6DBEF" width="43" height="8.958"/>
		<rect x="302" y="351.462" fill="#C6DBEF" width="43" height="6.833"/>
		<rect x="498" y="333.247" fill="#C6DBEF" width="43" height="5.501"/>
		<polygon fill="#C6DBEF" points="351,356.361 394,356.361 394,356.361 		"/>
		<polygon fill="#C6DBEF" points="400,360 443,360 443,360 		"/>
		<polygon fill="#C6DBEF" points="449,359.487 492,359.487 492,359.487 		"/>
	</g>
	<g>
		<polygon fill="#FDD0A2" points="8,317.959 51,317.959 51,317.959 		"/>
		<rect x="155" y="211.189" fill="#FDD0A2" width="43" height="20.466"/>
		<rect x="57" y="350.474" fill="#FDD0A2" width="43" height="0.696"/>
		<rect x="106" y="346.148" fill="#FDD0A2" width="43" height="1.709"/>
		<rect x="204" y="352.295" fill="#FDD0A2" width="43" height="5.129"/>
		<rect x="253" y="344.905" fill="#FDD0A2" width="43" height="1.551"/>
		<polygon fill="#FDD0A2" points="547,342.097 590,342.097 590,342.097 		"/>
		<rect x="302" y="346.775" fill="#FDD0A2" width="43" height="4.687"/>
		<polygon fill="#FDD0A2" points="498,333.247 541,333.247 541,333.247 		"/>
		<rect x="351" y="352.944" fill="#FDD0A2" width="43" height="3.417"/>
		<polygon fill="#FDD0A2" points="400,360 443,360 443,360 		"/>
		<polygon fill="#FDD0A2" points="449,359.487 492,359.487 492,359.487 		"/>
	</g>
	<g>
		<rect x="8" y="304.955" fill="#FD8D3C" width="43" height="13.004"/>
		<rect x="155" y="90.814" fill="#FD8D3C" width="43" height="120.375"/>
		<rect x="57" y="327.128" fill="#FD8D3C" width="43" height="23.346"/>
		<rect x="106" y="289.444" fill="#FD8D3C" width="43" height="56.704"/>
		<rect x="204" y="343.183" fill="#FD8D3C" width="43" height="9.112"/>
		<rect x="253" y="316.589" fill="#FD8D3C" width="43" height="28.316"/>
		<rect x="547" y="314.453" fill="#FD8D3C" width="43" height="27.644"/>
		<rect x="302" y="310.343" fill="#FD8D3C" width="43" height="36.433"/>
		<polygon fill="#FD8D3C" points="498,333.247 541,333.247 541,333.247 		"/>
		<rect x="351" y="340.123" fill="#FD8D3C" width="43" height="12.821"/>
		<polygon fill="#FD8D3C" points="400,360 443,360 443,360 		"/>
		<polygon fill="#FD8D3C" points="449,359.487 492,359.487 492,359.487 		"/>
	</g>
	<g>
		<polygon fill="#74C476" points="8,304.955 51,304.955 51,304.955 		"/>
		<rect x="155" y="90.63" fill="#74C476" width="43" height="0.185"/>
		<polygon fill="#74C476" points="57,327.128 100,327.128 100,327.128 		"/>
		<polygon fill="#74C476" points="106,289.444 149,289.444 149,289.444 		"/>
		<polygon fill="#74C476" points="204,343.183 247,343.183 247,343.183 		"/>
		<polygon fill="#74C476" points="253,316.589 296,316.589 296,316.589 		"/>
		<polygon fill="#74C476" points="547,314.453 590,314.453 590,314.453 		"/>
		<polygon fill="#74C476" points="302,310.343 345,310.343 345,310.343 		"/>
		<polygon fill="#74C476" points="498,333.247 541,333.247 541,333.247 		"/>
		<polygon fill="#74C476" points="351,340.123 394,340.123 394,340.123 		"/>
		<polygon fill="#74C476" points="400,360 443,360 443,360 		"/>
		<polygon fill="#74C476" points="449,359.487 492,359.487 492,359.487 		"/>
	</g>
	<g>
		<rect x="8" y="304.784" fill="#9ECAE1" width="43" height="0.171"/>
		<rect x="155" y="63.854" fill="#9ECAE1" width="43" height="26.776"/>
		<polygon fill="#9ECAE1" points="57,327.128 100,327.128 100,327.128 		"/>
		<polygon fill="#9ECAE1" points="106,289.444 149,289.444 149,289.444 		"/>
		<rect x="204" y="341.439" fill="#9ECAE1" width="43" height="1.743"/>
		<polygon fill="#9ECAE1" points="253,316.589 296,316.589 296,316.589 		"/>
		<rect x="547" y="314.005" fill="#9ECAE1" width="43" height="0.448"/>
		<polygon fill="#9ECAE1" points="302,310.343 345,310.343 345,310.343 		"/>
		<polygon fill="#9ECAE1" points="498,333.247 541,333.247 541,333.247 		"/>
		<polygon fill="#9ECAE1" points="351,340.123 394,340.123 394,340.123 		"/>
		<polygon fill="#9ECAE1" points="400,360 443,360 443,360 		"/>
		<polygon fill="#9ECAE1" points="449,359.487 492,359.487 492,359.487 		"/>
	</g>
	<g>
		<rect x="8" y="289.86" fill="#E6550D" width="43" height="14.924"/>
		<rect x="155" y="45.365" fill="#E6550D" width="43" height="18.489"/>
		<rect x="57" y="326.396" fill="#E6550D" width="43" height="0.731"/>
		<rect x="106" y="282.529" fill="#E6550D" width="43" height="6.915"/>
		<rect x="204" y="317.944" fill="#E6550D" width="43" height="23.495"/>
		<rect x="253" y="316.315" fill="#E6550D" width="43" height="0.273"/>
		<rect x="547" y="309.905" fill="#E6550D" width="43" height="4.1"/>
		<rect x="302" y="308.607" fill="#E6550D" width="43" height="1.735"/>
		<polygon fill="#E6550D" points="498,333.247 541,333.247 541,333.247 		"/>
		<polygon fill="#E6550D" points="351,340.123 394,340.123 394,340.123 		"/>
		<polygon fill="#E6550D" points="400,360 443,360 443,360 		"/>
		<polygon fill="#E6550D" points="449,359.487 492,359.487 492,359.487 		"/>
	</g>
	<g>
		<rect x="8" y="270.221" fill="#31A354" width="43" height="19.64"/>
		<rect x="155" y="36.061" fill="#31A354" width="43" height="9.304"/>
		<rect x="57" y="325.604" fill="#31A354" width="43" height="0.793"/>
		<polygon fill="#31A354" points="106,282.529 149,282.529 149,282.529 		"/>
		<rect x="204" y="317.739" fill="#31A354" width="43" height="0.205"/>
		<rect x="253" y="313.172" fill="#31A354" width="43" height="3.144"/>
		<rect x="547" y="303.57" fill="#31A354" width="43" height="6.335"/>
		<rect x="302" y="307.215" fill="#31A354" width="43" height="1.393"/>
		<rect x="498" y="332.387" fill="#31A354" width="43" height="0.86"/>
		<polygon fill="#31A354" points="351,340.123 394,340.123 394,340.123 		"/>
		<rect x="400" y="358.975" fill="#31A354" width="43" height="1.025"/>
		<polygon fill="#31A354" points="449,359.487 492,359.487 492,359.487 		"/>
	</g>
	<g>
		<rect x="8" y="226.46" fill="#6BAED6" width="43" height="43.761"/>
		<rect x="155" y="19.76" fill="#6BAED6" width="43" height="16.301"/>
		<rect x="57" y="322.965" fill="#6BAED6" width="43" height="2.639"/>
		<rect x="106" y="233.782" fill="#6BAED6" width="43" height="48.747"/>
		<rect x="204" y="313.154" fill="#6BAED6" width="43" height="4.585"/>
		<rect x="253" y="305.955" fill="#6BAED6" width="43" height="7.217"/>
		<rect x="547" y="303.229" fill="#6BAED6" width="43" height="0.341"/>
		<rect x="302" y="296.704" fill="#6BAED6" width="43" height="10.51"/>
		<polygon fill="#6BAED6" points="498,332.387 541,332.387 541,332.387 		"/>
		<rect x="351" y="339.098" fill="#6BAED6" width="43" height="1.025"/>
		<polygon fill="#6BAED6" points="400,358.975 443,358.975 443,358.975 		"/>
		<polygon fill="#6BAED6" points="449,359.487 492,359.487 492,359.487 		"/>
	</g>
	<g>
		<rect x="8" y="195.977" fill="#FDAE6B" width="43" height="30.483"/>
		<rect x="155" y="-17.837" fill="#FDAE6B" width="43" height="37.597"/>
		<rect x="57" y="315.752" fill="#FDAE6B" width="43" height="7.213"/>
		<rect x="106" y="183.52" fill="#FDAE6B" width="43" height="50.263"/>
		<rect x="204" y="311.446" fill="#FDAE6B" width="43" height="1.708"/>
		<rect x="253" y="286.299" fill="#FDAE6B" width="43" height="19.656"/>
		<rect x="547" y="286.031" fill="#FDAE6B" width="43" height="17.198"/>
		<rect x="302" y="294.778" fill="#FDAE6B" width="43" height="1.926"/>
		<rect x="498" y="332.236" fill="#FDAE6B" width="43" height="0.15"/>
		<rect x="351" y="338.756" fill="#FDAE6B" width="43" height="0.342"/>
		<rect x="400" y="358.053" fill="#FDAE6B" width="43" height="0.922"/>
		<rect x="449" y="357.779" fill="#FDAE6B" width="43" height="1.708"/>
	</g>
</g>
</svg>
