<?xml version="1.0" encoding="UTF-8" standalone="no"?>
<svg width="1356px" height="538px" viewBox="0 0 1356 538" version="1.1" xmlns="http://www.w3.org/2000/svg" xmlns:xlink="http://www.w3.org/1999/xlink" xmlns:sketch="http://www.bohemiancoding.com/sketch/ns">
    <!-- Generator: Sketch 3.3.2 (12043) - http://www.bohemiancoding.com/sketch -->
    <title>Slice 1</title>
    <desc>Created with Sketch.</desc>
    <defs></defs>
    <g id="Page-1" stroke="none" stroke-width="1" fill="none" fill-rule="evenodd" sketch:type="MSPage">
        <g id="tmp" sketch:type="MSLayerGroup">
            <g id="Group" transform="translate(0.500000, 0.500000)" sketch:type="MSShapeGroup">
                <rect id="Rectangle-path" opacity="0" fill="#000000" x="0" y="0" width="1355" height="536"></rect>
                <g id="Shape" fill="#000000">
                    <g transform="translate(0.000000, 36.000000)">
                        <path d="M0,500 L1355,500"></path>
                        <path d="M0,455 L1355,455"></path>
                        <path d="M0,410 L1355,410"></path>
                        <path d="M0,364 L1355,364"></path>
                        <path d="M0,319 L1355,319"></path>
                        <path d="M0,273 L1355,273"></path>
                        <path d="M0,228 L1355,228"></path>
                        <path d="M0,182 L1355,182"></path>
                        <path d="M0,137 L1355,137"></path>
                        <path d="M0,91 L1355,91"></path>
                        <path d="M0,46 L1355,46"></path>
                        <path d="M0,0 L1355,0"></path>
                    </g>
                    <path d="M339,0 L339,536"></path>
                </g>
                <g transform="translate(4.000000, 49.000000)" id="Shape">
                    <g>
                        <g stroke="#1F77B4" fill="#1F77B4">
                            <path d="M0.0588235294,477.905691 L0.0588235294,414.245529 L31.9411765,414.245529 L31.9411765,477.905691 L0.0588235294,477.905691 Z"></path>
                            <path d="M40.0588235,477.905691 L40.0588235,414.245529 L71.9411765,414.245529 L71.9411765,477.905691 L40.0588235,477.905691 Z"></path>
                            <path d="M80.0588235,477.905691 L80.0588235,414.245529 L111.941176,414.245529 L111.941176,477.905691 L80.0588235,477.905691 Z"></path>
                            <path d="M120.058824,477.905691 L120.058824,414.245529 L151.941176,414.245529 L151.941176,477.905691 L120.058824,477.905691 Z"></path>
                            <path d="M160.058824,477.905691 L160.058824,414.245529 L191.941176,414.245529 L191.941176,477.905691 L160.058824,477.905691 Z"></path>
                            <path d="M200.058824,459.717074 L200.058824,396.056912 L231.941176,396.056912 L231.941176,459.717074 L200.058824,459.717074 Z"></path>
                            <path d="M240.058824,459.717074 L240.058824,396.056912 L271.941176,396.056912 L271.941176,459.717074 L240.058824,459.717074 Z"></path>
                            <path d="M279.058824,459.717074 L279.058824,396.056912 L310.941176,396.056912 L310.941176,459.717074 L279.058824,459.717074 Z"></path>
                            <path d="M319.058824,432.434147 L319.058824,368.773985 L350.941176,368.773985 L350.941176,432.434147 L319.058824,432.434147 Z"></path>
                            <path d="M359.058824,432.434147 L359.058824,368.773985 L390.941176,368.773985 L390.941176,432.434147 L359.058824,432.434147 Z"></path>
                            <path d="M399.058824,432.434147 L399.058824,368.773985 L430.941176,368.773985 L430.941176,432.434147 L399.058824,432.434147 Z"></path>
                            <path d="M439.058824,386.962603 L439.058824,323.302441 L470.941176,323.302441 L470.941176,386.962603 L439.058824,386.962603 Z"></path>
                            <path d="M479.058824,386.962603 L479.058824,323.302441 L510.941176,323.302441 L510.941176,386.962603 L479.058824,386.962603 Z"></path>
                            <path d="M519.058824,386.962603 L519.058824,323.302441 L550.941176,323.302441 L550.941176,386.962603 L519.058824,386.962603 Z"></path>
                            <path d="M558.058824,386.962603 L558.058824,323.302441 L589.941176,323.302441 L589.941176,386.962603 L558.058824,386.962603 Z"></path>
                            <path d="M598.058824,386.962603 L598.058824,323.302441 L629.941176,323.302441 L629.941176,386.962603 L598.058824,386.962603 Z"></path>
                            <path d="M638.058824,386.962603 L638.058824,323.302441 L669.941176,323.302441 L669.941176,386.962603 L638.058824,386.962603 Z"></path>
                            <path d="M678.058824,341.491059 L678.058824,277.830897 L709.941176,277.830897 L709.941176,341.491059 L678.058824,341.491059 Z"></path>
                            <path d="M718.058824,331.578262 L718.058824,267.9181 L749.941176,267.9181 L749.941176,331.578262 L718.058824,331.578262 Z"></path>
                            <path d="M758.058824,331.578262 L758.058824,267.9181 L789.941176,267.9181 L789.941176,331.578262 L758.058824,331.578262 Z"></path>
                            <path d="M797.058824,274.738832 L797.058824,183.795744 L828.941176,183.795744 L828.941176,274.738832 L797.058824,274.738832 Z"></path>
                            <path d="M837.058824,274.738832 L837.058824,183.795744 L868.941176,183.795744 L868.941176,274.738832 L837.058824,274.738832 Z"></path>
                            <path d="M877.058824,274.10223 L877.058824,183.159142 L908.941176,183.159142 L908.941176,274.10223 L877.058824,274.10223 Z"></path>
                            <path d="M917.058824,214.989223 L917.058824,124.046134 L948.941176,124.046134 L948.941176,214.989223 L917.058824,214.989223 Z"></path>
                            <path d="M957.058824,214.989223 L957.058824,124.046134 L988.941176,124.046134 L988.941176,214.989223 L957.058824,214.989223 Z"></path>
                            <path d="M997.058824,214.989223 L997.058824,124.046134 L1028.94118,124.046134 L1028.94118,214.989223 L997.058824,214.989223 Z"></path>
                            <path d="M1037.05882,182.704426 L1037.05882,91.7613381 L1068.94118,91.7613381 L1068.94118,182.704426 L1037.05882,182.704426 Z"></path>
                            <path d="M1076.05882,182.704426 L1076.05882,91.7613381 L1107.94118,91.7613381 L1107.94118,182.704426 L1076.05882,182.704426 Z"></path>
                            <path d="M1116.05882,126.319712 L1116.05882,35.3766234 L1147.94118,35.3766234 L1147.94118,126.319712 L1116.05882,126.319712 Z"></path>
                            <path d="M1156.05882,119.589923 L1156.05882,28.6468348 L1187.94118,28.6468348 L1187.94118,119.589923 L1156.05882,119.589923 Z"></path>
                            <path d="M1196.05882,117.952948 L1196.05882,27.0098593 L1227.94118,27.0098593 L1227.94118,117.952948 L1196.05882,117.952948 Z"></path>
                            <path d="M1236.05882,107.949208 L1236.05882,17.0061195 L1267.94118,17.0061195 L1267.94118,107.949208 L1236.05882,107.949208 Z"></path>
                            <path d="M1276.05882,91.579452 L1276.05882,0.636363636 L1307.94118,0.636363636 L1307.94118,91.579452 L1276.05882,91.579452 Z"></path>
                            <path d="M1316.05882,91.579452 L1316.05882,0.636363636 L1347.94118,0.636363636 L1347.94118,91.579452 L1316.05882,91.579452 Z"></path>
                        </g>
                        <g transform="translate(0.000000, 181.000000)" stroke="#FF7F0E" fill="#FF7F0E">
                            <path d="M0.0588235294,306 L0.0588235294,306 L31.9411765,306 L0.0588235294,306 Z"></path>
                            <path d="M40.0588235,306 L40.0588235,306 L71.9411765,306 L40.0588235,306 Z"></path>
                            <path d="M80.0588235,306 L80.0588235,306 L111.941176,306 L80.0588235,306 Z"></path>
                            <path d="M120.058824,306 L120.058824,306 L151.941176,306 L120.058824,306 Z"></path>
                            <path d="M160.058824,306 L160.058824,306 L191.941176,306 L160.058824,306 Z"></path>
                            <path d="M200.058824,306 L200.058824,287.811382 L231.941176,287.811382 L231.941176,306 L200.058824,306 Z"></path>
                            <path d="M240.058824,306 L240.058824,287.811382 L271.941176,287.811382 L271.941176,306 L240.058824,306 Z"></path>
                            <path d="M279.058824,306 L279.058824,287.811382 L310.941176,287.811382 L310.941176,306 L279.058824,306 Z"></path>
                            <path d="M319.058824,287.811382 L319.058824,269.622765 L350.941176,269.622765 L350.941176,287.811382 L319.058824,287.811382 Z"></path>
                            <path d="M359.058824,287.811382 L359.058824,269.622765 L390.941176,269.622765 L390.941176,287.811382 L359.058824,287.811382 Z"></path>
                            <path d="M399.058824,287.811382 L399.058824,269.622765 L430.941176,269.622765 L430.941176,287.811382 L399.058824,287.811382 Z"></path>
                            <path d="M439.058824,269.622765 L439.058824,251.434147 L470.941176,251.434147 L470.941176,269.622765 L439.058824,269.622765 Z"></path>
                            <path d="M479.058824,269.622765 L479.058824,251.434147 L510.941176,251.434147 L510.941176,269.622765 L479.058824,269.622765 Z"></path>
                            <path d="M519.058824,269.622765 L519.058824,251.434147 L550.941176,251.434147 L550.941176,269.622765 L519.058824,269.622765 Z"></path>
                            <path d="M558.058824,269.622765 L558.058824,251.434147 L589.941176,251.434147 L589.941176,269.622765 L558.058824,269.622765 Z"></path>
                            <path d="M598.058824,269.622765 L598.058824,251.434147 L629.941176,251.434147 L629.941176,269.622765 L598.058824,269.622765 Z"></path>
                            <path d="M638.058824,269.622765 L638.058824,251.434147 L669.941176,251.434147 L669.941176,269.622765 L638.058824,269.622765 Z"></path>
                            <path d="M678.058824,242.339838 L678.058824,224.151221 L709.941176,224.151221 L709.941176,242.339838 L678.058824,242.339838 Z"></path>
                            <path d="M718.058824,232.427042 L718.058824,214.238424 L749.941176,214.238424 L749.941176,232.427042 L718.058824,232.427042 Z"></path>
                            <path d="M758.058824,232.427042 L758.058824,214.238424 L789.941176,214.238424 L789.941176,232.427042 L758.058824,232.427042 Z"></path>
                            <path d="M797.058824,193.776229 L797.058824,157.398994 L828.941176,157.398994 L828.941176,193.776229 L797.058824,193.776229 Z"></path>
                            <path d="M837.058824,193.776229 L837.058824,157.398994 L868.941176,157.398994 L868.941176,193.776229 L837.058824,193.776229 Z"></path>
                            <path d="M877.058824,193.139627 L877.058824,156.762392 L908.941176,156.762392 L908.941176,193.139627 L877.058824,193.139627 Z"></path>
                            <path d="M917.058824,145.394506 L917.058824,109.017271 L948.941176,109.017271 L948.941176,145.394506 L917.058824,145.394506 Z"></path>
                            <path d="M957.058824,145.394506 L957.058824,109.017271 L988.941176,109.017271 L988.941176,145.394506 L957.058824,145.394506 Z"></path>
                            <path d="M997.058824,145.394506 L997.058824,109.017271 L1028.94118,109.017271 L1028.94118,145.394506 L997.058824,145.394506 Z"></path>
                            <path d="M1037.05882,114.110084 L1037.05882,77.7328483 L1068.94118,77.7328483 L1068.94118,114.110084 L1037.05882,114.110084 Z"></path>
                            <path d="M1076.05882,114.110084 L1076.05882,77.7328483 L1107.94118,77.7328483 L1107.94118,114.110084 L1076.05882,114.110084 Z"></path>
                            <path d="M1116.05882,69.5479704 L1116.05882,33.170735 L1147.94118,33.170735 L1147.94118,69.5479704 L1116.05882,69.5479704 Z"></path>
                            <path d="M1156.05882,63.6366696 L1156.05882,27.2594343 L1187.94118,27.2594343 L1187.94118,63.6366696 L1156.05882,63.6366696 Z"></path>
                            <path d="M1196.05882,62.3634664 L1196.05882,25.986231 L1227.94118,25.986231 L1227.94118,62.3634664 L1196.05882,62.3634664 Z"></path>
                            <path d="M1236.05882,52.5416128 L1236.05882,16.1643775 L1267.94118,16.1643775 L1267.94118,52.5416128 L1236.05882,52.5416128 Z"></path>
                            <path d="M1276.05882,36.9903447 L1276.05882,0.613109404 L1307.94118,0.613109404 L1307.94118,36.9903447 L1276.05882,36.9903447 Z"></path>
                            <path d="M1316.05882,36.9903447 L1316.05882,0.613109404 L1347.94118,0.613109404 L1347.94118,36.9903447 L1316.05882,36.9903447 Z"></path>
                        </g>
                        <g transform="translate(0.000000, 460.000000)" stroke="#2CA02C" fill="#2CA02C">
                            <path d="M0.0588235294,27 L0.0588235294,27 L31.9411765,27 L0.0588235294,27 Z"></path>
                            <path d="M40.0588235,27 L40.0588235,27 L71.9411765,27 L40.0588235,27 Z"></path>
                            <path d="M80.0588235,27 L80.0588235,27 L111.941176,27 L80.0588235,27 Z"></path>
                            <path d="M120.058824,27 L120.058824,27 L151.941176,27 L120.058824,27 Z"></path>
                            <path d="M160.058824,27 L160.058824,27 L191.941176,27 L160.058824,27 Z"></path>
                            <path d="M200.058824,27 L200.058824,27 L231.941176,27 L200.058824,27 Z"></path>
                            <path d="M240.058824,27 L240.058824,27 L271.941176,27 L240.058824,27 Z"></path>
                            <path d="M279.058824,27 L279.058824,27 L310.941176,27 L279.058824,27 Z"></path>
                            <path d="M319.058824,27 L319.058824,27 L350.941176,27 L319.058824,27 Z"></path>
                            <path d="M359.058824,27 L359.058824,27 L390.941176,27 L359.058824,27 Z"></path>
                            <path d="M399.058824,27 L399.058824,27 L430.941176,27 L399.058824,27 Z"></path>
                            <path d="M439.058824,27 L439.058824,22.4528456 L470.941176,22.4528456 L470.941176,27 L439.058824,27 Z"></path>
                            <path d="M479.058824,27 L479.058824,22.4528456 L510.941176,22.4528456 L510.941176,27 L479.058824,27 Z"></path>
                            <path d="M519.058824,27 L519.058824,22.4528456 L550.941176,22.4528456 L550.941176,27 L519.058824,27 Z"></path>
                            <path d="M558.058824,27 L558.058824,22.4528456 L589.941176,22.4528456 L589.941176,27 L558.058824,27 Z"></path>
                            <path d="M598.058824,27 L598.058824,22.4528456 L629.941176,22.4528456 L629.941176,27 L598.058824,27 Z"></path>
                            <path d="M638.058824,27 L638.058824,22.4528456 L669.941176,22.4528456 L669.941176,27 L638.058824,27 Z"></path>
                            <path d="M678.058824,27 L678.058824,22.4528456 L709.941176,22.4528456 L709.941176,27 L678.058824,27 Z"></path>
                            <path d="M718.058824,25.2720813 L718.058824,20.7249269 L749.941176,20.7249269 L749.941176,25.2720813 L718.058824,25.2720813 Z"></path>
                            <path d="M758.058824,25.2720813 L758.058824,20.7249269 L789.941176,20.7249269 L789.941176,25.2720813 L758.058824,25.2720813 Z"></path>
                            <path d="M797.058824,25.2720813 L797.058824,20.7249269 L828.941176,20.7249269 L828.941176,25.2720813 L797.058824,25.2720813 Z"></path>
                            <path d="M837.058824,25.2720813 L837.058824,20.7249269 L868.941176,20.7249269 L868.941176,25.2720813 L837.058824,25.2720813 Z"></path>
                            <path d="M877.058824,25.2720813 L877.058824,20.7249269 L908.941176,20.7249269 L908.941176,25.2720813 L877.058824,25.2720813 Z"></path>
                            <path d="M917.058824,25.2720813 L917.058824,20.7249269 L948.941176,20.7249269 L948.941176,25.2720813 L917.058824,25.2720813 Z"></path>
                            <path d="M957.058824,25.2720813 L957.058824,20.7249269 L988.941176,20.7249269 L988.941176,25.2720813 L957.058824,25.2720813 Z"></path>
                            <path d="M997.058824,25.2720813 L997.058824,20.7249269 L1028.94118,20.7249269 L1028.94118,25.2720813 L997.058824,25.2720813 Z"></path>
                            <path d="M1037.05882,25.2720813 L1037.05882,20.7249269 L1068.94118,20.7249269 L1068.94118,25.2720813 L1037.05882,25.2720813 Z"></path>
                            <path d="M1076.05882,25.2720813 L1076.05882,20.7249269 L1107.94118,20.7249269 L1107.94118,25.2720813 L1076.05882,25.2720813 Z"></path>
                            <path d="M1116.05882,25.2720813 L1116.05882,20.7249269 L1147.94118,20.7249269 L1147.94118,25.2720813 L1116.05882,25.2720813 Z"></path>
                            <path d="M1156.05882,25.2720813 L1156.05882,20.7249269 L1187.94118,20.7249269 L1187.94118,25.2720813 L1156.05882,25.2720813 Z"></path>
                            <path d="M1196.05882,25.2720813 L1196.05882,20.7249269 L1227.94118,20.7249269 L1227.94118,25.2720813 L1196.05882,25.2720813 Z"></path>
                            <path d="M1236.05882,16.1777725 L1236.05882,11.6306181 L1267.94118,11.6306181 L1267.94118,16.1777725 L1236.05882,16.1777725 Z"></path>
                            <path d="M1276.05882,5.53743116 L1276.05882,0.990276739 L1307.94118,0.990276739 L1307.94118,5.53743116 L1276.05882,5.53743116 Z"></path>
                            <path d="M1316.05882,5.53743116 L1316.05882,0.990276739 L1347.94118,0.990276739 L1347.94118,5.53743116 L1316.05882,5.53743116 Z"></path>
                        </g>
                        <g transform="translate(0.000000, 342.000000)" stroke="#D62728" fill="#D62728">
                            <path d="M0.0588235294,145 L0.0588235294,145 L31.9411765,145 L0.0588235294,145 Z"></path>
                            <path d="M40.0588235,145 L40.0588235,145 L71.9411765,145 L40.0588235,145 Z"></path>
                            <path d="M80.0588235,145 L80.0588235,145 L111.941176,145 L80.0588235,145 Z"></path>
                            <path d="M120.058824,145 L120.058824,145 L151.941176,145 L120.058824,145 Z"></path>
                            <path d="M160.058824,145 L160.058824,145 L191.941176,145 L160.058824,145 Z"></path>
                            <path d="M200.058824,145 L200.058824,145 L231.941176,145 L200.058824,145 Z"></path>
                            <path d="M240.058824,145 L240.058824,145 L271.941176,145 L240.058824,145 Z"></path>
                            <path d="M279.058824,145 L279.058824,145 L310.941176,145 L279.058824,145 Z"></path>
                            <path d="M319.058824,140.452846 L319.058824,135.905691 L350.941176,135.905691 L350.941176,140.452846 L319.058824,140.452846 Z"></path>
                            <path d="M359.058824,140.452846 L359.058824,135.905691 L390.941176,135.905691 L390.941176,140.452846 L359.058824,140.452846 Z"></path>
                            <path d="M399.058824,140.452846 L399.058824,135.905691 L430.941176,135.905691 L430.941176,140.452846 L399.058824,140.452846 Z"></path>
                            <path d="M439.058824,131.358537 L439.058824,126.811382 L470.941176,126.811382 L470.941176,131.358537 L439.058824,131.358537 Z"></path>
                            <path d="M479.058824,131.358537 L479.058824,126.811382 L510.941176,126.811382 L510.941176,131.358537 L479.058824,131.358537 Z"></path>
                            <path d="M519.058824,131.358537 L519.058824,126.811382 L550.941176,126.811382 L550.941176,131.358537 L519.058824,131.358537 Z"></path>
                            <path d="M558.058824,131.358537 L558.058824,126.811382 L589.941176,126.811382 L589.941176,131.358537 L558.058824,131.358537 Z"></path>
                            <path d="M598.058824,131.358537 L598.058824,126.811382 L629.941176,126.811382 L629.941176,131.358537 L598.058824,131.358537 Z"></path>
                            <path d="M638.058824,131.358537 L638.058824,126.811382 L669.941176,126.811382 L669.941176,131.358537 L638.058824,131.358537 Z"></path>
                            <path d="M678.058824,126.811382 L678.058824,122.264228 L709.941176,122.264228 L709.941176,126.811382 L678.058824,126.811382 Z"></path>
                            <path d="M718.058824,116.898586 L718.058824,112.351431 L749.941176,112.351431 L749.941176,116.898586 L718.058824,116.898586 Z"></path>
                            <path d="M758.058824,116.898586 L758.058824,112.351431 L789.941176,112.351431 L789.941176,116.898586 L758.058824,116.898586 Z"></path>
                            <path d="M797.058824,100.983545 L797.058824,91.8892364 L828.941176,91.8892364 L828.941176,100.983545 L797.058824,100.983545 Z"></path>
                            <path d="M837.058824,100.983545 L837.058824,91.8892364 L868.941176,91.8892364 L868.941176,100.983545 L837.058824,100.983545 Z"></path>
                            <path d="M877.058824,100.346944 L877.058824,91.2526348 L908.941176,91.2526348 L908.941176,100.346944 L877.058824,100.346944 Z"></path>
                            <path d="M917.058824,100.346944 L917.058824,84.4319032 L948.941176,84.4319032 L948.941176,100.346944 L917.058824,100.346944 Z"></path>
                            <path d="M957.058824,100.346944 L957.058824,84.4319032 L988.941176,84.4319032 L988.941176,100.346944 L957.058824,100.346944 Z"></path>
                            <path d="M997.058824,100.346944 L997.058824,84.4319032 L1028.94118,84.4319032 L1028.94118,100.346944 L997.058824,100.346944 Z"></path>
                            <path d="M1037.05882,73.0640171 L1037.05882,56.6033181 L1068.94118,56.6033181 L1068.94118,73.0640171 L1037.05882,73.0640171 Z"></path>
                            <path d="M1076.05882,73.0640171 L1076.05882,56.6033181 L1107.94118,56.6033181 L1107.94118,73.0640171 L1076.05882,73.0640171 Z"></path>
                            <path d="M1116.05882,43.9622289 L1116.05882,27.5015299 L1147.94118,27.5015299 L1147.94118,43.9622289 L1116.05882,43.9622289 Z"></path>
                            <path d="M1156.05882,40.0516761 L1156.05882,23.4090909 L1187.94118,23.4090909 L1187.94118,40.0516761 L1156.05882,40.0516761 Z"></path>
                            <path d="M1196.05882,39.2331883 L1196.05882,22.5906031 L1227.94118,22.5906031 L1227.94118,39.2331883 L1196.05882,39.2331883 Z"></path>
                            <path d="M1236.05882,29.684164 L1236.05882,13.0415788 L1267.94118,13.0415788 L1267.94118,29.684164 L1236.05882,29.684164 Z"></path>
                            <path d="M1276.05882,17.0430747 L1276.05882,0.0367172095 L1307.94118,0.0367172095 L1307.94118,17.0430747 L1276.05882,17.0430747 Z"></path>
                            <path d="M1316.05882,17.0430747 L1316.05882,0.0367172095 L1347.94118,0.0367172095 L1347.94118,17.0430747 L1316.05882,17.0430747 Z"></path>
                        </g>
                        <g transform="translate(0.000000, 390.000000)" stroke="#9467BD" fill="#9467BD">
                            <path d="M0.0588235294,97 L0.0588235294,97 L31.9411765,97 L0.0588235294,97 Z"></path>
                            <path d="M40.0588235,97 L40.0588235,97 L71.9411765,97 L40.0588235,97 Z"></path>
                            <path d="M80.0588235,97 L80.0588235,97 L111.941176,97 L80.0588235,97 Z"></path>
                            <path d="M120.058824,97 L120.058824,97 L151.941176,97 L120.058824,97 Z"></path>
                            <path d="M160.058824,97 L160.058824,97 L191.941176,97 L160.058824,97 Z"></path>
                            <path d="M200.058824,97 L200.058824,97 L231.941176,97 L200.058824,97 Z"></path>
                            <path d="M240.058824,97 L240.058824,97 L271.941176,97 L240.058824,97 Z"></path>
                            <path d="M279.058824,97 L279.058824,97 L310.941176,97 L279.058824,97 Z"></path>
                            <path d="M319.058824,97 L319.058824,92.4528456 L350.941176,92.4528456 L350.941176,97 L319.058824,97 Z"></path>
                            <path d="M359.058824,97 L359.058824,92.4528456 L390.941176,92.4528456 L390.941176,97 L359.058824,97 Z"></path>
                            <path d="M399.058824,97 L399.058824,92.4528456 L430.941176,92.4528456 L430.941176,97 L399.058824,97 Z"></path>
                            <path d="M439.058824,87.9056912 L439.058824,83.3585368 L470.941176,83.3585368 L470.941176,87.9056912 L439.058824,87.9056912 Z"></path>
                            <path d="M479.058824,87.9056912 L479.058824,83.3585368 L510.941176,83.3585368 L510.941176,87.9056912 L479.058824,87.9056912 Z"></path>
                            <path d="M519.058824,87.9056912 L519.058824,83.3585368 L550.941176,83.3585368 L550.941176,87.9056912 L519.058824,87.9056912 Z"></path>
                            <path d="M558.058824,87.9056912 L558.058824,83.3585368 L589.941176,83.3585368 L589.941176,87.9056912 L558.058824,87.9056912 Z"></path>
                            <path d="M598.058824,87.9056912 L598.058824,83.3585368 L629.941176,83.3585368 L629.941176,87.9056912 L598.058824,87.9056912 Z"></path>
                            <path d="M638.058824,87.9056912 L638.058824,83.3585368 L669.941176,83.3585368 L669.941176,87.9056912 L638.058824,87.9056912 Z"></path>
                            <path d="M678.058824,83.3585368 L678.058824,78.8113823 L709.941176,78.8113823 L709.941176,83.3585368 L678.058824,83.3585368 Z"></path>
                            <path d="M718.058824,73.4457401 L718.058824,68.8985857 L749.941176,68.8985857 L749.941176,73.4457401 L718.058824,73.4457401 Z"></path>
                            <path d="M758.058824,73.4457401 L758.058824,68.8985857 L789.941176,68.8985857 L789.941176,73.4457401 L758.058824,73.4457401 Z"></path>
                            <path d="M797.058824,64.3514313 L797.058824,52.9835453 L828.941176,52.9835453 L828.941176,64.3514313 L797.058824,64.3514313 Z"></path>
                            <path d="M837.058824,64.3514313 L837.058824,52.9835453 L868.941176,52.9835453 L868.941176,64.3514313 L837.058824,64.3514313 Z"></path>
                            <path d="M877.058824,63.7148297 L877.058824,52.3469436 L908.941176,52.3469436 L908.941176,63.7148297 L877.058824,63.7148297 Z"></path>
                            <path d="M917.058824,63.7148297 L917.058824,52.3469436 L948.941176,52.3469436 L948.941176,63.7148297 L917.058824,63.7148297 Z"></path>
                            <path d="M957.058824,63.7148297 L957.058824,52.3469436 L988.941176,52.3469436 L988.941176,63.7148297 L957.058824,63.7148297 Z"></path>
                            <path d="M997.058824,63.7148297 L997.058824,52.3469436 L1028.94118,52.3469436 L1028.94118,63.7148297 L997.058824,63.7148297 Z"></path>
                            <path d="M1037.05882,63.7148297 L1037.05882,52.3469436 L1068.94118,52.3469436 L1068.94118,63.7148297 L1037.05882,63.7148297 Z"></path>
                            <path d="M1076.05882,63.7148297 L1076.05882,52.3469436 L1107.94118,52.3469436 L1107.94118,63.7148297 L1076.05882,63.7148297 Z"></path>
                            <path d="M1116.05882,34.6130414 L1116.05882,23.2451554 L1147.94118,23.2451554 L1147.94118,34.6130414 L1116.05882,34.6130414 Z"></path>
                            <path d="M1156.05882,33.4307813 L1156.05882,22.0628952 L1187.94118,22.0628952 L1187.94118,33.4307813 L1156.05882,33.4307813 Z"></path>
                            <path d="M1196.05882,32.6122935 L1196.05882,21.2444074 L1227.94118,21.2444074 L1227.94118,32.6122935 L1196.05882,32.6122935 Z"></path>
                            <path d="M1236.05882,23.0632692 L1236.05882,11.6953832 L1267.94118,11.6953832 L1267.94118,23.0632692 L1236.05882,23.0632692 Z"></path>
                            <path d="M1276.05882,11.9682124 L1276.05882,0.600326375 L1307.94118,0.600326375 L1307.94118,11.9682124 L1276.05882,11.9682124 Z"></path>
                            <path d="M1316.05882,11.9682124 L1316.05882,0.600326375 L1347.94118,0.600326375 L1347.94118,11.9682124 L1316.05882,11.9682124 Z"></path>
                        </g>
                        <g transform="translate(0.000000, 441.000000)" stroke="#8C564B" fill="#8C564B">
                            <path d="M0.0588235294,46 L0.0588235294,46 L31.9411765,46 L0.0588235294,46 Z"></path>
                            <path d="M40.0588235,46 L40.0588235,46 L71.9411765,46 L40.0588235,46 Z"></path>
                            <path d="M80.0588235,46 L80.0588235,46 L111.941176,46 L80.0588235,46 Z"></path>
                            <path d="M120.058824,46 L120.058824,46 L151.941176,46 L120.058824,46 Z"></path>
                            <path d="M160.058824,46 L160.058824,46 L191.941176,46 L160.058824,46 Z"></path>
                            <path d="M200.058824,46 L200.058824,46 L231.941176,46 L200.058824,46 Z"></path>
                            <path d="M240.058824,46 L240.058824,46 L271.941176,46 L240.058824,46 Z"></path>
                            <path d="M279.058824,46 L279.058824,46 L310.941176,46 L279.058824,46 Z"></path>
                            <path d="M319.058824,46 L319.058824,46 L350.941176,46 L319.058824,46 Z"></path>
                            <path d="M359.058824,46 L359.058824,46 L390.941176,46 L359.058824,46 Z"></path>
                            <path d="M399.058824,46 L399.058824,46 L430.941176,46 L399.058824,46 Z"></path>
                            <path d="M439.058824,41.4528456 L439.058824,41.4528456 L470.941176,41.4528456 L439.058824,41.4528456 Z"></path>
                            <path d="M479.058824,41.4528456 L479.058824,41.4528456 L510.941176,41.4528456 L479.058824,41.4528456 Z"></path>
                            <path d="M519.058824,41.4528456 L519.058824,41.4528456 L550.941176,41.4528456 L519.058824,41.4528456 Z"></path>
                            <path d="M558.058824,41.4528456 L558.058824,41.4528456 L589.941176,41.4528456 L558.058824,41.4528456 Z"></path>
                            <path d="M598.058824,41.4528456 L598.058824,41.4528456 L629.941176,41.4528456 L598.058824,41.4528456 Z"></path>
                            <path d="M638.058824,41.4528456 L638.058824,41.4528456 L669.941176,41.4528456 L638.058824,41.4528456 Z"></path>
                            <path d="M678.058824,41.4528456 L678.058824,41.4528456 L709.941176,41.4528456 L678.058824,41.4528456 Z"></path>
                            <path d="M718.058824,31.540049 L718.058824,31.540049 L749.941176,31.540049 L718.058824,31.540049 Z"></path>
                            <path d="M758.058824,31.540049 L758.058824,31.540049 L789.941176,31.540049 L758.058824,31.540049 Z"></path>
                            <path d="M797.058824,31.540049 L797.058824,22.4457401 L828.941176,22.4457401 L828.941176,31.540049 L797.058824,31.540049 Z"></path>
                            <path d="M837.058824,31.540049 L837.058824,22.4457401 L868.941176,22.4457401 L868.941176,31.540049 L837.058824,31.540049 Z"></path>
                            <path d="M877.058824,30.9034473 L877.058824,21.8091385 L908.941176,21.8091385 L908.941176,30.9034473 L877.058824,30.9034473 Z"></path>
                            <path d="M917.058824,30.9034473 L917.058824,21.8091385 L948.941176,21.8091385 L948.941176,30.9034473 L917.058824,30.9034473 Z"></path>
                            <path d="M957.058824,30.9034473 L957.058824,21.8091385 L988.941176,21.8091385 L988.941176,30.9034473 L957.058824,30.9034473 Z"></path>
                            <path d="M997.058824,30.9034473 L997.058824,21.8091385 L1028.94118,21.8091385 L1028.94118,30.9034473 L997.058824,30.9034473 Z"></path>
                            <path d="M1037.05882,30.9034473 L1037.05882,21.8091385 L1068.94118,21.8091385 L1068.94118,30.9034473 L1037.05882,30.9034473 Z"></path>
                            <path d="M1076.05882,30.9034473 L1076.05882,21.8091385 L1107.94118,21.8091385 L1107.94118,30.9034473 L1076.05882,30.9034473 Z"></path>
                            <path d="M1116.05882,30.9034473 L1116.05882,19.9902767 L1147.94118,19.9902767 L1147.94118,30.9034473 L1116.05882,30.9034473 Z"></path>
                            <path d="M1156.05882,30.9034473 L1156.05882,19.8993337 L1187.94118,19.8993337 L1187.94118,30.9034473 L1156.05882,30.9034473 Z"></path>
                            <path d="M1196.05882,30.9034473 L1196.05882,19.8083906 L1227.94118,19.8083906 L1227.94118,30.9034473 L1196.05882,30.9034473 Z"></path>
                            <path d="M1236.05882,21.8091385 L1236.05882,10.7140817 L1267.94118,10.7140817 L1267.94118,21.8091385 L1236.05882,21.8091385 Z"></path>
                            <path d="M1276.05882,11.1687972 L1276.05882,0.0737403957 L1307.94118,0.0737403957 L1307.94118,11.1687972 L1276.05882,11.1687972 Z"></path>
                            <path d="M1316.05882,11.1687972 L1316.05882,0.0737403957 L1347.94118,0.0737403957 L1347.94118,11.1687972 L1316.05882,11.1687972 Z"></path>
                        </g>
                        <g transform="translate(0.000000, 323.000000)" stroke="#E377C2" fill="#E377C2">
                            <path d="M0.0588235294,164 L0.0588235294,164 L31.9411765,164 L0.0588235294,164 Z"></path>
                            <path d="M40.0588235,164 L40.0588235,164 L71.9411765,164 L40.0588235,164 Z"></path>
                            <path d="M80.0588235,164 L80.0588235,164 L111.941176,164 L80.0588235,164 Z"></path>
                            <path d="M120.058824,164 L120.058824,164 L151.941176,164 L120.058824,164 Z"></path>
                            <path d="M160.058824,164 L160.058824,164 L191.941176,164 L160.058824,164 Z"></path>
                            <path d="M200.058824,164 L200.058824,164 L231.941176,164 L200.058824,164 Z"></path>
                            <path d="M240.058824,164 L240.058824,164 L271.941176,164 L240.058824,164 Z"></path>
                            <path d="M279.058824,164 L279.058824,164 L310.941176,164 L279.058824,164 Z"></path>
                            <path d="M319.058824,154.905691 L319.058824,154.905691 L350.941176,154.905691 L319.058824,154.905691 Z"></path>
                            <path d="M359.058824,154.905691 L359.058824,154.905691 L390.941176,154.905691 L359.058824,154.905691 Z"></path>
                            <path d="M399.058824,154.905691 L399.058824,154.905691 L430.941176,154.905691 L399.058824,154.905691 Z"></path>
                            <path d="M439.058824,145.811382 L439.058824,136.717074 L470.941176,136.717074 L470.941176,145.811382 L439.058824,145.811382 Z"></path>
                            <path d="M479.058824,145.811382 L479.058824,136.717074 L510.941176,136.717074 L510.941176,145.811382 L479.058824,145.811382 Z"></path>
                            <path d="M519.058824,145.811382 L519.058824,136.717074 L550.941176,136.717074 L550.941176,145.811382 L519.058824,145.811382 Z"></path>
                            <path d="M558.058824,145.811382 L558.058824,136.717074 L589.941176,136.717074 L589.941176,145.811382 L558.058824,145.811382 Z"></path>
                            <path d="M598.058824,145.811382 L598.058824,136.717074 L629.941176,136.717074 L629.941176,145.811382 L598.058824,145.811382 Z"></path>
                            <path d="M638.058824,145.811382 L638.058824,136.717074 L669.941176,136.717074 L669.941176,145.811382 L638.058824,145.811382 Z"></path>
                            <path d="M678.058824,141.264228 L678.058824,132.169919 L709.941176,132.169919 L709.941176,141.264228 L678.058824,141.264228 Z"></path>
                            <path d="M718.058824,131.351431 L718.058824,122.257122 L749.941176,122.257122 L749.941176,131.351431 L718.058824,131.351431 Z"></path>
                            <path d="M758.058824,131.351431 L758.058824,122.257122 L789.941176,122.257122 L789.941176,131.351431 L758.058824,131.351431 Z"></path>
                            <path d="M797.058824,110.889236 L797.058824,92.7006188 L828.941176,92.7006188 L828.941176,110.889236 L797.058824,110.889236 Z"></path>
                            <path d="M837.058824,110.889236 L837.058824,92.7006188 L868.941176,92.7006188 L868.941176,110.889236 L837.058824,110.889236 Z"></path>
                            <path d="M877.058824,110.252635 L877.058824,92.0640171 L908.941176,92.0640171 L908.941176,110.252635 L877.058824,110.252635 Z"></path>
                            <path d="M917.058824,103.431903 L917.058824,85.2432855 L948.941176,85.2432855 L948.941176,103.431903 L917.058824,103.431903 Z"></path>
                            <path d="M957.058824,103.431903 L957.058824,85.2432855 L988.941176,85.2432855 L988.941176,103.431903 L957.058824,103.431903 Z"></path>
                            <path d="M997.058824,103.431903 L997.058824,85.2432855 L1028.94118,85.2432855 L1028.94118,103.431903 L997.058824,103.431903 Z"></path>
                            <path d="M1037.05882,75.6033181 L1037.05882,57.4147005 L1068.94118,57.4147005 L1068.94118,75.6033181 L1037.05882,75.6033181 Z"></path>
                            <path d="M1076.05882,75.6033181 L1076.05882,57.4147005 L1107.94118,57.4147005 L1107.94118,75.6033181 L1076.05882,75.6033181 Z"></path>
                            <path d="M1116.05882,46.5015299 L1116.05882,28.3129122 L1147.94118,28.3129122 L1147.94118,46.5015299 L1116.05882,46.5015299 Z"></path>
                            <path d="M1156.05882,42.4090909 L1156.05882,24.2204732 L1187.94118,24.2204732 L1187.94118,42.4090909 L1156.05882,42.4090909 Z"></path>
                            <path d="M1196.05882,41.5906031 L1196.05882,23.4019854 L1227.94118,23.4019854 L1227.94118,41.5906031 L1196.05882,41.5906031 Z"></path>
                            <path d="M1236.05882,32.0415788 L1236.05882,13.8529612 L1267.94118,13.8529612 L1267.94118,32.0415788 L1236.05882,32.0415788 Z"></path>
                            <path d="M1276.05882,19.0367172 L1276.05882,0.848099544 L1307.94118,0.848099544 L1307.94118,19.0367172 L1276.05882,19.0367172 Z"></path>
                            <path d="M1316.05882,19.0367172 L1316.05882,0.848099544 L1347.94118,0.848099544 L1347.94118,19.0367172 L1316.05882,19.0367172 Z"></path>
                        </g>
                        <g transform="translate(0.000000, 401.000000)" stroke="#7F7F7F" fill="#7F7F7F">
                            <path d="M0.0588235294,86 L0.0588235294,86 L31.9411765,86 L0.0588235294,86 Z"></path>
                            <path d="M40.0588235,86 L40.0588235,86 L71.9411765,86 L40.0588235,86 Z"></path>
                            <path d="M80.0588235,86 L80.0588235,86 L111.941176,86 L80.0588235,86 Z"></path>
                            <path d="M120.058824,86 L120.058824,86 L151.941176,86 L120.058824,86 Z"></path>
                            <path d="M160.058824,86 L160.058824,86 L191.941176,86 L160.058824,86 Z"></path>
                            <path d="M200.058824,86 L200.058824,86 L231.941176,86 L200.058824,86 Z"></path>
                            <path d="M240.058824,86 L240.058824,86 L271.941176,86 L240.058824,86 Z"></path>
                            <path d="M279.058824,86 L279.058824,86 L310.941176,86 L279.058824,86 Z"></path>
                            <path d="M319.058824,86 L319.058824,86 L350.941176,86 L319.058824,86 Z"></path>
                            <path d="M359.058824,86 L359.058824,86 L390.941176,86 L359.058824,86 Z"></path>
                            <path d="M399.058824,86 L399.058824,86 L430.941176,86 L399.058824,86 Z"></path>
                            <path d="M439.058824,81.4528456 L439.058824,76.9056912 L470.941176,76.9056912 L470.941176,81.4528456 L439.058824,81.4528456 Z"></path>
                            <path d="M479.058824,81.4528456 L479.058824,76.9056912 L510.941176,76.9056912 L510.941176,81.4528456 L479.058824,81.4528456 Z"></path>
                            <path d="M519.058824,81.4528456 L519.058824,76.9056912 L550.941176,76.9056912 L550.941176,81.4528456 L519.058824,81.4528456 Z"></path>
                            <path d="M558.058824,81.4528456 L558.058824,76.9056912 L589.941176,76.9056912 L589.941176,81.4528456 L558.058824,81.4528456 Z"></path>
                            <path d="M598.058824,81.4528456 L598.058824,76.9056912 L629.941176,76.9056912 L629.941176,81.4528456 L598.058824,81.4528456 Z"></path>
                            <path d="M638.058824,81.4528456 L638.058824,76.9056912 L669.941176,76.9056912 L669.941176,81.4528456 L638.058824,81.4528456 Z"></path>
                            <path d="M678.058824,81.4528456 L678.058824,72.3585368 L709.941176,72.3585368 L709.941176,81.4528456 L678.058824,81.4528456 Z"></path>
                            <path d="M718.058824,71.540049 L718.058824,62.4457401 L749.941176,62.4457401 L749.941176,71.540049 L718.058824,71.540049 Z"></path>
                            <path d="M758.058824,71.540049 L758.058824,62.4457401 L789.941176,62.4457401 L789.941176,71.540049 L758.058824,71.540049 Z"></path>
                            <path d="M797.058824,62.4457401 L797.058824,53.3514313 L828.941176,53.3514313 L828.941176,62.4457401 L797.058824,62.4457401 Z"></path>
                            <path d="M837.058824,62.4457401 L837.058824,53.3514313 L868.941176,53.3514313 L868.941176,62.4457401 L837.058824,62.4457401 Z"></path>
                            <path d="M877.058824,61.8091385 L877.058824,52.7148297 L908.941176,52.7148297 L908.941176,61.8091385 L877.058824,61.8091385 Z"></path>
                            <path d="M917.058824,61.8091385 L917.058824,52.7148297 L948.941176,52.7148297 L948.941176,61.8091385 L917.058824,61.8091385 Z"></path>
                            <path d="M957.058824,61.8091385 L957.058824,52.7148297 L988.941176,52.7148297 L988.941176,61.8091385 L957.058824,61.8091385 Z"></path>
                            <path d="M997.058824,61.8091385 L997.058824,52.7148297 L1028.94118,52.7148297 L1028.94118,61.8091385 L997.058824,61.8091385 Z"></path>
                            <path d="M1037.05882,61.8091385 L1037.05882,52.7148297 L1068.94118,52.7148297 L1068.94118,61.8091385 L1037.05882,61.8091385 Z"></path>
                            <path d="M1076.05882,61.8091385 L1076.05882,52.7148297 L1107.94118,52.7148297 L1107.94118,61.8091385 L1076.05882,61.8091385 Z"></path>
                            <path d="M1116.05882,32.7073502 L1116.05882,23.6130414 L1147.94118,23.6130414 L1147.94118,32.7073502 L1116.05882,32.7073502 Z"></path>
                            <path d="M1156.05882,31.5250901 L1156.05882,22.4307813 L1187.94118,22.4307813 L1187.94118,31.5250901 L1156.05882,31.5250901 Z"></path>
                            <path d="M1196.05882,30.7066023 L1196.05882,21.6122935 L1227.94118,21.6122935 L1227.94118,30.7066023 L1196.05882,30.7066023 Z"></path>
                            <path d="M1236.05882,21.157578 L1236.05882,12.0632692 L1267.94118,12.0632692 L1267.94118,21.157578 L1236.05882,21.157578 Z"></path>
                            <path d="M1276.05882,10.0625212 L1276.05882,0.968212416 L1307.94118,0.968212416 L1307.94118,10.0625212 L1276.05882,10.0625212 Z"></path>
                            <path d="M1316.05882,10.0625212 L1316.05882,0.968212416 L1347.94118,0.968212416 L1347.94118,10.0625212 L1316.05882,10.0625212 Z"></path>
                        </g>
                        <g transform="translate(0.000000, 91.000000)" stroke="#BCBD22" fill="#BCBD22">
                            <path d="M0.0588235294,396 L0.0588235294,386.905691 L31.9411765,386.905691 L31.9411765,396 L0.0588235294,396 Z"></path>
                            <path d="M40.0588235,396 L40.0588235,386.905691 L71.9411765,386.905691 L71.9411765,396 L40.0588235,396 Z"></path>
                            <path d="M80.0588235,396 L80.0588235,386.905691 L111.941176,386.905691 L111.941176,396 L80.0588235,396 Z"></path>
                            <path d="M120.058824,396 L120.058824,386.905691 L151.941176,386.905691 L151.941176,396 L120.058824,396 Z"></path>
                            <path d="M160.058824,396 L160.058824,386.905691 L191.941176,386.905691 L191.941176,396 L160.058824,396 Z"></path>
                            <path d="M200.058824,377.811382 L200.058824,368.717074 L231.941176,368.717074 L231.941176,377.811382 L200.058824,377.811382 Z"></path>
                            <path d="M240.058824,377.811382 L240.058824,368.717074 L271.941176,368.717074 L271.941176,377.811382 L240.058824,377.811382 Z"></path>
                            <path d="M279.058824,377.811382 L279.058824,368.717074 L310.941176,368.717074 L310.941176,377.811382 L279.058824,377.811382 Z"></path>
                            <path d="M319.058824,359.622765 L319.058824,341.434147 L350.941176,341.434147 L350.941176,359.622765 L319.058824,359.622765 Z"></path>
                            <path d="M359.058824,359.622765 L359.058824,341.434147 L390.941176,341.434147 L390.941176,359.622765 L359.058824,359.622765 Z"></path>
                            <path d="M399.058824,359.622765 L399.058824,341.434147 L430.941176,341.434147 L430.941176,359.622765 L399.058824,359.622765 Z"></path>
                            <path d="M439.058824,341.434147 L439.058824,295.962603 L470.941176,295.962603 L470.941176,341.434147 L439.058824,341.434147 Z"></path>
                            <path d="M479.058824,341.434147 L479.058824,295.962603 L510.941176,295.962603 L510.941176,341.434147 L479.058824,341.434147 Z"></path>
                            <path d="M519.058824,341.434147 L519.058824,295.962603 L550.941176,295.962603 L550.941176,341.434147 L519.058824,341.434147 Z"></path>
                            <path d="M558.058824,341.434147 L558.058824,295.962603 L589.941176,295.962603 L589.941176,341.434147 L558.058824,341.434147 Z"></path>
                            <path d="M598.058824,341.434147 L598.058824,295.962603 L629.941176,295.962603 L629.941176,341.434147 L598.058824,341.434147 Z"></path>
                            <path d="M638.058824,341.434147 L638.058824,295.962603 L669.941176,295.962603 L669.941176,341.434147 L638.058824,341.434147 Z"></path>
                            <path d="M678.058824,314.151221 L678.058824,250.491059 L709.941176,250.491059 L709.941176,314.151221 L678.058824,314.151221 Z"></path>
                            <path d="M718.058824,304.238424 L718.058824,240.578262 L749.941176,240.578262 L749.941176,304.238424 L718.058824,304.238424 Z"></path>
                            <path d="M758.058824,304.238424 L758.058824,240.578262 L789.941176,240.578262 L789.941176,304.238424 L758.058824,304.238424 Z"></path>
                            <path d="M797.058824,247.398994 L797.058824,183.738832 L828.941176,183.738832 L828.941176,247.398994 L797.058824,247.398994 Z"></path>
                            <path d="M837.058824,247.398994 L837.058824,183.738832 L868.941176,183.738832 L868.941176,247.398994 L837.058824,247.398994 Z"></path>
                            <path d="M877.058824,246.762392 L877.058824,183.10223 L908.941176,183.10223 L908.941176,246.762392 L877.058824,246.762392 Z"></path>
                            <path d="M917.058824,199.017271 L917.058824,123.989223 L948.941176,123.989223 L948.941176,199.017271 L917.058824,199.017271 Z"></path>
                            <path d="M957.058824,199.017271 L957.058824,123.989223 L988.941176,123.989223 L988.941176,199.017271 L957.058824,199.017271 Z"></path>
                            <path d="M997.058824,199.017271 L997.058824,123.989223 L1028.94118,123.989223 L1028.94118,199.017271 L997.058824,199.017271 Z"></path>
                            <path d="M1037.05882,167.732848 L1037.05882,91.7044265 L1068.94118,91.7044265 L1068.94118,167.732848 L1037.05882,167.732848 Z"></path>
                            <path d="M1076.05882,167.732848 L1076.05882,91.7044265 L1107.94118,91.7044265 L1107.94118,167.732848 L1076.05882,167.732848 Z"></path>
                            <path d="M1116.05882,123.170735 L1116.05882,35.3197117 L1147.94118,35.3197117 L1147.94118,123.170735 L1116.05882,123.170735 Z"></path>
                            <path d="M1156.05882,117.259434 L1156.05882,28.5899232 L1187.94118,28.5899232 L1187.94118,117.259434 L1156.05882,117.259434 Z"></path>
                            <path d="M1196.05882,115.986231 L1196.05882,26.9529476 L1227.94118,26.9529476 L1227.94118,115.986231 L1196.05882,115.986231 Z"></path>
                            <path d="M1236.05882,106.164378 L1236.05882,16.9492079 L1267.94118,16.9492079 L1267.94118,106.164378 L1236.05882,106.164378 Z"></path>
                            <path d="M1276.05882,90.6131094 L1276.05882,0.579451962 L1307.94118,0.579451962 L1307.94118,90.6131094 L1276.05882,90.6131094 Z"></path>
                            <path d="M1316.05882,90.6131094 L1316.05882,0.579451962 L1347.94118,0.579451962 L1347.94118,90.6131094 L1316.05882,90.6131094 Z"></path>
                        </g>
                        <g transform="translate(0.000000, 288.000000)" stroke="#17BECF" fill="#17BECF">
                            <path d="M0.0588235294,199 L0.0588235294,199 L31.9411765,199 L0.0588235294,199 Z"></path>
                            <path d="M40.0588235,199 L40.0588235,199 L71.9411765,199 L40.0588235,199 Z"></path>
                            <path d="M80.0588235,199 L80.0588235,199 L111.941176,199 L80.0588235,199 Z"></path>
                            <path d="M120.058824,199 L120.058824,199 L151.941176,199 L120.058824,199 Z"></path>
                            <path d="M160.058824,199 L160.058824,199 L191.941176,199 L160.058824,199 Z"></path>
                            <path d="M200.058824,199 L200.058824,199 L231.941176,199 L200.058824,199 Z"></path>
                            <path d="M240.058824,199 L240.058824,199 L271.941176,199 L240.058824,199 Z"></path>
                            <path d="M279.058824,199 L279.058824,199 L310.941176,199 L279.058824,199 Z"></path>
                            <path d="M319.058824,189.905691 L319.058824,180.811382 L350.941176,180.811382 L350.941176,189.905691 L319.058824,189.905691 Z"></path>
                            <path d="M359.058824,189.905691 L359.058824,180.811382 L390.941176,180.811382 L390.941176,189.905691 L359.058824,189.905691 Z"></path>
                            <path d="M399.058824,189.905691 L399.058824,180.811382 L430.941176,180.811382 L430.941176,189.905691 L399.058824,189.905691 Z"></path>
                            <path d="M439.058824,171.717074 L439.058824,162.622765 L470.941176,162.622765 L470.941176,171.717074 L439.058824,171.717074 Z"></path>
                            <path d="M479.058824,171.717074 L479.058824,162.622765 L510.941176,162.622765 L510.941176,171.717074 L479.058824,171.717074 Z"></path>
                            <path d="M519.058824,171.717074 L519.058824,162.622765 L550.941176,162.622765 L550.941176,171.717074 L519.058824,171.717074 Z"></path>
                            <path d="M558.058824,171.717074 L558.058824,162.622765 L589.941176,162.622765 L589.941176,171.717074 L558.058824,171.717074 Z"></path>
                            <path d="M598.058824,171.717074 L598.058824,162.622765 L629.941176,162.622765 L629.941176,171.717074 L598.058824,171.717074 Z"></path>
                            <path d="M638.058824,171.717074 L638.058824,162.622765 L669.941176,162.622765 L669.941176,171.717074 L638.058824,171.717074 Z"></path>
                            <path d="M678.058824,167.169919 L678.058824,148.981301 L709.941176,148.981301 L709.941176,167.169919 L678.058824,167.169919 Z"></path>
                            <path d="M718.058824,157.257122 L718.058824,139.068505 L749.941176,139.068505 L749.941176,157.257122 L718.058824,157.257122 Z"></path>
                            <path d="M758.058824,157.257122 L758.058824,139.068505 L789.941176,139.068505 L789.941176,157.257122 L758.058824,157.257122 Z"></path>
                            <path d="M797.058824,127.700619 L797.058824,100.417692 L828.941176,100.417692 L828.941176,127.700619 L797.058824,127.700619 Z"></path>
                            <path d="M837.058824,127.700619 L837.058824,100.417692 L868.941176,100.417692 L868.941176,127.700619 L837.058824,127.700619 Z"></path>
                            <path d="M877.058824,127.064017 L877.058824,99.7810906 L908.941176,99.7810906 L908.941176,127.064017 L877.058824,127.064017 Z"></path>
                            <path d="M917.058824,120.243286 L917.058824,86.1396274 L948.941176,86.1396274 L948.941176,120.243286 L917.058824,120.243286 Z"></path>
                            <path d="M957.058824,120.243286 L957.058824,86.1396274 L988.941176,86.1396274 L988.941176,120.243286 L957.058824,120.243286 Z"></path>
                            <path d="M997.058824,120.243286 L997.058824,86.1396274 L1028.94118,86.1396274 L1028.94118,120.243286 L997.058824,120.243286 Z"></path>
                            <path d="M1037.05882,92.4147005 L1037.05882,57.7653838 L1068.94118,57.7653838 L1068.94118,92.4147005 L1037.05882,92.4147005 Z"></path>
                            <path d="M1076.05882,92.4147005 L1076.05882,57.7653838 L1107.94118,57.7653838 L1107.94118,92.4147005 L1076.05882,92.4147005 Z"></path>
                            <path d="M1116.05882,63.3129122 L1116.05882,28.6635956 L1147.94118,28.6635956 L1147.94118,63.3129122 L1116.05882,63.3129122 Z"></path>
                            <path d="M1156.05882,59.2204732 L1156.05882,24.3892704 L1187.94118,24.3892704 L1187.94118,59.2204732 L1156.05882,59.2204732 Z"></path>
                            <path d="M1196.05882,58.4019854 L1196.05882,23.5707826 L1227.94118,23.5707826 L1227.94118,58.4019854 L1196.05882,58.4019854 Z"></path>
                            <path d="M1236.05882,48.8529612 L1236.05882,14.0217583 L1267.94118,14.0217583 L1267.94118,48.8529612 L1236.05882,48.8529612 Z"></path>
                            <path d="M1276.05882,35.8480995 L1276.05882,0.653124363 L1307.94118,0.653124363 L1307.94118,35.8480995 L1276.05882,35.8480995 Z"></path>
                            <path d="M1316.05882,35.8480995 L1316.05882,0.653124363 L1347.94118,0.653124363 L1347.94118,35.8480995 L1316.05882,35.8480995 Z"></path>
                        </g>
                        <g transform="translate(0.000000, 411.000000)" stroke="#1F77B4" fill="#1F77B4">
                            <path d="M0.0588235294,76 L0.0588235294,76 L31.9411765,76 L0.0588235294,76 Z"></path>
                            <path d="M40.0588235,76 L40.0588235,76 L71.9411765,76 L40.0588235,76 Z"></path>
                            <path d="M80.0588235,76 L80.0588235,76 L111.941176,76 L80.0588235,76 Z"></path>
                            <path d="M120.058824,76 L120.058824,76 L151.941176,76 L120.058824,76 Z"></path>
                            <path d="M160.058824,76 L160.058824,76 L191.941176,76 L160.058824,76 Z"></path>
                            <path d="M200.058824,76 L200.058824,76 L231.941176,76 L200.058824,76 Z"></path>
                            <path d="M240.058824,76 L240.058824,76 L271.941176,76 L240.058824,76 Z"></path>
                            <path d="M279.058824,76 L279.058824,76 L310.941176,76 L279.058824,76 Z"></path>
                            <path d="M319.058824,76 L319.058824,76 L350.941176,76 L319.058824,76 Z"></path>
                            <path d="M359.058824,76 L359.058824,76 L390.941176,76 L359.058824,76 Z"></path>
                            <path d="M399.058824,76 L399.058824,76 L430.941176,76 L399.058824,76 Z"></path>
                            <path d="M439.058824,71.4528456 L439.058824,71.4528456 L470.941176,71.4528456 L439.058824,71.4528456 Z"></path>
                            <path d="M479.058824,71.4528456 L479.058824,71.4528456 L510.941176,71.4528456 L479.058824,71.4528456 Z"></path>
                            <path d="M519.058824,71.4528456 L519.058824,71.4528456 L550.941176,71.4528456 L519.058824,71.4528456 Z"></path>
                            <path d="M558.058824,71.4528456 L558.058824,71.4528456 L589.941176,71.4528456 L558.058824,71.4528456 Z"></path>
                            <path d="M598.058824,71.4528456 L598.058824,71.4528456 L629.941176,71.4528456 L598.058824,71.4528456 Z"></path>
                            <path d="M638.058824,71.4528456 L638.058824,71.4528456 L669.941176,71.4528456 L638.058824,71.4528456 Z"></path>
                            <path d="M678.058824,71.4528456 L678.058824,71.4528456 L709.941176,71.4528456 L678.058824,71.4528456 Z"></path>
                            <path d="M718.058824,61.540049 L718.058824,61.540049 L749.941176,61.540049 L718.058824,61.540049 Z"></path>
                            <path d="M758.058824,61.540049 L758.058824,61.540049 L789.941176,61.540049 L758.058824,61.540049 Z"></path>
                            <path d="M797.058824,52.4457401 L797.058824,52.4457401 L828.941176,52.4457401 L797.058824,52.4457401 Z"></path>
                            <path d="M837.058824,52.4457401 L837.058824,52.4457401 L868.941176,52.4457401 L837.058824,52.4457401 Z"></path>
                            <path d="M877.058824,51.8091385 L877.058824,51.8091385 L908.941176,51.8091385 L877.058824,51.8091385 Z"></path>
                            <path d="M917.058824,51.8091385 L917.058824,51.8091385 L948.941176,51.8091385 L917.058824,51.8091385 Z"></path>
                            <path d="M957.058824,51.8091385 L957.058824,51.8091385 L988.941176,51.8091385 L957.058824,51.8091385 Z"></path>
                            <path d="M997.058824,51.8091385 L997.058824,51.8091385 L1028.94118,51.8091385 L997.058824,51.8091385 Z"></path>
                            <path d="M1037.05882,51.8091385 L1037.05882,51.8091385 L1068.94118,51.8091385 L1037.05882,51.8091385 Z"></path>
                            <path d="M1076.05882,51.8091385 L1076.05882,51.8091385 L1107.94118,51.8091385 L1076.05882,51.8091385 Z"></path>
                            <path d="M1116.05882,49.9902767 L1116.05882,22.7073502 L1147.94118,22.7073502 L1147.94118,49.9902767 L1116.05882,49.9902767 Z"></path>
                            <path d="M1156.05882,49.8993337 L1156.05882,21.5250901 L1187.94118,21.5250901 L1187.94118,49.8993337 L1156.05882,49.8993337 Z"></path>
                            <path d="M1196.05882,49.8083906 L1196.05882,20.7066023 L1227.94118,20.7066023 L1227.94118,49.8083906 L1196.05882,49.8083906 Z"></path>
                            <path d="M1236.05882,40.7140817 L1236.05882,11.157578 L1267.94118,11.157578 L1267.94118,40.7140817 L1236.05882,40.7140817 Z"></path>
                            <path d="M1276.05882,30.0737404 L1276.05882,0.0625212484 L1307.94118,0.0625212484 L1307.94118,30.0737404 L1276.05882,30.0737404 Z"></path>
                            <path d="M1316.05882,30.0737404 L1316.05882,0.0625212484 L1347.94118,0.0625212484 L1347.94118,30.0737404 L1316.05882,30.0737404 Z"></path>
                        </g>
                        <g transform="translate(0.000000, 217.000000)" stroke="#FF7F0E" fill="#FF7F0E">
                            <path d="M0.0588235294,270 L0.0588235294,270 L31.9411765,270 L0.0588235294,270 Z"></path>
                            <path d="M40.0588235,270 L40.0588235,270 L71.9411765,270 L40.0588235,270 Z"></path>
                            <path d="M80.0588235,270 L80.0588235,270 L111.941176,270 L80.0588235,270 Z"></path>
                            <path d="M120.058824,270 L120.058824,270 L151.941176,270 L120.058824,270 Z"></path>
                            <path d="M160.058824,270 L160.058824,270 L191.941176,270 L160.058824,270 Z"></path>
                            <path d="M200.058824,270 L200.058824,270 L231.941176,270 L200.058824,270 Z"></path>
                            <path d="M240.058824,270 L240.058824,270 L271.941176,270 L240.058824,270 Z"></path>
                            <path d="M279.058824,270 L279.058824,270 L310.941176,270 L279.058824,270 Z"></path>
                            <path d="M319.058824,251.811382 L319.058824,251.811382 L350.941176,251.811382 L319.058824,251.811382 Z"></path>
                            <path d="M359.058824,251.811382 L359.058824,251.811382 L390.941176,251.811382 L359.058824,251.811382 Z"></path>
                            <path d="M399.058824,251.811382 L399.058824,251.811382 L430.941176,251.811382 L399.058824,251.811382 Z"></path>
                            <path d="M439.058824,233.622765 L439.058824,233.622765 L470.941176,233.622765 L439.058824,233.622765 Z"></path>
                            <path d="M479.058824,233.622765 L479.058824,233.622765 L510.941176,233.622765 L479.058824,233.622765 Z"></path>
                            <path d="M519.058824,233.622765 L519.058824,233.622765 L550.941176,233.622765 L519.058824,233.622765 Z"></path>
                            <path d="M558.058824,233.622765 L558.058824,233.622765 L589.941176,233.622765 L558.058824,233.622765 Z"></path>
                            <path d="M598.058824,233.622765 L598.058824,233.622765 L629.941176,233.622765 L598.058824,233.622765 Z"></path>
                            <path d="M638.058824,233.622765 L638.058824,233.622765 L669.941176,233.622765 L638.058824,233.622765 Z"></path>
                            <path d="M678.058824,219.981301 L678.058824,206.339838 L709.941176,206.339838 L709.941176,219.981301 L678.058824,219.981301 Z"></path>
                            <path d="M718.058824,210.068505 L718.058824,196.427042 L749.941176,196.427042 L749.941176,210.068505 L718.058824,210.068505 Z"></path>
                            <path d="M758.058824,210.068505 L758.058824,196.427042 L789.941176,196.427042 L789.941176,210.068505 L758.058824,210.068505 Z"></path>
                            <path d="M797.058824,171.417692 L797.058824,157.776229 L828.941176,157.776229 L828.941176,171.417692 L797.058824,171.417692 Z"></path>
                            <path d="M837.058824,171.417692 L837.058824,157.776229 L868.941176,157.776229 L868.941176,171.417692 L837.058824,171.417692 Z"></path>
                            <path d="M877.058824,170.781091 L877.058824,157.139627 L908.941176,157.139627 L908.941176,170.781091 L877.058824,170.781091 Z"></path>
                            <path d="M917.058824,157.139627 L917.058824,109.394506 L948.941176,109.394506 L948.941176,157.139627 L917.058824,157.139627 Z"></path>
                            <path d="M957.058824,157.139627 L957.058824,109.394506 L988.941176,109.394506 L988.941176,157.139627 L957.058824,157.139627 Z"></path>
                            <path d="M997.058824,157.139627 L997.058824,109.394506 L1028.94118,109.394506 L1028.94118,157.139627 L997.058824,157.139627 Z"></path>
                            <path d="M1037.05882,128.765384 L1037.05882,78.1100836 L1068.94118,78.1100836 L1068.94118,128.765384 L1037.05882,128.765384 Z"></path>
                            <path d="M1076.05882,128.765384 L1076.05882,78.1100836 L1107.94118,78.1100836 L1107.94118,128.765384 L1076.05882,128.765384 Z"></path>
                            <path d="M1116.05882,99.6635956 L1116.05882,33.5479704 L1147.94118,33.5479704 L1147.94118,99.6635956 L1116.05882,99.6635956 Z"></path>
                            <path d="M1156.05882,95.3892704 L1156.05882,27.6366696 L1187.94118,27.6366696 L1187.94118,95.3892704 L1156.05882,95.3892704 Z"></path>
                            <path d="M1196.05882,94.5707826 L1196.05882,26.3634664 L1227.94118,26.3634664 L1227.94118,94.5707826 L1196.05882,94.5707826 Z"></path>
                            <path d="M1236.05882,85.0217583 L1236.05882,16.5416128 L1267.94118,16.5416128 L1267.94118,85.0217583 L1236.05882,85.0217583 Z"></path>
                            <path d="M1276.05882,71.6531244 L1276.05882,0.990344734 L1307.94118,0.990344734 L1307.94118,71.6531244 L1276.05882,71.6531244 Z"></path>
                            <path d="M1316.05882,71.6531244 L1316.05882,0.990344734 L1347.94118,0.990344734 L1347.94118,71.6531244 L1316.05882,71.6531244 Z"></path>
                        </g>
                        <g transform="translate(0.000000, 452.000000)" stroke="#2CA02C" fill="#2CA02C">
                            <path d="M0.0588235294,35 L0.0588235294,35 L31.9411765,35 L0.0588235294,35 Z"></path>
                            <path d="M40.0588235,35 L40.0588235,35 L71.9411765,35 L40.0588235,35 Z"></path>
                            <path d="M80.0588235,35 L80.0588235,35 L111.941176,35 L80.0588235,35 Z"></path>
                            <path d="M120.058824,35 L120.058824,35 L151.941176,35 L120.058824,35 Z"></path>
                            <path d="M160.058824,35 L160.058824,35 L191.941176,35 L160.058824,35 Z"></path>
                            <path d="M200.058824,35 L200.058824,35 L231.941176,35 L200.058824,35 Z"></path>
                            <path d="M240.058824,35 L240.058824,35 L271.941176,35 L240.058824,35 Z"></path>
                            <path d="M279.058824,35 L279.058824,35 L310.941176,35 L279.058824,35 Z"></path>
                            <path d="M319.058824,35 L319.058824,35 L350.941176,35 L319.058824,35 Z"></path>
                            <path d="M359.058824,35 L359.058824,35 L390.941176,35 L359.058824,35 Z"></path>
                            <path d="M399.058824,35 L399.058824,35 L430.941176,35 L399.058824,35 Z"></path>
                            <path d="M439.058824,30.4528456 L439.058824,30.4528456 L470.941176,30.4528456 L439.058824,30.4528456 Z"></path>
                            <path d="M479.058824,30.4528456 L479.058824,30.4528456 L510.941176,30.4528456 L479.058824,30.4528456 Z"></path>
                            <path d="M519.058824,30.4528456 L519.058824,30.4528456 L550.941176,30.4528456 L519.058824,30.4528456 Z"></path>
                            <path d="M558.058824,30.4528456 L558.058824,30.4528456 L589.941176,30.4528456 L558.058824,30.4528456 Z"></path>
                            <path d="M598.058824,30.4528456 L598.058824,30.4528456 L629.941176,30.4528456 L598.058824,30.4528456 Z"></path>
                            <path d="M638.058824,30.4528456 L638.058824,30.4528456 L669.941176,30.4528456 L638.058824,30.4528456 Z"></path>
                            <path d="M678.058824,30.4528456 L678.058824,30.4528456 L709.941176,30.4528456 L678.058824,30.4528456 Z"></path>
                            <path d="M718.058824,28.7249269 L718.058824,20.540049 L749.941176,20.540049 L749.941176,28.7249269 L718.058824,28.7249269 Z"></path>
                            <path d="M758.058824,28.7249269 L758.058824,20.540049 L789.941176,20.540049 L789.941176,28.7249269 L758.058824,28.7249269 Z"></path>
                            <path d="M797.058824,28.7249269 L797.058824,20.540049 L828.941176,20.540049 L828.941176,28.7249269 L797.058824,28.7249269 Z"></path>
                            <path d="M837.058824,28.7249269 L837.058824,20.540049 L868.941176,20.540049 L868.941176,28.7249269 L837.058824,28.7249269 Z"></path>
                            <path d="M877.058824,28.7249269 L877.058824,19.9034473 L908.941176,19.9034473 L908.941176,28.7249269 L877.058824,28.7249269 Z"></path>
                            <path d="M917.058824,28.7249269 L917.058824,19.9034473 L948.941176,19.9034473 L948.941176,28.7249269 L917.058824,28.7249269 Z"></path>
                            <path d="M957.058824,28.7249269 L957.058824,19.9034473 L988.941176,19.9034473 L988.941176,28.7249269 L957.058824,28.7249269 Z"></path>
                            <path d="M997.058824,28.7249269 L997.058824,19.9034473 L1028.94118,19.9034473 L1028.94118,28.7249269 L997.058824,28.7249269 Z"></path>
                            <path d="M1037.05882,28.7249269 L1037.05882,19.9034473 L1068.94118,19.9034473 L1068.94118,28.7249269 L1037.05882,28.7249269 Z"></path>
                            <path d="M1076.05882,28.7249269 L1076.05882,19.9034473 L1107.94118,19.9034473 L1107.94118,28.7249269 L1076.05882,28.7249269 Z"></path>
                            <path d="M1116.05882,28.7249269 L1116.05882,19.9034473 L1147.94118,19.9034473 L1147.94118,28.7249269 L1116.05882,28.7249269 Z"></path>
                            <path d="M1156.05882,28.7249269 L1156.05882,19.9034473 L1187.94118,19.9034473 L1187.94118,28.7249269 L1156.05882,28.7249269 Z"></path>
                            <path d="M1196.05882,28.7249269 L1196.05882,19.9034473 L1227.94118,19.9034473 L1227.94118,28.7249269 L1196.05882,28.7249269 Z"></path>
                            <path d="M1236.05882,19.6306181 L1236.05882,10.8091385 L1267.94118,10.8091385 L1267.94118,19.6306181 L1236.05882,19.6306181 Z"></path>
                            <path d="M1276.05882,8.99027674 L1276.05882,0.168797171 L1307.94118,0.168797171 L1307.94118,8.99027674 L1276.05882,8.99027674 Z"></path>
                            <path d="M1316.05882,8.99027674 L1316.05882,0.168797171 L1347.94118,0.168797171 L1347.94118,8.99027674 L1316.05882,8.99027674 Z"></path>
                        </g>
                        <g transform="translate(0.000000, 465.000000)" stroke="#D62728" fill="#D62728">
                            <path d="M0.0588235294,22 L0.0588235294,22 L31.9411765,22 L0.0588235294,22 Z"></path>
                            <path d="M40.0588235,22 L40.0588235,22 L71.9411765,22 L40.0588235,22 Z"></path>
                            <path d="M80.0588235,22 L80.0588235,22 L111.941176,22 L80.0588235,22 Z"></path>
                            <path d="M120.058824,22 L120.058824,22 L151.941176,22 L120.058824,22 Z"></path>
                            <path d="M160.058824,22 L160.058824,22 L191.941176,22 L160.058824,22 Z"></path>
                            <path d="M200.058824,22 L200.058824,22 L231.941176,22 L200.058824,22 Z"></path>
                            <path d="M240.058824,22 L240.058824,22 L271.941176,22 L240.058824,22 Z"></path>
                            <path d="M279.058824,22 L279.058824,22 L310.941176,22 L279.058824,22 Z"></path>
                            <path d="M319.058824,22 L319.058824,22 L350.941176,22 L319.058824,22 Z"></path>
                            <path d="M359.058824,22 L359.058824,22 L390.941176,22 L359.058824,22 Z"></path>
                            <path d="M399.058824,22 L399.058824,22 L430.941176,22 L399.058824,22 Z"></path>
                            <path d="M439.058824,22 L439.058824,22 L470.941176,22 L439.058824,22 Z"></path>
                            <path d="M479.058824,22 L479.058824,22 L510.941176,22 L479.058824,22 Z"></path>
                            <path d="M519.058824,22 L519.058824,22 L550.941176,22 L519.058824,22 Z"></path>
                            <path d="M558.058824,22 L558.058824,22 L589.941176,22 L558.058824,22 Z"></path>
                            <path d="M598.058824,22 L598.058824,22 L629.941176,22 L598.058824,22 Z"></path>
                            <path d="M638.058824,22 L638.058824,22 L669.941176,22 L638.058824,22 Z"></path>
                            <path d="M678.058824,22 L678.058824,22 L709.941176,22 L678.058824,22 Z"></path>
                            <path d="M718.058824,22 L718.058824,20.2720813 L749.941176,20.2720813 L749.941176,22 L718.058824,22 Z"></path>
                            <path d="M758.058824,22 L758.058824,20.2720813 L789.941176,20.2720813 L789.941176,22 L758.058824,22 Z"></path>
                            <path d="M797.058824,22 L797.058824,20.2720813 L828.941176,20.2720813 L828.941176,22 L797.058824,22 Z"></path>
                            <path d="M837.058824,22 L837.058824,20.2720813 L868.941176,20.2720813 L868.941176,22 L837.058824,22 Z"></path>
                            <path d="M877.058824,22 L877.058824,20.2720813 L908.941176,20.2720813 L908.941176,22 L877.058824,22 Z"></path>
                            <path d="M917.058824,22 L917.058824,20.2720813 L948.941176,20.2720813 L948.941176,22 L917.058824,22 Z"></path>
                            <path d="M957.058824,22 L957.058824,20.2720813 L988.941176,20.2720813 L988.941176,22 L957.058824,22 Z"></path>
                            <path d="M997.058824,22 L997.058824,20.2720813 L1028.94118,20.2720813 L1028.94118,22 L997.058824,22 Z"></path>
                            <path d="M1037.05882,22 L1037.05882,20.2720813 L1068.94118,20.2720813 L1068.94118,22 L1037.05882,22 Z"></path>
                            <path d="M1076.05882,22 L1076.05882,20.2720813 L1107.94118,20.2720813 L1107.94118,22 L1076.05882,22 Z"></path>
                            <path d="M1116.05882,22 L1116.05882,20.2720813 L1147.94118,20.2720813 L1147.94118,22 L1116.05882,22 Z"></path>
                            <path d="M1156.05882,22 L1156.05882,20.2720813 L1187.94118,20.2720813 L1187.94118,22 L1156.05882,22 Z"></path>
                            <path d="M1196.05882,22 L1196.05882,20.2720813 L1227.94118,20.2720813 L1227.94118,22 L1196.05882,22 Z"></path>
                            <path d="M1236.05882,12.9056912 L1236.05882,11.1777725 L1267.94118,11.1777725 L1267.94118,12.9056912 L1236.05882,12.9056912 Z"></path>
                            <path d="M1276.05882,2.26534983 L1276.05882,0.537431155 L1307.94118,0.537431155 L1307.94118,2.26534983 L1276.05882,2.26534983 Z"></path>
                            <path d="M1316.05882,2.26534983 L1316.05882,0.537431155 L1347.94118,0.537431155 L1347.94118,2.26534983 L1316.05882,2.26534983 Z"></path>
                        </g>
                        <g transform="translate(0.000000, 359.000000)" stroke="#9467BD" fill="#9467BD">
                            <path d="M0.0588235294,128 L0.0588235294,128 L31.9411765,128 L0.0588235294,128 Z"></path>
                            <path d="M40.0588235,128 L40.0588235,128 L71.9411765,128 L40.0588235,128 Z"></path>
                            <path d="M80.0588235,128 L80.0588235,128 L111.941176,128 L80.0588235,128 Z"></path>
                            <path d="M120.058824,128 L120.058824,128 L151.941176,128 L120.058824,128 Z"></path>
                            <path d="M160.058824,128 L160.058824,128 L191.941176,128 L160.058824,128 Z"></path>
                            <path d="M200.058824,128 L200.058824,128 L231.941176,128 L200.058824,128 Z"></path>
                            <path d="M240.058824,128 L240.058824,128 L271.941176,128 L240.058824,128 Z"></path>
                            <path d="M279.058824,128 L279.058824,128 L310.941176,128 L279.058824,128 Z"></path>
                            <path d="M319.058824,123.452846 L319.058824,123.452846 L350.941176,123.452846 L319.058824,123.452846 Z"></path>
                            <path d="M359.058824,123.452846 L359.058824,123.452846 L390.941176,123.452846 L359.058824,123.452846 Z"></path>
                            <path d="M399.058824,123.452846 L399.058824,123.452846 L430.941176,123.452846 L399.058824,123.452846 Z"></path>
                            <path d="M439.058824,114.358537 L439.058824,114.358537 L470.941176,114.358537 L439.058824,114.358537 Z"></path>
                            <path d="M479.058824,114.358537 L479.058824,114.358537 L510.941176,114.358537 L479.058824,114.358537 Z"></path>
                            <path d="M519.058824,114.358537 L519.058824,114.358537 L550.941176,114.358537 L519.058824,114.358537 Z"></path>
                            <path d="M558.058824,114.358537 L558.058824,114.358537 L589.941176,114.358537 L558.058824,114.358537 Z"></path>
                            <path d="M598.058824,114.358537 L598.058824,114.358537 L629.941176,114.358537 L598.058824,114.358537 Z"></path>
                            <path d="M638.058824,114.358537 L638.058824,114.358537 L669.941176,114.358537 L638.058824,114.358537 Z"></path>
                            <path d="M678.058824,109.811382 L678.058824,109.811382 L709.941176,109.811382 L678.058824,109.811382 Z"></path>
                            <path d="M718.058824,99.8985857 L718.058824,99.8985857 L749.941176,99.8985857 L718.058824,99.8985857 Z"></path>
                            <path d="M758.058824,99.8985857 L758.058824,99.8985857 L789.941176,99.8985857 L758.058824,99.8985857 Z"></path>
                            <path d="M797.058824,83.9835453 L797.058824,83.9835453 L828.941176,83.9835453 L797.058824,83.9835453 Z"></path>
                            <path d="M837.058824,83.9835453 L837.058824,83.9835453 L868.941176,83.9835453 L837.058824,83.9835453 Z"></path>
                            <path d="M877.058824,83.3469436 L877.058824,83.3469436 L908.941176,83.3469436 L877.058824,83.3469436 Z"></path>
                            <path d="M917.058824,83.3469436 L917.058824,83.3469436 L948.941176,83.3469436 L917.058824,83.3469436 Z"></path>
                            <path d="M957.058824,83.3469436 L957.058824,83.3469436 L988.941176,83.3469436 L957.058824,83.3469436 Z"></path>
                            <path d="M997.058824,83.3469436 L997.058824,83.3469436 L1028.94118,83.3469436 L997.058824,83.3469436 Z"></path>
                            <path d="M1037.05882,83.3469436 L1037.05882,56.0640171 L1068.94118,56.0640171 L1068.94118,83.3469436 L1037.05882,83.3469436 Z"></path>
                            <path d="M1076.05882,83.3469436 L1076.05882,56.0640171 L1107.94118,56.0640171 L1107.94118,83.3469436 L1076.05882,83.3469436 Z"></path>
                            <path d="M1116.05882,54.2451554 L1116.05882,26.9622289 L1147.94118,26.9622289 L1147.94118,54.2451554 L1116.05882,54.2451554 Z"></path>
                            <path d="M1156.05882,53.0628952 L1156.05882,23.0516761 L1187.94118,23.0516761 L1187.94118,53.0628952 L1156.05882,53.0628952 Z"></path>
                            <path d="M1196.05882,52.2444074 L1196.05882,22.2331883 L1227.94118,22.2331883 L1227.94118,52.2444074 L1196.05882,52.2444074 Z"></path>
                            <path d="M1236.05882,42.6953832 L1236.05882,12.684164 L1267.94118,12.684164 L1267.94118,42.6953832 L1236.05882,42.6953832 Z"></path>
                            <path d="M1276.05882,31.6003264 L1276.05882,0.0430747263 L1307.94118,0.0430747263 L1307.94118,31.6003264 L1276.05882,31.6003264 Z"></path>
                            <path d="M1316.05882,31.6003264 L1316.05882,0.0430747263 L1347.94118,0.0430747263 L1347.94118,31.6003264 L1316.05882,31.6003264 Z"></path>
                        </g>
                        <g transform="translate(0.000000, 467.000000)" stroke="#8C564B" fill="#8C564B">
                            <path d="M0.0588235294,20 L0.0588235294,20 L31.9411765,20 L0.0588235294,20 Z"></path>
                            <path d="M40.0588235,20 L40.0588235,20 L71.9411765,20 L40.0588235,20 Z"></path>
                            <path d="M80.0588235,20 L80.0588235,20 L111.941176,20 L80.0588235,20 Z"></path>
                            <path d="M120.058824,20 L120.058824,20 L151.941176,20 L120.058824,20 Z"></path>
                            <path d="M160.058824,20 L160.058824,20 L191.941176,20 L160.058824,20 Z"></path>
                            <path d="M200.058824,20 L200.058824,20 L231.941176,20 L200.058824,20 Z"></path>
                            <path d="M240.058824,20 L240.058824,20 L271.941176,20 L240.058824,20 Z"></path>
                            <path d="M279.058824,20 L279.058824,20 L310.941176,20 L279.058824,20 Z"></path>
                            <path d="M319.058824,20 L319.058824,20 L350.941176,20 L319.058824,20 Z"></path>
                            <path d="M359.058824,20 L359.058824,20 L390.941176,20 L359.058824,20 Z"></path>
                            <path d="M399.058824,20 L399.058824,20 L430.941176,20 L399.058824,20 Z"></path>
                            <path d="M439.058824,20 L439.058824,20 L470.941176,20 L439.058824,20 Z"></path>
                            <path d="M479.058824,20 L479.058824,20 L510.941176,20 L479.058824,20 Z"></path>
                            <path d="M519.058824,20 L519.058824,20 L550.941176,20 L519.058824,20 Z"></path>
                            <path d="M558.058824,20 L558.058824,20 L589.941176,20 L558.058824,20 Z"></path>
                            <path d="M598.058824,20 L598.058824,20 L629.941176,20 L598.058824,20 Z"></path>
                            <path d="M638.058824,20 L638.058824,20 L669.941176,20 L638.058824,20 Z"></path>
                            <path d="M678.058824,20 L678.058824,20 L709.941176,20 L678.058824,20 Z"></path>
                            <path d="M718.058824,20 L718.058824,20 L749.941176,20 L718.058824,20 Z"></path>
                            <path d="M758.058824,20 L758.058824,20 L789.941176,20 L758.058824,20 Z"></path>
                            <path d="M797.058824,20 L797.058824,20 L828.941176,20 L797.058824,20 Z"></path>
                            <path d="M837.058824,20 L837.058824,20 L868.941176,20 L837.058824,20 Z"></path>
                            <path d="M877.058824,20 L877.058824,20 L908.941176,20 L877.058824,20 Z"></path>
                            <path d="M917.058824,20 L917.058824,20 L948.941176,20 L917.058824,20 Z"></path>
                            <path d="M957.058824,20 L957.058824,20 L988.941176,20 L957.058824,20 Z"></path>
                            <path d="M997.058824,20 L997.058824,20 L1028.94118,20 L997.058824,20 Z"></path>
                            <path d="M1037.05882,20 L1037.05882,20 L1068.94118,20 L1037.05882,20 Z"></path>
                            <path d="M1076.05882,20 L1076.05882,20 L1107.94118,20 L1076.05882,20 Z"></path>
                            <path d="M1116.05882,20 L1116.05882,20 L1147.94118,20 L1116.05882,20 Z"></path>
                            <path d="M1156.05882,20 L1156.05882,20 L1187.94118,20 L1156.05882,20 Z"></path>
                            <path d="M1196.05882,20 L1196.05882,20 L1227.94118,20 L1196.05882,20 Z"></path>
                            <path d="M1236.05882,20 L1236.05882,10.9056912 L1267.94118,10.9056912 L1267.94118,20 L1236.05882,20 Z"></path>
                            <path d="M1276.05882,9.45060175 L1276.05882,0.265349833 L1307.94118,0.265349833 L1307.94118,9.45060175 L1276.05882,9.45060175 Z"></path>
                            <path d="M1316.05882,9.45060175 L1316.05882,0.265349833 L1347.94118,0.265349833 L1347.94118,9.45060175 L1316.05882,9.45060175 Z"></path>
                        </g>
                        <g transform="translate(0.000000, 476.000000)" stroke="#E377C2" fill="#E377C2">
                            <path d="M0.0588235294,11 L0.0588235294,11 L31.9411765,11 L0.0588235294,11 Z"></path>
                            <path d="M40.0588235,11 L40.0588235,11 L71.9411765,11 L40.0588235,11 Z"></path>
                            <path d="M80.0588235,11 L80.0588235,11 L111.941176,11 L80.0588235,11 Z"></path>
                            <path d="M120.058824,11 L120.058824,11 L151.941176,11 L120.058824,11 Z"></path>
                            <path d="M160.058824,11 L160.058824,11 L191.941176,11 L160.058824,11 Z"></path>
                            <path d="M200.058824,11 L200.058824,11 L231.941176,11 L200.058824,11 Z"></path>
                            <path d="M240.058824,11 L240.058824,11 L271.941176,11 L240.058824,11 Z"></path>
                            <path d="M279.058824,11 L279.058824,11 L310.941176,11 L279.058824,11 Z"></path>
                            <path d="M319.058824,11 L319.058824,11 L350.941176,11 L319.058824,11 Z"></path>
                            <path d="M359.058824,11 L359.058824,11 L390.941176,11 L359.058824,11 Z"></path>
                            <path d="M399.058824,11 L399.058824,11 L430.941176,11 L399.058824,11 Z"></path>
                            <path d="M439.058824,11 L439.058824,11 L470.941176,11 L439.058824,11 Z"></path>
                            <path d="M479.058824,11 L479.058824,11 L510.941176,11 L479.058824,11 Z"></path>
                            <path d="M519.058824,11 L519.058824,11 L550.941176,11 L519.058824,11 Z"></path>
                            <path d="M558.058824,11 L558.058824,11 L589.941176,11 L558.058824,11 Z"></path>
                            <path d="M598.058824,11 L598.058824,11 L629.941176,11 L598.058824,11 Z"></path>
                            <path d="M638.058824,11 L638.058824,11 L669.941176,11 L638.058824,11 Z"></path>
                            <path d="M678.058824,11 L678.058824,11 L709.941176,11 L678.058824,11 Z"></path>
                            <path d="M718.058824,11 L718.058824,11 L749.941176,11 L718.058824,11 Z"></path>
                            <path d="M758.058824,11 L758.058824,11 L789.941176,11 L758.058824,11 Z"></path>
                            <path d="M797.058824,11 L797.058824,11 L828.941176,11 L797.058824,11 Z"></path>
                            <path d="M837.058824,11 L837.058824,11 L868.941176,11 L837.058824,11 Z"></path>
                            <path d="M877.058824,11 L877.058824,11 L908.941176,11 L877.058824,11 Z"></path>
                            <path d="M917.058824,11 L917.058824,11 L948.941176,11 L917.058824,11 Z"></path>
                            <path d="M957.058824,11 L957.058824,11 L988.941176,11 L957.058824,11 Z"></path>
                            <path d="M997.058824,11 L997.058824,11 L1028.94118,11 L997.058824,11 Z"></path>
                            <path d="M1037.05882,11 L1037.05882,11 L1068.94118,11 L1037.05882,11 Z"></path>
                            <path d="M1076.05882,11 L1076.05882,11 L1107.94118,11 L1076.05882,11 Z"></path>
                            <path d="M1116.05882,11 L1116.05882,11 L1147.94118,11 L1116.05882,11 Z"></path>
                            <path d="M1156.05882,11 L1156.05882,11 L1187.94118,11 L1156.05882,11 Z"></path>
                            <path d="M1196.05882,11 L1196.05882,11 L1227.94118,11 L1196.05882,11 Z"></path>
                            <path d="M1236.05882,11 L1236.05882,11 L1267.94118,11 L1236.05882,11 Z"></path>
                            <path d="M1276.05882,11 L1276.05882,0.450601754 L1307.94118,0.450601754 L1307.94118,11 L1276.05882,11 Z"></path>
                            <path d="M1316.05882,11 L1316.05882,0.450601754 L1347.94118,0.450601754 L1347.94118,11 L1316.05882,11 Z"></path>
                        </g>
                    </g>
                </g>
            </g>
        </g>
    </g>
</svg>