<?xml version="1.0" encoding="utf-8"?>
<!-- Generator: Adobe Illustrator 25.2.1, SVG Export Plug-In . SVG Version: 6.00 Build 0)  -->
<svg version="1.1" id="Layer_1" xmlns="http://www.w3.org/2000/svg" xmlns:xlink="http://www.w3.org/1999/xlink" x="0px" y="0px"
	 viewBox="0 0 487.8 638" style="enable-background:new 0 0 487.8 638;" xml:space="preserve">
<style type="text/css">
	.st0{fill-rule:evenodd;clip-rule:evenodd;fill:#F95928;}
	.st1{fill-rule:evenodd;clip-rule:evenodd;fill:#F98A70;}
	.st2{fill-rule:evenodd;clip-rule:evenodd;fill:#F9B903;}
</style>
<g>
	<path class="st0" d="M337.5,9.7c0,0-37.7,64.8-5,131.2c32.7,66.3,61.3,118.6,54.8,174.4c0,0,16.6-90.5,100.5-114.1
		c0,0-31.2,58.8-14.1,141.7c17.1,82.9-21.6,237.7-180.4,277.9c0,0,140.7-74.9,39.7-196.5c0,0-2.5,59.8-54.5,77.6
		c0,0,81.9-139.5-38.7-269.1c0,0,27.6,90-64.8,166.9s-46.7,200.5,6.5,217.6c0,0-290.5-129.7-117.6-397c0,0,6,60.8,50.3,84.4
		C114.1,304.7,107.6,43.9,337.5,9.7L337.5,9.7z"/>
	<path class="st1" d="M271.7,120.7c0,0-3.3,62.1,32.4,116.4c42.3,64.5,75.1,121.4,68.5,177.2c0,0,14.7-63.5,55.4-116.9
		c0,0-6.3-19.1,10.7,63.8c17.1,82.9,13.3,219.3-145.5,259.6c0,0,140.7-74.9,39.7-196.5c0,0-2.5,59.8-54.5,77.6
		c0,0,81.9-139.5-38.7-269.1c0,0,27.6,90-64.8,166.9s-46.7,200.5,6.5,217.6c0,0-181.4-63.6-107-292.7c0,0,28.3,30.6,75.8,41.3
		C150.2,365.8,150.2,195.8,271.7,120.7L271.7,120.7z"/>
	<path class="st2" d="M229.7,616.5"/>
	<path class="st2" d="M293.3,620.8c42.9-18.2,72.4-57.6,75.8-102.1c4.1-53.2-30.8-89.1-36.1-94.5c0,0-2.5,59.8-54.5,77.6
		c0,0,81.9-139.5-38.7-269.1c0,0,27.6,90-64.8,166.9s-47.6,198.8,4.2,216.8c15.2,9.1,34.7,8.9,57,9.7
		C259.3,627,278.9,624.1,293.3,620.8z"/>
</g>
</svg>
