<svg id="Layer_1" data-name="Layer 1" xmlns="http://www.w3.org/2000/svg" xmlns:xlink="http://www.w3.org/1999/xlink" viewBox="0 0 240 240"><defs><style>.cls-1{fill:#7fb752;stroke:#231f20;stroke-miterlimit:10;stroke-width:2px;}.cls-2{fill:#aaa181;}.cls-3{opacity:0.71;}.cls-3,.cls-4{filter:url(#AI_GaussianBlur_4);}.cls-4{opacity:0.59;}.cls-5{fill:#2a331f;}.cls-6{fill:#a08778;}.cls-7{fill:#a39371;}.cls-8{fill:#5b6358;}.cls-9{fill:#7a7561;}.cls-10{fill:#917767;}.cls-11{fill:#b4a891;}.cls-12{fill:#733d3a;}.cls-13{fill:#697f36;}.cls-14{fill:#4a5e2a;}</style><filter id="AI_GaussianBlur_4" name="AI_GaussianBlur_4"><feGaussianBlur stdDeviation="4"/></filter></defs><ellipse class="cls-1" cx="120" cy="120" rx="115.95215" ry="110.91075"/><rect class="cls-2" x="191.59398" y="125.05236" width="21.11913" height="4.41395"/><g class="cls-3"><rect class="cls-2" x="12.54579" y="97.30749" width="22.6357" height="53.66516"/></g><g class="cls-4"><rect class="cls-2" x="205.39365" y="99.95354" width="22.6357" height="53.66516"/></g><rect class="cls-5" x="28.20306" y="118.37355" width="19.58763" height="7.23078"/><path class="cls-5" d="M52.95714,116.228l-.127,19.01684H186.162V115.8819S113.29242,113.36667,52.95714,116.228Z"/><rect class="cls-6" x="69.35504" y="115.96386" width="7.46547" height="19.28094"/><rect class="cls-6" x="98.37707" y="115.6422" width="8.35619" height="19.28094"/><rect class="cls-6" x="130.99317" y="115.10481" width="8.35619" height="20.13999"/><rect class="cls-6" x="162.22023" y="114.69486" width="7.04967" height="20.54994"/><rect class="cls-6" x="186.16199" y="115.10481" width="5.57079" height="19.28094"/><polygon class="cls-7" points="19.398 87.833 47.791 87.833 47.791 90.708 23.71 90.708 24.07 99.334 19.398 99.334 19.398 87.833"/><rect class="cls-8" x="106.05938" y="89.8099" width="24.93379" height="17.07178"/><path class="cls-2" d="M47.79068,82.29824v36.08443s120.401-3.72,143.9421,0V82.29824S118.77336,67.97607,47.79068,82.29824Z"/><polygon class="cls-9" points="69.355 111.195 69.355 115.672 51.924 115.672 51.924 111.195 69.355 110.925 69.355 111.195"/><polygon class="cls-9" points="76.274 115.672 76.274 110.386 98.377 109.712 98.377 115.238 76.274 115.672"/><rect class="cls-9" x="106.73326" y="109.712" width="24.2599" height="5.12154"/><polygon class="cls-9" points="139.349 109.712 139.349 114.56 162.127 114.834 162.127 110.291 139.349 109.712"/><polygon class="cls-9" points="169.27 110.925 169.27 114.545 186.162 115.105 186.162 111.953 169.27 110.925"/><polygon class="cls-8" points="51.924 93.692 51.924 109.667 69.355 108.761 69.355 91.927 51.924 93.692"/><polygon class="cls-5" points="52.83 95.193 52.83 110.243 68.824 109.39 68.824 93.531 52.83 95.193"/><polygon class="cls-10" points="50.531 110.453 70.748 109.577 70.748 111.037 50.531 111.767 50.531 110.453"/><polygon class="cls-8" points="76.274 92.051 76.274 108.499 98.377 108.499 98.377 89.81 76.274 90.913 76.274 92.051"/><polygon class="cls-5" points="76.821 93.531 76.821 109.03 97.846 109.03 97.846 91.419 76.821 92.459 76.821 93.531"/><rect class="cls-10" x="75.28524" y="109.03812" width="24.0802" height="1.07822" transform="translate(-0.86196 0.6925) rotate(-0.45213)"/><rect class="cls-5" x="106.73326" y="90.61856" width="24.2599" height="17.07178"/><rect class="cls-10" x="106.05938" y="108.49901" width="25.60768" height="1.07822"/><polygon class="cls-8" points="162.208 92.179 162.03 108.626 139.041 108.378 139.243 89.69 162.22 91.041 162.208 92.179"/><polygon class="cls-5" points="161.254 93.119 161.087 108.617 139.041 108.379 139.232 90.769 161.266 92.047 161.254 93.119"/><polygon class="cls-8" points="186.934 93.68 186.915 109.656 168.991 108.728 169.011 91.894 186.934 93.68"/><polygon class="cls-5" points="186.169 94.649 186.151 109.7 168.991 108.825 169.01 92.966 186.169 94.649"/><polygon class="cls-10" points="187.88 110.583 167.663 109.721 167.663 111.158 187.88 111.876 187.88 110.583"/><rect class="cls-10" x="138.5907" y="109.17289" width="24.0802" height="1.07822"/><path class="cls-10" d="M47.79068,83.52029s76.19407-14.73564,143.9421,0V82.08267s-66.84951-14.19654-143.9421,0Z"/><polygon class="cls-11" points="23.71 90.708 23.71 118.383 28.742 118.383 28.742 96.439 47.791 96.439 47.791 90.708 23.71 90.708"/><rect class="cls-6" x="23.35107" y="118.38267" width="4.85198" height="32.03206"/><rect class="cls-2" x="28.74216" y="96.43894" width="19.04852" height="21.94373"/><rect class="cls-5" x="32.69361" y="101.34178" width="11.14563" height="13.35761"/><rect class="cls-12" x="23.35107" y="118.38267" width="4.85198" height="3.23465"/><rect class="cls-12" x="23.35107" y="122.11151" width="4.85198" height="0.90975"/><rect class="cls-12" x="23.35107" y="123.92539" width="4.85198" height="0.81989"/><rect class="cls-6" x="47.79068" y="116.86634" width="5.16646" height="35.43527"/><polygon class="cls-11" points="216.711 90.708 216.711 118.383 211.492 118.383 211.492 96.439 191.733 96.439 191.733 90.708 216.711 90.708"/><polygon class="cls-7" points="220.126 87.78 191.733 87.78 191.733 90.656 215.813 90.656 215.454 99.281 220.126 99.281 220.126 87.78"/><rect class="cls-2" x="191.73278" y="95.90982" width="19.75928" height="21.94373"/><rect class="cls-5" x="195.68422" y="100.81266" width="11.14563" height="13.35761"/><rect class="cls-6" x="211.85951" y="118.38267" width="4.85198" height="32.03206"/><rect class="cls-12" x="211.85951" y="118.38267" width="4.85198" height="3.23465"/><rect class="cls-12" x="211.85951" y="122.11151" width="4.85198" height="0.90975"/><rect class="cls-12" x="211.85951" y="123.92539" width="4.85198" height="0.81989"/><circle class="cls-5" cx="117.15604" cy="83.61014" r="2.60569"/><rect class="cls-13" x="23.2885" y="144.34976" width="193.42299" height="9.16485" rx="4.14"/><rect class="cls-14" x="17.70407" y="134.38575" width="200.62475" height="13.00764" rx="4.14"/><rect class="cls-2" x="28.20306" y="125.64941" width="19.58763" height="4.41395"/><rect class="cls-10" x="27.97843" y="130.06337" width="20.03688" height="2.20698"/><rect class="cls-2" x="28.20306" y="132.19173" width="19.58763" height="2.20698"/><rect class="cls-10" x="191.59398" y="129.21959" width="20.26553" height="2.20698"/><rect class="cls-2" x="191.59398" y="131.42656" width="20.26553" height="2.97214"/><rect class="cls-5" x="191.73278" y="118.00194" width="20.12673" height="7.23078"/></svg>