<svg id="Layer_1" data-name="Layer 1" xmlns="http://www.w3.org/2000/svg" viewBox="0 0 240 240"><defs><style>.cls-1{fill:#f9dc19;stroke:#231f20;stroke-width:2px;}.cls-1,.cls-5{stroke-miterlimit:10;}.cls-2{fill:#c6c0ba;opacity:0.63;}.cls-3{fill:#fff;}.cls-4{fill:#262262;}.cls-5{fill:none;stroke:#7b7b7b;stroke-width:0.25px;}.cls-6{fill:#231f20;}</style></defs><ellipse class="cls-1" cx="120" cy="120" rx="115.95215" ry="110.91075"/><rect class="cls-2" x="60.45953" y="151.21218" width="39.92451" height="3.52845" transform="translate(233.39819 72.55462) rotate(90)"/><rect class="cls-2" x="121.07448" y="151.50526" width="39.92451" height="3.52845" transform="translate(294.30623 12.23275) rotate(90)"/><rect class="cls-3" x="21.37945" y="162.61601" width="195.27582" height="3.15358"/><rect class="cls-3" x="19.47435" y="165.76959" width="201.05131" height="3.62694"/><rect class="cls-4" x="40.87439" y="57.03455" width="154.28737" height="73.96578"/><rect class="cls-3" x="26.80851" y="161.03923" width="182.85276" height="2.00469"/><rect class="cls-3" x="25.68587" y="129.1752" width="182.85276" height="4.00938"/><rect class="cls-3" x="64.13297" y="149.138" width="39.92451" height="7.05691" transform="translate(236.76168 68.57123) rotate(90)"/><rect class="cls-3" x="125.10651" y="149.95869" width="40.26851" height="7.09488" transform="translate(298.74689 8.26536) rotate(90)"/><rect class="cls-3" x="39.92886" y="91.66407" width="74.22851" height="4.96947" transform="translate(171.19192 17.10568) rotate(90)"/><rect class="cls-3" x="79.59874" y="91.84444" width="74.22851" height="4.60873" transform="translate(210.8618 -22.56419) rotate(90)"/><rect class="cls-3" x="118.43495" y="91.95336" width="74.61234" height="4.00706" transform="translate(249.698 -61.78423) rotate(90)"/><rect class="cls-3" x="156.49176" y="91.59025" width="75.19627" height="4.14935" transform="translate(287.75482 -100.42497) rotate(90)"/><rect class="cls-3" x="4.89077" y="91.82481" width="74.85269" height="4.02381" transform="translate(136.15383 51.5196) rotate(90)"/><rect class="cls-3" x="40.30521" y="78.72533" width="155.85937" height="2.00469"/><rect class="cls-3" x="40.30521" y="104.40676" width="155.85937" height="1.95239"/><rect class="cls-3" x="55.23771" y="94.0195" width="71.95784" height="0.63254" transform="translate(185.5524 3.11913) rotate(90)"/><rect class="cls-3" x="65.51643" y="93.61283" width="71.95784" height="0.63254" transform="translate(195.42446 -7.56625) rotate(90)"/><rect class="cls-3" x="71.33956" y="93.17807" width="71.95784" height="0.63254" transform="translate(200.81282 -13.82414) rotate(90)"/><rect class="cls-3" x="60.8942" y="93.17807" width="71.95784" height="0.63254" transform="translate(190.36746 -3.37879) rotate(90)"/><rect class="cls-3" x="49.77317" y="93.61283" width="71.95784" height="0.63254" transform="translate(179.6812 8.17701) rotate(90)"/><rect class="cls-3" x="40.87439" y="56.20489" width="155.85937" height="1.95239"/><rect class="cls-2" x="65.32049" y="106.35915" width="4.832" height="22.81605"/><polygon class="cls-5" points="77.043 153.799 79.528 163.044 88.998 163.044 91.217 153.799 77.043 153.799"/><line class="cls-5" x1="79.52785" y1="163.04392" x2="79.67987" y2="172.11778"/><line class="cls-5" x1="88.99803" y1="163.04392" x2="88.99803" y2="171.69574"/><polygon class="cls-5" points="137.646 155.615 140.13 164.86 149.6 164.86 151.819 155.615 137.646 155.615"/><line class="cls-5" x1="140.13029" y1="164.8596" x2="140.28231" y2="173.93347"/><line class="cls-5" x1="149.60046" y1="164.8596" x2="149.60046" y2="173.51143"/><rect class="cls-3" x="18.96291" y="94.00545" width="71.95784" height="0.63254" transform="translate(149.26355 39.37989) rotate(90)"/><rect class="cls-3" x="29.24163" y="93.59878" width="71.95784" height="0.63254" transform="translate(159.1356 28.6945) rotate(90)"/><rect class="cls-3" x="34.06868" y="93.16402" width="71.95784" height="0.63254" transform="translate(163.52789 23.43269) rotate(90)"/><rect class="cls-3" x="24.6194" y="93.16402" width="71.95784" height="0.63254" transform="translate(154.0786 32.88197) rotate(90)"/><rect class="cls-3" x="13.49837" y="93.59878" width="71.95784" height="0.63254" transform="translate(143.39234 44.43777) rotate(90)"/><rect class="cls-3" x="94.66848" y="94.25325" width="71.95784" height="0.63254" transform="translate(225.21692 -36.07788) rotate(90)"/><rect class="cls-3" x="104.9472" y="93.84658" width="71.95784" height="0.63254" transform="translate(235.08897 -46.76327) rotate(90)"/><rect class="cls-3" x="110.77032" y="93.41182" width="71.95784" height="0.63254" transform="translate(240.47733 -53.02116) rotate(90)"/><rect class="cls-3" x="100.32497" y="93.41182" width="71.95784" height="0.63254" transform="translate(230.03197 -42.5758) rotate(90)"/><rect class="cls-3" x="89.20394" y="93.84658" width="71.95784" height="0.63254" transform="translate(219.34571 -31.02001) rotate(90)"/><rect class="cls-3" x="133.49732" y="93.59878" width="71.95784" height="0.63254" transform="translate(263.39129 -75.56118) rotate(90)"/><rect class="cls-3" x="143.77604" y="93.19212" width="71.95784" height="0.63254" transform="translate(273.26334 -86.24657) rotate(90)"/><rect class="cls-3" x="149.59916" y="92.75735" width="71.95784" height="0.63254" transform="translate(278.6517 -92.50446) rotate(90)"/><rect class="cls-3" x="139.15381" y="92.75735" width="71.95784" height="0.63254" transform="translate(268.20635 -82.0591) rotate(90)"/><rect class="cls-3" x="128.03278" y="93.19212" width="71.95784" height="0.63254" transform="translate(257.52008 -70.50331) rotate(90)"/><rect class="cls-2" x="44.43731" y="58.23211" width="4.53576" height="20.57113"/><rect class="cls-2" x="65.4686" y="57.95759" width="4.53576" height="20.57113"/><rect class="cls-2" x="80.21396" y="58.23211" width="4.53576" height="20.57113"/><rect class="cls-2" x="91.777" y="58.51989" width="4.53576" height="20.57113"/><rect class="cls-2" x="102.54027" y="58.51989" width="4.53576" height="20.57113"/><rect class="cls-2" x="119.67409" y="57.95759" width="4.53576" height="20.57113"/><rect class="cls-2" x="131.20776" y="58.23211" width="4.53576" height="20.57113"/><rect class="cls-2" x="141.82078" y="58.95706" width="4.53576" height="20.57113"/><rect class="cls-2" x="158.45215" y="58.51989" width="4.53576" height="20.57113"/><rect class="cls-2" x="170.31545" y="58.23211" width="4.53576" height="20.57113"/><rect class="cls-2" x="180.39864" y="57.95759" width="4.53576" height="20.57113"/><rect class="cls-2" x="49.94168" y="80.74942" width="4.68388" height="24.13237"/><rect class="cls-2" x="60.60704" y="80.56902" width="4.71345" height="23.83775"/><rect class="cls-2" x="55.08104" y="58.95706" width="4.53576" height="20.57113"/><rect class="cls-2" x="70.06002" y="80.59129" width="4.71345" height="23.83775"/><rect class="cls-2" x="86.32632" y="80.59129" width="4.71345" height="23.83775"/><rect class="cls-2" x="96.91083" y="80.59129" width="4.71345" height="23.83775"/><rect class="cls-2" x="108.66496" y="80.59129" width="4.71345" height="23.83775"/><rect class="cls-2" x="125.61117" y="80.59129" width="4.71345" height="23.83775"/><rect class="cls-2" x="136.10336" y="80.92663" width="4.71345" height="23.83775"/><rect class="cls-2" x="148.04483" y="80.59129" width="4.71345" height="23.83775"/><rect class="cls-2" x="164.38724" y="80.12454" width="4.71345" height="23.83775"/><rect class="cls-2" x="175.17044" y="80.12454" width="4.71345" height="23.83775"/><rect class="cls-2" x="186.59806" y="80.33526" width="4.71345" height="23.83775"/><rect class="cls-2" x="44.43394" y="106.80363" width="4.5425" height="22.90618"/><rect class="cls-2" x="55.49882" y="106.80363" width="4.5425" height="22.90618"/><rect class="cls-2" x="80.21059" y="106.14636" width="4.5425" height="22.90618"/><rect class="cls-2" x="91.77363" y="106.80363" width="4.5425" height="22.90618"/><rect class="cls-2" x="102.13567" y="106.54783" width="4.5425" height="22.90618"/><rect class="cls-2" x="120.01337" y="106.80363" width="4.5425" height="22.90618"/><rect class="cls-2" x="131.20439" y="106.54783" width="4.5425" height="22.90618"/><rect class="cls-2" x="141.81741" y="106.80363" width="4.5425" height="22.90618"/><rect class="cls-2" x="158.44879" y="105.89337" width="5.24664" height="22.90618"/><rect class="cls-2" x="170.03323" y="106.14636" width="4.5425" height="22.90618"/><rect class="cls-2" x="180.39527" y="106.54783" width="4.5425" height="22.90618"/><rect class="cls-3" x="24.05293" y="146.76728" width="35.12344" height="1.40492" transform="translate(189.08439 105.85509) rotate(90)"/><rect class="cls-3" x="178.30251" y="146.76728" width="35.12344" height="1.40492" transform="translate(343.33397 -48.39448) rotate(90)"/><rect class="cls-3" x="40.30521" y="72.92204" width="155.85937" height="1.00235"/><rect class="cls-3" x="42.08369" y="98.91969" width="155.85937" height="1.00235"/><rect class="cls-3" x="42.08369" y="123.5991" width="155.85937" height="1.00235"/><path class="cls-6" d="M91.1416,132.67578a.68879.68879,0,0,1-.72168.55664c-.56445,0-.80273-.50195-.80273-1.06152,0-.58594.26172-1.09668.82422-1.09668a.6597.6597,0,0,1,.70019.55859H91.082a.62275.62275,0,0,0-.63769-.50195c-.4961,0-.76368.43652-.76368,1.03711,0,.52637.22852,1.00683.74219,1.00683a.63657.63657,0,0,0,.65527-.499Z"/><path class="cls-6" d="M91.56738,131.10059h.06055v.959h1.26855v-.959h.05957v2.09863h-.05957v-1.085H91.62793v1.085h-.06055Z"/><path class="cls-6" d="M93.6748,132.38184l-.29492.81738h-.06347l.76367-2.09863h.06347l.748,2.09863h-.06543l-.292-.81738Zm.8418-.05469c-.24121-.67285-.373-1.04883-.40625-1.16309h-.00293c-.02441.10254-.21972.625-.41211,1.16309Z"/><path class="cls-6" d="M95.29688,132.14746v1.05176h-.06055v-2.09863h.64648a.51236.51236,0,0,1,.58008.52343.4635.4635,0,0,1-.418.4961c.26465.05664.38184.22265.38184.53515v.12891a1.41852,1.41852,0,0,0,.04492.415h-.05957a1.39491,1.39491,0,0,1-.04492-.39649v-.1416c0-.376-.18067-.51367-.53516-.51367Zm0-.05469h.53222c.28516,0,.57129-.08691.57129-.47168,0-.29785-.19629-.46582-.52051-.46582h-.583Z"/><path class="cls-6" d="M96.97656,131.10059h.06055v2.04492H98.125l-.01465.05371H96.97656Z"/><path class="cls-6" d="M99.541,132.11426h-1.043v1.03125h1.13574l-.01172.05371H98.4375v-2.09863h1.16113v.05468H98.49805v.9043h1.043Z"/><path class="cls-6" d="M99.9668,132.66992a.54506.54506,0,0,0,.59472.502c.34961,0,.57422-.17969.57422-.49317,0-.28223-.14062-.43262-.57031-.55859-.40332-.11719-.584-.25-.584-.54395a.50762.50762,0,0,1,.57714-.50488.5463.5463,0,0,1,.60157.51074h-.06055a.49815.49815,0,0,0-.54395-.4541c-.3125,0-.51074.16895-.51074.44531,0,.26465.15918.38184.54395.49317.49316.14062.61035.33007.61035.60937,0,.34277-.23438.55371-.64063.55371a.5946.5946,0,0,1-.65527-.55957Z"/><path class="cls-6" d="M103.45605,132.11426h-1.043v1.03125h1.13574l-.01172.05371h-1.18457v-2.09863h1.16113v.05468h-1.10058v.9043h1.043Z"/><path class="cls-6" d="M105.08691,133.19922v-.86231a.07036.07036,0,0,0-.01562-.043l-.67871-1.19336h.06933c.21582.373.57618,1.01074.65528,1.1582.18261-.30957.44726-.76074.67871-1.1582h.0664l-.70019,1.19043a.106.106,0,0,0-.01563.04589v.86231Z"/><path class="cls-6" d="M107.65332,132.1084c0,.62793-.24609,1.12109-.84766,1.12109-.55273,0-.82714-.47168-.82714-1.10058,0-.58594.29492-1.05762.84765-1.05762C107.3584,131.07129,107.65332,131.51855,107.65332,132.1084Zm-1.61133.01758c0,.5625.23731,1.0459.76367,1.0459.55274,0,.78418-.45411.78418-1.06348,0-.55664-.26757-.98047-.7666-.98047C106.30664,131.12793,106.042,131.57324,106.042,132.126Z"/><path class="cls-6" d="M108.15137,131.10059V132.46c0,.42969.18945.71192.63965.71192.44824,0,.6289-.2461.6289-.71192v-1.35937h.05957v1.36523c0,.47754-.19238.76367-.69433.76367a.64427.64427,0,0,1-.69434-.73926v-1.38964Z"/><path class="cls-6" d="M110.043,133.19922v-2.09863h.09082c1.13281,1.78906,1.208,1.915,1.28613,2.03515h.00293c-.00879-.08105-.00879-.63672-.00879-.97656v-1.05859h.06055v2.09863h-.08789c-1.14453-1.81543-1.2168-1.93555-1.28906-2.04981h-.00293c.01465.2793.00879.58594.00879.97364v1.07617Z"/><path class="cls-6" d="M113.49023,133.19922h-.05371c-.00586-.06641-.00586-.1836-.00586-.46875a.6388.6388,0,0,1-.6914.499c-.56543,0-.81543-.47168-.81543-1.06738,0-.56543.26758-1.09082.85449-1.09082a.66837.66837,0,0,1,.73047.57715h-.06055a.62079.62079,0,0,0-.67676-.52051c-.52539,0-.78418.47168-.78418,1.03125,0,.55566.23145,1.0127.75489,1.0127.48047,0,.68847-.32129.68847-.79883v-.17481h-.6914v-.05371h.751Z"/><path class="cls-6" d="M114.74805,132.14746v1.05176h-.06055v-2.09863h.64648a.51236.51236,0,0,1,.58008.52343.46349.46349,0,0,1-.418.4961c.26465.05664.38184.22265.38184.53515v.12891a1.41852,1.41852,0,0,0,.04492.415h-.05957a1.39491,1.39491,0,0,1-.04492-.39649v-.1416c0-.376-.18066-.51367-.53516-.51367Zm0-.05469h.53222c.28516,0,.57129-.08691.57129-.47168,0-.29785-.19629-.46582-.52051-.46582h-.583Z"/><path class="cls-6" d="M117.53125,132.11426h-1.043v1.03125H117.624l-.01172.05371h-1.18457v-2.09863h1.16114v.05468h-1.10059v.9043h1.043Z"/><path class="cls-6" d="M117.958,132.66992a.54506.54506,0,0,0,.59472.502c.34961,0,.57422-.17969.57422-.49317,0-.28223-.14062-.43262-.57031-.55859-.40332-.11719-.584-.25-.584-.54395a.50762.50762,0,0,1,.57714-.50488.5463.5463,0,0,1,.60157.51074h-.06055a.49815.49815,0,0,0-.54394-.4541c-.3125,0-.51075.16895-.51075.44531,0,.26465.15918.38184.54395.49317.49316.14062.61035.33007.61035.60937,0,.34277-.23438.55371-.64063.55371a.5946.5946,0,0,1-.65527-.55957Z"/><path class="cls-6" d="M120.73535,132.11426h-1.043v1.03125h1.13574l-.01171.05371h-1.18457v-2.09863H120.793v.05468h-1.10059v.9043h1.043Z"/><path class="cls-6" d="M121.42578,132.38184l-.29492.81738h-.06348l.76367-2.09863h.06348l.748,2.09863h-.06543l-.292-.81738Zm.8418-.05469c-.24121-.67285-.373-1.04883-.40625-1.16309h-.00293c-.02442.10254-.21973.625-.41211,1.16309Z"/><path class="cls-6" d="M123.04883,132.14746v1.05176h-.06055v-2.09863h.64649a.51235.51235,0,0,1,.58007.52343.46349.46349,0,0,1-.418.4961c.26464.05664.38183.22265.38183.53515v.12891a1.41887,1.41887,0,0,0,.04492.415h-.05957a1.39491,1.39491,0,0,1-.04492-.39649v-.1416c0-.376-.18066-.51367-.53516-.51367Zm0-.05469h.53222c.28516,0,.57129-.08691.57129-.47168,0-.29785-.19629-.46582-.5205-.46582h-.583Z"/><path class="cls-6" d="M126.10547,132.67578a.68879.68879,0,0,1-.72168.55664c-.56445,0-.80274-.50195-.80274-1.06152,0-.58594.26172-1.09668.82422-1.09668a.65971.65971,0,0,1,.7002.55859h-.05957a.62275.62275,0,0,0-.6377-.50195c-.49609,0-.76367.43652-.76367,1.03711,0,.52637.22852,1.00683.74219,1.00683a.63657.63657,0,0,0,.65527-.499Z"/><path class="cls-6" d="M126.53125,131.10059h.06055v.959h1.26855v-.959h.05957v2.09863h-.05957v-1.085H126.5918v1.085h-.06055Z"/><path class="cls-6" d="M129.1748,131.10059h.06055v2.04492h1.08789l-.01465.05371H129.1748Z"/><path class="cls-6" d="M130.69629,131.10059v2.09863h-.06055v-2.09863Z"/><path class="cls-6" d="M131.27441,131.10059h.6045c.43847,0,.57129.27441.57129.49316a.44419.44419,0,0,1-.37891.47266.5318.5318,0,0,1,.4541.541.57661.57661,0,0,1-.6582.5918h-.59278Zm.60743.93847c.334,0,.50488-.165.50488-.44238,0-.2373-.15625-.44141-.50781-.44141H131.335v.88379Zm-.54688,1.10645h.52637c.34863,0,.60058-.17188.60058-.541a.5258.5258,0,0,0-.58593-.51172h-.541Z"/><path class="cls-6" d="M133.01465,132.14746v1.05176h-.06055v-2.09863h.64649a.51235.51235,0,0,1,.58007.52343.46349.46349,0,0,1-.418.4961c.26464.05664.38183.22265.38183.53515v.12891a1.41887,1.41887,0,0,0,.04492.415h-.05957a1.39491,1.39491,0,0,1-.04492-.39649v-.1416c0-.376-.18066-.51367-.53516-.51367Zm0-.05469h.53223c.28515,0,.57128-.08691.57128-.47168,0-.29785-.19531-.46582-.5205-.46582h-.583Z"/><path class="cls-6" d="M134.83691,132.38184l-.29492.81738h-.06347l.76367-2.09863h.06347l.74805,2.09863h-.06543l-.292-.81738Zm.8418-.05469c-.24121-.67285-.37305-1.04883-.40625-1.16309h-.00293c-.02441.10254-.21973.625-.41211,1.16309Z"/><path class="cls-6" d="M136.459,132.14746v1.05176h-.06054v-2.09863h.64648a.51236.51236,0,0,1,.58008.52343.4635.4635,0,0,1-.418.4961c.26465.05664.38184.22265.38184.53515v.12891a1.41852,1.41852,0,0,0,.04492.415h-.05957a1.39491,1.39491,0,0,1-.04492-.39649v-.1416c0-.376-.18067-.51367-.53516-.51367Zm0-.05469h.53223c.28516,0,.57129-.08691.57129-.47168,0-.29785-.19629-.46582-.52051-.46582h-.583Z"/><path class="cls-6" d="M138.57227,133.19922v-.86231a.07031.07031,0,0,0-.01563-.043l-.67871-1.19336h.06836c.2168.373.57812,1.01074.65625,1.1582.18262-.30957.44726-.76074.67871-1.1582h.06641l-.7002,1.19043a.10605.10605,0,0,0-.01562.04589v.86231Z"/></svg>