<svg xmlns="http://www.w3.org/2000/svg" viewBox="0 0 240 240"><defs><style>.cls-1{fill:#f7941d;stroke:#231f20;stroke-width:2px;}.cls-1,.cls-17,.cls-18,.cls-21,.cls-22,.cls-23,.cls-24,.cls-25,.cls-26,.cls-28,.cls-29,.cls-30,.cls-35,.cls-36{stroke-miterlimit:10;}.cls-2{fill:#bd5b65;}.cls-3{fill:#8394a0;}.cls-4{fill:#754c29;}.cls-5{fill:#e6e7e8;}.cls-6{fill:#bec5d1;}.cls-7{fill:#a97c50;}.cls-8{fill:#3c2415;}.cls-9{fill:#8b8a78;}.cls-10{fill:#f1f2f2;}.cls-11{fill:#737980;}.cls-12{fill:#515560;}.cls-13{fill:#abadb5;}.cls-14{fill:#808285;}.cls-15,.cls-17,.cls-21,.cls-23{fill:#d1d3d4;}.cls-16,.cls-28{fill:#bcbec0;}.cls-17,.cls-21,.cls-23,.cls-26,.cls-28,.cls-35{stroke:#bcbec0;}.cls-17,.cls-18{stroke-width:0.37026px;}.cls-18,.cls-22,.cls-24,.cls-29,.cls-30,.cls-35,.cls-36{fill:none;}.cls-18,.cls-22,.cls-24{stroke:#85afd1;}.cls-19{fill:#939598;}.cls-20{fill:#85afd1;}.cls-21,.cls-22{stroke-width:0.30097px;}.cls-23,.cls-24{stroke-width:0.27561px;}.cls-25,.cls-26,.cls-27,.cls-31{fill:#fff;}.cls-25{stroke:#f1f2f2;}.cls-25,.cls-26,.cls-29{stroke-width:0.33317px;}.cls-28{stroke-width:1.99904px;}.cls-29,.cls-30,.cls-36{stroke:#fff;}.cls-30{stroke-width:0.29577px;}.cls-31{font-size:10.01445px;font-family:ArialRoundedMTBold, Arial Rounded MT Bold;}.cls-32{letter-spacing:-0.03813em;}.cls-33{letter-spacing:0.0001em;}.cls-34{letter-spacing:-0.03803em;}.cls-35,.cls-36{stroke-width:0.66635px;}</style></defs><g id="Layer_1" data-name="Layer 1"><ellipse class="cls-1" cx="120" cy="120" rx="115.95215" ry="110.91075"/></g><g id="Layer_4" data-name="Layer 4"><rect class="cls-2" x="92.92736" y="153.79957" width="56.76627" height="35.11813"/><rect class="cls-3" x="150.0704" y="149.77077" width="43.33968" height="43.33968"/><rect class="cls-3" x="43.9851" y="149.77077" width="43.33968" height="43.33968"/><rect class="cls-4" x="42.04772" y="151.51583" width="49.64154" height="31.05878"/><polygon class="cls-5" points="65.655 180.052 50.866 180.052 50.866 160.756 50.866 160.087 65.655 159.487 65.655 180.052"/><polygon class="cls-5" points="82.568 180.052 67.779 180.052 67.779 159.646 67.779 158.939 82.568 158.304 82.568 180.052"/><rect class="cls-4" x="149.69362" y="151.51583" width="43.71557" height="31.05878"/><rect class="cls-6" x="143.74763" y="138.65198" width="9.61197" height="54.45847"/><rect class="cls-6" x="190.20436" y="143.65256" width="6.60341" height="49.45789"/><rect class="cls-6" x="84.69229" y="138.65198" width="9.61197" height="54.45847" transform="translate(178.99654 331.76244) rotate(-180)"/><rect class="cls-6" x="41.2441" y="143.65256" width="6.60341" height="49.45789" transform="translate(89.09161 336.76302) rotate(-180)"/><polygon class="cls-4" points="55.494 180.052 56.712 178.407 59.938 178.407 61.886 180.842 55.494 180.052"/><polygon class="cls-4" points="72.234 180.052 73.452 178.407 76.678 178.407 78.626 180.842 72.234 180.052"/><polygon class="cls-7" points="172.614 180.644 187.402 180.644 187.402 161.347 187.402 160.679 172.614 160.078 172.614 180.644"/><polygon class="cls-7" points="155.701 180.644 170.489 180.644 170.489 160.237 170.489 159.53 155.701 158.895 155.701 180.644"/><rect class="cls-8" x="96.35475" y="157.58475" width="5.87196" height="29.3501"/><rect class="cls-8" x="103.47856" y="157.58475" width="5.87196" height="29.3501"/><rect class="cls-8" x="112.63638" y="157.58475" width="5.87196" height="29.3501"/><rect class="cls-8" x="119.76019" y="157.58475" width="5.87196" height="29.3501"/><rect class="cls-8" x="128.96772" y="157.58475" width="5.87196" height="29.3501"/><rect class="cls-8" x="136.09153" y="157.58475" width="5.87196" height="29.3501"/><path class="cls-9" d="M122.8315,21.95588v7.41635h-8.50912V21.95588c0-.06766.27791-.12179.73915-.1624.14783-.01352.3193-.02707.50853-.04058.74507-.04513,1.73849-.06768,2.75558-.0722.16555-.00451.337-.00451.50852,0,1.023.00452,2.02231.02707,2.76738.0722.18923.01351.3607.02706.50853.04058C122.55948,21.83409,122.8315,21.88822,122.8315,21.95588Z"/><path class="cls-10" d="M115.57006,21.7529v7.21334h-.50853V21.79348C115.20936,21.78,115.38083,21.76641,115.57006,21.7529Z"/><path class="cls-10" d="M118.83416,21.6807v7.18176h-.50852V21.6807C118.49119,21.67619,118.66266,21.67619,118.83416,21.6807Z"/><path class="cls-10" d="M122.11007,21.79348v6.43744h-.50853v-6.478C121.79077,21.76641,121.96224,21.78,122.11007,21.79348Z"/><rect class="cls-11" x="113.54014" y="27.60109" width="10.07748" height="7.68807"/><rect class="cls-10" x="114.55301" y="27.60109" width="0.50853" height="7.41635"/><rect class="cls-10" x="118.32268" y="27.60109" width="0.50853" height="7.41635"/><rect class="cls-10" x="122.09826" y="27.60109" width="0.50853" height="7.41635"/><path class="cls-12" d="M125.29891,124.29592H111.85885l0-90.51126a25.0055,25.0055,0,0,1,13.44008,0Z"/><path class="cls-13" d="M126.43343,155.70258H110.72434l0-39.91691c0-1.99705,15.70912-1.99705,15.7091,0Z"/><polygon class="cls-14" points="130.404 52.452 125.58 52.452 125.58 51.176 130.639 51.176 130.404 52.452"/><polygon class="cls-14" points="130.286 51.955 125.462 51.955 125.462 50.679 130.522 50.679 130.286 51.955"/><polygon class="cls-5" points="139.797 109.528 134.405 109.528 134.405 80.871 139.797 82.025 139.797 109.528"/><polygon class="cls-15" points="139.796 96.737 142.365 94.697 142.365 123.19 139.796 123.19 139.796 96.737"/><polygon class="cls-15" points="142.365 93.311 144.934 91.271 144.934 119.764 142.365 119.764 142.365 93.311"/><polygon class="cls-15" points="155.208 97.185 152.639 95.145 152.639 123.638 155.208 123.638 155.208 97.185"/><polygon class="cls-15" points="150.162 119.671 150.162 91.462 152.581 93.384 152.546 119.671 150.162 119.671"/><path class="cls-16" d="M150.25464,91.65407l2.19885,1.7464v26.178h-2.19885V91.65407m-.18514-.38348v28.493h2.56913V93.31111l-2.56913-2.04052Z"/><polygon class="cls-15" points="142.458 119.671 142.458 93.311 144.842 91.46 144.842 119.671 142.458 119.671"/><path class="cls-16" d="M144.74894,91.65407v27.92438h-2.19885v-26.178l2.19885-1.7464m.18513-.38348L142.365,93.31111v26.45246h2.56912v-28.493Z"/><polygon class="cls-17" points="150.07 91.087 150.07 117.536 144.935 117.536 144.935 91.087 147.505 89.046 150.07 91.087"/><polyline class="cls-18" points="155.211 100.449 155.211 97.133 152.641 95.093 152.641 93.478 150.072 91.438 150.07 90.986 147.505 88.945 144.935 90.986 144.934 91.438 142.365 93.478 142.365 94.596 139.796 96.636 139.796 100.449"/><rect class="cls-13" x="125.69751" y="51.81377" width="4.82409" height="43.79988"/><polygon class="cls-15" points="134.062 96.643 128.968 96.643 128.968 81.446 134.062 80.871 134.062 96.643"/><rect class="cls-5" x="125.69751" y="92.96675" width="8.36477" height="18.68956"/><rect class="cls-14" x="125.69751" y="92.70622" width="8.70759" height="0.59199"/><rect class="cls-14" x="125.69751" y="91.99611" width="8.70759" height="0.59199"/><rect class="cls-15" x="125.69751" y="109.52753" width="14.85186" height="18.68956"/><polygon class="cls-19" points="140.578 109.457 141.37 108.429 124.854 108.429 125.742 109.457 140.578 109.457"/><polygon class="cls-19" points="140.578 108.429 141.37 107.401 124.854 107.401 125.742 108.429 140.578 108.429"/><polygon class="cls-20" points="134.062 80.871 134.062 80.297 128.968 80.871 128.968 81.446 134.062 80.871"/><polygon class="cls-20" points="139.797 82.05 139.797 81.475 134.405 80.297 134.405 80.871 139.797 82.05"/><polygon class="cls-5" points="160.302 113.827 155.208 113.827 155.208 98.629 160.302 98.055 160.302 113.827"/><polygon class="cls-5" points="166.037 126.711 160.645 126.711 160.645 98.055 166.037 99.208 166.037 126.711"/><polygon class="cls-20" points="160.302 98.055 160.302 97.48 155.208 98.055 155.208 98.629 160.302 98.055"/><polygon class="cls-20" points="166.037 99.233 166.037 98.659 160.645 97.48 160.645 98.055 166.037 99.233"/><polygon class="cls-15" points="166.037 103.231 168.157 101.597 168.157 124.414 166.037 124.414 166.037 103.231"/><polygon class="cls-15" points="168.157 100.487 170.277 98.853 170.277 121.67 168.157 121.67 168.157 100.487"/><polygon class="cls-15" points="178.754 103.59 176.634 101.956 176.634 124.772 178.754 124.772 178.754 103.59"/><polygon class="cls-15" points="174.59 121.595 174.59 99.007 176.589 100.547 176.559 121.595 174.59 121.595"/><path class="cls-16" d="M174.66488,99.15932l1.819,1.4021v20.95819h-1.819V99.15932m-.15049-.306v22.81677h2.11993V100.48738l-2.11993-1.634Z"/><polygon class="cls-15" points="168.232 121.595 168.232 100.487 170.202 99.004 170.202 121.595 168.232 121.595"/><path class="cls-16" d="M170.12632,99.15932v22.36029h-1.819V100.56142l1.819-1.4021m.15049-.306-2.11993,1.634v21.18274h2.11993V98.85335Z"/><polygon class="cls-21" points="174.514 98.706 174.514 119.886 170.278 119.886 170.278 98.706 172.398 97.072 174.514 98.706"/><polyline class="cls-22" points="178.757 106.203 178.757 103.548 176.637 101.914 176.637 100.621 174.517 98.987 174.514 98.625 172.398 96.991 170.278 98.625 170.277 98.987 168.157 100.621 168.157 101.516 166.037 103.15 166.037 106.203"/><polygon class="cls-15" points="186.996 109.281 188.6 107.469 188.6 132.761 186.996 132.761 186.996 109.281"/><polygon class="cls-15" points="188.6 106.239 190.203 104.428 190.203 129.72 188.6 129.72 188.6 106.239"/><polygon class="cls-15" points="196.617 109.678 195.013 107.867 195.013 133.158 196.617 133.158 196.617 109.678"/><polygon class="cls-15" points="193.409 129.65 193.478 104.61 194.961 106.285 194.944 129.65 193.409 129.65"/><path class="cls-16" d="M193.547,104.79177l1.32813,1.49993v23.29H193.547V104.79177m-.1378-.36353V129.7195h1.60373v-23.48l-1.60373-1.81122Z"/><polygon class="cls-15" points="188.6 129.65 188.669 106.239 190.134 104.608 190.134 129.65 188.6 129.65"/><path class="cls-16" d="M190.06567,104.79177v24.78991h-1.32812v-23.29l1.32812-1.49993m.1378-.36353-1.60372,1.81122v23.48h1.60372V104.42824Z"/><polygon class="cls-23" points="193.409 104.265 193.409 127.742 190.204 127.742 190.204 104.265 191.808 102.453 193.409 104.265"/><polyline class="cls-24" points="196.618 112.575 196.618 109.632 195.015 107.821 195.015 106.388 193.411 104.577 193.409 104.175 191.808 102.364 190.204 104.175 190.203 104.577 188.6 106.388 188.6 107.38 186.996 109.191 186.996 112.575"/><polygon class="cls-5" points="182.958 117.522 178.754 117.522 178.754 104.982 182.958 104.508 182.958 117.522"/><polygon class="cls-5" points="187.69 128.154 183.241 128.154 183.241 104.508 187.69 105.46 187.69 128.154"/><polygon class="cls-20" points="182.958 104.508 182.958 104.034 178.754 104.508 178.754 104.982 182.958 104.508"/><polygon class="cls-20" points="187.69 105.48 187.69 105.006 183.241 104.034 183.241 104.508 187.69 105.48"/><rect class="cls-15" x="178.75659" y="113.82651" width="4.20154" height="10.94595"/><polygon class="cls-16" points="125.504 123.19 196.618 126.323 196.618 158.893 125.504 155.449 125.504 123.19"/><polygon class="cls-25" points="194.211 156.139 194.211 129.109 128.968 126.352 128.968 153.574 194.211 156.139"/><line class="cls-26" x1="128.96772" y1="129.6851" x2="194.21106" y2="131.93875"/><line class="cls-26" x1="128.96772" y1="132.30771" x2="194.21106" y2="134.56135"/><line class="cls-26" x1="128.96772" y1="134.93032" x2="194.21106" y2="137.18396"/><line class="cls-26" x1="128.96772" y1="137.55293" x2="194.21106" y2="139.80657"/><line class="cls-26" x1="128.96772" y1="140.17553" x2="194.21106" y2="142.42918"/><line class="cls-26" x1="128.96772" y1="142.79814" x2="194.21106" y2="145.05179"/><line class="cls-26" x1="128.96772" y1="145.42075" x2="194.21106" y2="147.67439"/><line class="cls-26" x1="128.96772" y1="148.04336" x2="194.21106" y2="150.297"/><line class="cls-26" x1="128.96772" y1="150.66597" x2="194.21106" y2="152.91961"/><polygon class="cls-13" points="144.875 119.257 145.979 116.849 145.065 115.188 146.736 114.133 147.899 110.165 151.626 108.606 152.256 106.991 153.88 107.533 157.533 105.638 161.299 107.213 162.991 106.678 163.689 108.249 167.447 109.684 168.533 113.621 170.11 114.41 169.312 116.272 170.126 119.257 144.875 119.257"/><path class="cls-27" d="M157.57088,106.55678l3.68746,1.54205,1.27385-.40228.53636,1.20685,3.68747,1.4079,1.07271,3.88861,1.20681.60339-.6034,1.408.6034,2.21246H146.17326l.73748-1.60907-.73748-1.34088,1.27384-.80456,1.13977-3.88861,3.68746-1.542.46931-1.20678,1.20681.40222,3.62043-1.87726m-.07562-1.83728-.69121.3584-2.99511,1.553-.53855-.17951-1.50454-.50146-.5748,1.478-.21266.54687-3.03421,1.2688-.73258.30633-.22334.762-.96277,3.28473-.74181.46856-1.32574.83735.75566,1.3739.33341.6062-.38813.84686-1.08163,2.36h27.63933l-.57387-2.10419-.45053-1.652.37454-.874.61874-1.44373-1.40494-.70245-.54321-.27161-.87541-3.1734-.22416-.81262-.78752-.30066-3.04059-1.16095-.25514-.57409-.60453-1.36023-1.41943.44824-.69221.21863-3.12473-1.30671-.71833-.30041Z"/><polygon class="cls-13" points="145.394 118.816 146.352 116.727 145.508 115.195 147.021 114.24 148.174 110.304 151.885 108.752 152.451 107.299 153.908 107.785 157.549 105.898 161.282 107.46 162.808 106.977 163.441 108.403 167.171 109.827 168.251 113.745 169.68 114.459 168.96 116.141 169.69 118.816 145.394 118.816"/><path class="cls-5" d="M157.57088,106.44924l3.68746,1.542,1.27385-.40222.53636,1.20678,3.68747,1.408,1.07271,3.88861,1.20681.6034-.6034,1.40789.6034,2.21253H146.17326l.73748-1.60907-.73748-1.34094,1.27384-.80451,1.13977-3.88861,3.68746-1.54205.46931-1.20679,1.20681.40228,3.62043-1.87725m-.04538-1.10236-.41472.215-3.24522,1.68267-.80583-.26861-.90275-.3009-.3449.8869-.31533.81079-3.29551,1.37817-.43953.18378-.134.45721-1.03357,3.52631-.95459.60284-.79547.50238.45339.82441.495.90014-.52788,1.15174-.649,1.416h25.7285l-.34431-1.26251-.51168-1.87622.46608-1.08747.37126-.86627-.843-.42145-.80865-.40435-.95433-3.45948-.1345-.48754-.4725-.18042-3.29936-1.25977-.36763-.82715-.36271-.8161-.85161.26892-.92489.29205-3.34986-1.40081-.431-.18024Z"/><polygon class="cls-28" points="133.694 130.011 180.682 133.001 185.353 122.218 181.878 121.997 183.041 119.075 133.795 115.941 134.396 118.976 130.348 118.718 133.694 130.011"/><polygon class="cls-29" points="133.702 129.879 180.691 132.869 185.362 122.086 181.886 121.865 183.049 118.942 133.804 115.809 134.404 118.844 130.356 118.586 133.702 129.879"/><polygon class="cls-30" points="135.471 129.067 179.547 131.871 183.86 122.837 180.6 122.629 181.672 120.18 135.479 117.241 136.061 119.796 132.263 119.554 135.471 129.067"/><polygon class="cls-14" points="107.459 52.423 112.283 52.423 112.283 51.147 107.223 51.147 107.459 52.423"/><polygon class="cls-14" points="107.576 51.926 112.4 51.926 112.4 50.65 107.341 50.65 107.576 51.926"/><polygon class="cls-5" points="98.065 109.499 103.457 109.499 103.457 80.842 98.065 81.996 98.065 109.499"/><polygon class="cls-15" points="98.066 96.709 95.497 94.668 95.497 123.161 98.066 123.161 98.066 96.709"/><polygon class="cls-15" points="95.498 93.282 92.928 91.242 92.928 119.735 95.498 119.735 95.498 93.282"/><polygon class="cls-15" points="82.655 97.156 85.224 95.116 85.224 123.609 82.655 123.609 82.655 97.156"/><polygon class="cls-15" points="85.317 119.642 85.317 93.282 87.7 91.432 87.7 119.642 85.317 119.642"/><path class="cls-16" d="M87.60787,91.6252v27.92438H85.409V93.3716l2.19886-1.7464m.18513-.38342-2.56912,2.04046V119.7347H87.793V91.24178Z"/><polygon class="cls-15" points="93.021 119.642 93.021 91.434 95.44 93.354 95.405 119.642 93.021 119.642"/><path class="cls-16" d="M93.11356,91.6252l2.19886,1.7464v26.178H93.11356V91.6252m-.18513-.38342V119.7347h2.56912V93.28224l-2.56912-2.04046Z"/><polygon class="cls-17" points="87.793 91.058 87.793 117.507 92.927 117.507 92.927 91.058 90.357 89.017 87.793 91.058"/><polyline class="cls-18" points="82.652 100.42 82.652 97.105 85.221 95.064 85.221 93.449 87.79 91.409 87.793 90.957 90.357 88.916 92.927 90.957 92.928 91.409 95.498 93.449 95.497 94.567 98.066 96.608 98.066 100.42"/><rect class="cls-13" x="107.3409" y="51.78491" width="4.82409" height="43.79988" transform="translate(219.50589 147.3697) rotate(-180)"/><polygon class="cls-15" points="103.8 96.614 108.895 96.614 108.895 81.417 103.8 80.842 103.8 96.614"/><rect class="cls-5" x="103.80022" y="92.93789" width="8.36477" height="18.68956" transform="translate(215.96521 204.56534) rotate(-180)"/><rect class="cls-14" x="103.45741" y="92.67736" width="8.70759" height="0.59199" transform="translate(215.6224 185.94671) rotate(-180)"/><rect class="cls-14" x="103.45741" y="91.96725" width="8.70759" height="0.59199" transform="translate(215.6224 184.52649) rotate(-180)"/><rect class="cls-15" x="97.31314" y="109.49867" width="14.85186" height="18.68956" transform="translate(209.47813 237.68689) rotate(-180)"/><polygon class="cls-19" points="97.284 109.428 96.493 108.401 113.009 108.401 112.121 109.428 97.284 109.428"/><polygon class="cls-19" points="97.284 108.401 96.493 107.373 113.009 107.373 112.121 108.401 97.284 108.401"/><polygon class="cls-20" points="103.8 80.842 103.8 80.268 108.895 80.842 108.895 81.417 103.8 80.842"/><polygon class="cls-20" points="98.065 82.021 98.065 81.446 103.457 80.268 103.457 80.842 98.065 82.021"/><polygon class="cls-5" points="77.56 113.798 82.655 113.798 82.655 98.6 77.56 98.026 77.56 113.798"/><polygon class="cls-5" points="71.825 126.682 77.217 126.682 77.217 98.026 71.825 99.179 71.825 126.682"/><polygon class="cls-20" points="77.56 98.026 77.56 97.451 82.655 98.026 82.655 98.6 77.56 98.026"/><polygon class="cls-20" points="71.825 99.204 71.825 98.63 77.217 97.451 77.217 98.026 71.825 99.204"/><polygon class="cls-15" points="71.825 103.202 69.705 101.568 69.705 124.385 71.825 124.385 71.825 103.202"/><polygon class="cls-15" points="69.706 100.459 67.586 98.825 67.586 121.641 69.706 121.641 69.706 100.459"/><polygon class="cls-15" points="59.108 103.561 61.228 101.927 61.228 124.744 59.108 124.744 59.108 103.561"/><polygon class="cls-15" points="61.303 121.566 61.303 100.459 63.273 98.976 63.273 121.566 61.303 121.566"/><path class="cls-16" d="M63.19762,99.13051v22.36023h-1.819V100.53255l1.819-1.402m.15049-.306-2.11994,1.634v21.18274h2.11994V98.82454Z"/><polygon class="cls-15" points="67.661 121.566 67.661 98.977 69.66 100.519 69.631 121.566 67.661 121.566"/><path class="cls-16" d="M67.73618,99.13051l1.819,1.402v20.95819h-1.819V99.13051m-.15049-.306v22.81671h2.11994V100.45851l-2.11994-1.634Z"/><polygon class="cls-21" points="63.348 98.677 63.348 119.857 67.585 119.857 67.585 98.677 65.464 97.043 63.348 98.677"/><polyline class="cls-22" points="59.106 106.174 59.106 103.519 61.226 101.885 61.226 100.592 63.346 98.958 63.348 98.596 65.464 96.962 67.585 98.596 67.586 98.958 69.706 100.592 69.705 101.487 71.825 103.121 71.825 106.174"/><polygon class="cls-15" points="50.866 109.252 49.263 107.441 49.263 132.732 50.866 132.732 50.866 109.252"/><polygon class="cls-15" points="49.263 106.211 47.659 104.399 47.659 129.691 49.263 129.691 49.263 106.211"/><polygon class="cls-15" points="41.246 109.649 42.85 107.838 42.85 133.129 41.246 133.129 41.246 109.649"/><polygon class="cls-15" points="42.85 129.621 42.919 106.211 44.384 104.579 44.384 129.621 42.85 129.621"/><path class="cls-16" d="M44.31552,104.76283v24.79H42.98738v-23.29l1.32814-1.5m.1378-.36346-1.60374,1.81122v23.48h1.60374V104.39937Z"/><polygon class="cls-15" points="47.659 129.621 47.727 104.581 49.211 106.257 49.194 129.621 47.659 129.621"/><path class="cls-16" d="M47.79683,104.76283l1.32814,1.5v23.29H47.79683v-24.79m-.1378-.36346v25.29126h1.60374v-23.48L47.659,104.39937Z"/><polygon class="cls-23" points="44.453 104.236 44.453 127.713 47.658 127.713 47.658 104.236 46.054 102.425 44.453 104.236"/><polyline class="cls-24" points="41.244 112.546 41.244 109.603 42.848 107.792 42.848 106.359 44.452 104.548 44.453 104.146 46.054 102.335 47.658 104.146 47.659 104.548 49.263 106.359 49.263 107.351 50.866 109.162 50.866 112.546"/><polygon class="cls-5" points="54.904 117.494 59.108 117.494 59.108 104.953 54.904 104.479 54.904 117.494"/><polygon class="cls-5" points="50.172 128.125 54.621 128.125 54.621 104.479 50.172 105.431 50.172 128.125"/><polygon class="cls-20" points="54.904 104.479 54.904 104.005 59.108 104.479 59.108 104.953 54.904 104.479"/><polygon class="cls-20" points="50.172 105.451 50.172 104.978 54.621 104.005 54.621 104.479 50.172 105.451"/><rect class="cls-15" x="54.90437" y="113.79765" width="4.20154" height="10.94595" transform="translate(114.01029 238.54124) rotate(-180)"/><polygon class="cls-16" points="112.358 123.161 41.244 126.294 41.244 158.864 112.358 155.42 112.358 123.161"/><polygon class="cls-25" points="42.838 155.703 42.838 128.673 108.854 125.915 108.854 153.138 42.838 155.703"/><polygon class="cls-13" points="67.736 119.227 68.55 116.244 67.752 114.381 69.33 113.592 70.416 109.654 74.174 108.221 74.871 106.649 76.564 107.185 80.329 105.609 83.983 107.504 85.608 106.962 86.236 108.578 89.963 110.137 91.126 114.104 92.797 115.16 91.883 116.82 92.988 119.227 67.736 119.227"/><path class="cls-27" d="M80.29163,106.528l3.62042,1.8772,1.20681-.40222.46931,1.20678,3.68747,1.54206,1.13976,3.88855,1.27385.80456-.73749,1.34088.73749,1.60907H68.827l.6034-2.21246-.6034-1.408,1.2068-.60339,1.07272-3.88861,3.68747-1.4079.53635-1.20685,1.27386.40228,3.68746-1.542m.07562-1.83728-.71831.30035-3.12474,1.30671-.69224-.21863-1.41943-.44824-.60452,1.36029-.25514.574-3.04058,1.16095-.78751.30066-.22417.81262-.87542,3.1734-.54321.27161-1.40493.70245.61874,1.44373.37454.874-.45053,1.652-.57387,2.10419H94.28528l-1.08165-2.36-.38814-.84686.33342-.6062.75567-1.3739-1.32575-.83735-.74182-.46856-.96276-3.28467-.22334-.762-.73256-.30634L86.88412,107.946l-.21267-.54687-.5748-1.478-1.50454.50146-.53856.17951-2.99511-1.553-.69119-.3584Z"/><polygon class="cls-13" points="68.173 118.787 68.903 116.111 68.182 114.431 69.612 113.716 70.692 109.798 74.422 108.374 75.055 106.949 76.58 107.432 80.314 105.869 83.954 107.757 85.412 107.27 85.977 108.724 89.688 110.275 90.842 114.211 92.354 115.165 91.511 116.699 92.468 118.787 68.173 118.787"/><path class="cls-5" d="M80.29163,106.42037l3.62042,1.87725,1.20681-.40228.46931,1.20679,3.68747,1.54205,1.13976,3.88861,1.27385.80451-.73749,1.34094.73749,1.60907H68.827l.6034-2.21246-.6034-1.408,1.2068-.6034,1.07272-3.88861,3.68747-1.408.53635-1.20678,1.27386.40228,3.68746-1.542M80.337,105.318l-.431.18024-3.34982,1.40081-.92488-.29205-.85164-.26892-.36272.8161-.36762.82715L70.75,109.24111l-.4725.18042-.1345.48754-.95434,3.45948-.80864.40436-.843.42144.37124.86627.46609,1.08753-.51168,1.87616-.34432,1.26251H93.24687l-.649-1.416L92.07,116.71913l.49506-.90014.4534-.82441-.79548-.50238-.9546-.6029-1.03356-3.52625-.134-.45721-.43954-.18378-3.29551-1.37817-.31533-.81079-.3449-.8869-.90275.3009-.80584.26862-3.2452-1.68268-.41473-.215Z"/><line class="cls-26" x1="108.46737" y1="129.62796" x2="43.22404" y2="131.8816"/><line class="cls-26" x1="108.46737" y1="132.25057" x2="43.22404" y2="134.50421"/><line class="cls-26" x1="108.46737" y1="134.87317" x2="43.22404" y2="137.12682"/><line class="cls-26" x1="108.46737" y1="137.49578" x2="43.22404" y2="139.74942"/><line class="cls-26" x1="108.46737" y1="140.11839" x2="43.22404" y2="142.37203"/><line class="cls-26" x1="108.46737" y1="142.741" x2="43.22404" y2="144.99464"/><line class="cls-26" x1="108.46737" y1="145.3636" x2="43.22404" y2="147.61725"/><line class="cls-26" x1="108.46737" y1="147.98621" x2="43.22404" y2="150.23986"/><line class="cls-26" x1="108.46737" y1="150.60882" x2="43.22404" y2="152.86246"/><polygon class="cls-28" points="104.193 129.877 57.218 133.074 52.5 122.312 55.974 122.075 54.798 119.158 104.03 115.808 103.443 118.845 107.489 118.569 104.193 129.877"/><polygon class="cls-29" points="104.184 129.745 57.209 132.942 52.491 122.179 55.965 121.943 54.789 119.026 104.021 115.675 103.434 118.713 107.48 118.437 104.184 129.745"/><polygon class="cls-30" points="102.412 128.94 58.348 131.939 53.996 122.924 57.255 122.702 56.172 120.258 102.352 117.115 101.781 119.672 105.577 119.413 102.412 128.94"/><text class="cls-31" transform="translate(141.96441 126.71112) rotate(3.99221)">NIM<tspan class="cls-32" x="19.08496" y="0">O</tspan><tspan class="cls-33" x="26.63477" y="0">Y</tspan></text><text class="cls-31" transform="translate(62.23238 128.99446) rotate(-2.52156)">NIM<tspan class="cls-34" x="19.08496" y="0">O</tspan><tspan x="26.63525" y="0">Y</tspan></text><path class="cls-35" d="M113.00856,38.36866q5.81883-4.21181,10.60907,0"/><path class="cls-35" d="M113.00856,43.03991q5.81883-4.21182,10.60907,0"/><path class="cls-35" d="M113.00856,47.71115q5.81883-4.2118,10.60907,0"/><path class="cls-35" d="M113.00856,52.3824q5.81883-4.21182,10.60907,0"/><path class="cls-35" d="M113.00856,57.05364q5.81883-4.2118,10.60907,0"/><path class="cls-35" d="M113.00856,61.72488q5.81883-4.2118,10.60907,0"/><path class="cls-35" d="M113.00856,66.39613q5.81883-4.21182,10.60907,0"/><path class="cls-35" d="M113.00856,71.06737q5.81883-4.2118,10.60907,0"/><path class="cls-35" d="M113.00856,75.73862q5.81883-4.21182,10.60907,0"/><path class="cls-35" d="M113.00856,80.40986q5.81883-4.2118,10.60907,0"/><path class="cls-35" d="M113.00856,85.08111q5.81883-4.21182,10.60907,0"/><path class="cls-35" d="M113.00856,89.75235q5.81883-4.21181,10.60907,0"/><path class="cls-35" d="M113.00856,94.42359q5.81883-4.21181,10.60907,0"/><path class="cls-35" d="M113.00856,99.09484q5.81883-4.21182,10.60907,0"/><path class="cls-35" d="M113.00856,103.76608q5.81883-4.21181,10.60907,0"/><path class="cls-35" d="M113.00856,108.43733q5.81883-4.21182,10.60907,0"/><path class="cls-35" d="M113.00856,113.10857q5.81883-4.2118,10.60907,0"/><path class="cls-36" d="M113.00856,117.77982q5.81883-4.21182,10.60907,0"/><path class="cls-36" d="M113.00856,122.45106q5.81883-4.2118,10.60907,0"/><path class="cls-36" d="M113.00856,127.12231q5.81883-4.21182,10.60907,0"/><path class="cls-36" d="M113.00856,131.79355q5.81883-4.21181,10.60907,0"/><path class="cls-36" d="M113.00856,136.46479q5.81883-4.2118,10.60907,0"/><path class="cls-36" d="M113.00856,141.136q5.81883-4.21182,10.60907,0"/><path class="cls-36" d="M113.00856,145.80728q5.81883-4.2118,10.60907,0"/><path class="cls-36" d="M113.00856,150.47853q5.81883-4.21182,10.60907,0"/><path class="cls-36" d="M113.00856,155.14977q5.81883-4.2118,10.60907,0"/></g></svg>