<svg id="Layer_1" data-name="Layer 1" xmlns="http://www.w3.org/2000/svg" viewBox="0 0 240 240"><defs><style>.cls-1{fill:#f9dc19;stroke:#231f20;stroke-miterlimit:10;stroke-width:2px;}.cls-2{fill:#c9673b;}.cls-3{fill:#d3ab84;}.cls-4{fill:#2a331f;}.cls-5{fill:#5a4144;}.cls-6{fill:#d3d0ac;}.cls-7{fill:#a47158;}.cls-8{fill:#c99358;}.cls-9{fill:#d1742c;}.cls-10{fill:#40231f;}.cls-11{fill:#f3b261;}.cls-12{fill:#fdf7ba;}.cls-13{fill:#b59268;}.cls-14{fill:#d5a461;}.cls-15{fill:#7d6a4d;}.cls-16{fill:#b76c4e;}.cls-17{fill:#c68a7a;}.cls-18{fill:#a36b58;}.cls-19{fill:#553c3f;}.cls-20{fill:#bdad9f;}.cls-21{fill:#726354;}.cls-22{fill:#8a7e70;}.cls-23{fill:#1a1e14;}</style></defs><ellipse class="cls-1" cx="120" cy="120" rx="115.95215" ry="110.91075"/><path class="cls-2" d="M87.29817,148.70641V100.79418L122.36281,87.105s38.31806,14.04945,37.23359,14.40969.02259,47.19175.02259,47.19175Z"/><polygon class="cls-3" points="143.338 78.442 161.528 82.642 160.772 90.769 142.847 86.611 143.338 78.442"/><path class="cls-4" d="M97.29943,148.70641V120.96775a7.345,7.345,0,0,1,5.9646-7.02473s7.59131-1.62109,8.13355,6.48437v28.279Z"/><path class="cls-4" d="M115.46436,149.20675V121.46809a7.345,7.345,0,0,1,5.9646-7.02473s7.59131-1.62109,8.13355,6.48436v28.279Z"/><path class="cls-4" d="M130.69719,148.70641V120.32449s0-5.89755,7.31981-7.18763c0,0,9.31612-1.65869,9.98156,6.63473v28.93482Z"/><polygon class="cls-5" points="103.133 78.144 103.133 55.043 82.031 60.807 82.34 83.382 103.133 78.144"/><path class="cls-6" d="M113.205,114.86426l1.17484-1.17079a11.64548,11.64548,0,0,1,7.68169-2.72061c7.13945-.379,9.66989,4.52182,9.66989,4.52182,1.08447-2.70181,4.33789-3.60242,4.33789-3.60242a10.43174,10.43174,0,0,1,10.57362,1.17079,11.82017,11.82017,0,0,1,4.51864,6.03406v7.475l-3.97641-.09006V120.358c-1.26522-5.31358-6.778-5.7927-6.778-5.7927-6.23572.24136-6.94986,4.98215-6.94986,4.98215l-.00884,4.413c.09037,2.5217-.54224,2.34158-.54224,2.34158v22.60521l-2.71118.09006V126.57214a1.63749,1.63749,0,0,1-.63261-1.0357v-1.12576l-.27112-4.23284a6.4609,6.4609,0,0,0-3.20823-4.63813c-3.9764-2.43163-8.13355.85558-8.13355.85558a4.94123,4.94123,0,0,0-2.12107,3.33224l-.00269,4.95334c.04518,1.84624-.49314,1.80121-.49314,1.80121v23.05551h-3.0314V127.02244c-.90373,0-1.08448-1.80121-1.08448-1.80121v-4.96774a6.03514,6.03514,0,0,0-3.79565-5.47929c-8.85654-1.441-9.39877,5.04339-9.39877,5.04339v6.12412H93.86526v-6.93466c.36149-6.21418,7.86243-8.0551,7.86243-8.0551A13.87525,13.87525,0,0,1,113.205,114.86426Z"/><polygon class="cls-7" points="103.133 78.144 84.178 82.448 84.17 91.068 103.133 86.327 103.133 78.144"/><polygon class="cls-8" points="143.592 55.043 164.141 60.215 163.838 84.103 143.592 78.731 143.592 55.043"/><rect class="cls-2" x="158.84387" y="96.85863" width="9.96699" height="19.78621"/><polygon class="cls-9" points="164.141 76.448 169.292 88.023 166.717 88.023 164.141 88.023 164.141 76.448"/><polygon class="cls-10" points="164.141 76.448 158.99 88.023 161.565 88.023 164.141 88.023 164.141 76.448"/><polygon class="cls-11" points="158.99 87.86 162.605 86.87 166.219 86.87 169.292 87.86 169.292 100.649 166.491 100.041 162.333 100.041 158.99 101.009 158.99 87.86"/><path class="cls-4" d="M166.06743,90.62884s0-.93529,1.37037-.84176c0,0,1.46174-.1403,1.55309.84176V97.737h-2.92346Z"/><path class="cls-4" d="M162.00206,90.62888s0-.93528-1.20732-.84176c0,0-1.28782-.14029-1.36831.84176V97.737h2.57563Z"/><path class="cls-4" d="M162.36214,97.662V90.82875s0-1.73631,1.63544-1.62429a1.75712,1.75712,0,0,1,1.70977,1.84833V97.662Z"/><polygon class="cls-4" points="162.002 97.737 159.426 98.698 159.426 97.737 162.002 97.737"/><polygon class="cls-4" points="166.067 97.732 169.292 98.634 169.292 97.662 166.067 97.732"/><rect class="cls-2" x="158.98964" y="116.64484" width="12.89318" height="32.06157"/><rect class="cls-2" x="77.35617" y="97.64379" width="9.96699" height="19.78621"/><rect class="cls-12" x="158.98964" y="116.64484" width="1.39343" height="32.06157"/><rect class="cls-12" x="170.41301" y="116.64484" width="1.46981" height="32.06157"/><rect class="cls-12" x="159.82586" y="119.52678" width="1.98793" height="2.88194"/><rect class="cls-12" x="159.82586" y="125.17058" width="1.77867" height="3.00202"/><rect class="cls-12" x="159.82586" y="130.51417" width="1.77867" height="3.60242"/><rect class="cls-12" x="159.68636" y="136.49432" width="1.98793" height="3.60242"/><rect class="cls-12" x="169.48599" y="119.52678" width="1.97936" height="2.88194"/><rect class="cls-12" x="169.59017" y="125.17058" width="1.77101" height="3.00202"/><rect class="cls-12" x="169.59017" y="130.51417" width="1.77101" height="3.60242"/><rect class="cls-12" x="169.48599" y="136.49432" width="1.97936" height="3.60242"/><rect class="cls-12" x="159.83704" y="143.16769" width="1.88631" height="3.60242"/><ellipse class="cls-13" cx="124.77578" cy="102.83555" rx="5.99763" ry="5.97692"/><rect class="cls-12" x="169.13575" y="143.16769" width="1.87819" height="3.60242"/><ellipse class="cls-14" cx="124.833" cy="103.00558" rx="5.36212" ry="5.3436"/><ellipse class="cls-15" cx="124.833" cy="103.00558" rx="2.43265" ry="2.42425"/><ellipse class="cls-14" cx="124.833" cy="103.00558" rx="1.72712" ry="1.72116"/><circle class="cls-15" cx="124.59156" cy="100.33943" r="0.56866"/><circle class="cls-15" cx="126.9454" cy="101.51466" r="0.56866"/><circle class="cls-15" cx="127.26566" cy="103.00558" r="0.56866"/><circle class="cls-15" cx="126.9454" cy="104.42293" r="0.56866"/><circle class="cls-15" cx="125.99147" cy="105.42983" r="0.56866"/><circle class="cls-15" cx="124.37373" cy="105.55631" r="0.56866"/><circle class="cls-15" cx="123.10588" cy="104.86314" r="0.56866"/><circle class="cls-15" cx="122.40035" cy="103.57227" r="0.56866"/><circle class="cls-15" cx="122.51343" cy="102.03951" r="0.56866"/><circle class="cls-15" cx="123.45858" cy="100.90613" r="0.56866"/><circle class="cls-15" cx="125.99147" cy="100.58133" r="0.56866"/><circle class="cls-15" cx="120.67974" cy="102.43889" r="0.67974"/><circle class="cls-15" cx="121.61961" cy="100.44857" r="0.67817"/><circle class="cls-15" cx="123.38898" cy="99.14101" r="0.63393"/><circle class="cls-15" cx="125.58418" cy="98.85217" r="0.59315"/><circle class="cls-15" cx="127.69744" cy="99.87944" r="0.67572"/><circle class="cls-15" cx="121.05312" cy="104.83803" r="0.68034"/><circle class="cls-15" cx="123.10271" cy="106.69646" r="0.70236"/><circle class="cls-15" cx="125.51574" cy="107.22251" r="0.66159"/><circle class="cls-15" cx="127.62112" cy="106.2297" r="0.67572"/><circle class="cls-15" cx="128.96003" cy="104.42293" r="0.66813"/><circle class="cls-15" cx="128.96003" cy="101.94531" r="0.66318"/><circle class="cls-15" cx="124.94238" cy="103.00558" r="0.84077"/><rect class="cls-12" x="164.70386" y="109.48965" width="1.46473" height="12.89318" transform="translate(281.37247 -49.49999) rotate(90)"/><polygon class="cls-12" points="159.351 108.605 159.082 107.168 162.275 106.503 162.544 107.94 159.351 108.605"/><rect class="cls-12" x="163.30766" y="105.56649" width="1.46473" height="3.25489" transform="translate(271.23397 -56.84609) rotate(90)"/><polygon class="cls-12" points="168.645 108.742 168.994 107.325 165.844 106.462 165.494 107.879 168.645 108.742"/><polygon class="cls-5" points="86.746 90.226 103.133 85.591 103.133 93.348 86.746 98.506 86.746 90.226"/><polygon class="cls-12" points="168.994 108.92 168.994 107.325 168.645 108.742 168.994 108.92"/><polygon class="cls-12" points="159.075 108.724 159.075 107.129 159.425 108.546 159.075 108.724"/><polygon class="cls-12" points="162.665 106.46 162.177 107.979 162.278 106.523 162.665 106.46"/><polygon class="cls-12" points="165.635 106.422 165.635 108.018 165.985 106.6 165.635 106.422"/><polygon class="cls-12" points="159.149 104.631 158.879 103.194 162.073 102.53 162.342 103.966 159.149 104.631"/><rect class="cls-12" x="163.10556" y="101.59266" width="1.46473" height="3.25489" transform="translate(267.05803 -60.61783) rotate(90)"/><polygon class="cls-12" points="168.443 104.769 168.792 103.351 165.642 102.488 165.292 103.905 168.443 104.769"/><polygon class="cls-12" points="168.792 104.946 168.792 103.351 168.443 104.769 168.792 104.946"/><polygon class="cls-12" points="158.873 104.75 158.873 103.155 159.223 104.572 158.873 104.75"/><polygon class="cls-12" points="162.463 102.486 161.975 104.006 162.076 102.549 162.463 102.486"/><polygon class="cls-12" points="165.433 102.448 165.433 104.044 165.783 102.626 165.433 102.448"/><polygon class="cls-12" points="159.143 113.377 158.874 111.94 162.067 111.275 162.337 112.712 159.143 113.377"/><rect class="cls-12" x="163.10028" y="110.33824" width="1.46473" height="3.25489" transform="translate(275.79833 -51.86696) rotate(90)"/><polygon class="cls-12" points="168.437 113.514 168.787 112.097 165.637 111.233 165.287 112.651 168.437 113.514"/><polygon class="cls-12" points="168.787 113.692 168.787 112.097 168.437 113.514 168.787 113.692"/><polygon class="cls-12" points="158.868 113.496 158.868 111.9 159.218 113.318 158.868 113.496"/><polygon class="cls-12" points="162.458 111.232 161.969 112.751 162.07 111.295 162.458 111.232"/><polygon class="cls-12" points="165.428 111.194 165.428 112.789 165.777 111.372 165.428 111.194"/><polygon class="cls-9" points="82.031 76.66 76.88 88.235 79.456 88.235 82.031 88.235 82.031 76.66"/><polygon class="cls-10" points="82.031 76.66 87.183 88.235 84.607 88.235 82.031 88.235 82.031 76.66"/><polygon class="cls-11" points="87.183 88.073 83.568 87.082 79.953 87.082 76.88 88.073 76.88 100.861 79.682 100.253 83.839 100.253 87.183 101.221 87.183 88.073"/><path class="cls-4" d="M80.10487,90.841s0-.93529-1.37037-.84176c0,0-1.46173-.14029-1.55309.84176v7.1082h2.92346Z"/><path class="cls-4" d="M84.17024,90.841s0-.93528,1.20733-.84175c0,0,1.28781-.14029,1.3683.84175v7.10815H84.17024Z"/><path class="cls-4" d="M83.81016,97.87412V91.04089s0-1.73631-1.63543-1.62429A1.75712,1.75712,0,0,0,80.465,91.26493v6.60919Z"/><polygon class="cls-4" points="84.17 97.949 86.746 98.91 86.746 97.949 84.17 97.949"/><polygon class="cls-4" points="80.105 97.949 77.361 98.91 77.361 97.874 80.105 97.949"/><rect class="cls-2" x="74.28948" y="116.85698" width="12.89318" height="32.06157" transform="translate(161.47214 265.77552) rotate(-180)"/><rect class="cls-12" x="85.78923" y="116.85698" width="1.39343" height="32.06157" transform="translate(172.97189 265.77552) rotate(-180)"/><rect class="cls-12" x="74.28948" y="116.85698" width="1.46981" height="32.06157" transform="translate(150.04877 265.77552) rotate(-180)"/><rect class="cls-12" x="84.35852" y="119.73891" width="1.98793" height="2.88194" transform="translate(170.70496 242.35977) rotate(-180)"/><rect class="cls-12" x="84.56777" y="125.38271" width="1.77867" height="3.00202" transform="translate(170.91422 253.76744) rotate(-180)"/><rect class="cls-12" x="84.56777" y="130.72631" width="1.77867" height="3.60242" transform="translate(170.91422 265.05504) rotate(-180)"/><rect class="cls-12" x="84.49802" y="136.70645" width="1.98793" height="3.60242" transform="translate(170.98397 277.01533) rotate(-180)"/><rect class="cls-12" x="74.70694" y="119.73891" width="1.97936" height="2.88194" transform="translate(151.39325 242.35977) rotate(-180)"/><rect class="cls-12" x="74.81112" y="125.38271" width="1.77101" height="3.00202" transform="translate(151.39325 253.76744) rotate(-180)"/><rect class="cls-12" x="74.81112" y="130.72631" width="1.77101" height="3.60242" transform="translate(151.39325 265.05504) rotate(-180)"/><rect class="cls-12" x="74.70694" y="136.70645" width="1.97936" height="3.60242" transform="translate(151.39325 277.01533) rotate(-180)"/><rect class="cls-12" x="84.44896" y="143.37982" width="1.88631" height="3.60242" transform="translate(170.78422 290.36207) rotate(-180)"/><rect class="cls-12" x="75.15837" y="143.37982" width="1.87819" height="3.60242" transform="translate(152.19492 290.36207) rotate(-180)"/><rect class="cls-12" x="80.00371" y="109.70178" width="1.46473" height="12.89318" transform="translate(196.88445 35.4123) rotate(90)"/><polygon class="cls-12" points="86.821 108.817 87.091 107.38 83.898 106.715 83.628 108.152 86.821 108.817"/><rect class="cls-12" x="81.39991" y="105.77863" width="1.46473" height="3.25489" transform="translate(189.53835 25.2738) rotate(90)"/><polygon class="cls-12" points="77.528 108.954 77.178 107.537 80.328 106.674 80.678 108.091 77.528 108.954"/><polygon class="cls-12" points="77.178 109.132 77.178 107.537 77.528 108.954 77.178 109.132"/><polygon class="cls-12" points="83.507 106.672 83.996 108.192 83.894 106.735 83.507 106.672"/><polygon class="cls-12" points="80.537 106.634 80.537 108.23 80.188 106.812 80.537 106.634"/><polygon class="cls-12" points="87.024 104.843 87.293 103.406 84.1 102.742 83.83 104.179 87.024 104.843"/><rect class="cls-12" x="81.60201" y="101.80479" width="1.46473" height="3.25489" transform="translate(185.76661 21.09786) rotate(90)"/><polygon class="cls-12" points="77.73 104.981 77.38 103.563 80.53 102.7 80.88 104.117 77.73 104.981"/><polygon class="cls-12" points="77.38 105.158 77.38 103.563 77.73 104.981 77.38 105.158"/><polygon class="cls-12" points="83.709 102.699 84.198 104.218 84.097 102.761 83.709 102.699"/><polygon class="cls-12" points="80.739 102.661 80.739 104.256 80.39 102.838 80.739 102.661"/><polygon class="cls-12" points="87.029 113.589 87.298 112.152 84.105 111.487 83.836 112.924 87.029 113.589"/><rect class="cls-12" x="81.60729" y="110.55037" width="1.46473" height="3.25489" transform="translate(194.51748 29.83816) rotate(90)"/><polygon class="cls-12" points="77.735 113.726 77.385 112.309 80.535 111.445 80.885 112.863 77.735 113.726"/><polygon class="cls-12" points="77.385 113.904 77.385 112.309 77.735 113.726 77.385 113.904"/><polygon class="cls-12" points="83.714 111.444 84.203 112.963 84.102 111.507 83.714 111.444"/><polygon class="cls-12" points="80.745 111.406 80.745 113.001 80.395 111.584 80.745 111.406"/><polygon class="cls-8" points="159.476 99.254 159.476 90.484 142.847 86.327 145.98 94.06 159.476 99.254"/><polygon class="cls-16" points="103.133 93.348 124.023 85.591 145.98 93.463 142.847 84.843 103.133 85.591 103.133 93.348"/><rect class="cls-17" x="103.18575" y="78.14395" width="40.40645" height="8.18316"/><polygon class="cls-14" points="124.023 85.591 87.298 97.153 87.298 100.906 121.772 89.344 124.023 85.591"/><polygon class="cls-15" points="124.023 85.591 158.99 96.951 158.967 101.515 121.733 89.344 124.023 85.591"/><rect class="cls-16" x="103.13347" y="55.04339" width="40.45873" height="23.10056"/><polygon class="cls-11" points="125.135 37.737 123.132 38.672 122.911 48.759 125.135 48.759 125.135 37.737"/><polygon class="cls-18" points="119.571 38.672 119.571 48.759 122.927 48.759 123.148 38.672 119.571 38.672"/><polygon class="cls-10" points="118.778 38.672 121.359 27.385 124.374 38.672 118.778 38.672"/><polygon class="cls-9" points="121.786 27.385 126.26 37.472 124.2 38.672 121.786 27.385"/><polygon class="cls-19" points="103.133 55.043 120.68 45.197 143.592 55.043 103.133 55.043"/><path class="cls-4" d="M119.281,73.80726V62.158s0-2.96,2.78807-2.76908a2.99552,2.99552,0,0,1,2.91481,3.151V73.80726Z"/><path class="cls-4" d="M126.10859,73.80726V62.158s0-2.96,2.78807-2.76908a2.99552,2.99552,0,0,1,2.9148,3.151V73.80726Z"/><path class="cls-4" d="M112.11085,73.80726V62.158s0-2.96,2.78807-2.76908a2.99552,2.99552,0,0,1,2.9148,3.151V73.80726Z"/><rect class="cls-20" x="74.44183" y="148.39445" width="12.04412" height="41.13944" transform="translate(160.92778 337.92833) rotate(-180)"/><rect class="cls-20" x="159.4055" y="148.89478" width="12.04412" height="40.87926" transform="translate(330.85512 338.66883) rotate(-180)"/><path class="cls-4" d="M157.55606,64.01773s0-1.55252,2.00409-1.39727c0,0,2.13771-.23288,2.27132,1.39727V75.8169h-4.27541Z"/><path class="cls-4" d="M152.22113,62.69947s0-1.55252,2.0041-1.39727c0,0,2.1377-.23288,2.27131,1.39727V74.49864h-4.27541Z"/><path class="cls-4" d="M146.8862,61.39848s0-1.55253,2.0041-1.39727c0,0,2.1377-.23288,2.27131,1.39727V73.19764H146.8862Z"/><path class="cls-4" d="M99.70136,62.75183s0-1.53688-2.25181-1.38319c0,0-2.40194-.23053-2.55206,1.38319V74.43208h4.80387Z"/><path class="cls-4" d="M94.529,64.43033s0-1.53688-2.25181-1.38319c0,0-2.40193-.23053-2.55206,1.38319V76.11058H94.529Z"/><path class="cls-4" d="M89.1478,66.3481s0-1.53687-2.25181-1.38319c0,0-2.40193-.23053-2.552,1.38319V78.02836H89.1478Z"/><rect class="cls-20" x="86.56038" y="148.39445" width="73.05861" height="39.93863" transform="translate(246.17938 336.72752) rotate(-180)"/><rect class="cls-2" x="87.14523" y="187.52702" width="73.05861" height="2.45341" transform="translate(247.34907 377.50745) rotate(-180)"/><rect class="cls-15" x="86.22575" y="148.70641" width="0.62909" height="32.18165" transform="translate(173.08059 329.59448) rotate(-180)"/><rect class="cls-15" x="159.23491" y="148.33441" width="0.69863" height="39.81855" transform="translate(319.16845 336.48736) rotate(-180)"/><rect class="cls-2" x="74.35117" y="152.18876" width="11.87457" height="0.66407" transform="translate(160.57692 305.04158) rotate(-180)"/><rect class="cls-2" x="74.35117" y="155.73114" width="11.87457" height="0.81079" transform="translate(160.57692 312.27307) rotate(-180)"/><rect class="cls-2" x="74.35117" y="159.69381" width="11.87457" height="0.7824" transform="translate(160.57692 320.17001) rotate(-180)"/><rect class="cls-2" x="74.35117" y="163.95667" width="11.87457" height="0.87707" transform="translate(160.57692 328.79042) rotate(-180)"/><rect class="cls-2" x="74.5266" y="168.36376" width="11.87457" height="0.87223" transform="translate(160.92778 337.59975) rotate(-180)"/><rect class="cls-2" x="74.5266" y="172.90269" width="11.87457" height="0.71319" transform="translate(160.92778 346.51858) rotate(-180)"/><rect class="cls-21" x="113.24401" y="153.91267" width="20.52291" height="33.61435"/><rect class="cls-2" x="74.42515" y="176.56516" width="11.87457" height="0.8438" transform="translate(160.72487 353.97412) rotate(-180)"/><rect class="cls-2" x="160.04751" y="153.11938" width="11.87457" height="0.9371" transform="translate(331.96958 307.17586) rotate(-180)"/><rect class="cls-2" x="159.57748" y="157.50582" width="11.87457" height="0.74702" transform="translate(331.02954 315.75865) rotate(180)"/><rect class="cls-2" x="159.75291" y="161.44009" width="11.87457" height="1.04559" transform="translate(331.38039 323.92577) rotate(180)"/><rect class="cls-2" x="159.75291" y="165.79763" width="11.87457" height="0.74078" transform="translate(331.38039 332.33604) rotate(180)"/><rect class="cls-2" x="159.75291" y="170.19987" width="11.87457" height="0.82293" transform="translate(331.38039 341.22268) rotate(180)"/><rect class="cls-2" x="159.75291" y="174.57977" width="11.87457" height="0.60446" transform="translate(331.38039 349.76399) rotate(180)"/><rect class="cls-2" x="159.65146" y="178.37284" width="11.87457" height="0.90207" transform="translate(331.17749 357.64776) rotate(180)"/><rect class="cls-2" x="104.37642" y="178.65944" width="16.50421" height="1.23096" transform="translate(-66.64638 291.90344) rotate(-90)"/><rect class="cls-2" x="126.13029" y="178.65944" width="16.50421" height="1.23096" transform="translate(-44.89252 313.65731) rotate(-90)"/><path class="cls-22" d="M110.93371,153.62592v16.47056s.36149,2.44217,1.53634,1.99186c0,0,1.9882.18012,1.53634-2.88194l.06681-3.48981s1.108-8.31085,8.97046-8.75979c0,0,8.76616-.13367,9.66989,8.75979v4.75066s.45187,2.27228,1.9882,1.67651c0,0,1.446-.05542,1.08448-3.838l.058-14.13951L123.389,148.40241Z"/><rect class="cls-2" x="74.35117" y="180.76798" width="12.20921" height="1.02069" transform="translate(160.91156 362.55666) rotate(-180)"/><rect class="cls-2" x="74.35928" y="184.31037" width="12.20921" height="1.02069" transform="translate(160.92778 369.64142) rotate(-180)"/><rect class="cls-2" x="160.38307" y="183.18461" width="12.20921" height="1.02069" transform="translate(332.97536 367.38991) rotate(-180)"/><rect class="cls-23" x="117.06094" y="165.75789" width="13.63625" height="21.76913"/><rect class="cls-20" x="105.29964" y="179.52617" width="16.50421" height="0.61548" transform="translate(-66.28217 293.38566) rotate(-90)"/><rect class="cls-20" x="125.20707" y="179.52617" width="16.50421" height="0.61548" transform="translate(-46.37474 313.29309) rotate(-90)"/></svg>