<svg id="Layer_1" data-name="Layer 1" xmlns="http://www.w3.org/2000/svg" viewBox="0 0 240 240"><defs><style>.cls-1{fill:#f9dc19;stroke:#231f20;stroke-miterlimit:10;stroke-width:2px;}.cls-2{fill:#e9dab9;}.cls-3{fill:#b77a4e;}.cls-4{fill:#ca9a72;}.cls-5{fill:#3c4925;}.cls-6{fill:#bfb091;}.cls-7{fill:#273117;}.cls-8{fill:#47433c;}</style></defs><ellipse class="cls-1" cx="120" cy="120" rx="115.95215" ry="110.91075"/><polygon class="cls-2" points="52.493 76.601 46.023 75.071 43.356 139.959 50.094 139.435 52.493 76.601"/><polygon class="cls-2" points="183.306 69.579 189.776 68.049 192.443 132.937 185.705 132.413 183.306 69.579"/><polygon class="cls-3" points="58.337 74.663 52.493 149.789 129.201 155.751 131.393 89.867 58.337 74.663"/><polygon class="cls-4" points="58.842 74.663 49.005 79.582 43.239 151.493 53.415 149.789 58.842 74.663"/><polygon class="cls-4" points="172.476 70.253 187.74 73.137 191.132 146.405 175.529 146.914 172.476 70.253"/><polygon class="cls-3" points="124.243 96.717 172.397 70.253 175.529 146.914 122.599 155.751 124.243 96.717"/><rect class="cls-5" x="40.86415" y="132.41297" width="155.0172" height="18.99554" rx="9.49776"/><polygon class="cls-6" points="126.56 93.845 172.476 68.049 172.476 70.253 125.537 96.717 126.56 93.845"/><polygon class="cls-6" points="172.476 68.049 188.08 70.253 187.74 73.137 172.476 70.253 172.476 68.049"/><polygon class="cls-6" points="49.005 79.582 49.005 77.207 58.842 71.641 133.836 89.758 131.172 91.255 58.842 74.663 49.005 79.582"/><rect class="cls-7" x="40.86415" y="137.41626" width="155.0172" height="18.99554" rx="9.49776"/><polygon class="cls-8" points="62.573 87.922 62.573 91.731 122.801 105.062 168.745 81.495 168.745 77.448 122.801 101.808 62.573 87.922"/><polygon class="cls-8" points="123.154 128.945 170.935 114.423 170.935 118.561 123.154 131.303 60.383 124.885 60.383 121.138 123.154 128.945"/><polygon class="cls-8" points="62.133 95.817 122.599 108.388 168.745 84.684 168.745 89.293 122.599 111.252 62.133 99.963 62.133 95.817"/><polygon class="cls-8" points="62.133 104.653 62.133 108.66 122.548 118.139 168.168 99.04 168.168 95.098 123.473 115.442 62.133 104.653"/><polygon class="cls-8" points="123.154 120.505 170.935 105.984 170.935 110.121 123.154 122.863 60.383 116.445 60.383 112.698 123.154 120.505"/></svg>