<svg id="Layer_1" data-name="Layer 1" xmlns="http://www.w3.org/2000/svg" viewBox="0 0 240 240"><defs><style>.cls-1{fill:#f9dc19;stroke:#231f20;stroke-miterlimit:10;stroke-width:2px;}.cls-2{fill:#e8bc90;}.cls-3{fill:#ece5d1;}.cls-4{fill:#e3dfd4;}.cls-5{fill:#c3c5d0;}.cls-6{fill:#efeded;}.cls-7{fill:#f3cca2;}.cls-8{fill:#536887;}.cls-9{fill:#fff;}</style></defs><ellipse class="cls-1" cx="120" cy="120" rx="115.95215" ry="110.91075"/><rect class="cls-2" x="112.35619" y="94.51475" width="10.23471" height="108.65219" transform="translate(266.31439 31.36731) rotate(90)"/><rect class="cls-3" x="114.48323" y="95.81937" width="6.4831" height="122.76076" transform="translate(274.92453 39.47497) rotate(90)"/><rect class="cls-4" x="77.14249" y="144.60938" width="3.70612" height="31.66383"/><rect class="cls-4" x="103.83559" y="144.60938" width="3.68822" height="31.66383"/><rect class="cls-4" x="130.0891" y="144.43489" width="3.59324" height="31.66383" transform="translate(263.77145 320.53361) rotate(180)"/><rect class="cls-5" x="112.19464" y="77.69886" width="8.90414" height="124.9169" transform="translate(256.80402 23.5106) rotate(90)"/><rect class="cls-4" x="113.37953" y="-15.83905" width="6.30861" height="124.9169" transform="translate(163.15323 -69.91443) rotate(90)"/><rect class="cls-6" x="115.97822" y="-21.50549" width="1.26172" height="128.67946" transform="translate(159.44332 -73.77485) rotate(90)"/><rect class="cls-6" x="115.90297" y="-13.95386" width="1.26172" height="128.67946" transform="translate(166.9197 -66.14796) rotate(90)"/><rect class="cls-7" x="54.75264" y="50.71065" width="123.56238" height="4.39733"/><rect class="cls-8" x="54.75264" y="55.10798" width="123.56238" height="6.37019"/><rect class="cls-7" x="54.75264" y="61.47818" width="123.56238" height="2.19867"/><rect class="cls-7" x="54.82789" y="65.19342" width="123.56238" height="4.39733"/><rect class="cls-8" x="54.82789" y="69.59075" width="123.56238" height="6.37019"/><rect class="cls-7" x="54.82789" y="75.96095" width="123.56238" height="2.19867"/><rect class="cls-7" x="54.82789" y="79.39598" width="123.56238" height="4.39733"/><rect class="cls-8" x="54.82789" y="83.79332" width="123.56238" height="6.37019"/><rect class="cls-7" x="54.82789" y="90.16351" width="123.56238" height="2.19867"/><rect class="cls-7" x="54.75264" y="94.06676" width="123.56238" height="4.39733"/><rect class="cls-8" x="54.75264" y="98.46409" width="123.56238" height="6.37019"/><rect class="cls-7" x="54.75264" y="104.83429" width="123.56238" height="2.19867"/><rect class="cls-7" x="54.86552" y="108.37991" width="123.56238" height="4.39733"/><rect class="cls-8" x="54.86552" y="112.77724" width="123.56238" height="6.37019"/><rect class="cls-7" x="54.86552" y="119.14744" width="123.56238" height="2.19867"/><rect class="cls-7" x="54.79027" y="123.05068" width="123.56238" height="4.39733"/><rect class="cls-8" x="54.79027" y="127.44802" width="123.56238" height="6.37019"/><rect class="cls-7" x="54.79027" y="133.81821" width="123.56238" height="2.19867"/><rect class="cls-4" x="154.24006" y="144.43489" width="3.59324" height="31.66383" transform="translate(312.07337 320.53361) rotate(180)"/><rect class="cls-4" x="176.22979" y="144.60938" width="2.79689" height="31.66383"/><rect class="cls-4" x="54.94596" y="144.43489" width="2.79689" height="31.66383"/><rect class="cls-9" x="60.85751" y="49.75501" width="1.45287" height="86.26187"/><rect class="cls-9" x="67.63757" y="49.7737" width="1.45287" height="86.26187"/><rect class="cls-9" x="74.87909" y="49.74567" width="1.45287" height="86.26187"/><rect class="cls-9" x="81.65915" y="49.76436" width="1.45287" height="86.26187"/><rect class="cls-9" x="88.46203" y="50.90163" width="1.45287" height="86.26187"/><rect class="cls-9" x="95.24209" y="50.92032" width="1.45287" height="86.26187"/><rect class="cls-9" x="102.48361" y="50.89229" width="1.45287" height="86.26187"/><rect class="cls-9" x="109.26367" y="50.91098" width="1.45287" height="86.26187"/><rect class="cls-9" x="116.64671" y="50.31431" width="1.45287" height="86.26187"/><rect class="cls-9" x="123.42677" y="50.33299" width="1.45287" height="86.26187"/><rect class="cls-9" x="130.66829" y="50.30496" width="1.45287" height="86.26187"/><rect class="cls-9" x="137.44835" y="50.32365" width="1.45287" height="86.26187"/><rect class="cls-9" x="144.25123" y="51.01351" width="1.45287" height="86.26187"/><rect class="cls-9" x="151.03129" y="51.0322" width="1.45287" height="86.26187"/><rect class="cls-9" x="158.27281" y="50.55675" width="1.45287" height="86.26187"/><rect class="cls-9" x="165.05287" y="50.57543" width="1.45287" height="86.26187"/><rect class="cls-9" x="171.79964" y="50.89229" width="1.45287" height="86.26187"/><rect class="cls-9" x="54.79027" y="136.01688" width="125.22704" height="1.27719"/><rect class="cls-7" x="53.92031" y="138.04054" width="125.22704" height="1.27719"/><rect class="cls-9" x="54.72113" y="51.0322" width="1.45287" height="86.26187"/><rect class="cls-9" x="177.40555" y="50.30496" width="1.45287" height="86.26187"/><rect class="cls-3" x="50.39538" y="176.09872" width="135.50483" height="5.24822"/><rect class="cls-3" x="46.63047" y="178.72283" width="142.18862" height="5.24822"/><rect class="cls-3" x="44.64938" y="182.34692" width="145.99781" height="5.24822"/></svg>