<svg id="Layer_1" data-name="Layer 1" xmlns="http://www.w3.org/2000/svg" viewBox="0 0 240 240"><defs><style>.cls-1{fill:#7fb752;stroke:#231f20;stroke-miterlimit:10;stroke-width:2px;}.cls-2{fill:#feffff;}.cls-3{fill:#5d636e;opacity:0.61;}.cls-4{fill:#c37f7a;}.cls-5{fill:#f1e3db;}.cls-6{fill:#4e5562;}.cls-7{fill:#ccc2bc;}.cls-8{fill:#fff;}.cls-9{fill:#b99a8d;}.cls-10{fill:#fcfcfb;}.cls-11{fill:#2a331f;}.cls-12{fill:#9d9897;}</style></defs><ellipse class="cls-1" cx="120" cy="120" rx="115.95215" ry="110.91075"/><rect class="cls-2" x="44.76193" y="73.3102" width="150.79015" height="1.06627"/><rect class="cls-3" x="43.79485" y="44.85949" width="151.75723" height="28.45071"/><rect class="cls-3" x="44.48761" y="111.07954" width="151.75723" height="66.59305"/><rect class="cls-2" x="74.3748" y="147.84226" width="55.69422" height="0.68911" transform="translate(250.40873 45.9649) rotate(90)"/><rect class="cls-2" x="97.22999" y="147.62672" width="55.69422" height="0.68911" transform="translate(273.04837 22.89417) rotate(90)"/><rect class="cls-2" x="118.62438" y="147.84226" width="55.69422" height="0.68911" transform="translate(294.65831 1.71532) rotate(90)"/><rect class="cls-4" x="45.18914" y="74.35422" width="151.75723" height="36.72532"/><rect class="cls-5" x="79.45002" y="44.85949" width="8.61713" height="140.60006"/><rect class="cls-5" x="158.05886" y="44.85949" width="8.61713" height="140.60006"/><rect class="cls-6" x="44.48761" y="106.6109" width="151.75723" height="3.27051"/><rect class="cls-7" x="87.32246" y="44.85949" width="2.15428" height="140.60006"/><rect class="cls-7" x="156.98172" y="44.85949" width="2.15428" height="140.60006"/><rect class="cls-6" x="76.48606" y="92.11114" width="97.18208" height="9.58716"/><path class="cls-8" d="M99.57812,97.1377c.03321.25781.168.42675.41016.42675a.30588.30588,0,0,0,.35059-.34179c0-.25879-.125-.36426-.4541-.48145-.52832-.18262-.709-.41894-.709-.83008a.746.746,0,0,1,.77246-.81543.75976.75976,0,0,1,.80469.8125h-.45605c-.02833-.21-.11036-.36914-.35254-.36914a.27978.27978,0,0,0-.30567.31543c0,.21192.11426.27246.4375.38965.582.21191.73535.50195.73535.91016a.78355.78355,0,0,1-.84375.85937.815.815,0,0,1-.84863-.876Z"/><path class="cls-8" d="M102.95605,97.082c-.06152.48047-.31933.93652-.90429.93652-.71875,0-.97754-.65234-.97754-1.46386,0-.80176.33105-1.459.99609-1.459a.87555.87555,0,0,1,.873.93067h-.4541c-.0459-.23438-.1211-.46582-.43457-.46582-.37891,0-.50293.48047-.50293.99121,0,.541.12012,1.00586.50879,1.00586.30468,0,.39648-.26367.43945-.47559Z"/><path class="cls-8" d="M103.29492,95.13379h.46485v1.12207h.833V95.13379h.46485v2.84375h-.46485V96.73633h-.833v1.24121h-.46485Z"/><path class="cls-8" d="M107.51172,96.542c0,.81836-.31641,1.47656-1.03516,1.47656-.70312,0-1.00293-.6748-1.00293-1.48339,0-.7002.30664-1.43946,1.03516-1.43946C107.19824,95.0957,107.51172,95.77637,107.51172,96.542Zm-1.55762-.0039c0,.56738.18067,1.01953.542,1.01953.39649,0,.53907-.4209.53907-1.01563,0-.52344-.14161-.98535-.54688-.98535C106.11133,95.55664,105.9541,95.99121,105.9541,96.53809Z"/><path class="cls-8" d="M109.8584,96.542c0,.81836-.31641,1.47656-1.03516,1.47656-.70312,0-1.00293-.6748-1.00293-1.48339,0-.7002.30664-1.43946,1.03516-1.43946C109.54492,95.0957,109.8584,95.77637,109.8584,96.542Zm-1.55762-.0039c0,.56738.18067,1.01953.542,1.01953.39649,0,.53907-.4209.53907-1.01563,0-.52344-.14161-.98535-.54688-.98535C108.458,95.55664,108.30078,95.99121,108.30078,96.53809Z"/><path class="cls-8" d="M110.26367,95.13379h.46485v2.36816h1.01757l-.05078.47559h-1.43164Z"/><path class="cls-8" d="M114.53613,96.542c0,.81836-.3164,1.47656-1.03515,1.47656-.70313,0-1.00293-.6748-1.00293-1.48339,0-.7002.30664-1.43946,1.03515-1.43946C114.22266,95.0957,114.53613,95.77637,114.53613,96.542Zm-1.55761-.0039c0,.56738.18066,1.01953.542,1.01953.39648,0,.53906-.4209.53906-1.01563,0-.52344-.1416-.98535-.54687-.98535C113.13574,95.55664,112.97852,95.99121,112.97852,96.53809Z"/><path class="cls-8" d="M114.94141,95.13379h1.46093v.47851h-1.00488V96.333h.94336v.47168h-.94336v1.17285h-.456Z"/><path class="cls-8" d="M117.62012,95.13379h.792c.69336,0,1.07324.52832,1.07324,1.36133,0,.9248-.39941,1.48242-1.09082,1.48242h-.77441Zm.46777,2.38672h.30176c.40332,0,.61523-.377.61523-1.0166,0-.52832-.19043-.90625-.6123-.90625h-.30469Z"/><path class="cls-8" d="M121.335,96.73633h-.99121v.76562h1.09375l-.05566.47559h-1.49122V95.13379H121.376v.47851h-1.03223v.64454h.99121Z"/><path class="cls-8" d="M121.76855,97.97754V95.13379h.59278c.67676,1.73242.78711,2.01367.82129,2.14844h.00683c-.02343-.33789-.02636-.80274-.02636-1.26758v-.88086h.42382v2.84375h-.56933c-.72559-1.90625-.80762-2.13281-.84082-2.23926h-.00293c.0166.35938.01855.85059.01855,1.3584v.88086Z"/><path class="cls-8" d="M124.51367,95.61328h-.61816v-.47949h1.7041v.47949h-.61816v2.36426h-.46778Z"/><path class="cls-8" d="M126.35938,95.13379v2.84375h-.46485V95.13379Z"/><path class="cls-8" d="M127.16113,97.1377c.03321.25781.168.42675.41016.42675a.30589.30589,0,0,0,.35059-.34179c0-.25879-.125-.36426-.45411-.48145-.52832-.18262-.709-.41894-.709-.83008a.746.746,0,0,1,.77246-.81543.75976.75976,0,0,1,.80469.8125h-.45606c-.02832-.21-.11035-.36914-.35254-.36914a.27978.27978,0,0,0-.30566.31543c0,.21192.11426.27246.4375.38965.582.21191.73535.50195.73535.91016a.78355.78355,0,0,1-.84375.85937.815.815,0,0,1-.84863-.876Z"/><path class="cls-8" d="M129.15137,95.61328h-.61817v-.47949h1.7041v.47949h-.61816v2.36426h-.46777Z"/><path class="cls-8" d="M130.98828,96.80273v1.17481h-.45605V95.13379h.92871a.697.697,0,0,1,.7373.76855.658.658,0,0,1-.35449.665c.22656.10938.30762.332.30762.68555v.07324a6.15531,6.15531,0,0,0,.03027.65137h-.44726a2.84038,2.84038,0,0,1-.043-.66016v-.07519c0-.3252-.09473-.43946-.39258-.43946Zm0-.46093h.34766c.2207,0,.40234-.07325.40234-.3877a.31551.31551,0,0,0-.33887-.36035h-.41113Z"/><path class="cls-8" d="M133.07227,97.97754V96.90527a.19.19,0,0,0-.01954-.09179l-.72168-1.67969h.52344c.16016.42773.37012.9707.47168,1.23535.14942-.4043.32227-.84082.47168-1.23535h.4834l-.72559,1.668a.17646.17646,0,0,0-.01855.08691v1.08887Z"/><path class="cls-8" d="M137.07422,97.082c-.06152.48047-.31934.93652-.9043.93652-.71875,0-.97754-.65234-.97754-1.46386,0-.80176.33106-1.459.9961-1.459a.87555.87555,0,0,1,.873.93067h-.4541c-.0459-.23438-.12109-.46582-.43457-.46582-.3789,0-.50293.48047-.50293.99121,0,.541.12012,1.00586.50879,1.00586.30469,0,.39649-.26367.43945-.47559Z"/><path class="cls-8" d="M137.41309,95.13379h.46484v2.36816h1.01758l-.05078.47559h-1.43164Z"/><path class="cls-8" d="M139.65625,95.13379v2.84375h-.46484V95.13379Z"/><path class="cls-8" d="M140.17285,97.97754V95.13379h.59277c.67676,1.73242.78711,2.01367.82129,2.14844h.00684c-.02344-.33789-.02637-.80274-.02637-1.26758v-.88086h.42383v2.84375h-.56933c-.72559-1.90625-.80762-2.13281-.84083-2.23926h-.00293c.01661.35938.01856.85059.01856,1.3584v.88086Z"/><path class="cls-8" d="M142.96777,95.13379v2.84375h-.46484V95.13379Z"/><path class="cls-8" d="M145.26855,97.082c-.06152.48047-.31933.93652-.90429.93652-.71875,0-.97754-.65234-.97754-1.46386,0-.80176.33105-1.459.99609-1.459a.87555.87555,0,0,1,.87305.93067h-.4541c-.0459-.23438-.1211-.46582-.43457-.46582-.37891,0-.50293.48047-.50293.99121,0,.541.12012,1.00586.50879,1.00586.30468,0,.39648-.26367.43945-.47559Z"/><path class="cls-8" d="M145.96387,97.1377c.0332.25781.168.42675.41015.42675a.30588.30588,0,0,0,.35059-.34179c0-.25879-.125-.36426-.4541-.48145-.52832-.18262-.709-.41894-.709-.83008a.746.746,0,0,1,.77246-.81543.75976.75976,0,0,1,.80469.8125h-.45605c-.02832-.21-.11035-.36914-.35254-.36914a.27979.27979,0,0,0-.30567.31543c0,.21192.11426.27246.4375.38965.582.21191.73536.50195.73536.91016a.78355.78355,0,0,1-.84375.85937.815.815,0,0,1-.84864-.876Z"/><polygon class="cls-9" points="76.486 101.819 93.002 120.34 155.955 120.34 173.668 101.819 76.486 101.819"/><rect class="cls-10" x="100.56053" y="141.46709" width="20.61104" height="34.56684"/><rect class="cls-11" x="102.56647" y="144.37099" width="7.535" height="12.63697"/><rect class="cls-11" x="112.13848" y="144.37099" width="7.535" height="12.63697"/><rect class="cls-11" x="102.56647" y="159.13189" width="7.535" height="12.63697"/><rect class="cls-11" x="112.13848" y="159.13189" width="7.535" height="12.63697"/><rect class="cls-10" x="128.50184" y="141.46709" width="20.61104" height="34.56684"/><rect class="cls-11" x="130.50778" y="144.37099" width="7.535" height="12.63697"/><rect class="cls-11" x="140.07978" y="144.37099" width="7.535" height="12.63697"/><rect class="cls-11" x="130.50778" y="159.13189" width="7.535" height="12.63697"/><rect class="cls-11" x="140.07978" y="159.13189" width="7.535" height="12.63697"/><rect class="cls-12" x="111.02749" y="141.46709" width="0.28465" height="34.56684"/><rect class="cls-12" x="138.66503" y="141.46709" width="0.28465" height="34.56684"/><rect class="cls-4" x="89.47674" y="181.23002" width="67.50498" height="4.22953"/><rect class="cls-8" x="85.34079" y="185.55119" width="75.77687" height="2.4644"/><rect class="cls-4" x="85.34079" y="188.01559" width="75.77687" height="0.6178"/><rect class="cls-8" x="80.06758" y="188.6334" width="84.32519" height="2.4644"/><rect class="cls-4" x="80.06758" y="191.09779" width="84.32519" height="0.6178"/><rect class="cls-8" x="76.79247" y="191.7156" width="91.19077" height="2.4644"/><rect class="cls-4" x="76.79247" y="194.18" width="91.19077" height="0.6178"/><rect class="cls-8" x="74.07809" y="194.7978" width="96.17912" height="2.4644"/><rect class="cls-4" x="74.07809" y="197.2622" width="96.17912" height="0.6178"/><rect class="cls-2" x="44.48761" y="173.90139" width="34.96241" height="2.13253"/><rect class="cls-2" x="166.67599" y="173.90139" width="30.27038" height="2.13253"/><rect class="cls-2" x="32.39863" y="143.34286" width="64.52771" height="0.85442" transform="translate(208.43255 79.10759) rotate(90)"/><rect class="cls-2" x="149.79421" y="143.34286" width="64.52771" height="0.85442" transform="translate(325.82813 -38.28799) rotate(90)"/><rect class="cls-2" x="12.92529" y="143.34286" width="64.52771" height="0.85442" transform="translate(188.95921 98.58093) rotate(90)"/><rect class="cls-2" x="163.98099" y="143.34286" width="64.52771" height="0.85442" transform="translate(340.01491 -52.47477) rotate(90)"/><rect class="cls-2" x="30.86872" y="59.17991" width="29.06804" height="0.42721" transform="translate(104.79626 13.99077) rotate(90)"/><rect class="cls-2" x="50.12846" y="59.17991" width="29.06804" height="0.42721" transform="translate(124.056 -5.26897) rotate(90)"/><rect class="cls-2" x="88.03245" y="59.60659" width="29.06804" height="0.42721" transform="translate(162.38666 -42.74628) rotate(90)"/><rect class="cls-2" x="110.88763" y="59.17991" width="29.06804" height="0.42721" transform="translate(184.81517 -66.02814) rotate(90)"/><rect class="cls-2" x="132.28203" y="59.17991" width="29.06804" height="0.42721" transform="translate(206.20956 -87.42254) rotate(90)"/><rect class="cls-2" x="165.92195" y="59.60659" width="29.06804" height="0.42721" transform="translate(240.27616 -120.63578) rotate(90)"/><rect class="cls-2" x="181.71082" y="59.17991" width="29.06804" height="0.42721" transform="translate(255.63835 -136.85132) rotate(90)"/></svg>