<svg id="Layer_1" data-name="Layer 1" xmlns="http://www.w3.org/2000/svg" viewBox="0 0 240 240"><defs><style>.cls-1{fill:#f9dc19;stroke:#231f20;stroke-width:2px;}.cls-1,.cls-12,.cls-13{stroke-miterlimit:10;}.cls-2{fill:#c37f7a;}.cls-3{fill:#dec3b1;}.cls-4{fill:#c8c4b9;}.cls-5{fill:#141a13;}.cls-6{fill:#d1ad91;}.cls-7{fill:#d8baa0;}.cls-8{fill:#93714d;}.cls-9{fill:#885e25;}.cls-10{fill:#fdfefe;}.cls-11,.cls-12{fill:#d9ba97;}.cls-12{stroke:#c0a489;stroke-width:0.5px;}.cls-13{fill:none;stroke:#a49e97;}.cls-14{fill:#f3c58a;}.cls-15{fill:#e7b777;}.cls-16{fill:#d2b29a;}.cls-17{fill:#dda16e;}.cls-18{fill:#e4b7a8;}.cls-19{fill:#939393;}.cls-20{fill:#fcd2b4;}.cls-21{fill:#afd297;}.cls-22{fill:#77a558;}.cls-23{fill:#96c478;}.cls-24{fill:#466630;}.cls-25{fill:#54704f;}.cls-26{fill:#638358;}.cls-27{fill:#628147;}.cls-28{fill:#486d3c;}.cls-29{fill:#c768a9;}</style></defs><ellipse class="cls-1" cx="120" cy="120" rx="115.95215" ry="110.91075"/><rect class="cls-2" x="38.69013" y="71.12028" width="157.44928" height="78.37558"/><rect class="cls-3" x="96.52417" y="83.4538" width="44.83812" height="64.15861"/><rect class="cls-4" x="36.01093" y="147.12637" width="38.11056" height="6.04525"/><rect class="cls-5" x="100.35181" y="87.28145" width="36.87905" height="21.14318"/><rect class="cls-5" x="100.35181" y="132.33222" width="36.87905" height="15.2802"/><rect class="cls-6" x="100.35181" y="108.42463" width="36.87905" height="14.88528"/><rect class="cls-7" x="100.35181" y="123.30991" width="36.87905" height="9.02231"/><rect class="cls-8" x="100.53408" y="110.30807" width="36.69678" height="0.85059"/><rect class="cls-8" x="100.59484" y="122.88462" width="36.69678" height="0.85059"/><polygon class="cls-8" points="97.577 85.403 96.524 83.458 96.555 83.454 97.608 85.398 97.577 85.403"/><rect class="cls-8" x="97.60823" y="85.39801" width="42.67" height="0.85059"/><rect class="cls-8" x="97.60823" y="86.85616" width="42.67" height="0.85059"/><polygon class="cls-8" points="140.31 85.403 141.362 83.459 141.331 83.454 140.278 85.398 140.31 85.403"/><polygon class="cls-8" points="97.791 147.599 97.608 87.707 97.426 87.72 97.608 147.612 97.791 147.599"/><polygon class="cls-8" points="140.366 147.849 140.317 86.269 140.19 86.275 140.239 147.855 140.366 147.849"/><path class="cls-9" d="M114.6792,131.17236c0-.2373.00391-.51953.00976-.67578h-.01074c-.062.28809-.20459.80078-.32519,1.19434h-.24512c-.08936-.332-.23486-.916-.292-1.19824h-.01123c.0122.16211.01806.46289.01806.70312v.49512h-.26025v-1.39063h.42383c.09961.3252.22363.80957.26221,1.02051h.00244c.02978-.18066.189-.69141.29345-1.02051h.40772v1.39063h-.273Z"/><path class="cls-9" d="M115.51709,130.30029v.88477c0,.15625.04346.30078.25781.30078.21289,0,.252-.1377.252-.30078v-.88477h.28564v.89063c0,.291-.12354.52051-.54346.52051-.41308,0-.53564-.22168-.53564-.51856v-.89258Z"/><path class="cls-9" d="M116.88867,131.1167v.57422h-.27832v-1.39063h.56641c.2622,0,.4497.12989.4497.376a.31692.31692,0,0,1-.21582.32519c.1377.05372.1875.16211.1875.335v.03613a2.43961,2.43961,0,0,0,.01807.31836h-.27295a1.13934,1.13934,0,0,1-.02588-.32324v-.03614c0-.15918-.0581-.21484-.23974-.21484Zm0-.22559h.21143c.13476,0,.2456-.03613.2456-.18945,0-.12891-.09277-.17578-.20654-.17578h-.25049Z"/><path class="cls-9" d="M117.86816,130.30029h.51172c.26172,0,.49121.13379.49121.416,0,.28906-.21289.4375-.51513.4375h-.2041v.53711h-.2837Zm.2837.63086h.186c.15137,0,.24512-.05664.24512-.209,0-.13965-.09717-.19629-.23633-.19629h-.19482Z"/><path class="cls-9" d="M119.07764,130.30029h.2832v.54883h.5083v-.54883h.28369v1.39063h-.28369v-.60742h-.5083v.60742h-.2832Z"/><path class="cls-9" d="M120.73389,131.69092v-.52442a.07957.07957,0,0,0-.01172-.04492l-.43994-.82129h.31933c.09766.21.22559.47461.2876.6045.09082-.19825.19678-.41114.2876-.6045h.29492l-.44336.81543a.07408.07408,0,0,0-.01074.043v.53223Z"/><path class="cls-9" d="M122.08887,130.30029h.2832v.54883h.50879v-.54883h.2832v1.39063h-.2832v-.60742h-.50879v.60742h-.2832Z"/><path class="cls-9" d="M123.70215,131.36084l-.09766.33008h-.27929c.01855-.05371.40527-1.3291.42578-1.39063h.36621l.44726,1.39063h-.29785l-.10547-.33008Zm.40332-.23438c-.08594-.28222-.14649-.48144-.17774-.61132h-.00293c-.0332.15527-.09668.37207-.16894.61132Z"/><path class="cls-9" d="M124.7334,130.30029h.2832v1.15821h.6211l-.03125.23242h-.873Z"/><path class="cls-9" d="M125.81738,130.30029h.28321v1.15821h.62109l-.03125.23242h-.87305Z"/><rect class="cls-3" x="49.40769" y="79.73586" width="22.41906" height="68.12127"/><rect class="cls-5" x="53.50873" y="85.60616" width="14.21697" height="18.55372"/><rect class="cls-5" x="53.50873" y="123.66264" width="14.21697" height="19.74339"/><rect class="cls-10" x="59.49323" y="85.67844" width="1.42777" height="18.40915"/><rect class="cls-10" x="60.43875" y="83.26352" width="0.35694" height="14.21697" transform="translate(150.98922 29.75479) rotate(90)"/><rect class="cls-10" x="60.43875" y="87.84682" width="0.35694" height="14.21697" transform="translate(155.57252 34.33809) rotate(90)"/><rect class="cls-10" x="60.43875" y="91.83015" width="0.35694" height="14.21697" transform="translate(159.55585 38.32142) rotate(90)"/><rect class="cls-10" x="59.79701" y="124.32976" width="1.42777" height="18.40915"/><rect class="cls-10" x="60.74253" y="121.91483" width="0.35694" height="14.21697" transform="translate(189.94431 68.10232) rotate(90)"/><rect class="cls-10" x="60.74253" y="126.49813" width="0.35694" height="14.21697" transform="translate(194.52762 72.68562) rotate(90)"/><rect class="cls-10" x="60.74253" y="130.48147" width="0.35694" height="14.21697" transform="translate(198.51095 76.66895) rotate(90)"/><rect class="cls-8" x="53.29862" y="105.43576" width="14.42708" height="0.42529"/><rect class="cls-8" x="19.49641" y="113.73384" width="68.12127" height="0.12531" transform="translate(167.35354 60.23945) rotate(90)"/><rect class="cls-8" x="33.96885" y="113.87898" width="68.12127" height="0.12531" transform="translate(181.97112 45.91215) rotate(90)"/><rect class="cls-3" x="162.69111" y="79.50465" width="22.41906" height="68.12127"/><rect class="cls-5" x="166.79216" y="85.37495" width="14.21697" height="18.55372"/><rect class="cls-5" x="166.79216" y="123.43143" width="14.21697" height="19.74339"/><rect class="cls-10" x="172.77665" y="85.44723" width="1.42777" height="18.40915"/><rect class="cls-10" x="173.72217" y="83.03231" width="0.35694" height="14.21697" transform="translate(264.04144 -83.75985) rotate(90)"/><rect class="cls-10" x="173.72217" y="87.61561" width="0.35694" height="14.21697" transform="translate(268.62474 -79.17655) rotate(90)"/><rect class="cls-10" x="173.72217" y="91.59894" width="0.35694" height="14.21697" transform="translate(272.60807 -75.19322) rotate(90)"/><rect class="cls-10" x="173.08043" y="124.09855" width="1.42777" height="18.40915"/><rect class="cls-10" x="174.02595" y="121.68362" width="0.35694" height="14.21697" transform="translate(302.99653 -45.41232) rotate(90)"/><rect class="cls-10" x="174.02595" y="126.26692" width="0.35694" height="14.21697" transform="translate(307.57983 -40.82902) rotate(90)"/><rect class="cls-10" x="174.02595" y="130.25026" width="0.35694" height="14.21697" transform="translate(311.56316 -36.84569) rotate(90)"/><rect class="cls-8" x="166.58205" y="105.20455" width="14.42708" height="0.42529"/><rect class="cls-8" x="132.77984" y="113.50263" width="68.12127" height="0.12531" transform="translate(280.40576 -53.27519) rotate(90)"/><rect class="cls-8" x="147.25227" y="113.64777" width="68.12127" height="0.12531" transform="translate(295.02333 -67.60248) rotate(90)"/><rect class="cls-11" x="147.38531" y="148.1896" width="15.7311" height="12.39428" transform="translate(310.50172 308.77348) rotate(-180)"/><path class="cls-4" d="M36.02882,145.91124s-1.98445.78983,0,2.27836H77.08216v-2.27836Z"/><polygon class="cls-4" points="147.385 148.19 143.464 146.063 143.464 158.275 147.385 160.584 147.385 148.19"/><polygon class="cls-12" points="163.116 148.19 147.567 148.19 143.691 146.063 159.83 146.063 163.116 148.19"/><polyline class="cls-13" points="163.116 149.131 147.458 149.131 143.464 147.126"/><rect class="cls-14" x="148.49053" y="136.03835" width="10.6931" height="7.65529" transform="translate(307.67417 279.73199) rotate(-180)"/><polygon class="cls-15" points="158.941 136.342 160.399 135.127 147.275 135.127 148.248 136.342 158.941 136.342"/><polygon class="cls-16" points="148.491 143.694 146.303 142.965 146.303 135.431 148.491 136.038 148.491 143.694"/><polygon class="cls-16" points="146.06 135.735 144.967 134.519 147.275 135.127 148.248 136.342 146.06 135.735"/><polygon class="cls-17" points="159.184 143.694 160.156 144.423 148.491 144.423 145.21 143.208 146.303 142.965 148.491 143.694 159.184 143.694"/><polygon class="cls-14" points="160.156 144.423 160.156 147.704 157.725 147.704 157.725 146.853 151.285 146.731 151.285 147.704 148.491 147.704 148.491 144.423 160.156 144.423"/><polygon class="cls-16" points="148.491 147.704 147.291 147.066 147.291 145.714 145.696 145.03 145.696 146.276 145.21 146.063 145.21 143.208 148.491 144.423 148.491 147.704"/><rect class="cls-11" x="74.12149" y="148.03771" width="15.7311" height="12.39428"/><polygon class="cls-4" points="89.853 148.038 93.774 145.911 93.774 158.123 89.853 160.432 89.853 148.038"/><polygon class="cls-12" points="74.121 148.038 89.671 148.038 93.547 145.911 77.408 145.911 74.121 148.038"/><polyline class="cls-13" points="74.121 148.979 89.78 148.979 93.774 146.974"/><rect class="cls-14" x="78.05426" y="135.88646" width="10.6931" height="7.65529"/><polygon class="cls-15" points="78.297 136.19 76.839 134.975 89.962 134.975 88.99 136.19 78.297 136.19"/><polygon class="cls-16" points="88.747 143.542 90.935 142.813 90.935 135.279 88.747 135.886 88.747 143.542"/><polygon class="cls-16" points="91.178 135.583 92.271 134.368 89.962 134.975 88.99 136.19 91.178 135.583"/><polygon class="cls-17" points="78.054 143.542 77.082 144.271 88.747 144.271 92.028 143.056 90.935 142.813 88.747 143.542 78.054 143.542"/><polygon class="cls-14" points="77.082 144.271 77.082 147.552 79.512 147.552 79.512 146.701 85.953 146.58 85.953 147.552 88.747 147.552 88.747 144.271 77.082 144.271"/><polygon class="cls-18" points="87.168 155.951 81.987 156.027 76.839 160.432 82.702 160.432 87.168 155.951"/><polygon class="cls-16" points="88.747 147.552 89.947 146.914 89.947 145.562 91.542 144.878 91.542 146.124 92.028 145.911 92.028 143.056 88.747 144.271 88.747 147.552"/><rect class="cls-4" x="162.32028" y="146.1087" width="38.11056" height="6.04525"/><rect class="cls-19" x="36.02882" y="148.1896" width="38.09267" height="0.78983"/><path class="cls-4" d="M201.39859,145.44038s1.98445.78983,0,2.27836H160.34525v-2.27836Z"/><rect class="cls-19" x="162.32923" y="147.58204" width="38.09267" height="0.78983" transform="translate(362.75113 295.95391) rotate(-180)"/><rect class="cls-18" x="56.88046" y="158.57892" width="20.76226" height="16.76873"/><polygon class="cls-20" points="77.643 158.579 82.702 156.027 82.702 170.973 77.643 175.348 77.643 158.579"/><path class="cls-18" d="M56.16657,156.02716s-2.47581.85059,0,2.55176H77.64272s1.01647-1.70117,0-2.55176Z"/><path class="cls-20" d="M77.64272,156.02716l5.05915-2.70365s2.30874.2734,0,2.70365l-5.05915,2.55176A2.05832,2.05832,0,0,0,77.64272,156.02716Z"/><polygon class="cls-20" points="82.702 165.687 87.168 160.584 87.168 155.951 82.702 160.432 82.702 165.687"/><polyline class="cls-13" points="56.754 158.897 77.599 158.897 82.915 156.892"/><polygon class="cls-18" points="150.531 155.799 155.712 155.875 160.86 160.28 154.997 160.28 150.531 155.799"/><rect class="cls-18" x="160.05628" y="158.42703" width="20.76226" height="16.76873" transform="translate(340.87483 333.62279) rotate(-180)"/><polygon class="cls-20" points="160.056 158.427 154.997 155.875 154.997 170.821 160.056 175.196 160.056 158.427"/><path class="cls-18" d="M181.53243,155.87527s2.47582.85059,0,2.55176H160.05628s-1.01647-1.70117,0-2.55176Z"/><path class="cls-20" d="M160.05628,155.87527l-5.05915-2.70365s-2.30874.2734,0,2.70365l5.05915,2.55176A2.05832,2.05832,0,0,1,160.05628,155.87527Z"/><polygon class="cls-20" points="154.997 165.536 150.531 160.432 150.531 155.799 154.997 160.28 154.997 165.536"/><polyline class="cls-13" points="180.945 158.745 160.1 158.745 154.784 156.74"/><circle class="cls-21" cx="76.11563" cy="129.07979" r="3.70881"/><circle class="cls-21" cx="79.45242" cy="125.37099" r="3.70881"/><circle class="cls-21" cx="81.96278" cy="131.78994" r="3.70881"/><circle class="cls-21" cx="84.98868" cy="127.43924" r="3.70881"/><circle class="cls-21" cx="86.87003" cy="132.34814" r="3.70881"/><circle class="cls-21" cx="89.20639" cy="127.43924" r="3.70881"/><circle class="cls-21" cx="85.67158" cy="124.24749" r="3.70881"/><circle class="cls-21" cx="78.25397" cy="133.79914" r="3.70881"/><circle class="cls-21" cx="91.3211" cy="131.78994" r="3.70881"/><circle class="cls-22" cx="79.45242" cy="128.08113" r="1.17279"/><circle class="cls-22" cx="84.78753" cy="131.14805" r="1.17279"/><circle class="cls-22" cx="85.96032" cy="124.24749" r="1.17279"/><circle class="cls-23" cx="79.45242" cy="129.29329" r="1.17279"/><circle class="cls-23" cx="85.96032" cy="125.37099" r="1.17279"/><circle class="cls-23" cx="84.49879" cy="131.78994" r="1.17279"/><circle class="cls-23" cx="72.94451" cy="128.63933" r="1.17279"/><circle class="cls-23" cx="89.38039" cy="135.03674" r="1.17279"/><circle class="cls-23" cx="92.15968" cy="127.9563" r="1.17279"/><circle class="cls-23" cx="74.32267" cy="133.44344" r="1.39528"/><circle class="cls-23" cx="80.62521" cy="135.49875" r="1.39528"/><circle class="cls-23" cx="76.11563" cy="125.37099" r="1.39528"/><circle class="cls-23" cx="81.50425" cy="123.73043" r="1.39528"/><circle class="cls-22" cx="79.82443" cy="134.59295" r="1.17279"/><circle class="cls-22" cx="90.55318" cy="134.41448" r="1.17279"/><circle class="cls-22" cx="92.15968" cy="131.14805" r="1.17279"/><circle class="cls-23" cx="93.33247" cy="131.78994" r="1.39528"/><circle class="cls-22" cx="74.1173" cy="129.25392" r="1.17279"/><circle class="cls-21" cx="146.55189" cy="129.25827" r="3.70881"/><circle class="cls-21" cx="149.88869" cy="125.54946" r="3.70881"/><circle class="cls-21" cx="152.39904" cy="131.96841" r="3.70881"/><circle class="cls-21" cx="155.42494" cy="127.61771" r="3.70881"/><circle class="cls-21" cx="157.3063" cy="132.52661" r="3.70881"/><circle class="cls-21" cx="159.64266" cy="127.61771" r="3.70881"/><circle class="cls-21" cx="156.10785" cy="124.42596" r="3.70881"/><circle class="cls-21" cx="148.69024" cy="133.97761" r="3.70881"/><circle class="cls-21" cx="161.75737" cy="131.96841" r="3.70881"/><circle class="cls-22" cx="149.88869" cy="128.25961" r="1.17279"/><circle class="cls-22" cx="155.2238" cy="131.32652" r="1.17279"/><circle class="cls-22" cx="156.39659" cy="124.42596" r="1.17279"/><circle class="cls-23" cx="149.88869" cy="129.47176" r="1.17279"/><circle class="cls-23" cx="156.39659" cy="125.54946" r="1.17279"/><circle class="cls-23" cx="154.93506" cy="131.96841" r="1.17279"/><circle class="cls-23" cx="143.38078" cy="128.81781" r="1.17279"/><circle class="cls-23" cx="159.81666" cy="135.21522" r="1.17279"/><circle class="cls-23" cx="162.59595" cy="128.13477" r="1.17279"/><circle class="cls-23" cx="144.75893" cy="133.62191" r="1.39528"/><circle class="cls-23" cx="151.06147" cy="135.67722" r="1.39528"/><circle class="cls-23" cx="146.55189" cy="125.54946" r="1.39528"/><circle class="cls-23" cx="151.94051" cy="123.9089" r="1.39528"/><circle class="cls-22" cx="150.2607" cy="134.77143" r="1.17279"/><circle class="cls-22" cx="160.98945" cy="134.59295" r="1.17279"/><circle class="cls-22" cx="162.59595" cy="131.32652" r="1.17279"/><circle class="cls-23" cx="163.76874" cy="131.96841" r="1.39528"/><circle class="cls-22" cx="144.55357" cy="129.43239" r="1.17279"/><circle class="cls-24" cx="42.96729" cy="65.35521" r="4.79974"/><circle class="cls-24" cx="47.4435" cy="72.11941" r="4.79974"/><circle class="cls-24" cx="54.44067" cy="70.15496" r="4.79974"/><circle class="cls-24" cx="49.64093" cy="62.51992" r="4.79974"/><circle class="cls-24" cx="41.69141" cy="74.9547" r="4.79974"/><circle class="cls-24" cx="39.70402" cy="69.30437" r="4.79974"/><circle class="cls-24" cx="60.3472" cy="62.77382" r="4.79974"/><circle class="cls-24" cx="59.61157" cy="65.90202" r="4.79974"/><circle class="cls-24" cx="66.60874" cy="63.93757" r="4.79974"/><circle class="cls-24" cx="67.4499" cy="61.31507" r="4.79974"/><circle class="cls-24" cx="53.85948" cy="68.73731" r="4.79974"/><circle class="cls-24" cx="51.87209" cy="63.08698" r="4.79974"/><circle class="cls-24" cx="72.21429" cy="68.10353" r="4.79974"/><circle class="cls-24" cx="64.39936" cy="65.93153" r="4.79974"/><circle class="cls-24" cx="60.40448" cy="72.00282" r="4.79974"/><circle class="cls-24" cx="69.03471" cy="74.62017" r="4.79974"/><circle class="cls-24" cx="71.68834" cy="65.96223" r="4.79974"/><circle class="cls-24" cx="72.08862" cy="62.98211" r="4.79974"/><circle class="cls-24" cx="54.83303" cy="82.743" r="4.79974"/><circle class="cls-25" cx="54.19323" cy="74.65713" r="4.79974"/><circle class="cls-25" cx="47.12011" cy="72.98663" r="4.79974"/><circle class="cls-24" cx="47.62117" cy="81.99109" r="4.79974"/><circle class="cls-24" cx="60.59885" cy="74.96268" r="4.79974"/><circle class="cls-24" cx="59.60077" cy="80.8686" r="4.79974"/><circle class="cls-24" cx="39.01646" cy="103.58467" r="4.79974"/><circle class="cls-24" cx="31.92799" cy="99.64203" r="4.79974"/><circle class="cls-24" cx="26.62177" cy="104.60828" r="4.79974"/><circle class="cls-24" cx="34.39849" cy="109.1749" r="4.79974"/><circle class="cls-24" cx="60.21101" cy="85.58278" r="4.79974"/><circle class="cls-24" cx="40.09428" cy="98.57637" r="4.79974"/><circle class="cls-26" cx="31.07905" cy="114.70742" r="4.79974"/><circle class="cls-24" cx="23.99058" cy="110.76478" r="4.79974"/><circle class="cls-24" cx="18.68436" cy="115.73102" r="4.79974"/><circle class="cls-24" cx="45.92853" cy="101.05239" r="4.79974"/><circle class="cls-24" cx="27.79055" cy="105.59897" r="4.79974"/><circle class="cls-26" cx="32.15687" cy="109.69912" r="4.79974"/><circle class="cls-24" cx="36.2731" cy="105.72133" r="4.79974"/><circle class="cls-27" cx="19.72718" cy="112.94358" r="4.79974"/><circle class="cls-24" cx="36.0942" cy="98.47259" r="4.79974"/><circle class="cls-24" cx="39.71285" cy="100.09027" r="4.79974"/><circle class="cls-24" cx="38.74331" cy="110.20941" r="4.79974"/><circle class="cls-24" cx="44.95916" cy="84.72193" r="4.79974"/><circle class="cls-24" cx="24.76795" cy="100.49803" r="4.79974"/><circle class="cls-24" cx="31.81565" cy="98.72333" r="4.79974"/><circle class="cls-24" cx="51.70696" cy="82.06796" r="4.79974"/><circle class="cls-24" cx="18.94137" cy="103.1769" r="4.79974"/><circle class="cls-24" cx="17.10735" cy="97.47494" r="4.79974"/><circle class="cls-24" cx="46.84821" cy="86.43495" r="4.79974"/><circle class="cls-24" cx="39.75974" cy="82.49231" r="4.79974"/><circle class="cls-24" cx="34.45353" cy="87.45856" r="4.79974"/><circle class="cls-24" cx="17.74719" cy="100.91863" r="4.79974"/><circle class="cls-24" cx="43.55971" cy="77.3265" r="4.79974"/><circle class="cls-24" cx="47.92603" cy="81.42665" r="4.79974"/><circle class="cls-24" cx="38.9108" cy="97.5577" r="4.79974"/><circle class="cls-24" cx="31.82233" cy="93.61506" r="4.79974"/><circle class="cls-24" cx="26.51612" cy="98.5813" r="4.79974"/><circle class="cls-24" cx="34.29283" cy="103.14792" r="4.79974"/><circle class="cls-24" cx="35.6223" cy="88.44925" r="4.79974"/><circle class="cls-24" cx="15.50558" cy="101.44284" r="4.79974"/><circle class="cls-24" cx="19.62181" cy="97.46506" r="4.79974"/><circle class="cls-24" cx="27.55893" cy="95.79386" r="4.79974"/><circle class="cls-24" cx="28.30881" cy="88.56495" r="4.79974"/><circle class="cls-24" cx="19.4429" cy="90.21632" r="4.79974"/><circle class="cls-24" cx="28.07715" cy="102.1858" r="4.79974"/><circle class="cls-27" cx="22.09201" cy="101.95314" r="4.79974"/><circle class="cls-24" cx="28.30787" cy="76.46566" r="4.79974"/><circle class="cls-24" cx="32.59971" cy="83.34831" r="4.79974"/><circle class="cls-24" cx="39.6474" cy="81.5736" r="4.79974"/><circle class="cls-24" cx="35.05567" cy="73.81169" r="4.79974"/><circle class="cls-24" cx="26.77313" cy="86.02718" r="4.79974"/><circle class="cls-24" cx="24.93911" cy="80.32522" r="4.79974"/><ellipse class="cls-24" cx="38.50869" cy="106.69862" rx="3.67191" ry="3.83556"/><circle class="cls-24" cx="34.17618" cy="102.83393" r="4.79974"/><circle class="cls-24" cx="53.49552" cy="152.41195" r="4.79974"/><circle class="cls-24" cx="58.98995" cy="149.02985" r="4.79974"/><circle class="cls-24" cx="61.32686" cy="154.93824" r="4.79974"/><circle class="cls-24" cx="65.66359" cy="146.19455" r="4.79974"/><circle class="cls-24" cx="55.72668" cy="152.979" r="4.79974"/><circle class="cls-24" cx="61.60127" cy="151.01984" r="4.79974"/><circle class="cls-24" cx="66.80674" cy="153.98279" r="4.79974"/><circle class="cls-24" cx="81.02646" cy="151.23799" r="4.79974"/><circle class="cls-24" cx="74.8373" cy="153.06054" r="4.79974"/><circle class="cls-24" cx="74.13192" cy="146.74606" r="4.79974"/><circle class="cls-24" cx="67.65365" cy="154.04615" r="4.79974"/><circle class="cls-24" cx="79.02214" cy="150.10557" r="4.79974"/><circle class="cls-24" cx="72.83936" cy="150.4553" r="4.79974"/><circle class="cls-24" cx="68.59329" cy="146.23075" r="4.79974"/><circle class="cls-24" cx="159.37543" cy="153.39255" r="4.79974"/><circle class="cls-24" cx="164.86986" cy="150.01045" r="4.79974"/><circle class="cls-24" cx="167.20677" cy="155.91885" r="4.79974"/><circle class="cls-24" cx="171.5435" cy="147.17516" r="4.79974"/><circle class="cls-24" cx="161.60659" cy="153.95961" r="4.79974"/><circle class="cls-24" cx="167.48118" cy="152.00044" r="4.79974"/><circle class="cls-24" cx="172.68665" cy="154.96339" r="4.79974"/><circle class="cls-24" cx="186.90637" cy="152.21859" r="4.79974"/><circle class="cls-24" cx="180.71721" cy="154.04115" r="4.79974"/><circle class="cls-24" cx="180.01183" cy="147.72667" r="4.79974"/><circle class="cls-24" cx="173.53356" cy="155.02675" r="4.79974"/><circle class="cls-24" cx="184.90205" cy="151.08618" r="4.79974"/><circle class="cls-24" cx="178.71927" cy="151.43591" r="4.79974"/><circle class="cls-24" cx="174.4732" cy="147.21136" r="4.79974"/><circle class="cls-24" cx="75.40648" cy="67.78823" r="4.79974"/><circle class="cls-24" cx="77.78149" cy="61.22037" r="4.79974"/><circle class="cls-24" cx="84.93774" cy="62.38839" r="4.79974"/><circle class="cls-24" cx="67.30473" cy="62.6801" r="4.79974"/><circle class="cls-24" cx="72.91326" cy="62.81572" r="4.79974"/><circle class="cls-24" cx="157.72826" cy="70.10312" r="4.79974"/><circle class="cls-24" cx="161.62237" cy="77.21836" r="4.79974"/><circle class="cls-24" cx="168.75946" cy="75.84669" r="4.79974"/><circle class="cls-24" cx="164.61586" cy="67.83657" r="4.79974"/><circle class="cls-24" cx="154.14578" cy="73.76517" r="4.79974"/><circle class="cls-24" cx="175.26328" cy="68.98604" r="4.79974"/><circle class="cls-24" cx="174.2683" cy="72.04165" r="4.79974"/><circle class="cls-24" cx="153.3311" cy="84.76561" r="4.79974"/><circle class="cls-24" cx="154.38889" cy="82.22276" r="4.79974"/><circle class="cls-24" cx="168.29901" cy="74.38536" r="4.79974"/><circle class="cls-24" cx="166.79171" cy="68.58846" r="4.79974"/><circle class="cls-24" cx="158.56814" cy="89.38631" r="4.79974"/><circle class="cls-24" cx="179.03681" cy="72.47195" r="4.79974"/><circle class="cls-24" cx="174.54761" cy="78.18742" r="4.79974"/><circle class="cls-24" cx="158.22334" cy="87.20849" r="4.79974"/><circle class="cls-24" cx="158.87174" cy="84.27234" r="4.79974"/><circle class="cls-25" cx="161.22751" cy="78.05546" r="4.79974"/><circle class="cls-24" cx="161.77552" cy="89.3394" r="4.79974"/><circle class="cls-24" cx="164.69212" cy="82.99346" r="4.79974"/><circle class="cls-24" cx="171.72545" cy="84.75658" r="4.79974"/><circle class="cls-24" cx="154.12993" cy="83.57084" r="4.79974"/><circle class="cls-24" cx="159.70741" cy="84.17559" r="4.79974"/><circle class="cls-24" cx="183.25159" cy="75.25557" r="4.79974"/><circle class="cls-24" cx="187.1457" cy="82.37081" r="4.79974"/><circle class="cls-24" cx="194.28279" cy="80.99914" r="4.79974"/><circle class="cls-24" cx="190.13919" cy="72.98902" r="4.79974"/><circle class="cls-24" cx="179.66911" cy="78.91762" r="4.79974"/><circle class="cls-24" cx="200.78661" cy="74.13849" r="4.79974"/><circle class="cls-26" cx="199.79163" cy="77.1941" r="4.79974"/><circle class="cls-24" cx="178.85443" cy="89.91806" r="4.79974"/><circle class="cls-24" cx="179.91222" cy="87.37521" r="4.79974"/><circle class="cls-24" cx="193.82234" cy="79.53781" r="4.79974"/><circle class="cls-24" cx="192.31504" cy="73.74091" r="4.79974"/><circle class="cls-24" cx="184.09147" cy="94.53876" r="4.79974"/><circle class="cls-24" cx="204.56014" cy="77.6244" r="4.79974"/><circle class="cls-24" cx="200.07094" cy="83.33987" r="4.79974"/><circle class="cls-24" cx="183.74667" cy="92.36094" r="4.79974"/><circle class="cls-24" cx="184.39507" cy="89.42479" r="4.79974"/><circle class="cls-24" cx="186.75084" cy="83.20791" r="4.79974"/><circle class="cls-27" cx="187.29885" cy="94.49185" r="4.79974"/><circle class="cls-24" cx="190.21545" cy="88.14591" r="4.79974"/><circle class="cls-24" cx="197.24878" cy="89.90903" r="4.79974"/><circle class="cls-24" cx="179.65326" cy="88.72329" r="4.79974"/><circle class="cls-27" cx="185.23074" cy="89.32804" r="4.79974"/><circle class="cls-24" cx="175.06439" cy="61.34815" r="4.79974"/><circle class="cls-24" cx="178.9585" cy="68.46339" r="4.79974"/><circle class="cls-24" cx="186.09559" cy="67.09172" r="4.79974"/><circle class="cls-24" cx="181.95199" cy="59.08161" r="4.79974"/><circle class="cls-24" cx="171.48191" cy="65.0102" r="4.79974"/><circle class="cls-24" cx="192.59941" cy="60.23107" r="4.79974"/><circle class="cls-24" cx="191.60443" cy="63.28668" r="4.79974"/><circle class="cls-24" cx="170.66723" cy="76.01064" r="4.79974"/><circle class="cls-24" cx="171.72502" cy="73.46779" r="4.79974"/><circle class="cls-28" cx="185.63514" cy="65.63039" r="4.79974"/><circle class="cls-28" cx="184.12784" cy="59.83349" r="4.79974"/><circle class="cls-24" cx="175.90427" cy="80.63134" r="4.79974"/><circle class="cls-24" cx="196.37294" cy="63.71698" r="4.79974"/><circle class="cls-24" cx="191.88374" cy="69.43245" r="4.79974"/><circle class="cls-24" cx="175.55947" cy="78.45352" r="4.79974"/><circle class="cls-24" cx="176.20787" cy="75.51738" r="4.79974"/><circle class="cls-24" cx="178.56364" cy="69.30049" r="4.79974"/><circle class="cls-24" cx="179.11165" cy="80.58443" r="4.79974"/><circle class="cls-24" cx="182.02825" cy="74.2385" r="4.79974"/><circle class="cls-26" cx="196.68381" cy="75.51738" r="4.79974"/><circle class="cls-25" cx="171.46606" cy="74.81587" r="4.79974"/><circle class="cls-24" cx="177.04354" cy="75.42062" r="4.79974"/><circle class="cls-26" cx="20.47706" cy="105.71467" r="4.79974"/><circle class="cls-29" cx="57.1342" cy="149.58678" r="1.40752"/><circle class="cls-29" cx="66.1889" cy="146.77226" r="1.40752"/><circle class="cls-29" cx="67.7257" cy="153.06054" r="1.40752"/><circle class="cls-29" cx="75.40648" cy="148.97943" r="1.40752"/><circle class="cls-29" cx="165.16402" cy="150.38695" r="1.40752"/><circle class="cls-29" cx="176.19105" cy="151.43591" r="1.40752"/><circle class="cls-29" cx="185.33918" cy="150.56017" r="1.40752"/><circle class="cls-29" cx="172.00652" cy="146.06313" r="1.40752"/><circle class="cls-29" cx="167.48118" cy="156.02716" r="1.40752"/><circle class="cls-29" cx="158.22334" cy="154.23485" r="1.40752"/><circle class="cls-29" cx="57.1342" cy="155.79932" r="1.40752"/></svg>