<svg id="Layer_1" data-name="Layer 1" xmlns="http://www.w3.org/2000/svg" viewBox="0 0 240 240"><defs><style>.cls-1{fill:#f9dc19;stroke:#231f20;stroke-width:2px;}.cls-1,.cls-12{stroke-miterlimit:10;}.cls-2{fill:#f2dead;}.cls-3{fill:#5d636e;opacity:0.43;}.cls-4{fill:#eaeaea;}.cls-5{fill:#fff;}.cls-6{fill:#e5e5e5;}.cls-7{fill:#f3e6c9;}.cls-8{fill:#e7dfd4;}.cls-9{fill:#d6c090;}.cls-10{fill:#a29270;}.cls-11{fill:#2a331f;}.cls-12{fill:#c6b49b;stroke:#fcfcfb;stroke-width:0.75px;}.cls-13{fill:#95927e;}.cls-14{fill:#cebd9f;}.cls-15{fill:#885e25;}.cls-16{fill:#33513a;}.cls-16,.cls-17{opacity:0.9;}.cls-17{fill:#5c8c5c;}</style></defs><ellipse class="cls-1" cx="120" cy="120" rx="115.95215" ry="110.91075"/><rect class="cls-2" x="115.34551" y="150.79981" width="87.23221" height="13.34171"/><rect class="cls-2" x="38.76014" y="62.66382" width="163.81758" height="87.90987"/><rect class="cls-2" x="38.76014" y="150.45375" width="28.35089" height="13.68776"/><rect class="cls-3" x="38.46077" y="133.79514" width="163.81758" height="16.34216"/><rect class="cls-3" x="38.76014" y="70.53138" width="163.81758" height="21.98604"/><rect class="cls-4" x="36.95192" y="58.55716" width="166.83527" height="4.78848"/><rect class="cls-5" x="38.75657" y="143.90836" width="164.02193" height="0.40715"/><rect class="cls-5" x="125.009" y="135.08722" height="15.35397"/><rect class="cls-5" x="128.02669" y="135.23207" height="15.35397"/><rect class="cls-5" x="130.48156" y="135.08722" height="15.35397"/><rect class="cls-5" x="132.94496" y="135.18095" height="15.35397"/><rect class="cls-5" x="135.04058" y="135.06392" height="15.35397"/><rect class="cls-5" x="38.35859" y="133.38799" width="164.02193" height="0.8143"/><rect class="cls-5" x="38.75657" y="149.29377" width="164.02193" height="0.8143"/><rect class="cls-3" x="38.76014" y="99.64852" width="163.81758" height="21.98604"/><rect class="cls-5" x="37.2513" y="57.15534" width="166.83527" height="1.6286"/><path class="cls-5" d="M75.3374,67.17517v81.22031s1.44642,3.33782,2.89285,0V62.35387s-1.6875-2.96695-2.89285,0Z"/><path class="cls-5" d="M97.62021,66.984v78.69145s1.13584,3.23389,2.27168,0V62.31281s-1.32514-2.87457-2.27168,0Z"/><path class="cls-5" d="M118.92313,68.05314v92.83422s1.44643,3.81511,2.89286,0V62.54243s-1.6875-3.39121-2.89286,0Z"/><path class="cls-5" d="M142.48843,68.05314v92.83422s1.44643,3.81511,2.89285,0V62.54243s-1.6875-3.39121-2.89285,0Z"/><path class="cls-5" d="M165.50322,68.05314v92.83422s1.44643,3.81511,2.89285,0V62.54243s-1.6875-3.39121-2.89285,0Z"/><path class="cls-5" d="M52.68014,68.91533v92.83423s1.44643,3.81511,2.89286,0V63.40463s-1.6875-3.39121-2.89286,0Z"/><path class="cls-5" d="M185.8897,68.91533v92.83423s1.44643,3.81511,2.89286,0V63.40463s-1.6875-3.39121-2.89286,0Z"/><path class="cls-6" d="M55.1531,68.91533v92.83423s.4199,3.81511.8398,0V63.40463s-.48988-3.39121-.8398,0Z"/><path class="cls-6" d="M121.97343,68.90536v92.83423s.4199,3.8151.8398,0V63.39465s-.48988-3.3912-.8398,0Z"/><rect class="cls-5" x="38.35859" y="139.01623" width="164.02193" height="0.40715"/><path class="cls-6" d="M77.81035,68.01651v81.07633s.4199,3.33191.8398,0V63.20376s-.48988-2.9617-.8398,0Z"/><path class="cls-6" d="M99.89189,67.00871v79.01842s.3122,3.24734.62439,0v-83.709s-.36422-2.88651-.62439,0Z"/><path class="cls-6" d="M144.96139,69.59791v92.83423s.41989,3.8151.83979,0V64.0872s-.48988-3.3912-.83979,0Z"/><path class="cls-6" d="M167.97618,68.90536v92.83423s.41989,3.8151.83979,0V63.39465s-.48988-3.3912-.83979,0Z"/><path class="cls-6" d="M188.78256,69.59791v92.83423s.4199,3.8151.83979,0V64.0872s-.48988-3.3912-.83979,0Z"/><rect class="cls-5" x="37.2513" y="60.9514" width="166.83527" height="1.6286"/><path class="cls-7" d="M57.91176,134.01069h50.223s25.00374-.8622,27.37478-1.2933V128.8375H57.91176Z"/><path class="cls-8" d="M135.50956,128.76565s4.95764,6.46649,5.53244,7.04129v3.44879s-3.95174-3.87989-5.53244-6.82574Z"/><path class="cls-9" d="M57.91176,134.11846s7.32868,8.19088,9.48418,8.19088V139.0761H97.14176v5.17319h6.682s32.76351-3.87989,36.85895-5.06541a71.22187,71.22187,0,0,1-5.38873-6.35871Z"/><rect class="cls-10" x="53.96002" y="156.7887" width="10.63377" height="20.98015"/><rect class="cls-11" x="91.89308" y="138.53723" width="11.6997" height="8.57551"/><rect class="cls-12" x="75.25985" y="147.65161" width="40.88255" height="1.8681"/><rect class="cls-12" x="91.53383" y="138.60908" width="0.7185" height="8.99392"/><rect class="cls-12" x="80.61266" y="139.2198" width="0.68257" height="8.43181"/><rect class="cls-11" x="81.29523" y="138.53723" width="10.2386" height="8.57551"/><rect class="cls-11" x="67.38047" y="138.53723" width="13.23219" height="9.06577"/><rect class="cls-11" x="67.38047" y="147.60299" width="7.97533" height="2.27596"/><rect class="cls-11" x="67.59602" y="150.36132" width="12.17854" height="22.52492"/><rect class="cls-5" x="79.55902" y="162.45585" width="9.64584" height="9.64584"/><rect class="cls-5" x="79.55902" y="149.84621" width="0.53887" height="13.04074"/><rect class="cls-5" x="88.66598" y="149.84621" width="0.53887" height="13.04074"/><rect class="cls-5" x="84.28763" y="145.11759" width="0.18861" height="9.64584" transform="translate(-65.55858 234.32245) rotate(-90)"/><rect class="cls-13" x="80.25955" y="165.39608" width="8.24477" height="5.01826" rx="0.36"/><rect class="cls-11" x="80.25955" y="162.88695" width="8.24477" height="2.50913" rx="0.36"/><rect class="cls-11" x="80.25955" y="149.98673" width="8.24477" height="12.46912" rx="0.36"/><rect class="cls-5" x="96.80297" y="149.70092" width="0.53887" height="22.40077"/><rect class="cls-5" x="102.51503" y="149.70092" width="1.07775" height="22.40077"/><polyline class="cls-5" points="96.264 150.574 88.935 150.574 88.935 149.701 103.593 149.701 103.593 150.574 96.264 150.574"/><rect class="cls-5" x="109.49345" y="145.10992" width="1.07775" height="9.75361" transform="translate(260.01905 39.95441) rotate(90)"/><rect class="cls-5" x="104.82426" y="149.44785" width="0.87277" height="22.65384" transform="translate(210.52129 321.54954) rotate(180)"/><rect class="cls-5" x="114.47274" y="149.44785" width="0.87277" height="22.65384" transform="translate(229.81825 321.54954) rotate(180)"/><rect class="cls-11" x="105.90994" y="150.57369" width="8.5628" height="21.528" rx="0.36"/><rect class="cls-11" x="103.93045" y="138.53723" width="10.97867" height="8.57551"/><rect class="cls-5" x="66.35047" y="138.60908" width="0.76056" height="34.17359" transform="translate(133.46151 311.39175) rotate(180)"/><rect class="cls-12" x="103.23353" y="138.47648" width="0.7185" height="8.99392"/><rect class="cls-5" x="114.47274" y="138.53723" width="0.43638" height="8.64736" transform="translate(229.38187 285.72181) rotate(180)"/><polygon class="cls-14" points="64.594 177.633 67.324 176.627 67.324 156.221 64.594 156.652 64.594 177.633"/><polygon class="cls-14" points="64.594 156.652 67.324 156.221 56.435 156.221 53.96 156.789 64.594 156.652"/><path class="cls-15" d="M61.46484,131.79688c0-.21.00391-.46094.00879-.59961h-.00976c-.05469.25585-.18067.71093-.28809,1.05957H60.958c-.0791-.294-.208-.8125-.25879-1.0625h-.00977c.01075.14355.01563.41015.01563.623v.43946h-.23145v-1.2334h.377c.08789.28808.19824.71777.23242.90527h.002c.02637-.16016.168-.61426.26074-.90527H61.707v1.2334h-.24219Z"/><path class="cls-15" d="M62.7627,131.71875h-.53614v.332h.5918l-.03027.20606h-.80664v-1.2334h.80371v.208h-.5586v.27929h.53614Z"/><path class="cls-15" d="M63.28613,132.25684V131.792a.076.076,0,0,0-.00976-.04l-.39063-.72851H63.169c.08691.18554.20019.4209.25488.53613.081-.17578.1748-.36523.25488-.53613h.2627l-.39356.72363a.065.065,0,0,0-.00976.03809v.47168Z"/><path class="cls-15" d="M64.83691,131.71875h-.53613v.332h.5918l-.03028.20606h-.80664v-1.2334h.80372v.208h-.5586v.27929h.53613Z"/><path class="cls-15" d="M65.31738,131.74707v.50977h-.24609v-1.2334h.50195c.2334,0,.39942.11523.39942.334a.28138.28138,0,0,1-.19141.28809c.12207.04785.166.14453.166.29687v.03223a2.017,2.017,0,0,0,.0166.28223H65.7207a1.01889,1.01889,0,0,1-.02246-.28614v-.03222c0-.1416-.05176-.19141-.21289-.19141Zm0-.19922h.18848c.11914,0,.21777-.03223.21777-.16894,0-.11426-.083-.15625-.18359-.15625h-.22266Z"/><path class="cls-15" d="M66.84766,131.96387l-.08692.293h-.24707c.01563-.04786.3584-1.17872.37695-1.2334h.3252l.39648,1.2334h-.26367l-.09375-.293Zm.35742-.208c-.07617-.25-.12988-.42676-.15723-.542h-.00293c-.0293.13769-.085.33008-.14941.542Z"/><path class="cls-15" d="M67.7627,132.25684v-1.2334H68.084c.36622.75195.42579.873.44434.93164h.00391c-.0127-.14649-.01465-.34766-.01465-.54883v-.38281h.22949v1.2334h-.30762c-.39355-.82715-.4375-.92481-.45507-.97071h-.002c.00879.15528.00977.36914.00977.58887v.38184Z"/><path class="cls-15" d="M69.02246,131.02344h.42871a.53693.53693,0,0,1,.58008.59082.56583.56583,0,0,1-.58984.64258h-.419Zm.25293,1.03515h.16309c.21777,0,.333-.16308.333-.44043,0-.22949-.10253-.39355-.331-.39355h-.165Z"/><path class="cls-15" d="M70.92188,131.74707v.50977H70.6748v-1.2334h.50293c.2334,0,.39942.11523.39942.334a.28138.28138,0,0,1-.19141.28809c.12207.04785.166.14453.166.29687v.03223a2.01852,2.01852,0,0,0,.0166.28223H71.3252a1.01876,1.01876,0,0,1-.02247-.28614v-.03222c0-.1416-.05175-.19141-.21289-.19141Zm0-.19922h.18847c.11914,0,.21777-.03223.21777-.16894,0-.11426-.083-.15625-.18359-.15625h-.22265Z"/><path class="cls-15" d="M72.57324,131.71875h-.53613v.332h.5918l-.03028.20606H71.792v-1.2334h.80371v.208h-.55859v.27929h.53613Z"/><path class="cls-15" d="M72.80566,132.25684v-1.2334h.32129c.36621.75195.42578.873.44434.93164h.00391c-.0127-.14649-.01465-.34766-.01465-.54883v-.38281H73.79v1.2334h-.30762c-.39355-.82715-.4375-.92481-.45508-.97071h-.00195c.00879.15528.00977.36914.00977.58887v.38184Z"/><path class="cls-15" d="M74.84668,131.71875h-.53613v.332h.59179l-.03027.20606h-.80664v-1.2334h.80371v.208h-.55859v.27929h.53613Z"/><path class="cls-15" d="M75.86133,131.71875H75.3252v.332H75.917l-.03027.20606H75.0791v-1.2334h.80469v.208H75.3252v.27929h.53613Z"/><path class="cls-15" d="M76.53027,131.02344h.252v1.02734H77.333l-.02735.20606h-.77539Z"/><path class="cls-15" d="M77.69727,131.02344v.78418c0,.13965.03808.26758.22851.26758.18945,0,.22363-.12208.22363-.26758v-.78418h.25391v.79c0,.25879-.10937.46191-.48242.46191-.36621,0-.47559-.19727-.47559-.46v-.792Z"/><path class="cls-15" d="M78.81738,131.89258a.20532.20532,0,0,0,.22266.18554c.14062,0,.18945-.06152.18945-.14843,0-.11231-.06836-.15821-.24609-.209-.28613-.0791-.38379-.18164-.38379-.36035,0-.22851.18359-.35351.418-.35351.2959,0,.42187.15429.43554.35254h-.24707a.16924.16924,0,0,0-.19043-.16016c-.11035,0-.165.05078-.165.13672,0,.09179.06152.11816.23632.16894.31543.0918.39747.21778.39747.39551,0,.20117-.13282.37207-.45606.37207a.40263.40263,0,0,1-.459-.37988Z"/><path class="cls-15" d="M79.68652,131.02344h.24707v.56933c.13184-.16894.31641-.40429.44336-.56933h.29981l-.4209.49707.44629.73633h-.29981l-.31836-.57032-.14843.16407v.40625h-.249Z"/><path class="cls-15" d="M81.05859,131.02344v1.2334h-.251v-1.2334Z"/><path class="cls-15" d="M81.33691,132.25684v-1.2334h.32129c.36621.75195.42578.873.44434.93164h.00391c-.0127-.14649-.01465-.34766-.01465-.54883v-.38281h.22949v1.2334h-.30762c-.39355-.82715-.4375-.92481-.45508-.97071h-.00195c.00879.15528.00977.36914.00977.58887v.38184Z"/><path class="cls-15" d="M83.19238,131.89258a.20532.20532,0,0,0,.22266.18554c.14062,0,.18945-.06152.18945-.14843,0-.11231-.06836-.15821-.24609-.209-.28613-.0791-.38379-.18164-.38379-.36035,0-.22851.18359-.35351.418-.35351.2959,0,.42187.15429.43554.35254h-.24707a.16924.16924,0,0,0-.19043-.16016c-.11035,0-.165.05078-.165.13672,0,.09179.06152.11816.23632.16894.31543.0918.39747.21778.39747.39551,0,.20117-.13282.37207-.45606.37207a.40263.40263,0,0,1-.459-.37988Z"/><path class="cls-15" d="M85.01855,131.86914a.45644.45644,0,0,1-.48925.40625c-.38868,0-.5293-.2832-.5293-.63574,0-.34766.17871-.63281.53906-.63281a.42519.42519,0,0,1,.47266.40429h-.2461a.21708.21708,0,0,0-.23437-.20215c-.20605,0-.27246.208-.27246.42969,0,.23438.06445.43653.27539.43653a.23158.23158,0,0,0,.2373-.20606Z"/><path class="cls-15" d="M85.2002,131.02344h.252v.4873h.45117v-.4873h.251v1.2334h-.251v-.53809h-.45117v.53809h-.252Z"/><path class="cls-15" d="M87.48047,131.63477c0,.35449-.1709.64062-.55957.64062-.38086,0-.544-.293-.544-.64355a.56652.56652,0,0,1,.56055-.625A.55361.55361,0,0,1,87.48047,131.63477Zm-.84277-.002c0,.2461.09765.44239.293.44239.21485,0,.292-.18262.292-.44043,0-.22754-.07618-.42774-.2959-.42774C86.72266,131.207,86.6377,131.39551,86.6377,131.63281Z"/><path class="cls-15" d="M88.74805,131.63477c0,.35449-.1709.64062-.55957.64062-.38086,0-.54395-.293-.54395-.64355a.56652.56652,0,0,1,.56055-.625A.55362.55362,0,0,1,88.74805,131.63477Zm-.84278-.002c0,.2461.09766.44239.293.44239.21485,0,.292-.18262.292-.44043,0-.22754-.07617-.42774-.29589-.42774C87.99023,131.207,87.90527,131.39551,87.90527,131.63281Z"/><path class="cls-15" d="M88.96582,131.02344h.252v1.02734h.55078l-.02734.20606h-.77539Z"/><path class="cls-15" d="M91.27539,131.63477c0,.35449-.1709.64062-.55957.64062-.38086,0-.54394-.293-.54394-.64355a.56651.56651,0,0,1,.56054-.625A.55361.55361,0,0,1,91.27539,131.63477Zm-.84277-.002c0,.2461.09765.44239.293.44239.21484,0,.292-.18262.292-.44043,0-.22754-.07617-.42774-.2959-.42774C90.51758,131.207,90.43262,131.39551,90.43262,131.63281Z"/><path class="cls-15" d="M91.49316,131.02344h.79v.208h-.54394v.3125H92.25v.2041h-.51074v.50879h-.2461Z"/><path class="cls-15" d="M92.94043,131.02344h.45508c.23144,0,.43554.11914.43554.36914,0,.25586-.18945.38867-.457.38867h-.18164v.47559h-.25195Zm.25195.55957h.166c.13379,0,.2168-.04981.2168-.18555,0-.12305-.08594-.1748-.209-.1748h-.17383Z"/><path class="cls-15" d="M94.25781,131.02344v.78418c0,.13965.03809.26758.22852.26758.18945,0,.22363-.12208.22363-.26758v-.78418h.25391v.79c0,.25879-.10938.46191-.48242.46191-.36622,0-.47559-.19727-.47559-.46v-.792Z"/><path class="cls-15" d="M95.22754,131.02344H95.707c.27051,0,.39063.14258.39063.31347a.24769.24769,0,0,1-.15039.249.30729.30729,0,0,1,.19238.29785c0,.2373-.17871.37305-.44141.37305h-.4707Zm.43652.48535c.12989,0,.18946-.041.18946-.14649,0-.10156-.06934-.14746-.17676-.14746h-.20215v.29395Zm-.18945.55859h.20605a.17807.17807,0,0,0,.20313-.18261c0-.12012-.07031-.18555-.22266-.18555h-.18652Z"/><path class="cls-15" d="M96.34082,131.02344h.251v1.02734h.55078l-.02735.20606h-.77441Z"/><path class="cls-15" d="M97.55273,131.02344v1.2334h-.251v-1.2334Z"/><path class="cls-15" d="M98.79688,131.86914a.45646.45646,0,0,1-.48926.40625c-.38867,0-.5293-.2832-.5293-.63574,0-.34766.17871-.63281.53906-.63281a.42519.42519,0,0,1,.47266.40429H98.544a.2171.2171,0,0,0-.23438-.20215c-.206,0-.27246.208-.27246.42969,0,.23438.06445.43653.27539.43653a.23158.23158,0,0,0,.2373-.20606Z"/><path class="cls-15" d="M99.668,131.96387l-.08692.293H99.334c.01563-.04786.3584-1.17872.377-1.2334h.32519l.39649,1.2334H100.169l-.09375-.293Zm.35742-.208c-.07617-.25-.12988-.42676-.15723-.542h-.00293c-.02929.13769-.085.33008-.14941.542Z"/><path class="cls-15" d="M100.583,131.02344h.79v.208h-.544v.3125h.51074v.2041h-.51074v.50879H100.583Z"/><path class="cls-15" d="M101.54785,131.02344h.79v.208H101.794v.3125h.51074v.2041H101.794v.50879h-.2461Z"/><path class="cls-15" d="M102.668,131.96387l-.08692.293H102.334c.01563-.04786.3584-1.17872.377-1.2334h.32519l.39649,1.2334H103.169l-.09375-.293Zm.35742-.208c-.07617-.25-.12988-.42676-.15723-.542h-.00293c-.02929.13769-.085.33008-.14941.542Z"/><path class="cls-15" d="M103.834,131.02344v1.2334h-.251v-1.2334Z"/><path class="cls-15" d="M104.35938,131.74707v.50977h-.24708v-1.2334h.50293c.2334,0,.39942.11523.39942.334a.28138.28138,0,0,1-.19141.28809c.12207.04785.166.14453.166.29687v.03223a2.01852,2.01852,0,0,0,.0166.28223h-.24316a1.01876,1.01876,0,0,1-.02247-.28614v-.03222c0-.1416-.05175-.19141-.21289-.19141Zm0-.19922h.18847c.11914,0,.21777-.03223.21777-.16894,0-.11426-.083-.15625-.18359-.15625h-.22265Z"/><path class="cls-15" d="M105.4082,131.89258a.20532.20532,0,0,0,.22266.18554c.14062,0,.18945-.06152.18945-.14843,0-.11231-.06836-.15821-.24609-.209-.28613-.0791-.38379-.18164-.38379-.36035,0-.22851.18359-.35351.418-.35351.2959,0,.42187.15429.43555.35254h-.24707a.16925.16925,0,0,0-.19043-.16016c-.11036,0-.165.05078-.165.13672,0,.09179.06152.11816.23632.16894.31543.0918.39747.21778.39747.39551,0,.20117-.13282.37207-.45606.37207a.40263.40263,0,0,1-.459-.37988Z"/><rect class="cls-16" x="129.26277" y="159.04368" width="73.31495" height="13.73899" rx="4.5"/><rect class="cls-16" x="33.00926" y="158.3627" width="20.49127" height="13.73899"/><rect class="cls-17" x="121.81599" y="167.90521" width="82.91723" height="5.95487" rx="2.51441"/><rect class="cls-17" x="29.90952" y="162.4363" width="23.59101" height="9.66539" rx="4.08116"/><rect class="cls-5" x="38.55579" y="69.26182" width="164.02193" height="0.8143"/><rect class="cls-5" x="38.35859" y="92.11027" width="164.02193" height="0.8143"/><rect class="cls-5" x="38.75657" y="98.81016" width="164.02193" height="0.8143"/><rect class="cls-5" x="38.55937" y="121.65862" width="164.02193" height="0.8143"/><rect class="cls-5" x="38.55758" y="79.38405" width="164.02193" height="0.40715"/><rect class="cls-5" x="38.15961" y="74.69549" width="164.02193" height="0.40715"/><rect class="cls-5" x="39.5036" y="108.98618" width="164.02193" height="0.40715"/><rect class="cls-5" x="39.10563" y="104.09404" width="164.02193" height="0.40715"/><rect class="cls-5" x="38.85696" y="88.30077" width="164.02193" height="0.40715"/><rect class="cls-5" x="38.45898" y="83.40864" width="164.02193" height="0.40715"/><rect class="cls-5" x="38.85696" y="117.76846" width="164.02193" height="0.40715"/><rect class="cls-5" x="38.45898" y="112.87633" width="164.02193" height="0.40715"/><rect class="cls-5" x="40.48454" y="70.53138" height="21.57889"/><rect class="cls-5" x="43.50223" y="70.73495" height="21.57889"/><rect class="cls-5" x="45.9571" y="70.53138" height="21.57889"/><rect class="cls-5" x="48.4205" y="70.6631" height="21.57889"/><rect class="cls-5" x="50.51612" y="70.49862" height="21.57889"/><rect class="cls-5" x="40.00468" y="100.1731" height="21.57889"/><rect class="cls-5" x="43.02237" y="100.37667" height="21.57889"/><rect class="cls-5" x="45.47724" y="100.1731" height="21.57889"/><rect class="cls-5" x="47.94064" y="100.30482" height="21.57889"/><rect class="cls-5" x="50.03626" y="100.14035" height="21.57889"/><rect class="cls-5" x="40.46145" y="134.22846" height="15.35397"/><rect class="cls-5" x="43.47913" y="134.37331" height="15.35397"/><rect class="cls-5" x="45.934" y="134.22846" height="15.35397"/><rect class="cls-5" x="48.39741" y="134.32219" height="15.35397"/><rect class="cls-5" x="50.49302" y="134.20516" height="15.35397"/><rect class="cls-5" x="57.91097" y="70.00009" height="21.8711"/><rect class="cls-5" x="60.92866" y="70.20642" height="21.8711"/><rect class="cls-5" x="63.38352" y="70.00009" height="21.8711"/><rect class="cls-5" x="65.84693" y="70.1336" height="21.8711"/><rect class="cls-5" x="67.94255" y="69.96689" height="21.8711"/><rect class="cls-5" x="69.54913" y="70.0922" height="21.8711"/><rect class="cls-5" x="72.01253" y="70.22571" height="21.8711"/><rect class="cls-5" x="74.10815" y="70.059" height="21.8711"/><rect class="cls-5" x="57.56655" y="99.19934" height="21.8711"/><rect class="cls-5" x="60.58424" y="99.40567" height="21.8711"/><rect class="cls-5" x="63.03911" y="99.19934" height="21.8711"/><rect class="cls-5" x="65.50251" y="99.33285" height="21.8711"/><rect class="cls-5" x="67.59813" y="99.16615" height="21.8711"/><rect class="cls-5" x="69.20472" y="99.29145" height="21.8711"/><rect class="cls-5" x="71.66812" y="99.42496" height="21.8711"/><rect class="cls-5" x="73.76374" y="99.25825" height="21.8711"/><rect class="cls-5" x="80.03659" y="70.28907" height="21.8711"/><rect class="cls-5" x="83.05428" y="70.4954" height="21.8711"/><rect class="cls-5" x="85.50914" y="70.28907" height="21.8711"/><rect class="cls-5" x="87.97255" y="70.42257" height="21.8711"/><rect class="cls-5" x="90.06817" y="70.25587" height="21.8711"/><rect class="cls-5" x="91.67475" y="70.38117" height="21.8711"/><rect class="cls-5" x="94.13815" y="70.51468" height="21.8711"/><rect class="cls-5" x="96.23377" y="70.34798" height="21.8711"/><rect class="cls-5" x="80.40572" y="99.32875" height="21.8711"/><rect class="cls-5" x="83.42341" y="99.53508" height="21.8711"/><rect class="cls-5" x="85.87828" y="99.32875" height="21.8711"/><rect class="cls-5" x="88.34168" y="99.46226" height="21.8711"/><rect class="cls-5" x="90.4373" y="99.29555" height="21.8711"/><rect class="cls-5" x="92.04389" y="99.42085" height="21.8711"/><rect class="cls-5" x="94.50729" y="99.55436" height="21.8711"/><rect class="cls-5" x="96.60291" y="99.38766" height="21.8711"/><rect class="cls-5" x="102.98363" y="70.04614" height="21.8711"/><rect class="cls-5" x="106.00132" y="70.25248" height="21.8711"/><rect class="cls-5" x="108.45619" y="70.04614" height="21.8711"/><rect class="cls-5" x="110.91959" y="70.17965" height="21.8711"/><rect class="cls-5" x="113.01521" y="70.01295" height="21.8711"/><rect class="cls-5" x="114.62179" y="70.13825" height="21.8711"/><rect class="cls-5" x="117.08519" y="70.27176" height="21.8711"/><rect class="cls-5" x="119.18081" y="70.10505" height="21.8711"/><rect class="cls-5" x="100.35759" y="98.79778" height="21.8711"/><rect class="cls-5" x="103.37528" y="99.00411" height="21.8711"/><rect class="cls-5" x="105.83015" y="98.79778" height="21.8711"/><rect class="cls-5" x="108.29355" y="98.93128" height="21.8711"/><rect class="cls-5" x="110.38917" y="98.76458" height="21.8711"/><rect class="cls-5" x="111.99576" y="98.88988" height="21.8711"/><rect class="cls-5" x="114.45916" y="99.02339" height="21.8711"/><rect class="cls-5" x="116.55478" y="98.85669" height="21.8711"/><rect class="cls-5" x="124.55223" y="70.28496" height="21.8711"/><rect class="cls-5" x="127.56992" y="70.49129" height="21.8711"/><rect class="cls-5" x="130.02479" y="70.28496" height="21.8711"/><rect class="cls-5" x="132.48819" y="70.41847" height="21.8711"/><rect class="cls-5" x="134.58381" y="70.25177" height="21.8711"/><rect class="cls-5" x="136.1904" y="70.37707" height="21.8711"/><rect class="cls-5" x="138.6538" y="70.51058" height="21.8711"/><rect class="cls-5" x="140.74942" y="70.34387" height="21.8711"/><rect class="cls-5" x="124.3896" y="99.81335" height="21.8711"/><rect class="cls-5" x="127.40729" y="100.01968" height="21.8711"/><rect class="cls-5" x="129.86216" y="99.81335" height="21.8711"/><rect class="cls-5" x="132.32556" y="99.94686" height="21.8711"/><rect class="cls-5" x="134.42118" y="99.78016" height="21.8711"/><rect class="cls-5" x="136.02776" y="99.90546" height="21.8711"/><rect class="cls-5" x="138.49116" y="100.03897" height="21.8711"/><rect class="cls-5" x="140.58678" y="99.87226" height="21.8711"/><rect class="cls-5" x="147.55361" y="70.49264" height="21.8711"/><rect class="cls-5" x="150.57129" y="70.69897" height="21.8711"/><rect class="cls-5" x="153.02616" y="70.49264" height="21.8711"/><rect class="cls-5" x="155.48957" y="70.62615" height="21.8711"/><rect class="cls-5" x="157.58518" y="70.45944" height="21.8711"/><rect class="cls-5" x="159.19177" y="70.58475" height="21.8711"/><rect class="cls-5" x="161.65517" y="70.71826" height="21.8711"/><rect class="cls-5" x="163.75079" y="70.55155" height="21.8711"/><rect class="cls-5" x="147.39097" y="99.60978" height="21.8711"/><rect class="cls-5" x="150.40866" y="99.81611" height="21.8711"/><rect class="cls-5" x="152.86353" y="99.60978" height="21.8711"/><rect class="cls-5" x="155.32693" y="99.74329" height="21.8711"/><rect class="cls-5" x="157.42255" y="99.57658" height="21.8711"/><rect class="cls-5" x="159.02913" y="99.70189" height="21.8711"/><rect class="cls-5" x="161.49254" y="99.83539" height="21.8711"/><rect class="cls-5" x="163.58816" y="99.66869" height="21.8711"/><rect class="cls-5" x="167.12027" y="70.62205" height="21.8711"/><rect class="cls-5" x="170.13796" y="70.82838" height="21.8711"/><rect class="cls-5" x="172.59283" y="70.62205" height="21.8711"/><rect class="cls-5" x="175.05623" y="70.75555" height="21.8711"/><rect class="cls-5" x="177.15185" y="70.58885" height="21.8711"/><rect class="cls-5" x="178.75843" y="70.71415" height="21.8711"/><rect class="cls-5" x="181.22184" y="70.84766" height="21.8711"/><rect class="cls-5" x="183.31746" y="70.68096" height="21.8711"/><rect class="cls-5" x="166.95764" y="99.16204" height="21.8711"/><rect class="cls-5" x="169.97533" y="99.36837" height="21.8711"/><rect class="cls-5" x="172.4302" y="99.16204" height="21.8711"/><rect class="cls-5" x="174.8936" y="99.29555" height="21.8711"/><rect class="cls-5" x="176.98922" y="99.12885" height="21.8711"/><rect class="cls-5" x="178.5958" y="99.25415" height="21.8711"/><rect class="cls-5" x="181.05921" y="99.38766" height="21.8711"/><rect class="cls-5" x="183.15483" y="99.22095" height="21.8711"/><rect class="cls-5" x="191.4684" y="69.87069" height="21.8711"/><rect class="cls-5" x="194.48608" y="70.07702" height="21.8711"/><rect class="cls-5" x="196.94095" y="69.87069" height="21.8711"/><rect class="cls-5" x="199.40436" y="70.00419" height="21.8711"/><rect class="cls-5" x="201.49997" y="69.83749" height="21.8711"/><rect class="cls-5" x="191.30576" y="99.32875" height="21.8711"/><rect class="cls-5" x="194.32345" y="99.53508" height="21.8711"/><rect class="cls-5" x="196.77832" y="99.32875" height="21.8711"/><rect class="cls-5" x="199.24172" y="99.46226" height="21.8711"/><rect class="cls-5" x="201.33734" y="99.29555" height="21.8711"/><rect class="cls-5" x="191.56592" y="134.14439" height="15.35397"/><rect class="cls-5" x="194.58361" y="134.28924" height="15.35397"/><rect class="cls-5" x="60.92866" y="134.24353" height="15.35397"/><rect class="cls-5" x="63.38352" y="134.14138" height="15.35397"/><rect class="cls-5" x="197.03847" y="134.14439" height="15.35397"/><rect class="cls-5" x="199.50188" y="134.23811" height="15.35397"/><rect class="cls-5" x="201.5975" y="134.12108" height="15.35397"/><rect class="cls-5" x="171.02762" y="134.06031" height="15.35397"/><rect class="cls-5" x="174.04531" y="134.20516" height="15.35397"/><rect class="cls-5" x="176.50018" y="134.06031" height="15.35397"/><rect class="cls-5" x="178.96358" y="134.15404" height="15.35397"/><rect class="cls-5" x="181.0592" y="134.03701" height="15.35397"/><rect class="cls-5" x="145.55551" y="134.31254" height="15.35397"/><rect class="cls-5" x="148.5732" y="134.45739" height="15.35397"/><rect class="cls-5" x="151.02806" y="134.31254" height="15.35397"/><rect class="cls-5" x="153.49147" y="134.40627" height="15.35397"/><rect class="cls-5" x="155.58709" y="134.28924" height="15.35397"/><rect class="cls-5" x="58.37879" y="134.06511" height="15.35397"/><rect class="cls-5" x="137.71669" y="133.79958" height="15.35397"/><rect class="cls-5" x="158.26564" y="134.44076" height="15.35397"/><rect class="cls-5" x="160.54515" y="133.79958" height="15.35397"/><rect class="cls-5" x="162.98941" y="134.17731" height="15.35397"/></svg>