<svg id="Layer_1" data-name="Layer 1" xmlns="http://www.w3.org/2000/svg" viewBox="0 0 240 240"><defs><style>.cls-1{fill:#f9dc19;stroke:#231f20;stroke-miterlimit:10;stroke-width:2px;}.cls-2{fill:#fff;}.cls-3{fill:#c37f7a;}.cls-4{fill:#fdfefe;}.cls-5{fill:#f3e6c9;}.cls-6{fill:#ddd6ce;}.cls-7{fill:#b2aea4;}.cls-8{fill:#e5e5e5;}.cls-9{fill:#2a331f;}.cls-10{fill:#d8d8d8;}.cls-11{fill:#466630;}.cls-12{fill:#c1c4c6;}.cls-13{fill:#cfcfce;}.cls-14{fill:#0d0d0d;}.cls-15{fill:#dcdbdb;}.cls-16{fill:#6b6b6b;}.cls-17{fill:#885e25;}</style></defs><ellipse class="cls-1" cx="120" cy="120" rx="115.95215" ry="110.91075"/><polygon class="cls-2" points="137.473 145.452 113.175 182.309 197.889 182.309 173.493 145.452 137.473 145.452"/><rect class="cls-3" x="85.15578" y="57.15281" width="110.32501" height="89.31073"/><rect class="cls-2" x="129.75642" y="104.20273" width="3.11931" height="47.89818"/><rect class="cls-4" x="36.34134" y="57.15281" width="50.42426" height="89.31073"/><path class="cls-5" d="M123.6963,100.30612h37.82958s18.83361-.64943,20.61956-.97415V96.40952H123.6963Z"/><path class="cls-6" d="M182.14544,96.3554s3.73425,4.87076,4.16721,5.30371v2.59774a28.59148,28.59148,0,0,1-4.16721-5.14136Z"/><path class="cls-7" d="M123.6963,100.3873l58.28678-.97415,4.059,4.78958H129.75642A7.21687,7.21687,0,0,1,123.6963,100.3873Z"/><polygon class="cls-8" points="132.876 152.101 137.473 145.452 137.473 104.257 132.876 104.203 132.876 152.101"/><rect class="cls-9" x="36.34134" y="66.27395" width="50.42426" height="23.62211"/><rect class="cls-9" x="36.34134" y="108.9326" width="50.42426" height="23.62211"/><rect class="cls-2" x="128.24266" y="57.15281" width="52.32565" height="38.48798"/><rect class="cls-3" x="130.91542" y="59.20963" width="2.99421" height="2.92386"/><rect class="cls-3" x="135.0939" y="59.20963" width="2.99421" height="2.92386"/><rect class="cls-3" x="139.11597" y="59.20963" width="2.99421" height="2.92386"/><rect class="cls-3" x="143.33915" y="59.20963" width="2.99421" height="2.92386"/><rect class="cls-3" x="147.42825" y="59.20963" width="2.99421" height="2.92386"/><rect class="cls-3" x="151.15984" y="59.20963" width="2.99421" height="2.92386"/><rect class="cls-3" x="155.26174" y="59.20963" width="2.99421" height="2.92386"/><rect class="cls-3" x="159.90228" y="59.20963" width="2.99421" height="2.92386"/><rect class="cls-3" x="164.08076" y="59.20963" width="2.99421" height="2.92386"/><rect class="cls-3" x="168.10283" y="59.20963" width="2.99421" height="2.92386"/><rect class="cls-3" x="172.326" y="59.20963" width="2.99421" height="2.92386"/><rect class="cls-3" x="176.41511" y="59.20963" width="2.99421" height="2.92386"/><rect class="cls-3" x="128.85689" y="62.94497" width="2.99421" height="2.92386"/><rect class="cls-3" x="132.87896" y="62.94497" width="2.99421" height="2.92386"/><rect class="cls-3" x="137.10213" y="62.94497" width="2.99421" height="2.92386"/><rect class="cls-3" x="141.19123" y="62.94497" width="2.99421" height="2.92386"/><rect class="cls-3" x="144.92282" y="62.94497" width="2.99421" height="2.92386"/><rect class="cls-3" x="149.02472" y="62.94497" width="2.99421" height="2.92386"/><rect class="cls-3" x="153.66526" y="62.94497" width="2.99421" height="2.92386"/><rect class="cls-3" x="157.84375" y="62.94497" width="2.99421" height="2.92386"/><rect class="cls-3" x="161.86582" y="62.94497" width="2.99421" height="2.92386"/><rect class="cls-3" x="166.08899" y="62.94497" width="2.99421" height="2.92386"/><rect class="cls-3" x="170.17809" y="62.94497" width="2.99421" height="2.92386"/><rect class="cls-3" x="131.01479" y="66.68032" width="2.99421" height="2.92386"/><rect class="cls-3" x="135.19327" y="66.68032" width="2.99421" height="2.92386"/><rect class="cls-3" x="139.21534" y="66.68032" width="2.99421" height="2.92386"/><rect class="cls-3" x="143.43851" y="66.68032" width="2.99421" height="2.92386"/><rect class="cls-3" x="147.52762" y="66.68032" width="2.99421" height="2.92386"/><rect class="cls-3" x="151.2592" y="66.68032" width="2.99421" height="2.92386"/><rect class="cls-3" x="155.3611" y="66.68032" width="2.99421" height="2.92386"/><rect class="cls-3" x="160.00165" y="66.68032" width="2.99421" height="2.92386"/><rect class="cls-3" x="164.18013" y="66.68032" width="2.99421" height="2.92386"/><rect class="cls-3" x="168.2022" y="66.68032" width="2.99421" height="2.92386"/><rect class="cls-3" x="172.42537" y="66.68032" width="2.99421" height="2.92386"/><rect class="cls-3" x="176.51448" y="66.68032" width="2.99421" height="2.92386"/><rect class="cls-3" x="128.85689" y="70.73819" width="2.99421" height="2.92386"/><rect class="cls-3" x="133.03537" y="70.73819" width="2.99421" height="2.92386"/><rect class="cls-3" x="137.05744" y="70.73819" width="2.99421" height="2.92386"/><rect class="cls-3" x="141.28061" y="70.73819" width="2.99421" height="2.92386"/><rect class="cls-3" x="145.36972" y="70.73819" width="2.99421" height="2.92386"/><rect class="cls-3" x="149.1013" y="70.73819" width="2.99421" height="2.92386"/><rect class="cls-3" x="153.2032" y="70.73819" width="2.99421" height="2.92386"/><rect class="cls-3" x="157.84375" y="70.73819" width="2.99421" height="2.92386"/><rect class="cls-3" x="162.02223" y="70.73819" width="2.99421" height="2.92386"/><rect class="cls-3" x="166.0443" y="70.73819" width="2.99421" height="2.92386"/><rect class="cls-3" x="170.26747" y="70.73819" width="2.99421" height="2.92386"/><rect class="cls-3" x="174.35658" y="70.73819" width="2.99421" height="2.92386"/><rect class="cls-3" x="130.91542" y="74.93487" width="2.99421" height="2.92386"/><rect class="cls-3" x="135.0939" y="74.93487" width="2.99421" height="2.92386"/><rect class="cls-3" x="139.11597" y="74.93487" width="2.99421" height="2.92386"/><rect class="cls-3" x="143.33915" y="74.93487" width="2.99421" height="2.92386"/><rect class="cls-3" x="147.42825" y="74.93487" width="2.99421" height="2.92386"/><rect class="cls-3" x="151.15984" y="74.93487" width="2.99421" height="2.92386"/><rect class="cls-3" x="155.26174" y="74.93487" width="2.99421" height="2.92386"/><rect class="cls-3" x="159.90228" y="74.93487" width="2.99421" height="2.92386"/><rect class="cls-3" x="164.08076" y="74.93487" width="2.99421" height="2.92386"/><rect class="cls-3" x="168.10283" y="74.93487" width="2.99421" height="2.92386"/><rect class="cls-3" x="172.326" y="74.93487" width="2.99421" height="2.92386"/><rect class="cls-3" x="176.41511" y="74.93487" width="2.99421" height="2.92386"/><rect class="cls-3" x="129.41832" y="79.13154" width="2.99421" height="2.92386"/><rect class="cls-3" x="133.5968" y="79.13154" width="2.99421" height="2.92386"/><rect class="cls-3" x="137.61887" y="79.13154" width="2.99421" height="2.92386"/><rect class="cls-3" x="141.84204" y="79.13154" width="2.99421" height="2.92386"/><rect class="cls-3" x="145.93115" y="79.13154" width="2.99421" height="2.92386"/><rect class="cls-3" x="149.66273" y="79.13154" width="2.99421" height="2.92386"/><rect class="cls-3" x="153.76463" y="79.13154" width="2.99421" height="2.92386"/><rect class="cls-3" x="158.40518" y="79.13154" width="2.99421" height="2.92386"/><rect class="cls-3" x="162.58366" y="79.13154" width="2.99421" height="2.92386"/><rect class="cls-3" x="166.60573" y="79.13154" width="2.99421" height="2.92386"/><rect class="cls-3" x="170.8289" y="79.13154" width="2.99421" height="2.92386"/><rect class="cls-3" x="174.918" y="79.13154" width="2.99421" height="2.92386"/><rect class="cls-3" x="131.11416" y="83.04673" width="2.99421" height="2.92386"/><rect class="cls-3" x="135.29264" y="83.04673" width="2.99421" height="2.92386"/><rect class="cls-3" x="139.31471" y="83.04673" width="2.99421" height="2.92386"/><rect class="cls-3" x="143.53788" y="83.04673" width="2.99421" height="2.92386"/><rect class="cls-3" x="147.62699" y="83.04673" width="2.99421" height="2.92386"/><rect class="cls-3" x="151.35857" y="83.04673" width="2.99421" height="2.92386"/><rect class="cls-3" x="155.46047" y="83.04673" width="2.99421" height="2.92386"/><rect class="cls-3" x="160.10102" y="83.04673" width="2.99421" height="2.92386"/><rect class="cls-3" x="164.2795" y="83.04673" width="2.99421" height="2.92386"/><rect class="cls-3" x="168.30157" y="83.04673" width="2.99421" height="2.92386"/><rect class="cls-3" x="172.52474" y="83.04673" width="2.99421" height="2.92386"/><rect class="cls-3" x="176.61384" y="83.04673" width="2.99421" height="2.92386"/><rect class="cls-3" x="128.95626" y="86.96193" width="2.99421" height="2.92386"/><rect class="cls-3" x="133.13474" y="86.96193" width="2.99421" height="2.92386"/><rect class="cls-3" x="137.15681" y="86.96193" width="2.99421" height="2.92386"/><rect class="cls-3" x="141.37998" y="86.96193" width="2.99421" height="2.92386"/><rect class="cls-3" x="145.46909" y="86.96193" width="2.99421" height="2.92386"/><rect class="cls-3" x="149.20067" y="86.96193" width="2.99421" height="2.92386"/><rect class="cls-3" x="153.30257" y="86.96193" width="2.99421" height="2.92386"/><rect class="cls-3" x="157.94312" y="86.96193" width="2.99421" height="2.92386"/><rect class="cls-3" x="162.1216" y="86.96193" width="2.99421" height="2.92386"/><rect class="cls-3" x="166.14367" y="86.96193" width="2.99421" height="2.92386"/><rect class="cls-3" x="170.36684" y="86.96193" width="2.99421" height="2.92386"/><rect class="cls-3" x="174.45594" y="86.96193" width="2.99421" height="2.92386"/><rect class="cls-3" x="130.91542" y="90.87712" width="2.99421" height="2.92386"/><rect class="cls-3" x="135.0939" y="90.87712" width="2.99421" height="2.92386"/><rect class="cls-3" x="139.11597" y="90.87712" width="2.99421" height="2.92386"/><rect class="cls-3" x="143.33915" y="90.87712" width="2.99421" height="2.92386"/><rect class="cls-3" x="147.42825" y="90.87712" width="2.99421" height="2.92386"/><rect class="cls-3" x="151.15984" y="90.87712" width="2.99421" height="2.92386"/><rect class="cls-3" x="155.26174" y="90.87712" width="2.99421" height="2.92386"/><rect class="cls-3" x="159.90228" y="90.87712" width="2.99421" height="2.92386"/><rect class="cls-3" x="164.08076" y="90.87712" width="2.99421" height="2.92386"/><rect class="cls-3" x="168.10283" y="90.87712" width="2.99421" height="2.92386"/><rect class="cls-3" x="172.326" y="90.87712" width="2.99421" height="2.92386"/><rect class="cls-3" x="176.41511" y="90.87712" width="2.99421" height="2.92386"/><rect class="cls-3" x="174.35658" y="62.94497" width="2.99421" height="2.92386"/><rect class="cls-2" x="178.08957" y="104.20273" width="3.11931" height="47.89818" transform="translate(359.29844 256.30365) rotate(-180)"/><polygon class="cls-8" points="178.09 152.101 173.493 145.452 173.493 104.257 178.09 104.203 178.09 152.101"/><rect class="cls-2" x="145.46909" y="104.25685" width="1.063" height="42.20668"/><rect class="cls-2" x="163.88959" y="104.25685" width="0.77983" height="42.20668"/><rect class="cls-2" x="159.05031" y="97.47238" width="0.77983" height="43.54888" transform="translate(278.68704 -40.1934) rotate(90)"/><rect class="cls-2" x="155.09273" y="112.90593" width="0.77983" height="43.54888" transform="translate(290.16302 -20.80228) rotate(90)"/><rect class="cls-2" x="145.93594" y="119.24682" width="1.1923" height="27.21671"/><rect class="cls-2" x="163.02255" y="119.24682" width="1.1923" height="27.21671"/><rect class="cls-2" x="154.16521" y="111.37554" width="0.98606" height="16.72863" transform="translate(274.39809 -34.91838) rotate(90)"/><rect class="cls-2" x="154.06209" y="119.24682" width="1.1923" height="27.21671"/><rect class="cls-2" x="155.70063" y="119.24682" width="1.1923" height="27.21671"/><rect class="cls-10" x="155.23015" y="119.2068" width="0.50499" height="27.21671"/><rect class="cls-10" x="146.04143" y="119.32081" width="0.2525" height="27.21671"/><rect class="cls-10" x="163.76334" y="119.32081" width="0.2525" height="27.21671"/><ellipse class="cls-11" cx="190.12472" cy="160.31523" rx="0.56144" ry="0.47586"/><ellipse class="cls-11" cx="189.56328" cy="161.01747" rx="0.56144" ry="0.47586"/><polygon class="cls-10" points="129.756 152.101 112.108 179.035 113.175 182.309 114.915 179.641 132.876 152.101 131.492 150.008 129.756 152.101"/><rect class="cls-8" x="107.44051" y="173.0559" width="18.14969" height="15.21384"/><polygon class="cls-12" points="107.441 173.056 105.982 171.092 127.627 171.092 125.59 173.056 107.441 173.056"/><polygon class="cls-8" points="127.627 171.092 128.669 169.31 107.441 169.31 105.982 171.092 127.627 171.092"/><polygon class="cls-13" points="125.59 188.27 127.627 186.487 127.627 171.092 125.59 173.056 125.59 188.27"/><polygon class="cls-14" points="126.457 170.647 127.373 169.755 108.722 169.755 107.441 170.647 126.457 170.647"/><circle class="cls-11" cx="108.85389" cy="168.1132" r="2.91176"/><circle class="cls-11" cx="112.18708" cy="166.06146" r="2.91176"/><circle class="cls-11" cx="113.60476" cy="169.64577" r="2.91176"/><circle class="cls-11" cx="116.23562" cy="164.34143" r="2.91176"/><circle class="cls-11" cx="110.20742" cy="168.45721" r="2.91176"/><circle class="cls-11" cx="113.77123" cy="167.26868" r="2.91176"/><circle class="cls-11" cx="116.92911" cy="169.06615" r="2.91176"/><circle class="cls-11" cx="122.07784" cy="169.7829" r="2.91176"/><circle class="cls-11" cx="118.3232" cy="170.88855" r="2.91176"/><circle class="cls-11" cx="117.89528" cy="167.05788" r="2.91176"/><circle class="cls-11" cx="117.44289" cy="169.10459" r="2.91176"/><circle class="cls-11" cx="120.86192" cy="169.09592" r="2.91176"/><circle class="cls-11" cx="117.11115" cy="169.30808" r="2.91176"/><circle class="cls-11" cx="118.01292" cy="164.36339" r="2.91176"/><ellipse class="cls-11" cx="126.60864" cy="168.79322" rx="0.53876" ry="0.45664"/><ellipse class="cls-11" cx="127.25204" cy="169.75543" rx="0.53876" ry="0.45664"/><ellipse class="cls-11" cx="128.1304" cy="169.24987" rx="0.53876" ry="0.45664"/><circle class="cls-11" cx="121.6887" cy="166.2642" r="2.91176"/><circle class="cls-11" cx="124.38318" cy="166.38184" r="2.91176"/><circle class="cls-11" cx="126.44359" cy="168.5172" r="2.91176"/><circle class="cls-11" cx="129.13808" cy="168.63484" r="2.91176"/><ellipse class="cls-11" cx="130.19662" cy="170.15007" rx="1.11893" ry="1.52763" transform="translate(-45.05174 293.39867) rotate(-87.69519)"/><ellipse class="cls-11" cx="131.6073" cy="170.25209" rx="1.11893" ry="1.52763" transform="translate(-43.79973 294.90613) rotate(-87.69519)"/><polygon class="cls-10" points="181.171 152.101 198.819 179.035 197.752 182.309 196.012 179.641 178.051 152.101 179.435 150.008 181.171 152.101"/><rect class="cls-8" x="182.18053" y="174.88869" width="18.91357" height="15.85415" transform="translate(383.27463 365.63154) rotate(-180)"/><polygon class="cls-12" points="201.094 174.889 202.614 172.843 180.058 172.843 182.181 174.889 201.094 174.889"/><polygon class="cls-8" points="180.058 172.843 178.972 170.985 201.094 170.985 202.614 172.843 180.058 172.843"/><polygon class="cls-13" points="182.181 190.743 180.058 188.885 180.058 172.843 182.181 174.889 182.181 190.743"/><polygon class="cls-14" points="181.277 172.378 180.323 171.449 199.759 171.449 201.094 172.378 181.277 172.378"/><circle class="cls-11" cx="196.14776" cy="167.59987" r="3.0343"/><circle class="cls-11" cx="194.67041" cy="171.33504" r="3.0343"/><circle class="cls-11" cx="191.92881" cy="165.80745" r="3.0343"/><circle class="cls-11" cx="198.21073" cy="170.09645" r="3.0343"/><circle class="cls-11" cx="194.49693" cy="168.8579" r="3.0343"/><circle class="cls-11" cx="191.20614" cy="170.73102" r="3.0343"/><circle class="cls-11" cx="185.84071" cy="171.47794" r="3.0343"/><circle class="cls-11" cx="189.75338" cy="172.63012" r="3.0343"/><circle class="cls-11" cx="190.1993" cy="168.63823" r="3.0343"/><circle class="cls-11" cx="190.67074" cy="170.77108" r="3.0343"/><circle class="cls-11" cx="187.1078" cy="170.76204" r="3.0343"/><circle class="cls-11" cx="191.01644" cy="170.98314" r="3.0343"/><circle class="cls-11" cx="190.07672" cy="165.83033" r="3.0343"/><ellipse class="cls-11" cx="181.11922" cy="170.44661" rx="0.56144" ry="0.47586"/><ellipse class="cls-11" cx="180.44873" cy="171.44932" rx="0.56144" ry="0.47586"/><ellipse class="cls-11" cx="179.53341" cy="170.92247" rx="0.56144" ry="0.47586"/><circle class="cls-11" cx="186.24623" cy="167.81115" r="3.0343"/><circle class="cls-11" cx="183.43834" cy="167.93373" r="3.0343"/><circle class="cls-11" cx="181.29121" cy="170.15897" r="3.0343"/><circle class="cls-11" cx="178.48332" cy="170.28155" r="3.0343"/><ellipse class="cls-11" cx="177.38023" cy="171.86056" rx="1.59193" ry="1.16602" transform="translate(-6.76799 7.27249) rotate(-2.30481)"/><ellipse class="cls-11" cx="175.91017" cy="171.96687" rx="1.59193" ry="1.16602" transform="translate(-6.77345 7.21346) rotate(-2.30481)"/><circle class="cls-11" cx="201.24504" cy="170.42951" r="3.0343"/><rect class="cls-15" x="36.34134" y="66.27395" width="50.42426" height="0.93415"/><rect class="cls-16" x="36.41203" y="89.42899" width="50.42426" height="0.93415"/><rect class="cls-16" x="36.41203" y="107.99845" width="50.42426" height="0.93415"/><rect class="cls-16" x="36.41203" y="132.08764" width="50.42426" height="0.93415"/><rect class="cls-15" x="36.41203" y="89.41185" width="50.42426" height="0.93415"/><rect class="cls-15" x="33.47275" y="78.72998" width="22.41094" height="0.46707" transform="translate(123.64174 34.2853) rotate(90)"/><rect class="cls-15" x="45.18156" y="78.69547" width="22.41094" height="0.46707" transform="translate(135.31603 22.54198) rotate(90)"/><rect class="cls-15" x="56.02823" y="78.06914" width="22.41094" height="0.46707" transform="translate(145.53637 11.06899) rotate(90)"/><rect class="cls-15" x="67.22326" y="77.74058" width="22.41094" height="0.46707" transform="translate(156.40285 -0.45461) rotate(90)"/><rect class="cls-15" x="33.54344" y="120.42686" width="22.41094" height="0.46707" transform="translate(165.4093 75.91149) rotate(90)"/><rect class="cls-15" x="45.25224" y="120.39234" width="22.41094" height="0.46707" transform="translate(177.08359 64.16817) rotate(90)"/><rect class="cls-15" x="56.27309" y="120.51012" width="22.41094" height="0.46707" transform="translate(188.22222 53.2651) rotate(90)"/><rect class="cls-15" x="67.52748" y="120.51012" width="22.41094" height="0.46707" transform="translate(199.47661 42.01071) rotate(90)"/><path class="cls-17" d="M98.53857,121.77832h.27051v1.10645h.59278l-.0293.22168h-.834Z"/><path class="cls-17" d="M99.8667,122.791l-.09375.31543h-.2666c.01758-.05176.38672-1.26954.40625-1.32813h.35058l.42676,1.32813h-.28418l-.10058-.31543Zm.38476-.22364c-.082-.26953-.13964-.459-.16992-.583h-.002c-.03223.14746-.09277.35449-.16211.583Z"/><path class="cls-17" d="M101.23584,121.77832h.26562v.61328c.14161-.18164.33985-.43555.47657-.61328h.32324l-.45313.53516.48047.793h-.32324l-.34277-.61426-.15918.17676v.4375h-.26758Z"/><path class="cls-17" d="M102.71045,122.55762v.54883h-.26563v-1.32813h.541c.25,0,.42969.125.42969.35938a.30314.30314,0,0,1-.207.31054c.13183.05078.17968.15528.17968.32031v.03418a2.31349,2.31349,0,0,0,.01758.30372H103.145a1.05841,1.05841,0,0,1-.02539-.3086v-.03418c0-.15234-.05469-.20605-.22852-.20605Zm0-.21485h.20215c.1289,0,.23437-.03418.23437-.18066,0-.123-.08886-.16895-.19726-.16895h-.23926Z"/><path class="cls-17" d="M104.48877,122.52734h-.57715v.35743h.6377l-.03321.22168H103.648v-1.32813h.86523v.22363h-.60156v.30078h.57715Z"/><path class="cls-17" d="M105.019,122.00293h-.36035v-.22461h.99317v.22461h-.36036v1.10352H105.019Z"/><path class="cls-17" d="M105.76123,122.91211l.6582-.91016h-.626v-.22363h.94433v.21875l-.64355.88574h.67871l-.03613.22364h-.97559Z"/><path class="cls-17" d="M107.43311,121.77832h.51562c.291,0,.41992.1543.41992.33789a.26461.26461,0,0,1-.16113.26758.33119.33119,0,0,1,.207.32129c0,.25586-.19238.40137-.47461.40137h-.50683Zm.46972.52246c.13867,0,.20313-.04394.20313-.15723,0-.10937-.07422-.15917-.19043-.15917h-.2168v.3164Zm-.2041.60156h.2207c.123,0,.21875-.05957.21875-.19726,0-.12891-.07519-.19922-.23925-.19922h-.2002Z"/><path class="cls-17" d="M109.76025,122.43652c0,.38184-.18554.68946-.60351.68946-.40918,0-.585-.31543-.585-.69239a.60976.60976,0,0,1,.60351-.67285A.59626.59626,0,0,1,109.76025,122.43652Zm-.9082-.002c0,.26465.10547.47559.31641.47559.23047,0,.31347-.19629.31347-.47364,0-.24414-.082-.46-.31836-.46C108.94385,121.97656,108.85205,122.17871,108.85205,122.43457Z"/><path class="cls-17" d="M110.19287,122.00293h-.36035v-.22461h.99316v.22461h-.36035v1.10352h-.27246Z"/><path class="cls-17" d="M111.09424,122.791l-.09375.31543h-.26563c.0166-.05176.38575-1.26954.40528-1.32813h.35058l.42676,1.32813h-.28418l-.10059-.31543Zm.38476-.22364c-.082-.26953-.13964-.459-.16992-.583h-.00195c-.03223.14746-.09277.35449-.16211.583Z"/><path class="cls-17" d="M112.08154,123.10645v-1.32813h.34571c.39355.80957.458.94043.47754,1.00391h.0039c-.01269-.15821-.01465-.375-.01465-.5918v-.41211h.24707v1.32813h-.332c-.42285-.88965-.4707-.99512-.49023-1.0459h-.002c.00977.168.01172.39746.01172.63476v.41114Z"/><path class="cls-17" d="M113.69873,123.10645v-.5a.07432.07432,0,0,0-.01074-.043l-.4209-.78516h.30566c.09278.2002.21485.4541.27442.57715.08691-.18848.1875-.39258.27441-.57715h.28223l-.42285.7793a.0679.0679,0,0,0-.01172.041v.50782Z"/><path class="cls-17" d="M114.99561,121.77832h.51562c.291,0,.41992.1543.41992.33789a.26461.26461,0,0,1-.16113.26758.33119.33119,0,0,1,.207.32129c0,.25586-.19238.40137-.47461.40137h-.50683Zm.46972.52246c.13867,0,.20313-.04394.20313-.15723,0-.10937-.07422-.15917-.19043-.15917h-.2168v.3164Zm-.2041.60156h.2207c.123,0,.21875-.05957.21875-.19726,0-.12891-.07519-.19922-.23925-.19922h-.2002Z"/><path class="cls-17" d="M116.44482,121.77832v.84473c0,.15039.041.28711.2461.28711.20312,0,.24023-.13086.24023-.28711v-.84473h.27344v.85059c0,.27832-.11816.49707-.51953.49707-.39453,0-.51172-.21192-.51172-.49512v-.85254Z"/><path class="cls-17" d="M117.76221,121.77832v1.32813h-.27051v-1.32813Z"/><path class="cls-17" d="M118.064,121.77832h.27051v1.10645h.59278l-.0293.22168h-.834Z"/><path class="cls-17" d="M119.10107,121.77832h.46094a.57829.57829,0,0,1,.626.63574.61052.61052,0,0,1-.63574.69239h-.45118Zm.27247,1.11523h.17578c.23437,0,.35839-.17675.35839-.4746,0-.24707-.11132-.42383-.35644-.42383h-.17773Z"/><path class="cls-17" d="M120.6958,121.77832v1.32813h-.27051v-1.32813Z"/><path class="cls-17" d="M120.99756,123.10645v-1.32813h.34619c.39355.80957.458.94043.47754,1.00391h.00391c-.0127-.15821-.01465-.375-.01465-.5918v-.41211h.24707v1.32813h-.332c-.42286-.88965-.47071-.99512-.49024-1.0459h-.00195c.00976.168.01172.39746.01172.63476v.41114Z"/><path class="cls-17" d="M123.417,123.10645h-.19922a1.20414,1.20414,0,0,1-.0205-.1543.37.37,0,0,1-.36817.17383c-.34668,0-.53027-.28907-.53027-.67578a.618.618,0,0,1,.60742-.68946.46534.46534,0,0,1,.5127.39844h-.26563a.24006.24006,0,0,0-.2627-.18066c-.23144,0-.31347.21972-.31347.47363,0,.25195.08887.458.3125.458.20019,0,.25781-.13868.25781-.30957v-.00586h-.27734v-.2295h.54687Z"/></svg>