<?xml version="1.0" encoding="UTF-8" standalone="no"?>
<svg width="960px" height="384px" viewBox="0 0 960 384" version="1.1" xmlns="http://www.w3.org/2000/svg" xmlns:xlink="http://www.w3.org/1999/xlink" xmlns:sketch="http://www.bohemiancoding.com/sketch/ns">
    <!-- Generator: Sketch 3.3.2 (12043) - http://www.bohemiancoding.com/sketch -->
    <title>Slice 1</title>
    <desc>Created with Sketch.</desc>
    <defs>
        <radialGradient cx="50%" cy="50%" fx="50%" fy="50%" r="126.580811%" id="radialGradient-1">
            <stop stop-color="#F8F8F8" offset="0%"></stop>
            <stop stop-color="#DDDDDD" offset="100%"></stop>
        </radialGradient>
    </defs>
    <g id="Page-1" stroke="none" stroke-width="1" fill="none" fill-rule="evenodd" sketch:type="MSPage">
        <rect id="Rectangle-1" fill="url(#radialGradient-1)" sketch:type="MSShapeGroup" x="0" y="0" width="960" height="384"></rect>
        <path d="M329.264,164.164 L329.264,220 L344.6,220 L344.6,187.6 C344.6,184.863986 344.995996,182.650008 345.788,180.958 C346.580004,179.265992 347.533994,177.970005 348.65,177.07 C349.766006,176.169995 350.917994,175.558002 352.106,175.234 C353.294006,174.909998 354.247996,174.748 354.968,174.748 C357.416012,174.748 359.269994,175.161996 360.53,175.99 C361.790006,176.818004 362.689997,177.915993 363.23,179.284 C363.770003,180.652007 364.076,182.145992 364.148,183.766 C364.22,185.386008 364.256,187.023992 364.256,188.68 L364.256,220 L379.592,220 L379.592,188.896 C379.592,187.167991 379.717999,185.458008 379.97,183.766 C380.222001,182.073992 380.725996,180.562007 381.482,179.23 C382.238004,177.897993 383.281993,176.818004 384.614,175.99 C385.946007,175.161996 387.691989,174.748 389.852,174.748 C392.012011,174.748 393.721994,175.107996 394.982,175.828 C396.242006,176.548004 397.195997,177.519994 397.844,178.744 C398.492003,179.968006 398.887999,181.407992 399.032,183.064 C399.176001,184.720008 399.248,186.483991 399.248,188.356 L399.248,220 L414.584,220 L414.584,182.632 C414.584,179.031982 414.080005,175.954013 413.072,173.398 C412.063995,170.841987 410.660009,168.772008 408.86,167.188 C407.059991,165.603992 404.900013,164.452004 402.38,163.732 C399.859987,163.011996 397.124015,162.652 394.172,162.652 C390.283981,162.652 386.918014,163.587991 384.074,165.46 C381.229986,167.332009 378.980008,169.491988 377.324,171.94 C375.811992,168.483983 373.598015,166.072007 370.682,164.704 C367.765985,163.335993 364.544018,162.652 361.016,162.652 C357.343982,162.652 354.086014,163.443992 351.242,165.028 C348.397986,166.612008 345.96801,168.843986 343.952,171.724 L343.736,171.724 L343.736,164.164 L329.264,164.164 Z M464.264,186.088 L439.316,186.088 C439.388,185.007995 439.621998,183.784007 440.018,182.416 C440.414002,181.047993 441.097995,179.752006 442.07,178.528 C443.042005,177.303994 444.337992,176.278004 445.958,175.45 C447.578008,174.621996 449.611988,174.208 452.06,174.208 C455.804019,174.208 458.593991,175.21599 460.43,177.232 C462.266009,179.24801 463.543996,182.199981 464.264,186.088 L464.264,186.088 Z M439.316,195.808 L479.6,195.808 C479.888001,191.487978 479.528005,187.34802 478.52,183.388 C477.511995,179.42798 475.874011,175.900015 473.606,172.804 C471.337989,169.707985 468.440018,167.242009 464.912,165.406 C461.383982,163.569991 457.244024,162.652 452.492,162.652 C448.243979,162.652 444.374017,163.407992 440.882,164.92 C437.389983,166.432008 434.384013,168.501987 431.864,171.13 C429.343987,173.758013 427.400007,176.871982 426.032,180.472 C424.663993,184.072018 423.98,187.959979 423.98,192.136 C423.98,196.456022 424.645993,200.415982 425.978,204.016 C427.310007,207.616018 429.199988,210.711987 431.648,213.304 C434.096012,215.896013 437.083982,217.893993 440.612,219.298 C444.140018,220.702007 448.099978,221.404 452.492,221.404 C458.828032,221.404 464.227978,219.964014 468.692,217.084 C473.156022,214.203986 476.467989,209.416033 478.628,202.72 L465.128,202.72 C464.623997,204.448009 463.256011,206.085992 461.024,207.634 C458.791989,209.182008 456.128015,209.956 453.032,209.956 C448.711978,209.956 445.400012,208.840011 443.096,206.608 C440.791988,204.375989 439.532001,200.776025 439.316,195.808 L439.316,195.808 Z M502.28,192.136 C502.28,189.903989 502.495998,187.708011 502.928,185.548 C503.360002,183.387989 504.097995,181.480008 505.142,179.824 C506.186005,178.167992 507.571991,176.818005 509.3,175.774 C511.028009,174.729995 513.187987,174.208 515.78,174.208 C518.372013,174.208 520.549991,174.729995 522.314,175.774 C524.078009,176.818005 525.481995,178.167992 526.526,179.824 C527.570005,181.480008 528.307998,183.387989 528.74,185.548 C529.172002,187.708011 529.388,189.903989 529.388,192.136 C529.388,194.368011 529.172002,196.545989 528.74,198.67 C528.307998,200.794011 527.570005,202.701992 526.526,204.394 C525.481995,206.086008 524.078009,207.435995 522.314,208.444 C520.549991,209.452005 518.372013,209.956 515.78,209.956 C513.187987,209.956 511.028009,209.452005 509.3,208.444 C507.571991,207.435995 506.186005,206.086008 505.142,204.394 C504.097995,202.701992 503.360002,200.794011 502.928,198.67 C502.495998,196.545989 502.28,194.368011 502.28,192.136 L502.28,192.136 Z M486.944,192.136 C486.944,196.600022 487.627993,200.631982 488.996,204.232 C490.364007,207.832018 492.307987,210.909987 494.828,213.466 C497.348013,216.022013 500.371982,217.983993 503.9,219.352 C507.428018,220.720007 511.387978,221.404 515.78,221.404 C520.172022,221.404 524.149982,220.720007 527.714,219.352 C531.278018,217.983993 534.319987,216.022013 536.84,213.466 C539.360013,210.909987 541.303993,207.832018 542.672,204.232 C544.040007,200.631982 544.724,196.600022 544.724,192.136 C544.724,187.671978 544.040007,183.622018 542.672,179.986 C541.303993,176.349982 539.360013,173.254013 536.84,170.698 C534.319987,168.141987 531.278018,166.162007 527.714,164.758 C524.149982,163.353993 520.172022,162.652 515.78,162.652 C511.387978,162.652 507.428018,163.353993 503.9,164.758 C500.371982,166.162007 497.348013,168.141987 494.828,170.698 C492.307987,173.254013 490.364007,176.349982 488.996,179.986 C487.627993,183.622018 486.944,187.671978 486.944,192.136 L486.944,192.136 Z M618.488,220 L636.092,164.164 L620.324,164.164 L610.064,201.964 L609.848,201.964 L600.344,164.164 L585.44,164.164 L576.152,202.072 L575.936,202.072 L565.676,164.164 L549.476,164.164 L567.188,220 L583.064,220 L592.568,182.524 L592.784,182.524 L602.72,220 L618.488,220 Z" id="meow" fill="#0F5A6A" sketch:type="MSShapeGroup"></path>
        <path d="M481.876,240.008 L481.876,260 L484.256,260 L484.256,258.068 L484.312,258.068 C484.573335,258.497335 484.895331,258.856665 485.278,259.146 C485.660669,259.435335 486.066665,259.663999 486.496,259.832 C486.925335,260.000001 487.359331,260.121333 487.798,260.196 C488.236669,260.270667 488.633332,260.308 488.988,260.308 C490.089339,260.308 491.055329,260.112002 491.886,259.72 C492.716671,259.327998 493.407331,258.791337 493.958,258.11 C494.508669,257.428663 494.919332,256.630671 495.19,255.716 C495.460668,254.801329 495.596,253.830672 495.596,252.804 C495.596,251.777328 495.456001,250.806671 495.176,249.892 C494.895999,248.977329 494.480669,248.170004 493.93,247.47 C493.379331,246.769996 492.688671,246.214669 491.858,245.804 C491.027329,245.393331 490.052006,245.188 488.932,245.188 C487.923995,245.188 487.000004,245.369998 486.16,245.734 C485.319996,246.098002 484.704002,246.681329 484.312,247.484 L484.256,247.484 L484.256,240.008 L481.876,240.008 Z M493.076,252.636 C493.076,253.345337 493.001334,254.035997 492.852,254.708 C492.702666,255.380003 492.460002,255.977331 492.124,256.5 C491.787998,257.022669 491.344669,257.442665 490.794,257.76 C490.243331,258.077335 489.557337,258.236 488.736,258.236 C487.914663,258.236 487.21467,258.082002 486.636,257.774 C486.05733,257.465998 485.586002,257.060003 485.222,256.556 C484.857998,256.051997 484.592001,255.46867 484.424,254.806 C484.255999,254.14333 484.172,253.457337 484.172,252.748 C484.172,252.075997 484.251333,251.413337 484.41,250.76 C484.568667,250.106663 484.825332,249.523336 485.18,249.01 C485.534668,248.496664 485.991997,248.081335 486.552,247.764 C487.112003,247.446665 487.793329,247.288 488.596,247.288 C489.361337,247.288 490.028664,247.437332 490.598,247.736 C491.167336,248.034668 491.633998,248.435997 491.998,248.94 C492.362002,249.444003 492.632666,250.017997 492.81,250.662 C492.987334,251.306003 493.076,251.963997 493.076,252.636 L493.076,252.636 Z M504.08,261.932 C503.799999,262.641337 503.524668,263.238664 503.254,263.724 C502.983332,264.209336 502.684668,264.605998 502.358,264.914 C502.031332,265.222002 501.667335,265.445999 501.266,265.586 C500.864665,265.726001 500.402669,265.796 499.88,265.796 C499.599999,265.796 499.320001,265.777334 499.04,265.74 C498.759999,265.702666 498.489335,265.637334 498.228,265.544 L498.228,263.36 C498.433334,263.453334 498.671332,263.532666 498.942,263.598 C499.212668,263.663334 499.441332,263.696 499.628,263.696 C500.113336,263.696 500.519332,263.579335 500.846,263.346 C501.172668,263.112665 501.419999,262.781335 501.588,262.352 L502.568,259.916 L496.828,245.524 L499.516,245.524 L503.744,257.368 L503.8,257.368 L507.86,245.524 L510.38,245.524 L504.08,261.932 Z M523.484,245.524 L523.484,241.184 L521.104,241.184 L521.104,245.524 L518.64,245.524 L518.64,247.624 L521.104,247.624 L521.104,256.836 C521.104,257.508003 521.169333,258.049331 521.3,258.46 C521.430667,258.870669 521.631332,259.187999 521.902,259.412 C522.172668,259.636001 522.527331,259.79 522.966,259.874 C523.404669,259.958 523.931997,260 524.548,260 L526.368,260 L526.368,257.9 L525.276,257.9 C524.902665,257.9 524.599334,257.886 524.366,257.858 C524.132666,257.83 523.950667,257.769334 523.82,257.676 C523.689333,257.582666 523.600667,257.452001 523.554,257.284 C523.507333,257.115999 523.484,256.892001 523.484,256.612 L523.484,247.624 L526.368,247.624 L526.368,245.524 L523.484,245.524 Z M529,240.008 L529,260 L531.38,260 L531.38,251.824 C531.38,251.170663 531.468666,250.568669 531.646,250.018 C531.823334,249.467331 532.089332,248.986669 532.444,248.576 C532.798668,248.165331 533.241997,247.848001 533.774,247.624 C534.306003,247.399999 534.935996,247.288 535.664,247.288 C536.578671,247.288 537.297331,247.549331 537.82,248.072 C538.342669,248.594669 538.604,249.303996 538.604,250.2 L538.604,260 L540.984,260 L540.984,250.48 C540.984,249.695996 540.904667,248.982003 540.746,248.338 C540.587333,247.693997 540.312002,247.138669 539.92,246.672 C539.527998,246.205331 539.01467,245.841335 538.38,245.58 C537.74533,245.318665 536.952005,245.188 536,245.188 C535.570665,245.188 535.127336,245.234666 534.67,245.328 C534.212664,245.421334 533.774002,245.565999 533.354,245.762 C532.933998,245.958001 532.556002,246.209998 532.22,246.518 C531.883998,246.826002 531.622668,247.203998 531.436,247.652 L531.38,247.652 L531.38,240.008 L529,240.008 Z M554.62,251.376 L546.304,251.376 C546.341334,250.815997 546.462666,250.288669 546.668,249.794 C546.873334,249.299331 547.153332,248.865335 547.508,248.492 C547.862668,248.118665 548.287331,247.824668 548.782,247.61 C549.276669,247.395332 549.831997,247.288 550.448,247.288 C551.045336,247.288 551.591331,247.395332 552.086,247.61 C552.580669,247.824668 553.009998,248.113998 553.374,248.478 C553.738002,248.842002 554.027332,249.275997 554.242,249.78 C554.456668,250.284003 554.582666,250.815997 554.62,251.376 L554.62,251.376 Z M556.916,255.408 L554.564,255.408 C554.358666,256.360005 553.934003,257.069331 553.29,257.536 C552.645997,258.002669 551.820005,258.236 550.812,258.236 C550.027996,258.236 549.34667,258.105335 548.768,257.844 C548.18933,257.582665 547.713335,257.232669 547.34,256.794 C546.966665,256.355331 546.696001,255.851336 546.528,255.282 C546.359999,254.712664 546.285333,254.11067 546.304,253.476 L557.14,253.476 C557.177334,252.598662 557.098001,251.674672 556.902,250.704 C556.705999,249.733328 556.351336,248.837337 555.838,248.016 C555.324664,247.194663 554.643338,246.518003 553.794,245.986 C552.944662,245.453997 551.876006,245.188 550.588,245.188 C549.598662,245.188 548.688671,245.374665 547.858,245.748 C547.027329,246.121335 546.30867,246.643997 545.702,247.316 C545.09533,247.988003 544.624002,248.781329 544.288,249.696 C543.951998,250.610671 543.784,251.618661 543.784,252.72 C543.821334,253.821339 543.984665,254.838662 544.274,255.772 C544.563335,256.705338 544.99733,257.507997 545.576,258.18 C546.15467,258.852003 546.868662,259.374665 547.718,259.748 C548.567338,260.121335 549.570661,260.308 550.728,260.308 C552.370675,260.308 553.733328,259.897337 554.816,259.076 C555.898672,258.254663 556.598665,257.032008 556.916,255.408 L556.916,255.408 Z M570.44,257.76 L570.44,242.248 L574.92,242.248 C576.152006,242.248 577.187996,242.420665 578.028,242.766 C578.868004,243.111335 579.553997,243.61533 580.086,244.278 C580.618003,244.94067 581.000665,245.743329 581.234,246.686 C581.467334,247.628671 581.584,248.697327 581.584,249.892 C581.584,251.124006 581.458001,252.173996 581.206,253.042 C580.953999,253.910004 580.632002,254.63333 580.24,255.212 C579.847998,255.79067 579.404669,256.247998 578.91,256.584 C578.415331,256.920002 577.916003,257.176666 577.412,257.354 C576.907997,257.531334 576.432002,257.643333 575.984,257.69 C575.535998,257.736667 575.162668,257.76 574.864,257.76 L570.44,257.76 Z M567.78,240.008 L567.78,260 L574.64,260 C576.301342,260 577.738661,259.766669 578.952,259.3 C580.165339,258.833331 581.163996,258.156671 581.948,257.27 C582.732004,256.383329 583.310665,255.29134 583.684,253.994 C584.057335,252.69666 584.244,251.208008 584.244,249.528 C584.244,246.317317 583.413342,243.928008 581.752,242.36 C580.090658,240.791992 577.720015,240.008 574.64,240.008 L567.78,240.008 Z M599.924,259.944 C599.513331,260.186668 598.944004,260.308 598.216,260.308 C597.599997,260.308 597.110002,260.135335 596.746,259.79 C596.381998,259.444665 596.2,258.880004 596.2,258.096 C595.546663,258.880004 594.786004,259.444665 593.918,259.79 C593.049996,260.135335 592.112005,260.308 591.104,260.308 C590.450663,260.308 589.830003,260.233334 589.242,260.084 C588.653997,259.934666 588.145335,259.701335 587.716,259.384 C587.286665,259.066665 586.946001,258.651336 586.694,258.138 C586.441999,257.624664 586.316,257.004004 586.316,256.276 C586.316,255.454663 586.455999,254.782669 586.736,254.26 C587.016001,253.737331 587.384664,253.312668 587.842,252.986 C588.299336,252.659332 588.821997,252.412001 589.41,252.244 C589.998003,252.075999 590.599997,251.936001 591.216,251.824 C591.869337,251.693333 592.489997,251.595334 593.078,251.53 C593.666003,251.464666 594.183998,251.371334 594.632,251.25 C595.080002,251.128666 595.434665,250.951335 595.696,250.718 C595.957335,250.484666 596.088,250.144002 596.088,249.696 C596.088,249.173331 595.990001,248.753335 595.794,248.436 C595.597999,248.118665 595.346002,247.876001 595.038,247.708 C594.729998,247.539999 594.384669,247.428 594.002,247.372 C593.619331,247.316 593.241335,247.288 592.868,247.288 C591.859995,247.288 591.020003,247.479331 590.348,247.862 C589.675997,248.244669 589.312,248.967995 589.256,250.032 L586.876,250.032 C586.913334,249.135996 587.099998,248.380003 587.436,247.764 C587.772002,247.147997 588.219997,246.648669 588.78,246.266 C589.340003,245.883331 589.97933,245.608001 590.698,245.44 C591.41667,245.271999 592.186663,245.188 593.008,245.188 C593.661337,245.188 594.309997,245.234666 594.954,245.328 C595.598003,245.421334 596.181331,245.612665 596.704,245.902 C597.226669,246.191335 597.646665,246.597331 597.964,247.12 C598.281335,247.642669 598.44,248.323996 598.44,249.164 L598.44,256.612 C598.44,257.172003 598.472666,257.582665 598.538,257.844 C598.603334,258.105335 598.822665,258.236 599.196,258.236 C599.401334,258.236 599.643999,258.189334 599.924,258.096 L599.924,259.944 Z M596.06,252.524 C595.761332,252.748001 595.369336,252.911333 594.884,253.014 C594.398664,253.116667 593.890003,253.200666 593.358,253.266 C592.825997,253.331334 592.289336,253.406 591.748,253.49 C591.206664,253.574 590.721335,253.709332 590.292,253.896 C589.862665,254.082668 589.512668,254.348665 589.242,254.694 C588.971332,255.039335 588.836,255.510664 588.836,256.108 C588.836,256.500002 588.915333,256.831332 589.074,257.102 C589.232667,257.372668 589.437999,257.591999 589.69,257.76 C589.942001,257.928001 590.235998,258.049333 590.572,258.124 C590.908002,258.198667 591.262665,258.236 591.636,258.236 C592.420004,258.236 593.091997,258.128668 593.652,257.914 C594.212003,257.699332 594.669332,257.428668 595.024,257.102 C595.378668,256.775332 595.639999,256.420669 595.808,256.038 C595.976001,255.655331 596.06,255.296002 596.06,254.96 L596.06,252.524 Z M604.656,242.92 L604.656,240.008 L602.276,240.008 L602.276,242.92 L604.656,242.92 Z M602.276,245.524 L602.276,260 L604.656,260 L604.656,245.524 L602.276,245.524 Z M608.492,240.008 L608.492,260 L610.872,260 L610.872,240.008 L608.492,240.008 Z M620.252,261.932 C619.971999,262.641337 619.696668,263.238664 619.426,263.724 C619.155332,264.209336 618.856668,264.605998 618.53,264.914 C618.203332,265.222002 617.839335,265.445999 617.438,265.586 C617.036665,265.726001 616.574669,265.796 616.052,265.796 C615.771999,265.796 615.492001,265.777334 615.212,265.74 C614.931999,265.702666 614.661335,265.637334 614.4,265.544 L614.4,263.36 C614.605334,263.453334 614.843332,263.532666 615.114,263.598 C615.384668,263.663334 615.613332,263.696 615.8,263.696 C616.285336,263.696 616.691332,263.579335 617.018,263.346 C617.344668,263.112665 617.591999,262.781335 617.76,262.352 L618.74,259.916 L613,245.524 L615.688,245.524 L619.916,257.368 L619.972,257.368 L624.032,245.524 L626.552,245.524 L620.252,261.932 Z M639.404,248.604 L639.404,242.248 L644.724,242.248 C645.30267,242.248 645.848664,242.280666 646.362,242.346 C646.875336,242.411334 647.327998,242.555999 647.72,242.78 C648.112002,243.004001 648.419999,243.321331 648.644,243.732 C648.868001,244.142669 648.98,244.702663 648.98,245.412 C648.98,246.476005 648.64867,247.273997 647.986,247.806 C647.32333,248.338003 646.236008,248.604 644.724,248.604 L639.404,248.604 Z M636.744,240.008 L636.744,260 L646.404,260 C647.393338,260 648.265996,259.836668 649.022,259.51 C649.778004,259.183332 650.412664,258.754003 650.926,258.222 C651.439336,257.689997 651.826665,257.07867 652.088,256.388 C652.349335,255.69733 652.48,254.988004 652.48,254.26 C652.48,253.027994 652.153337,251.982671 651.5,251.124 C650.846663,250.265329 649.904006,249.705335 648.672,249.444 L648.672,249.388 C649.624005,249.014665 650.356664,248.440671 650.87,247.666 C651.383336,246.891329 651.64,245.972005 651.64,244.908 C651.64,243.899995 651.411336,243.05067 650.954,242.36 C650.496664,241.66933 649.941337,241.128002 649.288,240.736 C648.989332,240.549332 648.630002,240.409334 648.21,240.316 C647.789998,240.222666 647.337336,240.152667 646.852,240.106 C646.366664,240.059333 645.876669,240.031333 645.382,240.022 C644.887331,240.012667 644.425335,240.008 643.996,240.008 L636.744,240.008 Z M639.404,257.76 L639.404,250.844 L645.48,250.844 C646.040003,250.844 646.581331,250.895333 647.104,250.998 C647.626669,251.100667 648.088665,251.277999 648.49,251.53 C648.891335,251.782001 649.213332,252.122665 649.456,252.552 C649.698668,252.981335 649.82,253.522663 649.82,254.176 C649.82,255.296006 649.48867,256.17333 648.826,256.808 C648.16333,257.44267 647.244006,257.76 646.068,257.76 L639.404,257.76 Z M655.448,245.524 L655.448,260 L657.828,260 L657.828,253.56 C657.828,252.626662 657.921332,251.80067 658.108,251.082 C658.294668,250.36333 658.593331,249.752003 659.004,249.248 C659.414669,248.743997 659.955997,248.361335 660.628,248.1 C661.300003,247.838665 662.111995,247.708 663.064,247.708 L663.064,245.188 C661.775994,245.150666 660.712004,245.411997 659.872,245.972 C659.031996,246.532003 658.32267,247.399994 657.744,248.576 L657.688,248.576 L657.688,245.524 L655.448,245.524 Z M676.84,260 L676.84,245.524 L674.46,245.524 L674.46,253.7 C674.46,254.353337 674.371334,254.955331 674.194,255.506 C674.016666,256.056669 673.750668,256.537331 673.396,256.948 C673.041332,257.358669 672.598003,257.675999 672.066,257.9 C671.533997,258.124001 670.904004,258.236 670.176,258.236 C669.261329,258.236 668.542669,257.974669 668.02,257.452 C667.497331,256.929331 667.236,256.220004 667.236,255.324 L667.236,245.524 L664.856,245.524 L664.856,255.044 C664.856,255.828004 664.935333,256.541997 665.094,257.186 C665.252667,257.830003 665.527998,258.385331 665.92,258.852 C666.312002,259.318669 666.82533,259.677999 667.46,259.93 C668.09467,260.182001 668.887995,260.308 669.84,260.308 C670.904005,260.308 671.827996,260.098002 672.612,259.678 C673.396004,259.257998 674.039997,258.600004 674.544,257.704 L674.6,257.704 L674.6,260 L676.84,260 Z M682.944,242.92 L682.944,240.008 L680.564,240.008 L680.564,242.92 L682.944,242.92 Z M680.564,245.524 L680.564,260 L682.944,260 L682.944,245.524 L680.564,245.524 Z M686.64,245.524 L686.64,260 L689.02,260 L689.02,251.824 C689.02,251.170663 689.108666,250.568669 689.286,250.018 C689.463334,249.467331 689.729332,248.986669 690.084,248.576 C690.438668,248.165331 690.881997,247.848001 691.414,247.624 C691.946003,247.399999 692.575996,247.288 693.304,247.288 C694.218671,247.288 694.937331,247.549331 695.46,248.072 C695.982669,248.594669 696.244,249.303996 696.244,250.2 L696.244,260 L698.624,260 L698.624,250.48 C698.624,249.695996 698.544667,248.982003 698.386,248.338 C698.227333,247.693997 697.952002,247.138669 697.56,246.672 C697.167998,246.205331 696.65467,245.841335 696.02,245.58 C695.38533,245.318665 694.592005,245.188 693.64,245.188 C691.493323,245.188 689.925338,246.065325 688.936,247.82 L688.88,247.82 L688.88,245.524 L686.64,245.524 Z" id="by-the-dailybruin" fill="#0F5A6A" sketch:type="MSShapeGroup"></path>
    </g>
</svg>