<?xml version="1.0" encoding="UTF-8" standalone="no"?>
<svg width="504px" height="203px" viewBox="0 0 504 203" version="1.1" xmlns="http://www.w3.org/2000/svg" xmlns:xlink="http://www.w3.org/1999/xlink" xmlns:sketch="http://www.bohemiancoding.com/sketch/ns">
    <!-- Generator: Sketch 3.3.2 (12043) - http://www.bohemiancoding.com/sketch -->
    <title>Artboard 1</title>
    <desc>Created with Sketch.</desc>
    <defs></defs>
    <g id="Page-1" stroke="none" stroke-width="1" fill="none" fill-rule="evenodd" sketch:type="MSPage">
        <g id="Artboard-1" sketch:type="MSArtboardGroup">
            <g id="viz" sketch:type="MSLayerGroup" transform="translate(5.000000, 5.000000)">
                <g id="Group" transform="translate(0.500000, 0.500000)">
                    <g transform="translate(77.000000, 13.000000)">
                        <g id="Shape" stroke="#1F77B4" sketch:type="MSShapeGroup">
                            <path d="M0,0.75 C7,7.73310309 11.3333333,12.3003535 13,14.4517513 C16.75,19.2923964 21.4,29.1964128 25,33.020967 C28.6,36.8455213 33.25,37.602069 37,39.9487798 C40.75,42.2954905 46.25,46.9033249 50,48.6657051 C53.75,50.4280854 58.4,50.0433132 62,51.6979815 C65.6,53.3526499 70.25,57.6334801 74,59.6968277 C77.75,61.7601753 83.25,62.1371234 87,65.4536323 C90.75,68.7701412 95.4,78.2020596 99,81.8068868 C102.6,85.411714 107.25,85.8987213 111,89.4858139 C114.75,93.0729065 120.25,100.953217 124,105.720837 C127.75,110.488457 132.4,119.455407 136,121.269948 C139.6,123.084489 144.25,117.462824 148,117.817777 C151.75,118.172731 157.25,121.936779 161,123.636305 C164.75,125.335832 169.4,127.842633 173,129.147955 C176.6,130.453277 181.4,131.619416 185,132.338452 C188.6,133.057487 193.25,133.513416 197,133.941525 C200.75,134.369634 206.25,134.546241 210,135.192513 C213.75,135.838784 218.4,150.715108 222,138.25 C225.6,125.784892 230.25,63.6746041 234,52.091795 C237.75,40.5089859 243.25,59.9477642 247,61.0312727 C250.75,62.1147812 255.4,57.20072 259,59.3151851 C262.6,61.4296502 267.25,71.0346553 271,75.1277068 C274.75,79.2207584 280.25,84.9056681 284,86.6021955 C287.75,88.2987229 292.4,85.8445611 296,86.4378892 C299.6,87.0312174 304.25,89.5251952 308,90.5577166 C311.75,91.590238 317.25,93.1256323 321,93.3213653 C324.75,93.5170984 329.4,90.9042811 333,91.8626039 C336.6,92.8209267 341.25,98.7750727 345,99.710184 C348.75,100.645295 354.25,98.5605183 358,98.0966791 C361.75,97.6328399 366.4,97.040555 370,96.6179227 C373.6,96.1952905 378.25,96.3576842 382,95.279131 C383.666667,94.799774 388,92.8492529 395,89.4275677"></path>
                        </g>
                        <g transform="translate(216.000000, 35.000000)" id="$7→$10" font-size="13" font-family="Helvetica" fill="#1F77B4" sketch:type="MSTextLayer" font-weight="normal">
                            <text>
                                <tspan x="0" y="13.0312727" fill="#000000">$7</tspan>
                                <tspan x="14.4599609" y="13.0312727" font-family="Lucida Grande" fill="#000000">→</tspan>
                                <tspan x="27.4599609" y="13.0312727" fill="#000000">$10</tspan>
                            </text>
                        </g>
                    </g>
                    <g transform="translate(62.000000, 165.000000)">
                        <g transform="translate(413.000000, 0.000000)"></g>
                        <g fill="#000000">
                            <path d="M15,0 L15,6" id="Shape" sketch:type="MSShapeGroup"></path>
                            <g transform="translate(0.000000, 5.000000)" id="1982" font-size="13" font-family="Helvetica" sketch:type="MSTextLayer" font-weight="normal">
                                <text>
                                    <tspan x="0.5" y="13">1982</tspan>
                                </text>
                            </g>
                        </g>
                        <g transform="translate(13.000000, 0.000000)" id="Shape" fill="#000000" sketch:type="MSShapeGroup">
                            <path d="M15,0 L15,6"></path>
                        </g>
                        <g transform="translate(25.000000, 0.000000)" id="Shape" fill="#000000" sketch:type="MSShapeGroup">
                            <path d="M15,0 L15,6"></path>
                        </g>
                        <g transform="translate(37.000000, 0.000000)" id="Shape" fill="#000000" sketch:type="MSShapeGroup">
                            <path d="M15,0 L15,6"></path>
                        </g>
                        <g transform="translate(50.000000, 0.000000)" fill="#000000">
                            <path d="M15,0 L15,6" id="Shape" sketch:type="MSShapeGroup"></path>
                            <g transform="translate(0.000000, 5.000000)" id="1986" font-size="13" font-family="Helvetica" sketch:type="MSTextLayer" font-weight="normal">
                                <text>
                                    <tspan x="0.5" y="13">1986</tspan>
                                </text>
                            </g>
                        </g>
                        <g transform="translate(62.000000, 0.000000)" id="Shape" fill="#000000" sketch:type="MSShapeGroup">
                            <path d="M15,0 L15,6"></path>
                        </g>
                        <g transform="translate(74.000000, 0.000000)" id="Shape" fill="#000000" sketch:type="MSShapeGroup">
                            <path d="M15,0 L15,6"></path>
                        </g>
                        <g transform="translate(87.000000, 0.000000)" id="Shape" fill="#000000" sketch:type="MSShapeGroup">
                            <path d="M15,0 L15,6"></path>
                        </g>
                        <g transform="translate(99.000000, 0.000000)" fill="#000000">
                            <path d="M15,0 L15,6" id="Shape" sketch:type="MSShapeGroup"></path>
                            <g transform="translate(0.000000, 5.000000)" id="1990" font-size="13" font-family="Helvetica" sketch:type="MSTextLayer" font-weight="normal">
                                <text>
                                    <tspan x="0.5" y="13">1990</tspan>
                                </text>
                            </g>
                        </g>
                        <g transform="translate(111.000000, 0.000000)" id="Shape" fill="#000000" sketch:type="MSShapeGroup">
                            <path d="M15,0 L15,6"></path>
                        </g>
                        <g transform="translate(124.000000, 0.000000)" id="Shape" fill="#000000" sketch:type="MSShapeGroup">
                            <path d="M15,0 L15,6"></path>
                        </g>
                        <g transform="translate(136.000000, 0.000000)" id="Shape" fill="#000000" sketch:type="MSShapeGroup">
                            <path d="M15,0 L15,6"></path>
                        </g>
                        <g transform="translate(148.000000, 0.000000)" fill="#000000">
                            <path d="M15,0 L15,6" id="Shape" sketch:type="MSShapeGroup"></path>
                            <g transform="translate(0.000000, 5.000000)" id="1994" font-size="13" font-family="Helvetica" sketch:type="MSTextLayer" font-weight="normal">
                                <text>
                                    <tspan x="0.5" y="13">1994</tspan>
                                </text>
                            </g>
                        </g>
                        <g transform="translate(161.000000, 0.000000)" id="Shape" fill="#000000" sketch:type="MSShapeGroup">
                            <path d="M15,0 L15,6"></path>
                        </g>
                        <g transform="translate(173.000000, 0.000000)" id="Shape" fill="#000000" sketch:type="MSShapeGroup">
                            <path d="M15,0 L15,6"></path>
                        </g>
                        <g transform="translate(185.000000, 0.000000)" id="Shape" fill="#000000" sketch:type="MSShapeGroup">
                            <path d="M15,0 L15,6"></path>
                        </g>
                        <g transform="translate(197.000000, 0.000000)" fill="#000000">
                            <path d="M15,0 L15,6" id="Shape" sketch:type="MSShapeGroup"></path>
                            <g transform="translate(0.000000, 5.000000)" id="1998" font-size="13" font-family="Helvetica" sketch:type="MSTextLayer" font-weight="normal">
                                <text>
                                    <tspan x="0.5" y="13">1998</tspan>
                                </text>
                            </g>
                        </g>
                        <g transform="translate(210.000000, 0.000000)" id="Shape" fill="#000000" sketch:type="MSShapeGroup">
                            <path d="M15,0 L15,6"></path>
                        </g>
                        <g transform="translate(222.000000, 0.000000)" id="Shape" fill="#000000" sketch:type="MSShapeGroup">
                            <path d="M15,0 L15,6"></path>
                        </g>
                        <g transform="translate(234.000000, 0.000000)" id="Shape" fill="#000000" sketch:type="MSShapeGroup">
                            <path d="M15,0 L15,6"></path>
                        </g>
                        <g transform="translate(247.000000, 0.000000)" fill="#000000">
                            <path d="M15,0 L15,6" id="Shape" sketch:type="MSShapeGroup"></path>
                            <g transform="translate(0.000000, 5.000000)" id="2002" font-size="13" font-family="Helvetica" sketch:type="MSTextLayer" font-weight="normal">
                                <text>
                                    <tspan x="0.5" y="13">2002</tspan>
                                </text>
                            </g>
                        </g>
                        <g transform="translate(259.000000, 0.000000)" id="Shape" fill="#000000" sketch:type="MSShapeGroup">
                            <path d="M15,0 L15,6"></path>
                        </g>
                        <g transform="translate(271.000000, 0.000000)" id="Shape" fill="#000000" sketch:type="MSShapeGroup">
                            <path d="M15,0 L15,6"></path>
                        </g>
                        <g transform="translate(284.000000, 0.000000)" id="Shape" fill="#000000" sketch:type="MSShapeGroup">
                            <path d="M15,0 L15,6"></path>
                        </g>
                        <g transform="translate(296.000000, 0.000000)" fill="#000000">
                            <path d="M15,0 L15,6" id="Shape" sketch:type="MSShapeGroup"></path>
                            <g transform="translate(0.000000, 5.000000)" id="2006" font-size="13" font-family="Helvetica" sketch:type="MSTextLayer" font-weight="normal">
                                <text>
                                    <tspan x="0.5" y="13">2006</tspan>
                                </text>
                            </g>
                        </g>
                        <g transform="translate(308.000000, 0.000000)" id="Shape" fill="#000000" sketch:type="MSShapeGroup">
                            <path d="M15,0 L15,6"></path>
                        </g>
                        <g transform="translate(321.000000, 0.000000)" id="Shape" fill="#000000" sketch:type="MSShapeGroup">
                            <path d="M15,0 L15,6"></path>
                        </g>
                        <g transform="translate(333.000000, 0.000000)" id="Shape" fill="#000000" sketch:type="MSShapeGroup">
                            <path d="M15,0 L15,6"></path>
                        </g>
                        <g transform="translate(345.000000, 0.000000)" fill="#000000">
                            <path d="M15,0 L15,6" id="Shape" sketch:type="MSShapeGroup"></path>
                            <g transform="translate(0.000000, 5.000000)" id="2010" font-size="13" font-family="Helvetica" sketch:type="MSTextLayer" font-weight="normal">
                                <text>
                                    <tspan x="0.5" y="13">2010</tspan>
                                </text>
                            </g>
                        </g>
                        <g transform="translate(359.000000, 0.000000)" id="Shape" fill="#000000" sketch:type="MSShapeGroup">
                            <path d="M14,0 L14,6"></path>
                        </g>
                        <g transform="translate(370.000000, 0.000000)" id="Shape" fill="#000000" sketch:type="MSShapeGroup">
                            <path d="M15,0 L15,6"></path>
                        </g>
                        <g transform="translate(382.000000, 0.000000)" id="Shape" fill="#000000" sketch:type="MSShapeGroup">
                            <path d="M15,0 L15,6"></path>
                        </g>
                        <g transform="translate(395.000000, 0.000000)" fill="#000000">
                            <path d="M15,0 L15,6" id="Shape" sketch:type="MSShapeGroup"></path>
                            <g transform="translate(0.000000, 5.000000)" id="2014" font-size="13" font-family="Helvetica" sketch:type="MSTextLayer" font-weight="normal">
                                <text>
                                    <tspan x="0.5" y="13">2014</tspan>
                                </text>
                            </g>
                        </g>
                        <path d="M11,6 L11,0 L413,0 L413,6" id="Shape" stroke="#979797" sketch:type="MSShapeGroup"></path>
                    </g>
                    <g>
                        <g transform="translate(0.000000, 141.000000)" fill="#000000">
                            <path d="M73,13 L67,13" id="Shape" sketch:type="MSShapeGroup"></path>
                            <g id="$240,000" font-size="13" font-family="Helvetica" sketch:type="MSTextLayer" font-weight="normal">
                                <text>
                                    <tspan x="0" y="13">$240,000</tspan>
                                </text>
                            </g>
                        </g>
                        <g transform="translate(0.000000, 124.000000)" fill="#000000">
                            <path d="M73,13 L67,13" id="Shape" sketch:type="MSShapeGroup"></path>
                            <g id="$260,000" font-size="13" font-family="Helvetica" sketch:type="MSTextLayer" font-weight="normal">
                                <text>
                                    <tspan x="0" y="13">$260,000</tspan>
                                </text>
                            </g>
                        </g>
                        <g transform="translate(0.000000, 107.000000)" fill="#000000">
                            <path d="M73,13 L67,13" id="Shape" sketch:type="MSShapeGroup"></path>
                            <g id="$280,000" font-size="13" font-family="Helvetica" sketch:type="MSTextLayer" font-weight="normal">
                                <text>
                                    <tspan x="0" y="13">$280,000</tspan>
                                </text>
                            </g>
                        </g>
                        <g transform="translate(0.000000, 89.000000)" fill="#000000">
                            <path d="M73,13 L67,13" id="Shape" sketch:type="MSShapeGroup"></path>
                            <g id="$300,000" font-size="13" font-family="Helvetica" sketch:type="MSTextLayer" font-weight="normal">
                                <text>
                                    <tspan x="0" y="13">$300,000</tspan>
                                </text>
                            </g>
                        </g>
                        <g transform="translate(0.000000, 72.000000)" fill="#000000">
                            <path d="M73,13 L67,13" id="Shape" sketch:type="MSShapeGroup"></path>
                            <g id="$320,000" font-size="13" font-family="Helvetica" sketch:type="MSTextLayer" font-weight="normal">
                                <text>
                                    <tspan x="0" y="13">$320,000</tspan>
                                </text>
                            </g>
                        </g>
                        <g transform="translate(0.000000, 55.000000)" fill="#000000">
                            <path d="M73,13 L67,13" id="Shape" sketch:type="MSShapeGroup"></path>
                            <g id="$340,000" font-size="13" font-family="Helvetica" sketch:type="MSTextLayer" font-weight="normal">
                                <text>
                                    <tspan x="0" y="13">$340,000</tspan>
                                </text>
                            </g>
                        </g>
                        <g transform="translate(0.000000, 37.000000)" fill="#000000">
                            <path d="M73,13 L67,13" id="Shape" sketch:type="MSShapeGroup"></path>
                            <g id="$360,000" font-size="13" font-family="Helvetica" sketch:type="MSTextLayer" font-weight="normal">
                                <text>
                                    <tspan x="0" y="13">$360,000</tspan>
                                </text>
                            </g>
                        </g>
                        <g transform="translate(0.000000, 20.000000)" fill="#000000">
                            <path d="M73,13 L67,13" id="Shape" sketch:type="MSShapeGroup"></path>
                            <g id="$380,000" font-size="13" font-family="Helvetica" sketch:type="MSTextLayer" font-weight="normal">
                                <text>
                                    <tspan x="0" y="13">$380,000</tspan>
                                </text>
                            </g>
                        </g>
                        <g transform="translate(0.000000, 2.000000)" fill="#000000">
                            <path d="M73,13 L67,13" id="Shape" sketch:type="MSShapeGroup"></path>
                            <g id="$400,000" font-size="13" font-family="Helvetica" sketch:type="MSTextLayer" font-weight="normal">
                                <text>
                                    <tspan x="0" y="13">$400,000</tspan>
                                </text>
                            </g>
                        </g>
                        <path d="M67,0 L73,0 L73,165 L67,165" id="Shape" stroke="#979797" sketch:type="MSShapeGroup"></path>
                    </g>
                </g>
            </g>
        </g>
    </g>
</svg>