<?xml version="1.0" encoding="UTF-8" standalone="no"?>
<svg width="635px" height="263px" viewBox="0 0 635 263" version="1.1" xmlns="http://www.w3.org/2000/svg" xmlns:xlink="http://www.w3.org/1999/xlink" xmlns:sketch="http://www.bohemiancoding.com/sketch/ns">
    <!-- Generator: Sketch 3.3.3 (12081) - http://www.bohemiancoding.com/sketch -->
    <title>Artboard 1</title>
    <desc>Created with Sketch.</desc>
    <defs></defs>
    <g id="Page-1" stroke="none" stroke-width="1" fill="none" fill-rule="evenodd" sketch:type="MSPage">
        <g id="Artboard-1" sketch:type="MSArtboardGroup">
            <g id="graph" sketch:type="MSLayerGroup" transform="translate(-4.000000, -18.000000)">
                <g id="Group" transform="translate(0.500000, 0.500000)">
                    <g transform="translate(9.000000, 0.000000)">
                        <g transform="translate(1.000000, 0.000000)"></g>
                        <g transform="translate(0.000000, 38.000000)" id="Shape" stroke="#E82C0C" fill="#E82C0C" sketch:type="MSShapeGroup">
                            <path d="M0.459821429,238 L0.459821429,208.277256 L9.54017857,208.277256 L9.54017857,238 L0.459821429,238 Z"></path>
                            <path d="M14.4598214,238 L14.4598214,233.046209 L23.5401786,233.046209 L23.5401786,238 L14.4598214,238 Z"></path>
                            <path d="M28.4598214,238 L28.4598214,238 L37.5401786,238 L28.4598214,238 Z"></path>
                            <path d="M42.4598214,238 L42.4598214,238 L51.5401786,238 L42.4598214,238 Z"></path>
                            <path d="M57.4598214,238 L57.4598214,233.046209 L66.5401786,233.046209 L66.5401786,238 L57.4598214,238 Z"></path>
                            <path d="M71.4598214,238 L71.4598214,233.046209 L80.5401786,233.046209 L80.5401786,238 L71.4598214,238 Z"></path>
                            <path d="M85.4598214,238 L85.4598214,233.046209 L94.5401786,233.046209 L94.5401786,238 L85.4598214,238 Z"></path>
                            <path d="M100.459821,238 L100.459821,233.046209 L109.540179,233.046209 L109.540179,238 L100.459821,238 Z"></path>
                            <path d="M114.459821,238 L114.459821,228.092419 L123.540179,228.092419 L123.540179,238 L114.459821,238 Z"></path>
                            <path d="M128.459821,238 L128.459821,223.138628 L137.540179,223.138628 L137.540179,238 L128.459821,238 Z"></path>
                            <path d="M142.459821,238 L142.459821,198.369674 L151.540179,198.369674 L151.540179,238 L142.459821,238 Z"></path>
                            <path d="M157.459821,238 L157.459821,228.092419 L166.540179,228.092419 L166.540179,238 L157.459821,238 Z"></path>
                            <path d="M171.459821,238 L171.459821,223.138628 L180.540179,223.138628 L180.540179,238 L171.459821,238 Z"></path>
                            <path d="M185.459821,238 L185.459821,208.277256 L194.540179,208.277256 L194.540179,238 L185.459821,238 Z"></path>
                            <path d="M200.459821,238 L200.459821,223.138628 L209.540179,223.138628 L209.540179,238 L200.459821,238 Z"></path>
                            <path d="M214.459821,238 L214.459821,188.462093 L223.540179,188.462093 L223.540179,238 L214.459821,238 Z"></path>
                            <path d="M228.459821,238 L228.459821,223.138628 L237.540179,223.138628 L237.540179,238 L228.459821,238 Z"></path>
                            <path d="M243.459821,238 L243.459821,178.554511 L252.540179,178.554511 L252.540179,238 L243.459821,238 Z"></path>
                            <path d="M257.459821,238 L257.459821,188.462093 L266.540179,188.462093 L266.540179,238 L257.459821,238 Z"></path>
                            <path d="M271.459821,238 L271.459821,158.739348 L280.540179,158.739348 L280.540179,238 L271.459821,238 Z"></path>
                            <path d="M285.459821,238 L285.459821,0.218045113 L294.540179,0.218045113 L294.540179,238 L285.459821,238 Z"></path>
                            <path d="M300.459821,238 L300.459821,133.970395 L309.540179,133.970395 L309.540179,238 L300.459821,238 Z"></path>
                            <path d="M314.459821,238 L314.459821,119.109023 L323.540179,119.109023 L323.540179,238 L314.459821,238 Z"></path>
                            <path d="M328.459821,238 L328.459821,178.554511 L337.540179,178.554511 L337.540179,238 L328.459821,238 Z"></path>
                            <path d="M343.459821,238 L343.459821,178.554511 L352.540179,178.554511 L352.540179,238 L343.459821,238 Z"></path>
                            <path d="M357.459821,238 L357.459821,148.831767 L366.540179,148.831767 L366.540179,238 L357.459821,238 Z"></path>
                            <path d="M371.459821,238 L371.459821,198.369674 L380.540179,198.369674 L380.540179,238 L371.459821,238 Z"></path>
                            <path d="M386.459821,238 L386.459821,183.508302 L395.540179,183.508302 L395.540179,238 L386.459821,238 Z"></path>
                            <path d="M400.459821,238 L400.459821,188.462093 L409.540179,188.462093 L409.540179,238 L400.459821,238 Z"></path>
                            <path d="M414.459821,238 L414.459821,208.277256 L423.540179,208.277256 L423.540179,238 L414.459821,238 Z"></path>
                            <path d="M428.459821,238 L428.459821,133.970395 L437.540179,133.970395 L437.540179,238 L428.459821,238 Z"></path>
                            <path d="M443.459821,238 L443.459821,208.277256 L452.540179,208.277256 L452.540179,238 L443.459821,238 Z"></path>
                            <path d="M457.459821,238 L457.459821,223.138628 L466.540179,223.138628 L466.540179,238 L457.459821,238 Z"></path>
                            <path d="M471.459821,238 L471.459821,228.092419 L480.540179,228.092419 L480.540179,238 L471.459821,238 Z"></path>
                            <path d="M486.459821,238 L486.459821,228.092419 L495.540179,228.092419 L495.540179,238 L486.459821,238 Z"></path>
                            <path d="M500.459821,238 L500.459821,228.092419 L509.540179,228.092419 L509.540179,238 L500.459821,238 Z"></path>
                            <path d="M514.459821,238 L514.459821,233.046209 L523.540179,233.046209 L523.540179,238 L514.459821,238 Z"></path>
                            <path d="M529.459821,238 L529.459821,233.046209 L538.540179,233.046209 L538.540179,238 L529.459821,238 Z"></path>
                            <path d="M543.459821,238 L543.459821,233.046209 L552.540179,233.046209 L552.540179,238 L543.459821,238 Z"></path>
                            <path d="M557.459821,238 L557.459821,223.138628 L566.540179,223.138628 L566.540179,238 L557.459821,238 Z"></path>
                            <path d="M571.459821,238 L571.459821,218.184837 L580.540179,218.184837 L580.540179,238 L571.459821,238 Z"></path>
                            <path d="M586.459821,238 L586.459821,238 L595.540179,238 L586.459821,238 Z"></path>
                            <path d="M600.459821,238 L600.459821,233.046209 L609.540179,233.046209 L609.540179,238 L600.459821,238 Z"></path>
                            <path d="M614.459821,238 L614.459821,233.046209 L623.540179,233.046209 L623.540179,238 L614.459821,238 Z"></path>
                            <path d="M629.459821,238 L629.459821,238 L638.540179,238 L629.459821,238 Z"></path>
                        </g>
                        <g transform="translate(1.000000, 0.000000)"></g>
                        <g transform="translate(340.000000, 133.000000)">
                            <g></g>
                        </g>
                        <g transform="translate(1.000000, 22.000000)" font-size="13" font-family="Helvetica" fill="#E82C0C" sketch:type="MSTextLayer" font-weight="normal">
                            <text id="6">
                                <tspan x="0" y="221.277256" fill="#000000">6</tspan>
                            </text>
                            <text id="1">
                                <tspan x="14" y="246.046209" fill="#000000">1</tspan>
                            </text>
                            <text id="0">
                                <tspan x="28" y="251" fill="#000000">0</tspan>
                            </text>
                            <text id="0">
                                <tspan x="42" y="251" fill="#000000">0</tspan>
                            </text>
                            <text id="1">
                                <tspan x="57" y="246.046209" fill="#000000">1</tspan>
                            </text>
                            <text id="1">
                                <tspan x="71" y="246.046209" fill="#000000">1</tspan>
                            </text>
                            <text id="1">
                                <tspan x="85" y="246.046209" fill="#000000">1</tspan>
                            </text>
                            <text id="1">
                                <tspan x="100" y="246.046209" fill="#000000">1</tspan>
                            </text>
                            <text id="2">
                                <tspan x="114" y="241.092419" fill="#000000">2</tspan>
                            </text>
                            <text id="3">
                                <tspan x="128" y="236.138628" fill="#000000">3</tspan>
                            </text>
                            <text id="8">
                                <tspan x="142" y="211.369674" fill="#000000">8</tspan>
                            </text>
                            <text id="2">
                                <tspan x="157" y="241.092419" fill="#000000">2</tspan>
                            </text>
                            <text id="3">
                                <tspan x="171" y="236.138628" fill="#000000">3</tspan>
                            </text>
                            <text id="6">
                                <tspan x="185" y="221.277256" fill="#000000">6</tspan>
                            </text>
                            <text id="3">
                                <tspan x="200" y="236.138628" fill="#000000">3</tspan>
                            </text>
                            <text id="10">
                                <tspan x="210.5" y="201.462093" fill="#000000">10</tspan>
                            </text>
                            <text id="3">
                                <tspan x="228" y="236.138628" fill="#000000">3</tspan>
                            </text>
                            <text id="12">
                                <tspan x="239.5" y="191.554511" fill="#000000">12</tspan>
                            </text>
                            <text id="10">
                                <tspan x="253.5" y="201.462093" fill="#000000">10</tspan>
                            </text>
                            <text id="16">
                                <tspan x="267.5" y="171.739348" fill="#000000">16</tspan>
                            </text>
                            <text id="48">
                                <tspan x="281.5" y="13.2180451" fill="#000000">48</tspan>
                            </text>
                            <text id="21">
                                <tspan x="296.5" y="146.970395" fill="#000000">21</tspan>
                            </text>
                            <text id="24">
                                <tspan x="310.5" y="132.109023" fill="#000000">24</tspan>
                            </text>
                            <text id="12">
                                <tspan x="324.5" y="191.554511" fill="#000000">12</tspan>
                            </text>
                            <text id="12">
                                <tspan x="339.5" y="191.554511" fill="#000000">12</tspan>
                            </text>
                            <text id="18">
                                <tspan x="353.5" y="161.831767" fill="#000000">18</tspan>
                            </text>
                            <text id="8">
                                <tspan x="371" y="211.369674" fill="#000000">8</tspan>
                            </text>
                            <text id="11">
                                <tspan x="383" y="196.508302" fill="#000000">11</tspan>
                            </text>
                            <text id="10">
                                <tspan x="396.5" y="201.462093" fill="#000000">10</tspan>
                            </text>
                            <text id="6">
                                <tspan x="414" y="221.277256" fill="#000000">6</tspan>
                            </text>
                            <text id="21">
                                <tspan x="424.5" y="146.970395" fill="#000000">21</tspan>
                            </text>
                            <text id="6">
                                <tspan x="443" y="221.277256" fill="#000000">6</tspan>
                            </text>
                            <text id="3">
                                <tspan x="457" y="236.138628" fill="#000000">3</tspan>
                            </text>
                            <text id="2">
                                <tspan x="471" y="241.092419" fill="#000000">2</tspan>
                            </text>
                            <text id="2">
                                <tspan x="486" y="241.092419" fill="#000000">2</tspan>
                            </text>
                            <text id="2">
                                <tspan x="500" y="241.092419" fill="#000000">2</tspan>
                            </text>
                            <text id="1">
                                <tspan x="514" y="246.046209" fill="#000000">1</tspan>
                            </text>
                            <text id="1">
                                <tspan x="529" y="246.046209" fill="#000000">1</tspan>
                            </text>
                            <text id="1">
                                <tspan x="543" y="246.046209" fill="#000000">1</tspan>
                            </text>
                            <text id="3">
                                <tspan x="557" y="236.138628" fill="#000000">3</tspan>
                            </text>
                            <text id="4">
                                <tspan x="571" y="231.184837" fill="#000000">4</tspan>
                            </text>
                            <text id="0">
                                <tspan x="586" y="251" fill="#000000">0</tspan>
                            </text>
                            <text id="1">
                                <tspan x="600" y="246.046209" fill="#000000">1</tspan>
                            </text>
                            <text id="1">
                                <tspan x="614" y="246.046209" fill="#000000">1</tspan>
                            </text>
                        </g>
                    </g>
                </g>
            </g>
        </g>
    </g>
</svg>