<?xml version="1.0" encoding="UTF-8" standalone="no"?>
<svg width="640px" height="264px" viewBox="0 0 640 264" version="1.1" xmlns="http://www.w3.org/2000/svg" xmlns:xlink="http://www.w3.org/1999/xlink" xmlns:sketch="http://www.bohemiancoding.com/sketch/ns">
    <!-- Generator: Sketch 3.3.3 (12081) - http://www.bohemiancoding.com/sketch -->
    <title>Artboard 1</title>
    <desc>Created with Sketch.</desc>
    <defs></defs>
    <g id="Page-1" stroke="none" stroke-width="1" fill="none" fill-rule="evenodd" sketch:type="MSPage">
        <g id="Artboard-1" sketch:type="MSArtboardGroup">
            <g id="graph" sketch:type="MSLayerGroup" transform="translate(5.000000, -18.000000)">
                <g id="Group" transform="translate(0.500000, 0.500000)">
                    <g>
                        <g transform="translate(1.000000, 0.000000)" id="Rectangle-path" fill="#000000" sketch:type="MSShapeGroup" fill-opacity="0">
                            <rect x="0.973214286" y="0" width="6.05357143" height="276"></rect>
                            <rect x="14.9732143" y="0" width="6.05357143" height="276"></rect>
                            <rect x="28.9732143" y="0" width="6.05357143" height="276"></rect>
                            <rect x="42.9732143" y="0" width="6.05357143" height="276"></rect>
                            <rect x="57.9732143" y="0" width="6.05357143" height="276"></rect>
                            <rect x="71.9732143" y="0" width="6.05357143" height="276"></rect>
                            <rect x="85.9732143" y="0" width="6.05357143" height="276"></rect>
                            <rect x="100.973214" y="0" width="6.05357143" height="276"></rect>
                            <rect x="114.973214" y="0" width="6.05357143" height="276"></rect>
                            <rect x="128.973214" y="0" width="6.05357143" height="276"></rect>
                            <rect x="142.973214" y="0" width="6.05357143" height="276"></rect>
                            <rect x="157.973214" y="0" width="6.05357143" height="276"></rect>
                            <rect x="171.973214" y="0" width="6.05357143" height="276"></rect>
                            <rect x="185.973214" y="0" width="6.05357143" height="276"></rect>
                            <rect x="200.973214" y="0" width="6.05357143" height="276"></rect>
                            <rect x="214.973214" y="0" width="6.05357143" height="276"></rect>
                            <rect x="228.973214" y="0" width="6.05357143" height="276"></rect>
                            <rect x="243.973214" y="0" width="6.05357143" height="276"></rect>
                            <rect x="257.973214" y="0" width="6.05357143" height="276"></rect>
                            <rect x="271.973214" y="0" width="6.05357143" height="276"></rect>
                            <rect x="285.973214" y="0" width="6.05357143" height="276"></rect>
                            <rect x="300.973214" y="0" width="6.05357143" height="276"></rect>
                            <rect x="314.973214" y="0" width="6.05357143" height="276"></rect>
                            <rect x="328.973214" y="0" width="6.05357143" height="276"></rect>
                            <rect x="343.973214" y="0" width="6.05357143" height="276"></rect>
                            <rect x="357.973214" y="0" width="6.05357143" height="276"></rect>
                            <rect x="371.973214" y="0" width="6.05357143" height="276"></rect>
                            <rect x="386.973214" y="0" width="6.05357143" height="276"></rect>
                            <rect x="400.973214" y="0" width="6.05357143" height="276"></rect>
                            <rect x="414.973214" y="0" width="6.05357143" height="276"></rect>
                            <rect x="428.973214" y="0" width="6.05357143" height="276"></rect>
                            <rect x="443.973214" y="0" width="6.05357143" height="276"></rect>
                            <rect x="457.973214" y="0" width="6.05357143" height="276"></rect>
                            <rect x="471.973214" y="0" width="6.05357143" height="276"></rect>
                            <rect x="486.973214" y="0" width="6.05357143" height="276"></rect>
                            <rect x="500.973214" y="0" width="6.05357143" height="276"></rect>
                            <rect x="514.973214" y="0" width="6.05357143" height="276"></rect>
                            <rect x="529.973214" y="0" width="6.05357143" height="276"></rect>
                            <rect x="543.973214" y="0" width="6.05357143" height="276"></rect>
                            <rect x="557.973214" y="0" width="6.05357143" height="276"></rect>
                            <rect x="571.973214" y="0" width="6.05357143" height="276"></rect>
                            <rect x="586.973214" y="0" width="6.05357143" height="276"></rect>
                            <rect x="600.973214" y="0" width="6.05357143" height="276"></rect>
                            <rect x="614.973214" y="0" width="6.05357143" height="276"></rect>
                            <rect x="629.973214" y="0" width="6.05357143" height="276"></rect>
                        </g>
                        <g transform="translate(0.000000, 25.000000)" id="Shape" stroke="#E82C0C" fill="#E82C0C" sketch:type="MSShapeGroup">
                            <path d="M0.459821429,251 L0.459821429,221.930233 L9.54017857,221.930233 L9.54017857,251 L0.459821429,251 Z"></path>
                            <path d="M14.4598214,251 L14.4598214,251 L23.5401786,251 L14.4598214,251 Z"></path>
                            <path d="M28.4598214,251 L28.4598214,251 L37.5401786,251 L28.4598214,251 Z"></path>
                            <path d="M42.4598214,251 L42.4598214,251 L51.5401786,251 L42.4598214,251 Z"></path>
                            <path d="M57.4598214,251 L57.4598214,245.186047 L66.5401786,245.186047 L66.5401786,251 L57.4598214,251 Z"></path>
                            <path d="M71.4598214,251 L71.4598214,251 L80.5401786,251 L71.4598214,251 Z"></path>
                            <path d="M85.4598214,251 L85.4598214,245.186047 L94.5401786,245.186047 L94.5401786,251 L85.4598214,251 Z"></path>
                            <path d="M100.459821,251 L100.459821,245.186047 L109.540179,245.186047 L109.540179,251 L100.459821,251 Z"></path>
                            <path d="M114.459821,251 L114.459821,239.372093 L123.540179,239.372093 L123.540179,251 L114.459821,251 Z"></path>
                            <path d="M128.459821,251 L128.459821,233.55814 L137.540179,233.55814 L137.540179,251 L128.459821,251 Z"></path>
                            <path d="M142.459821,251 L142.459821,216.116279 L151.540179,216.116279 L151.540179,251 L142.459821,251 Z"></path>
                            <path d="M157.459821,251 L157.459821,239.372093 L166.540179,239.372093 L166.540179,251 L157.459821,251 Z"></path>
                            <path d="M171.459821,251 L171.459821,233.55814 L180.540179,233.55814 L180.540179,251 L171.459821,251 Z"></path>
                            <path d="M185.459821,251 L185.459821,221.930233 L194.540179,221.930233 L194.540179,251 L185.459821,251 Z"></path>
                            <path d="M200.459821,251 L200.459821,239.372093 L209.540179,239.372093 L209.540179,251 L200.459821,251 Z"></path>
                            <path d="M214.459821,251 L214.459821,216.116279 L223.540179,216.116279 L223.540179,251 L214.459821,251 Z"></path>
                            <path d="M228.459821,251 L228.459821,233.55814 L237.540179,233.55814 L237.540179,251 L228.459821,251 Z"></path>
                            <path d="M243.459821,251 L243.459821,187.046512 L252.540179,187.046512 L252.540179,251 L243.459821,251 Z"></path>
                            <path d="M257.459821,251 L257.459821,198.674419 L266.540179,198.674419 L266.540179,251 L257.459821,251 Z"></path>
                            <path d="M271.459821,251 L271.459821,163.790698 L280.540179,163.790698 L280.540179,251 L271.459821,251 Z"></path>
                            <path d="M285.459821,251 L285.459821,1 L294.540179,1 L294.540179,251 L285.459821,251 Z"></path>
                            <path d="M300.459821,251 L300.459821,146.348837 L309.540179,146.348837 L309.540179,251 L300.459821,251 Z"></path>
                            <path d="M314.459821,251 L314.459821,134.72093 L323.540179,134.72093 L323.540179,251 L314.459821,251 Z"></path>
                            <path d="M328.459821,251 L328.459821,187.046512 L337.540179,187.046512 L337.540179,251 L328.459821,251 Z"></path>
                            <path d="M343.459821,251 L343.459821,192.860465 L352.540179,192.860465 L352.540179,251 L343.459821,251 Z"></path>
                            <path d="M357.459821,251 L357.459821,157.976744 L366.540179,157.976744 L366.540179,251 L357.459821,251 Z"></path>
                            <path d="M371.459821,251 L371.459821,204.488372 L380.540179,204.488372 L380.540179,251 L371.459821,251 Z"></path>
                            <path d="M386.459821,251 L386.459821,192.860465 L395.540179,192.860465 L395.540179,251 L386.459821,251 Z"></path>
                            <path d="M400.459821,251 L400.459821,198.674419 L409.540179,198.674419 L409.540179,251 L400.459821,251 Z"></path>
                            <path d="M414.459821,251 L414.459821,221.930233 L423.540179,221.930233 L423.540179,251 L414.459821,251 Z"></path>
                            <path d="M428.459821,251 L428.459821,134.72093 L437.540179,134.72093 L437.540179,251 L428.459821,251 Z"></path>
                            <path d="M443.459821,251 L443.459821,221.930233 L452.540179,221.930233 L452.540179,251 L443.459821,251 Z"></path>
                            <path d="M457.459821,251 L457.459821,233.55814 L466.540179,233.55814 L466.540179,251 L457.459821,251 Z"></path>
                            <path d="M471.459821,251 L471.459821,239.372093 L480.540179,239.372093 L480.540179,251 L471.459821,251 Z"></path>
                            <path d="M486.459821,251 L486.459821,245.186047 L495.540179,245.186047 L495.540179,251 L486.459821,251 Z"></path>
                            <path d="M500.459821,251 L500.459821,245.186047 L509.540179,245.186047 L509.540179,251 L500.459821,251 Z"></path>
                            <path d="M514.459821,251 L514.459821,245.186047 L523.540179,245.186047 L523.540179,251 L514.459821,251 Z"></path>
                            <path d="M529.459821,251 L529.459821,245.186047 L538.540179,245.186047 L538.540179,251 L529.459821,251 Z"></path>
                            <path d="M543.459821,251 L543.459821,245.186047 L552.540179,245.186047 L552.540179,251 L543.459821,251 Z"></path>
                            <path d="M557.459821,251 L557.459821,233.55814 L566.540179,233.55814 L566.540179,251 L557.459821,251 Z"></path>
                            <path d="M571.459821,251 L571.459821,233.55814 L580.540179,233.55814 L580.540179,251 L571.459821,251 Z"></path>
                            <path d="M586.459821,251 L586.459821,251 L595.540179,251 L586.459821,251 Z"></path>
                            <path d="M600.459821,251 L600.459821,251 L609.540179,251 L600.459821,251 Z"></path>
                            <path d="M614.459821,251 L614.459821,245.186047 L623.540179,245.186047 L623.540179,251 L614.459821,251 Z"></path>
                            <path d="M629.459821,251 L629.459821,251 L638.540179,251 L629.459821,251 Z"></path>
                        </g>
                        <g transform="translate(1.000000, 0.000000)"></g>
                        <g transform="translate(340.000000, 133.000000)">
                            <g></g>
                        </g>
                    </g>
                </g>
            </g>
        </g>
    </g>
</svg>