<svg width="1440" height="207" viewBox="0 0 1440 207" xmlns="http://www.w3.org/2000/svg"><title>Artboard 1</title><defs><linearGradient x1="50%" y1="0%" x2="50%" y2="100%" id="a"><stop stop-color="#FFF" stop-opacity=".75" offset="0%"/><stop stop-color="#FFF" stop-opacity=".9" offset="100%"/></linearGradient></defs><g fill="none" fill-rule="evenodd"><g transform="translate(0 -240)"><ellipse fill="#FFE11A" cx="10.013" cy="258.52" rx="7.813" ry="7.813"/><ellipse fill="#FFE11A" cx="50.292" cy="258.52" rx="7.813" ry="7.813"/><ellipse fill="#FFE11A" cx="90.571" cy="258.52" rx="7.813" ry="7.813"/><ellipse fill="#FFE11A" cx="130.85" cy="258.52" rx="7.813" ry="7.813"/><ellipse fill="#FFE11A" cx="10.013" cy="292.087" rx="7.813" ry="7.813"/><ellipse fill="#FFE11A" cx="50.292" cy="292.087" rx="7.813" ry="7.813"/><ellipse fill="#FFE11A" cx="90.571" cy="292.087" rx="7.813" ry="7.813"/><ellipse fill="#FFE11A" cx="130.85" cy="292.087" rx="7.813" ry="7.813"/><ellipse fill="#FFE11A" cx="171.129" cy="292.087" rx="7.813" ry="7.813"/><ellipse fill="#FFE11A" cx="211.408" cy="292.087" rx="7.813" ry="7.813"/><ellipse fill="#FFE11A" cx="251.687" cy="292.087" rx="7.813" ry="7.813"/><ellipse fill="#FFE11A" cx="10.013" cy="325.654" rx="7.813" ry="7.813"/><ellipse fill="#FFE11A" cx="50.292" cy="325.654" rx="7.813" ry="7.813"/><ellipse fill="#FFE11A" cx="90.571" cy="325.654" rx="7.813" ry="7.813"/><ellipse fill="#FFE11A" cx="130.85" cy="325.654" rx="7.813" ry="7.813"/><ellipse fill="#FFE11A" cx="171.129" cy="325.654" rx="7.813" ry="7.813"/><ellipse fill="#FFE11A" cx="211.408" cy="325.654" rx="7.813" ry="7.813"/><ellipse fill="#FFE11A" cx="251.687" cy="325.654" rx="7.813" ry="7.813"/><ellipse fill="#FFE11A" cx="291.966" cy="325.654" rx="7.813" ry="7.813"/><ellipse fill="#FFE11A" cx="332.245" cy="325.654" rx="7.813" ry="7.813"/><ellipse fill="#FFE11A" cx="372.524" cy="325.654" rx="7.813" ry="7.813"/><ellipse fill="#FFE11A" cx="412.803" cy="325.654" rx="7.813" ry="7.813"/><ellipse fill="#FFE11A" cx="10.013" cy="359.22" rx="7.813" ry="7.813"/><ellipse fill="#FFE11A" cx="50.292" cy="359.22" rx="7.813" ry="7.813"/><ellipse fill="#FFE11A" cx="90.571" cy="359.22" rx="7.813" ry="7.813"/><ellipse fill="#FFE11A" cx="130.85" cy="359.22" rx="7.813" ry="7.813"/><ellipse fill="#FFE11A" cx="171.129" cy="359.22" rx="7.813" ry="7.813"/><ellipse fill="#FFE11A" cx="211.408" cy="359.22" rx="7.813" ry="7.813"/><ellipse fill="#FFE11A" cx="10.013" cy="392.787" rx="7.813" ry="7.813"/><ellipse fill="#FFE11A" cx="50.292" cy="392.787" rx="7.813" ry="7.813"/><ellipse fill="#FFE11A" cx="10.013" cy="426.354" rx="7.813" ry="7.813"/><ellipse fill="#FFE11A" cx="50.292" cy="426.354" rx="7.813" ry="7.813"/><ellipse fill="#FFE11A" cx="90.571" cy="426.354" rx="7.813" ry="7.813"/><ellipse fill="#FFE11A" cx="130.85" cy="426.354" rx="7.813" ry="7.813"/><ellipse fill="#FFE11A" cx="171.129" cy="426.354" rx="7.813" ry="7.813"/><ellipse fill="#FFE11A" cx="211.408" cy="426.354" rx="7.813" ry="7.813"/><ellipse fill="#FFE11A" cx="251.687" cy="426.354" rx="7.813" ry="7.813"/><ellipse fill="#FFE11A" cx="291.966" cy="426.354" rx="7.813" ry="7.813"/><ellipse fill="#FFE11A" cx="332.245" cy="426.354" rx="7.813" ry="7.813"/><ellipse fill="#807F83" cx="171.129" cy="258.52" rx="7.813" ry="7.813"/><ellipse fill="#807F83" cx="211.408" cy="258.52" rx="7.813" ry="7.813"/><ellipse fill="#807F83" cx="251.687" cy="258.52" rx="7.813" ry="7.813"/><ellipse fill="#807F83" cx="291.966" cy="258.52" rx="7.813" ry="7.813"/><ellipse fill="#807F83" cx="291.966" cy="292.087" rx="7.813" ry="7.813"/><ellipse fill="#807F83" cx="332.245" cy="292.087" rx="7.813" ry="7.813"/><ellipse fill="#807F83" cx="372.524" cy="292.087" rx="7.813" ry="7.813"/><ellipse fill="#807F83" cx="251.687" cy="359.22" rx="7.813" ry="7.813"/><ellipse fill="#807F83" cx="291.966" cy="359.22" rx="7.813" ry="7.813"/><ellipse fill="#807F83" cx="90.571" cy="392.787" rx="7.813" ry="7.813"/><ellipse fill="#807F83" cx="130.85" cy="392.787" rx="7.813" ry="7.813"/><ellipse fill="#807F83" cx="171.129" cy="392.787" rx="7.813" ry="7.813"/><ellipse fill="#807F83" cx="211.408" cy="392.787" rx="7.813" ry="7.813"/><ellipse fill="#807F83" cx="251.687" cy="392.787" rx="7.813" ry="7.813"/><ellipse fill="#807F83" cx="372.524" cy="426.354" rx="7.813" ry="7.813"/><ellipse fill="#807F83" cx="412.803" cy="426.354" rx="7.813" ry="7.813"/><ellipse fill="#004358" cx="332.245" cy="258.52" rx="7.813" ry="7.813"/><ellipse fill="#004358" cx="372.524" cy="258.52" rx="7.813" ry="7.813"/><ellipse fill="#004358" cx="412.803" cy="258.52" rx="7.813" ry="7.813"/><ellipse fill="#004358" cx="453.082" cy="258.52" rx="7.813" ry="7.813"/><ellipse fill="#004358" cx="412.803" cy="292.087" rx="7.813" ry="7.813"/><ellipse fill="#004358" cx="453.082" cy="292.087" rx="7.813" ry="7.813"/><ellipse fill="#004358" cx="493.361" cy="292.087" rx="7.813" ry="7.813"/><ellipse fill="#004358" cx="332.245" cy="359.22" rx="7.813" ry="7.813"/><ellipse fill="#004358" cx="372.524" cy="359.22" rx="7.813" ry="7.813"/><ellipse fill="#004358" cx="291.966" cy="392.787" rx="7.813" ry="7.813"/><ellipse fill="#004358" cx="332.245" cy="392.787" rx="7.813" ry="7.813"/><ellipse fill="#004358" cx="372.524" cy="392.787" rx="7.813" ry="7.813"/><ellipse fill="#004358" cx="412.803" cy="392.787" rx="7.813" ry="7.813"/><ellipse fill="#004358" cx="453.082" cy="392.787" rx="7.813" ry="7.813"/><ellipse fill="#004358" cx="453.082" cy="426.354" rx="7.813" ry="7.813"/><ellipse fill="#004358" cx="493.361" cy="426.354" rx="7.813" ry="7.813"/><ellipse fill="#FD7400" cx="493.361" cy="258.52" rx="7.813" ry="7.813"/><ellipse fill="#FD7400" cx="533.641" cy="258.52" rx="7.813" ry="7.813"/><ellipse fill="#FD7400" cx="573.92" cy="258.52" rx="7.813" ry="7.813"/><ellipse fill="#FD7400" cx="533.641" cy="292.087" rx="7.813" ry="7.813"/><ellipse fill="#FD7400" cx="573.92" cy="292.087" rx="7.813" ry="7.813"/><ellipse fill="#FD7400" cx="614.199" cy="292.087" rx="7.813" ry="7.813"/><ellipse fill="#FD7400" cx="654.478" cy="292.087" rx="7.813" ry="7.813"/><ellipse fill="#FD7400" cx="694.757" cy="292.087" rx="7.813" ry="7.813"/><ellipse fill="#FD7400" cx="735.036" cy="292.087" rx="7.813" ry="7.813"/><ellipse fill="#FD7400" cx="775.315" cy="292.087" rx="7.813" ry="7.813"/><ellipse fill="#FD7400" cx="815.594" cy="292.087" rx="7.813" ry="7.813"/><ellipse fill="#FD7400" cx="453.082" cy="325.654" rx="7.813" ry="7.813"/><ellipse fill="#FD7400" cx="493.361" cy="325.654" rx="7.813" ry="7.813"/><ellipse fill="#FD7400" cx="533.641" cy="325.654" rx="7.813" ry="7.813"/><ellipse fill="#FD7400" cx="573.92" cy="325.654" rx="7.813" ry="7.813"/><ellipse fill="#FD7400" cx="614.199" cy="325.654" rx="7.813" ry="7.813"/><ellipse fill="#FD7400" cx="654.478" cy="325.654" rx="7.813" ry="7.813"/><ellipse fill="#FD7400" cx="694.757" cy="325.654" rx="7.813" ry="7.813"/><ellipse fill="#FD7400" cx="735.036" cy="325.654" rx="7.813" ry="7.813"/><ellipse fill="#FD7400" cx="775.315" cy="325.654" rx="7.813" ry="7.813"/><ellipse fill="#FD7400" cx="815.594" cy="325.654" rx="7.813" ry="7.813"/><ellipse fill="#FD7400" cx="855.873" cy="325.654" rx="7.813" ry="7.813"/><ellipse fill="#FD7400" cx="896.152" cy="325.654" rx="7.813" ry="7.813"/><ellipse fill="#FD7400" cx="936.431" cy="325.654" rx="7.813" ry="7.813"/><ellipse fill="#FD7400" cx="976.71" cy="325.654" rx="7.813" ry="7.813"/><ellipse fill="#FD7400" cx="1016.989" cy="325.654" rx="7.813" ry="7.813"/><ellipse fill="#FD7400" cx="1057.268" cy="325.654" rx="7.813" ry="7.813"/><ellipse fill="#FD7400" cx="1097.547" cy="325.654" rx="7.813" ry="7.813"/><ellipse fill="#FD7400" cx="1137.827" cy="325.654" rx="7.813" ry="7.813"/><ellipse fill="#FD7400" cx="1178.106" cy="325.654" rx="7.813" ry="7.813"/><ellipse fill="#FD7400" cx="1218.385" cy="325.654" rx="7.813" ry="7.813"/><ellipse fill="#FD7400" cx="1258.664" cy="325.654" rx="7.813" ry="7.813"/><ellipse fill="#FD7400" cx="1298.943" cy="325.654" rx="7.813" ry="7.813"/><ellipse fill="#FD7400" cx="1339.222" cy="325.654" rx="7.813" ry="7.813"/><ellipse fill="#FD7400" cx="1379.501" cy="325.654" rx="7.813" ry="7.813"/><ellipse fill="#FD7400" cx="412.803" cy="359.22" rx="7.813" ry="7.813"/><ellipse fill="#FD7400" cx="453.082" cy="359.22" rx="7.813" ry="7.813"/><ellipse fill="#FD7400" cx="493.361" cy="359.22" rx="7.813" ry="7.813"/><ellipse fill="#FD7400" cx="533.641" cy="359.22" rx="7.813" ry="7.813"/><ellipse fill="#FD7400" cx="573.92" cy="359.22" rx="7.813" ry="7.813"/><ellipse fill="#FD7400" cx="614.199" cy="359.22" rx="7.813" ry="7.813"/><ellipse fill="#FD7400" cx="654.478" cy="359.22" rx="7.813" ry="7.813"/><ellipse fill="#FD7400" cx="694.757" cy="359.22" rx="7.813" ry="7.813"/><ellipse fill="#FD7400" cx="735.036" cy="359.22" rx="7.813" ry="7.813"/><ellipse fill="#FD7400" cx="493.361" cy="392.787" rx="7.813" ry="7.813"/><ellipse fill="#FD7400" cx="533.641" cy="392.787" rx="7.813" ry="7.813"/><ellipse fill="#FD7400" cx="573.92" cy="392.787" rx="7.813" ry="7.813"/><ellipse fill="#FD7400" cx="614.199" cy="392.787" rx="7.813" ry="7.813"/><ellipse fill="#FD7400" cx="654.478" cy="392.787" rx="7.813" ry="7.813"/><ellipse fill="#FD7400" cx="694.757" cy="392.787" rx="7.813" ry="7.813"/><ellipse fill="#FD7400" cx="735.036" cy="392.787" rx="7.813" ry="7.813"/><ellipse fill="#FD7400" cx="533.641" cy="426.354" rx="7.813" ry="7.813"/><ellipse fill="#FD7400" cx="573.92" cy="426.354" rx="7.813" ry="7.813"/><ellipse fill="#FD7400" cx="614.199" cy="426.354" rx="7.813" ry="7.813"/><ellipse fill="#FD7400" cx="654.478" cy="426.354" rx="7.813" ry="7.813"/><ellipse fill="#FD7400" cx="694.757" cy="426.354" rx="7.813" ry="7.813"/><ellipse fill="#FD7400" cx="735.036" cy="426.354" rx="7.813" ry="7.813"/><ellipse fill="#FD7400" cx="775.315" cy="426.354" rx="7.813" ry="7.813"/><ellipse fill="#FD7400" cx="815.594" cy="426.354" rx="7.813" ry="7.813"/><ellipse fill="#FD7400" cx="855.873" cy="426.354" rx="7.813" ry="7.813"/><ellipse fill="#FD7400" cx="896.152" cy="426.354" rx="7.813" ry="7.813"/><ellipse fill="#FD7400" cx="936.431" cy="426.354" rx="7.813" ry="7.813"/><ellipse fill="#FD7400" cx="976.71" cy="426.354" rx="7.813" ry="7.813"/><ellipse fill="#FD7400" cx="1016.989" cy="426.354" rx="7.813" ry="7.813"/><ellipse fill="#FD7400" cx="1057.268" cy="426.354" rx="7.813" ry="7.813"/><ellipse fill="#FD7400" cx="1097.547" cy="426.354" rx="7.813" ry="7.813"/><ellipse fill="#FD7400" cx="1137.827" cy="426.354" rx="7.813" ry="7.813"/><ellipse fill="#FD7400" cx="1178.106" cy="426.354" rx="7.813" ry="7.813"/></g><path d="M3.183 206.274H182.52l44.57-4.963H317.287l44.57-7.442h89.138l44.568-12.406H719.47l45.63-12.406 44.568-2.704h44.57l44.568-22.95h45.63l44.57-.174 44.568-16.128h89.138l45.63-8.808h44.57l44.568-15.383 44.57-1.837 45.63-.447 44.568-2.73 44.57-4.465" stroke="#FF7F0E" fill="none"/><path d="M3.183 206.274H182.52l44.57-4.963H317.287l44.57-7.442h89.138l44.568-12.406H719.47l45.63-12.406 44.568-2.704h44.57l44.568-22.95h45.63l44.57-.174 44.568-16.128h89.138l45.63-8.808h44.57l44.568-15.383 44.57-1.837 45.63-.447 44.568-2.73 44.57-4.465v132.693H3.182v-19.85z" opacity=".2" fill="#FF7F0E"/><path d="M3.183 206.274l44.57-1.33 44.568.963 45.63-.03 44.57-.29 44.57-2.245 44.568-.947 45.63-1.22 44.57-2.84 44.568-10.17 44.57-8.52 44.568-10.428 45.63-5.863 44.57-.428 44.568-.412 44.57-.702 44.567 2.672 45.63 2.046 44.568-.932 44.57 1.603 44.568-6.534 45.63-18.98 44.57-11.94 44.568-7.48 44.57-.764 44.568-10.153 45.63-7.788 44.57-28.537 44.568-21.117 44.57-29.04 45.63-.29 44.568-.337 44.57-1.45" stroke="#1F77B4" fill="none"/><path d="M3.183 206.274l44.57-1.33 44.568.963 45.63-.03 44.57-.29 44.57-2.245 44.568-.947 45.63-1.22 44.57-2.84 44.568-10.17 44.57-8.52 44.568-10.428 45.63-5.863 44.57-.428 44.568-.412 44.57-.702 44.567 2.672 45.63 2.046 44.568-.932 44.57 1.603 44.568-6.534 45.63-18.98 44.57-11.94 44.568-7.48 44.57-.764 44.568-10.153 45.63-7.788 44.57-28.537 44.568-21.117 44.57-29.04 45.63-.29 44.568-.337 44.57-1.45v203.333H3.182v-19.85z" opacity=".2" fill-opacity=".33" fill="#1F77B4"/><g transform="translate(0 91.047)" fill="#FF7F0E"><ellipse cx="3.183" cy="115.227" rx="2.653" ry="2.193"/><ellipse cx="47.752" cy="115.227" rx="2.653" ry="2.193"/><ellipse cx="92.321" cy="115.227" rx="2.653" ry="2.193"/><ellipse cx="137.951" cy="115.227" rx="2.653" ry="2.193"/><ellipse cx="182.52" cy="115.227" rx="2.653" ry="2.193"/><ellipse cx="227.089" cy="110.265" rx="2.653" ry="2.193"/><ellipse cx="271.658" cy="110.265" rx="2.653" ry="2.193"/><ellipse cx="317.288" cy="110.265" rx="2.653" ry="2.193"/><ellipse cx="361.857" cy="102.821" rx="2.653" ry="2.193"/><ellipse cx="406.426" cy="102.821" rx="2.653" ry="2.193"/><ellipse cx="450.995" cy="102.821" rx="2.653" ry="2.193"/><ellipse cx="495.564" cy="90.416" rx="2.653" ry="2.193"/><ellipse cx="541.194" cy="90.416" rx="2.653" ry="2.193"/><ellipse cx="585.763" cy="90.416" rx="2.653" ry="2.193"/><ellipse cx="630.332" cy="90.416" rx="2.653" ry="2.193"/><ellipse cx="674.901" cy="90.416" rx="2.653" ry="2.193"/><ellipse cx="719.469" cy="90.416" rx="2.653" ry="2.193"/><ellipse cx="765.099" cy="78.01" rx="2.653" ry="2.193"/><ellipse cx="809.668" cy="75.305" rx="2.653" ry="2.193"/><ellipse cx="854.237" cy="75.305" rx="2.653" ry="2.193"/><ellipse cx="898.806" cy="52.355" rx="2.653" ry="2.193"/><ellipse cx="944.436" cy="52.355" rx="2.653" ry="2.193"/><ellipse cx="989.005" cy="52.181" rx="2.653" ry="2.193"/><ellipse cx="1033.574" cy="36.054" rx="2.653" ry="2.193"/><ellipse cx="1078.143" cy="36.054" rx="2.653" ry="2.193"/><ellipse cx="1122.712" cy="36.054" rx="2.653" ry="2.193"/><ellipse cx="1168.342" cy="27.246" rx="2.653" ry="2.193"/><ellipse cx="1212.911" cy="27.246" rx="2.653" ry="2.193"/><ellipse cx="1257.48" cy="11.862" rx="2.653" ry="2.193"/><ellipse cx="1302.049" cy="10.026" rx="2.653" ry="2.193"/><ellipse cx="1347.679" cy="9.58" rx="2.653" ry="2.193"/><ellipse cx="1392.248" cy="6.851" rx="2.653" ry="2.193"/><ellipse cx="1436.817" cy="2.384" rx="2.653" ry="2.193"/></g><g fill="#1F77B4" transform="translate(0 20)"><ellipse cx="3.183" cy="186.274" rx="2.653" ry="2.193"/><ellipse cx="47.752" cy="184.945" rx="2.653" ry="2.193"/><ellipse cx="92.321" cy="185.907" rx="2.653" ry="2.193"/><ellipse cx="137.951" cy="185.877" rx="2.653" ry="2.193"/><ellipse cx="182.52" cy="185.587" rx="2.653" ry="2.193"/><ellipse cx="227.089" cy="183.342" rx="2.653" ry="2.193"/><ellipse cx="271.658" cy="182.395" rx="2.653" ry="2.193"/><ellipse cx="317.288" cy="181.174" rx="2.653" ry="2.193"/><ellipse cx="361.857" cy="178.334" rx="2.653" ry="2.193"/><ellipse cx="406.426" cy="168.165" rx="2.653" ry="2.193"/><ellipse cx="450.995" cy="159.645" rx="2.653" ry="2.193"/><ellipse cx="495.564" cy="149.217" rx="2.653" ry="2.193"/><ellipse cx="541.194" cy="143.354" rx="2.653" ry="2.193"/><ellipse cx="585.763" cy="142.926" rx="2.653" ry="2.193"/><ellipse cx="630.332" cy="142.514" rx="2.653" ry="2.193"/><ellipse cx="674.901" cy="141.812" rx="2.653" ry="2.193"/><ellipse cx="719.469" cy="144.484" rx="2.653" ry="2.193"/><ellipse cx="765.099" cy="146.53" rx="2.653" ry="2.193"/><ellipse cx="809.668" cy="145.598" rx="2.653" ry="2.193"/><ellipse cx="854.237" cy="147.201" rx="2.653" ry="2.193"/><ellipse cx="898.806" cy="140.666" rx="2.653" ry="2.193"/><ellipse cx="944.436" cy="121.687" rx="2.653" ry="2.193"/><ellipse cx="989.005" cy="109.747" rx="2.653" ry="2.193"/><ellipse cx="1033.574" cy="102.266" rx="2.653" ry="2.193"/><ellipse cx="1078.143" cy="101.502" rx="2.653" ry="2.193"/><ellipse cx="1122.712" cy="91.349" rx="2.653" ry="2.193"/><ellipse cx="1168.342" cy="83.562" rx="2.653" ry="2.193"/><ellipse cx="1212.911" cy="55.025" rx="2.653" ry="2.193"/><ellipse cx="1257.48" cy="33.908" rx="2.653" ry="2.193"/><ellipse cx="1302.049" cy="4.867" rx="2.653" ry="2.193"/><ellipse cx="1347.679" cy="4.577" rx="2.653" ry="2.193"/><ellipse cx="1392.248" cy="4.241" rx="2.653" ry="2.193"/><ellipse cx="1436.817" cy="2.791" rx="2.653" ry="2.193"/></g><g transform="rotate(-180 708 128)"><path d="M326.155 317.535L479.06 28.7M326.155 317.535L465.898 28.627M326.155 317.535l-48.208-163.507M326.155 317.535L483.808 79.103M326.155 317.535l80.117-192.276M326.155 317.535L179.142 121.443M326.155 317.535L268.548 35.92M326.155 317.535l26.736-73.63M326.155 317.535l92.35-272.102M326.155 317.535l59.517-199.527M326.155 317.535L383.15 196.88M326.155 317.535l21.333-287.158M326.155 317.535L190.668 26.94M326.155 317.535l.608-287.934M326.155 317.535L266.4 118.26M326.155 317.535L120.208 120.76M326.155 317.535L312.03 184.96M326.155 317.535L146.638 95.818M326.155 317.535l305.722-195.037M326.155 317.535L438.113 96.807M326.155 317.535l62.237-239.447M326.155 317.535l-35.84-91.446M326.155 317.535L463.623 217.2M326.155 317.535L25.187 114.82M326.155 317.535l-92.59-186.35M326.155 317.535l20.05-168.793M326.155 317.535l37.955-204.77M326.155 317.535L86.965 165.34M326.155 317.535l-20.69-75.393M326.155 317.535l-75.35-153.026M326.155 317.535L170.678 78.005M326.155 317.535l215.497-186.603M326.155 317.535l15.42-132.27M326.155 317.535l-71.983-112.458M326.155 317.535L290.92 247.56M326.155 317.535L229.56 225.43M326.155 317.535L106.705 29.483M326.155 317.535l82.713-104.55M326.155 317.535l54.65-161.184M326.155 317.535L311.083 147.98M326.155 317.535l-11.45-76.67M326.155 317.535l15.23-207.675M326.155 317.535L445.69 146.81M326.155 317.535L149.047 148.787M326.155 317.535L515.595 52.33M326.155 317.535L247.505 41.36M326.155 317.535l-13.025-97.45M326.155 317.535l42.51-284.747M326.155 317.535l-28.86-130.357M326.155 317.535L287.57 32.475M326.155 317.535l-47.177-86.288M326.155 317.535l-33.693-61.768M326.155 317.535l-104.12-266.85M326.155 317.535l-24.433-94.97M326.155 317.535L125.265 178.99M326.155 317.535l177.89-170.458M326.155 317.535l-16.62-66.706M326.155 317.535L64.833 211.305M326.155 317.535l66.602-71.993M326.155 317.535l156.95-136.13M326.155 317.535l178.388-105.958M326.155 317.535L193.587 210.278M326.155 317.535L194.62 64.14M326.155 317.535L306.905 30.34M326.155 317.535l-57.84-120.526M326.155 317.535l4.74-247.005M326.155 317.535l115.015-125.36M326.155 317.535l-1.25-98.093M326.155 317.535L41.098 34.922M326.155 317.535l-67.036-71.782M326.155 317.535l56.258-80.464M326.155 317.535l33.802-91.997M326.155 317.535L176.76 27.212M326.155 317.535l44.095-64.333M326.155 317.535l100.775-182.41M326.155 317.535l-23.27-62.096M326.155 317.535L429.72 233.73M326.155 317.535l43.31-125.99M326.155 317.535l258.658-114.243M326.155 317.535l137.26-156.38M326.155 317.535l7.743-67.315M326.155 317.535L210.527 191.952M326.155 317.535l.755-133.194M326.155 317.535L282.845 191.2M326.155 317.535l-34.09-205.608M326.155 317.535l10.452-97.53M326.155 317.535l-2.044-78.144M326.155 317.535l-97.013-140.54M326.155 317.535l-42.784-65.263M326.155 317.535l-149.372-81.53M326.155 317.535l-106.662-80.313M326.155 317.535L520.83 248.76M326.155 317.535l29.398-129.94M326.155 317.535l-74.707-234.84M326.155 317.535l-.694-70.172M326.155 317.535L391.73 37.29M326.155 317.535l155.836-67.802M326.155 317.535l-115.24-67.372M326.155 317.535l93.774-94.705M326.155 317.535l-9.49-208.04M326.155 317.535l70.625-113.21M326.155 317.535l111.967-71.948M326.155 317.535l16.898-76.765M326.155 317.535l25.84-65.395M326.155 317.535l-76.09-62.487M326.155 317.535l7.492-76.804M326.155 317.535l-57.302-79.756M326.155 317.535l35.913-69.34M326.155 317.535l87.162-146.21M326.155 317.535l45.357-86.936M326.155 317.535l76.087-61.818M326.155 317.535l-27.09-70.333M326.155 317.535l-8.59-67.938M326.155 317.535l22.28-95.6M326.155 317.535l16.622-69.02M326.155 317.535l-84.87-102.897" stroke="#00EDFF" stroke-width="2" fill="#000"/><ellipse fill="#0A03BF" cx="479.061" cy="28.702" rx="22.316" ry="22.327"/><ellipse fill="#0A03BF" cx="465.898" cy="28.661" rx="22.234" ry="22.245"/><ellipse fill="#0A03BF" cx="277.947" cy="154.028" rx="9.51" ry="9.514"/><ellipse fill="#0A03BF" cx="483.808" cy="79.103" rx="16.933" ry="16.941"/><ellipse fill="#0A03BF" cx="406.272" cy="125.259" rx="10.263" ry="10.268"/><ellipse fill="#0A03BF" cx="179.142" cy="121.443" rx="12.047" ry="12.053"/><ellipse fill="#0A03BF" cx="268.548" cy="35.921" rx="15.972" ry="15.98"/><ellipse fill="#0A03BF" cx="352.891" cy="243.906" rx="2.849" ry="2.851"/><ellipse fill="#0A03BF" cx="418.505" cy="45.433" rx="13.186" ry="13.192"/><ellipse fill="#0A03BF" cx="385.672" cy="118.008" rx="11.031" ry="11.036"/><ellipse fill="#0A03BF" cx="383.149" cy="196.879" rx="6.54" ry="6.543"/><ellipse fill="#0A03BF" cx="266.4" cy="118.259" rx="10.361" ry="10.366"/><ellipse fill="#0A03BF" cx="120.208" cy="120.759" rx="14.739" ry="14.746"/><ellipse fill="#0A03BF" cx="312.031" cy="184.959" rx="7.381" ry="7.384"/><ellipse fill="#0A03BF" cx="146.638" cy="95.818" rx="13.521" ry="13.527"/><ellipse fill="#0A03BF" cx="631.877" cy="122.498" rx="23.689" ry="23.7"/><ellipse fill="#0A03BF" cx="438.113" cy="96.807" rx="12.733" ry="12.739"/><ellipse fill="#0A03BF" cx="388.392" cy="78.088" rx="12.218" ry="12.223"/><ellipse fill="#0A03BF" cx="290.316" cy="226.089" rx="4.736" ry="4.738"/><ellipse fill="#0A03BF" cx="463.623" cy="217.2" rx="8.692" ry="8.697"/><ellipse fill="#0A03BF" cx="25.187" cy="114.819" rx="24.836" ry="24.848"/><ellipse fill="#0A03BF" cx="233.566" cy="131.184" rx="10.975" ry="10.98"/><ellipse fill="#0A03BF" cx="346.205" cy="148.742" rx="8.521" ry="8.525"/><ellipse fill="#0A03BF" cx="364.11" cy="112.765" rx="10.9" ry="10.905"/><ellipse fill="#0A03BF" cx="86.966" cy="165.339" rx="15.785" ry="15.792"/><ellipse fill="#0A03BF" cx="305.466" cy="242.142" rx="2.628" ry="2.63"/><ellipse fill="#0A03BF" cx="250.805" cy="164.509" rx="9.4" ry="9.405"/><ellipse fill="#0A03BF" cx="170.678" cy="78.005" rx="14.112" ry="14.119"/><ellipse fill="#0A03BF" cx="541.652" cy="130.932" rx="15.28" ry="15.287"/><ellipse fill="#0A03BF" cx="341.574" cy="185.265" rx="7.945" ry="7.949"/><ellipse fill="#0A03BF" cx="254.172" cy="205.077" rx="8.23" ry="8.233"/><ellipse fill="#0A03BF" cx="290.92" cy="247.559" rx="2.894" ry="2.895"/><ellipse fill="#0A03BF" cx="229.56" cy="225.429" rx="6.979" ry="6.983"/><ellipse fill="#0A03BF" cx="325.398" cy="256.407" rx="2.752" ry="2.754"/><ellipse fill="#0A03BF" cx="106.705" cy="29.504" rx="23.921" ry="23.932"/><ellipse fill="#0A03BF" cx="408.868" cy="212.986" rx="6.751" ry="6.754"/><ellipse fill="#0A03BF" cx="380.806" cy="156.351" rx="9.134" ry="9.138"/><ellipse fill="#0A03BF" cx="311.083" cy="147.98" rx="9.342" ry="9.347"/><ellipse fill="#0A03BF" cx="314.705" cy="240.864" rx="2.61" ry="2.611"/><ellipse fill="#0A03BF" cx="341.385" cy="109.86" rx="10.299" ry="10.304"/><ellipse fill="#0A03BF" cx="445.69" cy="146.809" rx="10.394" ry="10.399"/><ellipse fill="#0A03BF" cx="149.047" cy="148.787" rx="12.169" ry="12.175"/><ellipse fill="#0A03BF" cx="515.594" cy="52.331" rx="22.371" ry="22.382"/><ellipse fill="#0A03BF" cx="247.506" cy="41.361" rx="16.417" ry="16.424"/><ellipse fill="#0A03BF" cx="313.13" cy="220.086" rx="4.331" ry="4.333"/><ellipse fill="#0A03BF" cx="297.294" cy="187.178" rx="6.596" ry="6.599"/><ellipse fill="#0A03BF" cx="278.978" cy="231.247" rx="5.019" ry="5.021"/><ellipse fill="#0A03BF" cx="292.462" cy="255.767" rx="2.754" ry="2.756"/><ellipse fill="#0A03BF" cx="222.034" cy="50.685" rx="13.46" ry="13.466"/><ellipse fill="#0A03BF" cx="50.735" cy="263.751" rx="15.884" ry="15.891"/><ellipse fill="#0A03BF" cx="129.492" cy="259.239" rx="10.338" ry="10.343"/><ellipse fill="#0A03BF" cx="301.722" cy="222.566" rx="4.402" ry="4.404"/><ellipse fill="#0A03BF" cx="125.266" cy="178.991" rx="12.241" ry="12.246"/><ellipse fill="#0A03BF" cx="504.046" cy="147.077" rx="12.764" ry="12.77"/><ellipse fill="#0A03BF" cx="309.534" cy="250.829" rx="2.429" ry="2.43"/><ellipse fill="#0A03BF" cx="64.833" cy="211.306" rx="13.253" ry="13.259"/><ellipse fill="#0A03BF" cx="392.757" cy="245.542" rx="4.435" ry="4.437"/><ellipse fill="#0A03BF" cx="483.105" cy="181.404" rx="11.141" ry="11.147"/><ellipse fill="#0A03BF" cx="504.543" cy="211.577" rx="10.634" ry="10.639"/><ellipse fill="#0A03BF" cx="193.587" cy="210.278" rx="8.412" ry="8.416"/><ellipse fill="#0A03BF" cx="194.62" cy="64.139" rx="14.564" ry="14.571"/><ellipse fill="#0A03BF" cx="268.314" cy="197.009" rx="7.635" ry="7.639"/><ellipse fill="#0A03BF" cx="330.895" cy="70.53" rx="11.758" ry="11.763"/><ellipse fill="#0A03BF" cx="441.17" cy="192.174" rx="9.515" ry="9.52"/><ellipse fill="#0A03BF" cx="324.905" cy="219.442" rx="4.551" ry="4.553"/><ellipse fill="#0A03BF" cx="41.098" cy="34.945" rx="34.797" ry="34.813"/><ellipse fill="#0A03BF" cx="259.119" cy="245.753" rx="5.532" ry="5.534"/><ellipse fill="#0A03BF" cx="382.413" cy="237.071" rx="4.7" ry="4.702"/><ellipse fill="#0A03BF" cx="445.141" cy="258.089" rx="7.189" ry="7.193"/><ellipse fill="#0A03BF" cx="359.957" cy="225.538" rx="4.5" ry="4.502"/><ellipse fill="#0A03BF" cx="370.25" cy="253.202" rx="3.99" ry="3.992"/><ellipse fill="#0A03BF" cx="426.93" cy="135.125" rx="10.883" ry="10.888"/><ellipse fill="#0A03BF" cx="342.84" cy="257.052" rx="2.216" ry="2.217"/><ellipse fill="#0A03BF" cx="302.884" cy="255.439" rx="2.852" ry="2.853"/><ellipse fill="#0A03BF" cx="429.719" cy="233.73" rx="7.22" ry="7.223"/><ellipse fill="#0A03BF" cx="377.612" cy="258.153" rx="3.806" ry="3.807"/><ellipse fill="#0A03BF" cx="369.464" cy="191.544" rx="7.461" ry="7.465"/><ellipse fill="#0A03BF" cx="584.813" cy="203.292" rx="14.759" ry="14.766"/><ellipse fill="#0A03BF" cx="463.415" cy="161.156" rx="10.957" ry="10.962"/><ellipse fill="#0A03BF" cx="333.898" cy="250.22" rx="2.889" ry="2.89"/><ellipse fill="#0A03BF" cx="210.527" cy="191.952" rx="9.558" ry="9.562"/><ellipse fill="#0A03BF" cx="326.91" cy="184.341" rx="6.531" ry="6.534"/><ellipse fill="#0A03BF" cx="282.844" cy="191.201" rx="7.705" ry="7.709"/><ellipse fill="#0A03BF" cx="292.066" cy="111.927" rx="11.349" ry="11.354"/><ellipse fill="#0A03BF" cx="336.607" cy="220.006" rx="5.087" ry="5.089"/><ellipse fill="#0A03BF" cx="324.111" cy="239.391" rx="2.288" ry="2.29"/><ellipse fill="#0A03BF" cx="229.142" cy="176.996" rx="9.927" ry="9.932"/><ellipse fill="#0A03BF" cx="283.371" cy="252.272" rx="3.02" ry="3.022"/><ellipse fill="#0A03BF" cx="176.783" cy="236.006" rx="8.827" ry="8.831"/><ellipse fill="#0A03BF" cx="219.493" cy="237.222" rx="6.077" ry="6.08"/><ellipse fill="#0A03BF" cx="520.829" cy="248.76" rx="10.982" ry="10.987"/><ellipse fill="#0A03BF" cx="355.553" cy="187.594" rx="6.068" ry="6.071"/><ellipse fill="#0A03BF" cx="251.448" cy="82.696" rx="12.619" ry="12.625"/><ellipse fill="#0A03BF" cx="325.461" cy="247.363" rx="2.134" ry="2.135"/><ellipse fill="#0A03BF" cx="391.731" cy="37.289" rx="14.637" ry="14.644"/><ellipse fill="#0A03BF" cx="481.991" cy="249.733" rx="8.809" ry="8.813"/><ellipse fill="#0A03BF" cx="210.916" cy="250.163" rx="6.514" ry="6.517"/><ellipse fill="#0A03BF" cx="419.929" cy="222.83" rx="6.334" ry="6.337"/><ellipse fill="#0A03BF" cx="316.665" cy="109.496" rx="11.428" ry="11.434"/><ellipse fill="#0A03BF" cx="396.78" cy="204.324" rx="6.201" ry="6.204"/><ellipse fill="#0A03BF" cx="438.122" cy="245.587" rx="6.922" ry="6.925"/><ellipse fill="#0A03BF" cx="343.053" cy="240.77" rx="2.29" ry="2.291"/><ellipse fill="#0A03BF" cx="351.994" cy="252.14" rx="2.451" ry="2.453"/><ellipse fill="#0A03BF" cx="250.065" cy="255.048" rx="4.519" ry="4.521"/><ellipse fill="#0A03BF" cx="276.056" cy="257.366" rx="3.864" ry="3.866"/><ellipse fill="#0A03BF" cx="333.647" cy="240.731" rx="2.443" ry="2.444"/><ellipse fill="#0A03BF" cx="268.853" cy="237.779" rx="4.853" ry="4.856"/><ellipse fill="#0A03BF" cx="362.068" cy="248.196" rx="3.366" ry="3.368"/><ellipse fill="#0A03BF" cx="360.756" cy="256.628" rx="2.683" ry="2.684"/><ellipse fill="#0A03BF" cx="413.317" cy="171.326" rx="8.419" ry="8.423"/><ellipse fill="#0A03BF" cx="371.512" cy="230.599" rx="4.953" ry="4.956"/><ellipse fill="#0A03BF" cx="402.242" cy="255.717" rx="5.028" ry="5.031"/><ellipse fill="#0A03BF" cx="299.066" cy="247.202" rx="2.575" ry="2.576"/><ellipse fill="#0A03BF" cx="317.564" cy="249.597" rx="1.979" ry="1.98"/><ellipse fill="#0A03BF" cx="348.435" cy="221.936" rx="5.351" ry="5.354"/><ellipse fill="#0A03BF" cx="342.777" cy="248.515" rx="2.543" ry="2.545"/><ellipse fill="#0A03BF" cx="241.284" cy="214.638" rx="6.14" ry="6.143"/></g><g fill="#000"><path d="M370.866 169.632l-2.1-18.556M368.767 151.076l-6.195-17.625M362.572 133.45l-9.978-15.81M352.594 117.64l-13.262-13.205M339.332 104.435l-15.88-9.935M323.452 94.5l-17.703-6.167M305.75 88.333l-18.638-2.09M287.112 86.242l-18.637 2.09M268.475 88.333L250.772 94.5M250.772 94.5l-15.88 9.935M234.892 104.435L221.63 117.64M221.63 117.64l-9.978 15.81M211.652 133.45l-6.194 17.626M205.458 151.076l-2.1 18.556M203.358 169.632l2.1 18.557M205.458 188.19l6.194 17.624M211.652 205.814l9.978 15.812M352.594 221.626l9.978-15.812M362.572 205.814l6.195-17.625M368.767 188.19l2.1-18.558"/></g><g fill="#000"><path d="M454.62 169.632l-4.2-37.112M450.42 132.52l-12.388-35.25M438.032 97.27l-19.956-31.624M418.076 65.646l-26.524-26.408M391.552 39.238l-31.76-19.87M359.79 19.368L324.387 7.033M324.386 7.033L287.112 2.85M287.112 2.85l-37.274 4.183M249.838 7.033l-35.405 12.335M214.433 19.368l-31.76 19.87M182.672 39.238l-26.524 26.408M156.148 65.646L136.192 97.27M136.192 97.27l-12.39 35.25M123.803 132.52l-4.2 37.112M119.603 169.632l4.2 37.113M123.803 206.745l12.39 35.25M438.032 241.996l12.39-35.25M450.42 206.745l4.2-37.113"/></g><path d="M287.112 169.632h167.51M287.112 169.632l163.31-37.112M287.112 169.632l150.92-72.363M287.112 169.632L418.076 65.646M287.112 169.632l104.44-130.394M287.112 169.632l72.68-150.264M287.112 169.632l37.274-162.6M287.112 169.632V2.852M287.112 169.632l-37.274-162.6M287.112 169.632l-72.68-150.264M287.112 169.632L182.672 39.238M287.112 169.632L156.148 65.646M287.112 169.632L136.192 97.27M287.112 169.632l-163.31-37.112M287.112 169.632h-167.51M287.112 169.632l-163.31 37.113M287.112 169.632l-150.92 72.364M287.112 169.632L156.148 273.62M287.112 169.632l-104.44 130.395M287.112 169.632l-72.68 150.265M287.112 169.632l-37.274 162.6M287.112 169.632v166.782M287.112 169.632l37.274 162.6M287.112 169.632l72.68 150.265M287.112 169.632l104.44 130.395M287.112 169.632L418.076 273.62M287.112 169.632l150.92 72.364M287.112 169.632l163.31 37.113" fill="#000"/><path d="M454.62 169.632l-4.2-37.112-12.388-35.25-27.395-25.718-64.882 24.864 7.357-63.24-50.397 68.392-15.603-23.098-29.953-39.503-21.716 23.842-12.77 26.37-47.13-8.134 36.32 52.506-88.06-1.032-4.2 37.112 15.86 34.463.728 37.9 19.956 31.624 26.524 26.407 31.76 19.87 35.406 12.335 37.274 4.182 34.162-17.76 38.517 1.243 23.062-30.73 31.688-18.356 23.492-28.814 12.39-35.25 4.2-37.114z" stroke="#7FD1FF" stroke-width="2" fill-opacity=".5" fill="#7FD1FF"/><path d="M426.563 169.632l23.858-37.112-12.388-35.25-47.066-10.1-21.4-20.484-27.37-10.94-24.713-18.6-30.37 52.28-7.322 48.272-36.075-57.79 21.475 62.355-86.24-58.513 67.776 66.518-122.923-17.748-4.2 37.112 4.2 37.113 12.39 35.25 19.955 31.624 26.524 26.407 31.76 19.87 35.406 12.335 37.274 4.182 37.274-4.182 28.137-27.36 34.674-10.282 23.794-26.597 22.168-28.334-4.032-37.755-2.563-32.273z" stroke="#3FBBFF" stroke-width="2" fill-opacity=".5" fill="#3FBBFF"/><path d="M312.59 169.632l137.83-37.112-53.317-15.626-13.3-24.035-23.05-15.17-27.788-2.86-27.678 15.52-18.175 6.032v73.25L243.76 80l-28.868-.536-40.8.428 84.12 75.883L123.8 132.52l-4.2 37.112 4.2 37.113 12.39 35.25 19.956 31.624 26.524 26.407 31.76 19.87 35.406 12.335 37.274 4.182 37.274-4.182 31.77-19.848 35.396-12.357 19.44-32.034 27.04-25.997 12.39-35.25L312.59 169.63z" stroke="#1F77B4" stroke-width="2" fill-opacity=".5" fill="#00A5FF"/><g transform="rotate(90 191.826 262.443)" fill="#1F77B4"><ellipse stroke="#000" stroke-width="3" cx="99.015" cy="141.678" rx="7.022" ry="7.053"/><ellipse cx="61.903" cy="3.847" rx="3.511" ry="3.527"/><ellipse cx="46.277" cy="57.165" rx="3.511" ry="3.527"/><ellipse cx="22.242" cy="70.466" rx="3.511" ry="3.527"/><ellipse cx="7.074" cy="93.515" rx="3.511" ry="3.527"/><ellipse cx="4.213" cy="121.303" rx="3.511" ry="3.527"/><ellipse cx="19.732" cy="148.981" rx="3.511" ry="3.527"/><ellipse cx="25.765" cy="167.156" rx="3.511" ry="3.527"/><ellipse cx="99.015" cy="167.156" rx="3.511" ry="3.527"/><ellipse cx="9.382" cy="210.509" rx="3.511" ry="3.527"/><ellipse cx="8.847" cy="239.376" rx="3.511" ry="3.527"/><ellipse cx="9.275" cy="280.178" rx="3.511" ry="3.527"/><ellipse cx="85.158" cy="196.057" rx="3.511" ry="3.527"/><ellipse cx="61.903" cy="330.465" rx="3.511" ry="3.527"/><ellipse cx="99.015" cy="334.665" rx="3.511" ry="3.527"/><ellipse cx="136.128" cy="330.465" rx="3.511" ry="3.527"/><ellipse cx="136.128" cy="3.847" rx="3.511" ry="3.527"/></g><g transform="rotate(90 214.657 243.843)" fill="#3FBBFF"><ellipse cx="140.447" cy="3.879" rx="3.511" ry="3.527"/><ellipse cx="103.335" cy="8.079" rx="3.511" ry="3.527"/><ellipse cx="68.084" cy="20.468" rx="3.511" ry="3.527"/><ellipse cx="42.367" cy="47.863" rx="3.511" ry="3.527"/><ellipse cx="67.231" cy="112.745" rx="3.511" ry="3.527"/><ellipse cx="3.992" cy="105.388" rx="3.511" ry="3.527"/><ellipse cx="72.383" cy="155.785" rx="3.511" ry="3.527"/><ellipse cx="49.285" cy="171.388" rx="3.511" ry="3.527"/><ellipse cx="9.782" cy="201.341" rx="3.511" ry="3.527"/><ellipse cx="33.624" cy="223.056" rx="3.511" ry="3.527"/><ellipse cx="59.994" cy="235.827" rx="3.511" ry="3.527"/><ellipse cx="51.861" cy="282.956" rx="3.511" ry="3.527"/><ellipse cx="104.367" cy="246.637" rx="3.511" ry="3.527"/><ellipse cx="103.335" cy="334.697" rx="3.511" ry="3.527"/><ellipse cx="140.447" cy="338.897" rx="3.511" ry="3.527"/><ellipse cx="174.91" cy="323.037" rx="3.511" ry="3.527"/><ellipse cx="177.56" cy="8.079" rx="3.511" ry="3.527"/></g><g transform="rotate(90 210.435 243.833)" fill="#7FD1FF"><ellipse cx="136.234" cy="27.705" rx="3.511" ry="3.527"/><ellipse cx="99.122" cy="3.847" rx="3.511" ry="3.527"/><ellipse cx="63.87" cy="16.236" rx="3.511" ry="3.527"/><ellipse cx="53.773" cy="63.302" rx="3.511" ry="3.527"/><ellipse cx="33.287" cy="84.701" rx="3.511" ry="3.527"/><ellipse cx="22.348" cy="112.072" rx="3.511" ry="3.527"/><ellipse cx="3.748" cy="136.785" rx="3.511" ry="3.527"/><ellipse cx="56.029" cy="167.156" rx="3.511" ry="3.527"/><ellipse cx="104.299" cy="174.477" rx="3.511" ry="3.527"/><ellipse cx="46.511" cy="210.553" rx="3.511" ry="3.527"/><ellipse cx="108.864" cy="189.078" rx="3.511" ry="3.527"/><ellipse cx="50.352" cy="275.319" rx="3.511" ry="3.527"/><ellipse cx="116.87" cy="207.542" rx="3.511" ry="3.527"/><ellipse cx="99.122" cy="330.465" rx="3.511" ry="3.527"/><ellipse cx="136.234" cy="334.665" rx="3.511" ry="3.527"/><ellipse cx="173.346" cy="330.465" rx="3.511" ry="3.527"/><ellipse cx="168.507" cy="25.143" rx="3.511" ry="3.527"/></g><g transform="translate(356 -40)"><g stroke="#303030" stroke-width="1.5"><path d="M138.135 56.122c-8.004-16.79-6.42-36.563 4.156-51.872M138.135 56.122c14.3 12.727 20.708 32.098 16.81 50.815M167.66 165.517c3.373-17.52 15.86-31.912 32.756-37.758M182.64 79.322c14.174 11.82 20.95 30.283 17.776 48.437M241.593 98.507c-7.502 16.387-23.198 27.538-41.177 29.252M154.944 106.937c17.798-1.66 35.132 6.277 45.472 20.822M212.04 179.734c-12.905-14.01-17.336-33.823-11.624-51.975M138.135 56.122c-19.27-2.8-35.58-15.644-42.783-33.69M138.135 56.122c-16.797 10.894-38.143 12.022-56 2.96M200.416 127.76c-17.798 1.66-35.132-6.278-45.472-20.823M138.135 56.122c-5.533 18.627-20.607 32.895-39.546 37.43M167.66 165.517c16.277-3.51 33.194 1.91 44.38 14.217M259.91 173.775c-13.745 10.373-31.993 12.645-47.87 5.96M202.624 227.702c-5.677-16.52-2.088-34.804 9.415-47.968M285.582 213.817c-15.114-7.814-24.9-23.078-25.673-40.042M212.04 179.734c13.743-10.373 31.99-12.645 47.87-5.96M200.416 127.76c7.5-16.39 23.198-27.54 41.177-29.253M259.182 52.718c2.757 17.3-3.947 34.756-17.59 45.79M200.416 127.76c-14.174-11.82-20.95-30.284-17.777-48.438M138.135 56.122c17.924-.752 34.89 8.092 44.504 23.2M182.64 79.322c-17.925.752-34.89-8.092-44.505-23.2M51.47 176.588c-17.007 4.228-34.985-.917-47.16-13.495M15.085 212.827C2.845 199.36-1.262 180.4 4.31 163.093M212.04 179.734c-16.278 3.508-33.195-1.91-44.38-14.217M200.416 127.76c-3.373 17.518-15.86 31.91-32.755 37.757M212.04 179.734c5.677 16.52 2.088 34.804-9.416 47.968M241.593 98.507c-2.758-17.302 3.946-34.756 17.59-45.79"/></g><ellipse stroke="#FFF" stroke-width="2" fill="#979797" cx="15.085" cy="212.827" rx="3.796" ry="3.786"/><ellipse stroke="#FFF" stroke-width="2" fill="#979797" cx="4.311" cy="163.093" rx="3.796" ry="3.786"/><ellipse stroke="#FFF" stroke-width="2" fill="#979797" cx="51.471" cy="176.588" rx="3.796" ry="3.786"/><ellipse stroke="#FFF" stroke-width="2" fill="#979797" cx="259.182" cy="52.718" rx="3.796" ry="3.786"/><ellipse stroke="#FFF" stroke-width="2" fill="#979797" cx="285.582" cy="213.817" rx="3.796" ry="3.786"/><ellipse stroke="#FFF" stroke-width="2" fill="#979797" cx="202.624" cy="227.702" rx="3.796" ry="3.786"/><ellipse stroke="#FFF" stroke-width="2" fill="#979797" cx="259.909" cy="173.775" rx="3.796" ry="3.786"/><ellipse stroke="#FFF" stroke-width="2" fill="#979797" cx="98.589" cy="93.552" rx="3.796" ry="3.786"/><ellipse stroke="#FFF" stroke-width="2" fill="#979797" cx="137.589" cy="56.552" rx="3.796" ry="3.786"/><ellipse stroke="#FFF" stroke-width="2" fill="#979797" cx="80.169" cy="58.018" rx="3.796" ry="3.786"/><ellipse stroke="#FFF" stroke-width="2" fill="#979797" cx="212.039" cy="179.734" rx="3.796" ry="3.786"/><ellipse stroke="#FFF" stroke-width="2" fill="#979797" cx="241.593" cy="98.507" rx="3.796" ry="3.786"/><ellipse stroke="#FFF" stroke-width="2" fill="#979797" cx="182.639" cy="79.322" rx="3.796" ry="3.786"/><ellipse stroke="#FFF" stroke-width="2" fill="#979797" cx="154.639" cy="107.322" rx="3.796" ry="3.786"/><ellipse stroke="#FFF" stroke-width="2" fill="#979797" cx="200.639" cy="128.322" rx="3.796" ry="3.786"/><ellipse stroke="#FFF" stroke-width="2" fill="#979797" cx="165.639" cy="165.322" rx="3.796" ry="3.786"/></g><g transform="translate(522 -58)"><ellipse fill="#FF00F2" cx="67.781" cy="164.469" rx="2.786" ry="2.785"/><ellipse fill="#FF00F2" cx="205.647" cy="75.425" rx="2.786" ry="2.785"/><ellipse fill="#FF00F2" cx="66.892" cy="132.513" rx="2.786" ry="2.785"/><ellipse fill="#FF00F2" cx="90.65" cy="83.583" rx="2.786" ry="2.785"/><ellipse fill="#FF00F2" cx="273.113" cy="69.906" rx="2.786" ry="2.785"/><ellipse fill="#FF00F2" cx="87.697" cy="73.264" rx="2.786" ry="2.785"/><ellipse fill="#FF00F2" cx="62.957" cy="157.838" rx="2.786" ry="2.785"/><ellipse fill="#FF00F2" cx="227.491" cy="72.239" rx="2.786" ry="2.785"/><ellipse fill="#FF00F2" cx="69.777" cy="153.768" rx="2.786" ry="2.785"/><ellipse fill="#FF00F2" cx="279.247" cy="81.563" rx="2.786" ry="2.785"/><ellipse fill="#FF00F2" cx="263.478" cy="76.536" rx="2.786" ry="2.785"/><ellipse fill="#FF00F2" cx="74.615" cy="161.139" rx="2.786" ry="2.785"/><ellipse fill="#FF00F2" cx="256.031" cy="60.744" rx="2.786" ry="2.785"/><ellipse fill="#FF00F2" cx="250.84" cy="99.321" rx="2.786" ry="2.785"/><ellipse fill="#FF00F2" cx="94.079" cy="58.953" rx="2.786" ry="2.785"/><ellipse fill="#FF00F2" cx="115.774" cy="66.972" rx="2.786" ry="2.785"/><ellipse fill="#FF00F2" cx="215.824" cy="60.187" rx="2.786" ry="2.785"/><ellipse fill="#FF00F2" cx="94.649" cy="76.446" rx="2.786" ry="2.785"/><ellipse fill="#FF00F2" cx="108.229" cy="65.181" rx="2.786" ry="2.785"/><ellipse fill="#FF00F2" cx="92.308" cy="66.663" rx="2.786" ry="2.785"/><ellipse fill="#FF00F2" cx="111.033" cy="92.149" rx="2.786" ry="2.785"/><ellipse fill="#FF00F2" cx="95.85" cy="89.621" rx="2.786" ry="2.785"/><ellipse fill="#FF00F2" cx="107.261" cy="56.086" rx="2.786" ry="2.785"/><ellipse fill="#FF00F2" cx="309.242" cy="110.691" rx="2.786" ry="2.785"/><ellipse fill="#FF00F2" cx="288.614" cy="153.257" rx="2.786" ry="2.785"/><ellipse fill="#FF00F2" cx="118.263" cy="79.361" rx="2.786" ry="2.785"/><ellipse fill="#FF00F2" cx="272.301" cy="86.662" rx="2.786" ry="2.785"/><ellipse fill="#FF00F2" cx="204.781" cy="85.386" rx="2.786" ry="2.785"/><ellipse fill="#FF00F2" cx="116.123" cy="59.214" rx="2.786" ry="2.785"/><ellipse fill="#FF00F2" cx="108.436" cy="74.517" rx="2.786" ry="2.785"/><ellipse fill="#FF00F2" cx="244.78" cy="70.385" rx="2.786" ry="2.785"/><ellipse fill="#FF00F2" cx="101.116" cy="61.099" rx="2.786" ry="2.785"/><ellipse fill="#FF00F2" cx="262.964" cy="84.025" rx="2.786" ry="2.785"/><ellipse fill="#FF00F2" cx="100.762" cy="70.429" rx="2.786" ry="2.785"/><ellipse fill="#FF00F2" cx="293.785" cy="65.328" rx="2.786" ry="2.785"/><ellipse fill="#FF00F2" cx="100.582" cy="80.942" rx="2.786" ry="2.785"/><ellipse fill="#FF00F2" cx="226.82" cy="92.205" rx="2.786" ry="2.785"/><ellipse fill="#FF00F2" cx="265.23" cy="68.385" rx="2.786" ry="2.785"/><ellipse fill="#FF00F2" cx="120.182" cy="72.164" rx="2.786" ry="2.785"/><ellipse fill="#FF00F2" cx="247.42" cy="91.954" rx="2.786" ry="2.785"/><ellipse fill="#FF00F2" cx="253.833" cy="79.039" rx="2.786" ry="2.785"/><ellipse fill="#FF00F2" cx="273.892" cy="61.649" rx="2.786" ry="2.785"/><ellipse fill="#FF00F2" cx="302.729" cy="195.433" rx="2.786" ry="2.785"/><ellipse fill="#FF00F2" cx="114.489" cy="85.052" rx="2.786" ry="2.785"/><ellipse fill="#FF00F2" cx="293.905" cy="56.815" rx="2.786" ry="2.785"/><ellipse fill="#FF00F2" cx="239.431" cy="94.699" rx="2.786" ry="2.785"/><ellipse fill="#FF00F2" cx="242.282" cy="78.34" rx="2.786" ry="2.785"/><ellipse fill="#FF00F2" cx="205.12" cy="93.384" rx="2.786" ry="2.785"/><ellipse fill="#FF00F2" cx="107.097" cy="83.565" rx="2.786" ry="2.785"/><ellipse fill="#FF00F2" cx="102.684" cy="92.169" rx="2.786" ry="2.785"/><ellipse fill="#FF00F2" cx="216.838" cy="86.356" rx="2.786" ry="2.785"/><ellipse fill="#FF00F2" cx="223.271" cy="66.515" rx="2.786" ry="2.785"/><ellipse fill="#FF00F2" cx="232.658" cy="79.286" rx="2.786" ry="2.785"/><ellipse fill="#FF00F2" cx="198.938" cy="62.903" rx="2.786" ry="2.785"/><ellipse fill="#FF00F2" cx="285.075" cy="76.474" rx="2.786" ry="2.785"/><ellipse fill="#FF00F2" cx="288.326" cy="69.738" rx="2.786" ry="2.785"/><ellipse fill="#FF00F2" cx="284.855" cy="186.637" rx="2.786" ry="2.785"/><ellipse fill="#FF00F2" cx="199.021" cy="78.97" rx="2.786" ry="2.785"/><ellipse fill="#FF00F2" cx="247.895" cy="83.638" rx="2.786" ry="2.785"/><ellipse fill="#FF00F2" cx="174.068" cy="225.003" rx="2.786" ry="2.785"/><ellipse fill="#FF00F2" cx="236.499" cy="72.326" rx="2.786" ry="2.785"/><ellipse fill="#FF00F2" cx="251.072" cy="66.901" rx="2.786" ry="2.785"/><ellipse fill="#FF00F2" cx="222.901" cy="80.791" rx="2.786" ry="2.785"/><ellipse fill="#FF00F2" cx="211.718" cy="80.102" rx="2.786" ry="2.785"/><ellipse fill="#FF00F2" cx="235.774" cy="106.441" rx="2.786" ry="2.785"/><ellipse fill="#FF00F2" cx="207.144" cy="61.122" rx="2.786" ry="2.785"/><ellipse fill="#FF00F2" cx="265.095" cy="61.118" rx="2.786" ry="2.785"/><ellipse fill="#FF00F2" cx="243.848" cy="102.63" rx="2.786" ry="2.785"/><ellipse fill="#FF00F2" cx="239.43" cy="57.736" rx="2.786" ry="2.785"/><ellipse fill="#FF00F2" cx="221.826" cy="55.283" rx="2.786" ry="2.785"/><ellipse fill="#FF00F2" cx="307.313" cy="118.803" rx="2.786" ry="2.785"/><ellipse fill="#FF00F2" cx="233.634" cy="98.692" rx="2.786" ry="2.785"/><ellipse fill="#FF00F2" cx="213.859" cy="67.86" rx="2.786" ry="2.785"/><ellipse fill="#FF00F2" cx="246.819" cy="59.811" rx="2.786" ry="2.785"/><ellipse fill="#FF00F2" cx="217.8" cy="74.095" rx="2.786" ry="2.785"/><ellipse fill="#FF00F2" cx="220.979" cy="105.631" rx="2.786" ry="2.785"/><ellipse fill="#FF00F2" cx="212.967" cy="101.106" rx="2.786" ry="2.785"/><ellipse fill="#FF00F2" cx="239.345" cy="86.611" rx="2.786" ry="2.785"/><ellipse fill="#FF00F2" cx="321.383" cy="138.754" rx="2.786" ry="2.785"/><ellipse fill="#FF00F2" cx="256.846" cy="71.518" rx="2.786" ry="2.785"/><ellipse fill="#FF00F2" cx="280.349" cy="69.422" rx="2.786" ry="2.785"/><ellipse fill="#FF00F2" cx="291.735" cy="206.766" rx="2.786" ry="2.785"/><ellipse fill="#FF00F2" cx="256.085" cy="88.397" rx="2.786" ry="2.785"/><ellipse fill="#FF00F2" cx="289.781" cy="192.225" rx="2.786" ry="2.785"/><ellipse fill="#FF00F2" cx="230.279" cy="86.383" rx="2.786" ry="2.785"/><ellipse fill="#FF00F2" cx="203.7" cy="68.771" rx="2.786" ry="2.785"/><ellipse fill="#FF00F2" cx="295.038" cy="146.76" rx="2.786" ry="2.785"/><ellipse fill="#FF00F2" cx="257.988" cy="159.467" rx="2.786" ry="2.785"/><ellipse fill="#FF00F2" cx="235.459" cy="65.141" rx="2.786" ry="2.785"/><ellipse fill="#FF00F2" cx="227.557" cy="102.957" rx="2.786" ry="2.785"/><ellipse fill="#FF00F2" cx="291.063" cy="122.881" rx="2.786" ry="2.785"/><ellipse fill="#FF00F2" cx="220.424" cy="96.203" rx="2.786" ry="2.785"/><ellipse fill="#FF00F2" cx="272.133" cy="195.924" rx="2.786" ry="2.785"/><ellipse fill="#FF00F2" cx="330.431" cy="148.507" rx="2.786" ry="2.785"/><ellipse fill="#FF00F2" cx="212.644" cy="92.77" rx="2.786" ry="2.785"/><ellipse fill="#FF00F2" cx="313.385" cy="172.083" rx="2.786" ry="2.785"/><ellipse fill="#FF00F2" cx="302.597" cy="184.952" rx="2.786" ry="2.785"/><ellipse fill="#FF00F2" cx="257.845" cy="96.293" rx="2.786" ry="2.785"/><ellipse fill="#FF00F2" cx="317.946" cy="116.638" rx="2.786" ry="2.785"/><ellipse fill="#FF00F2" cx="291.137" cy="140.747" rx="2.786" ry="2.785"/><ellipse fill="#FF00F2" cx="271.887" cy="78.109" rx="2.786" ry="2.785"/><ellipse fill="#FF00F2" cx="295.258" cy="164.34" rx="2.786" ry="2.785"/><ellipse fill="#FF00F2" cx="265.553" cy="91.903" rx="2.786" ry="2.785"/><ellipse fill="#FF00F2" cx="326.476" cy="162.788" rx="2.786" ry="2.785"/><ellipse fill="#FF00F2" cx="280.85" cy="178.543" rx="2.786" ry="2.785"/><ellipse fill="#FF00F2" cx="310.746" cy="194.099" rx="2.786" ry="2.785"/><ellipse fill="#FF00F2" cx="262.808" cy="184.99" rx="2.786" ry="2.785"/><ellipse fill="#FF00F2" cx="323.346" cy="145.589" rx="2.786" ry="2.785"/><ellipse fill="#FF00F2" cx="324.423" cy="188.357" rx="2.786" ry="2.785"/><ellipse fill="#FF00F2" cx="309.492" cy="157.481" rx="2.786" ry="2.785"/><ellipse fill="#FF00F2" cx="324.693" cy="121.901" rx="2.786" ry="2.785"/><ellipse fill="#FF00F2" cx="180.416" cy="237.577" rx="2.786" ry="2.785"/><ellipse fill="#FF00F2" cx="228.894" cy="61.403" rx="2.786" ry="2.785"/><ellipse fill="#FF00F2" cx="271.275" cy="169.738" rx="2.786" ry="2.785"/><ellipse fill="#FF00F2" cx="254.478" cy="175.246" rx="2.786" ry="2.785"/><ellipse fill="#FF00F2" cx="325.177" cy="110.593" rx="2.786" ry="2.785"/><ellipse fill="#FF00F2" cx="272.969" cy="177.47" rx="2.786" ry="2.785"/><ellipse fill="#FF00F2" cx="265.667" cy="162.906" rx="2.786" ry="2.785"/><ellipse fill="#FF00F2" cx="285.336" cy="60.826" rx="2.786" ry="2.785"/><ellipse fill="#FF00F2" cx="288.862" cy="178.521" rx="2.786" ry="2.785"/><ellipse fill="#FF00F2" cx="289.73" cy="199.468" rx="2.786" ry="2.785"/><ellipse fill="#FF00F2" cx="335.964" cy="168.646" rx="2.786" ry="2.785"/><ellipse fill="#FF00F2" cx="255.897" cy="184.422" rx="2.786" ry="2.785"/><ellipse fill="#FF00F2" cx="320.875" cy="156.994" rx="2.786" ry="2.785"/><ellipse fill="#FF00F2" cx="334.478" cy="142.474" rx="2.786" ry="2.785"/><ellipse fill="#FF00F2" cx="296.668" cy="190.888" rx="2.786" ry="2.785"/><ellipse fill="#FF00F2" cx="286.29" cy="161.053" rx="2.786" ry="2.785"/><ellipse fill="#FF00F2" cx="296.485" cy="154.142" rx="2.786" ry="2.785"/><ellipse fill="#FF00F2" cx="281.572" cy="148.66" rx="2.786" ry="2.785"/><ellipse fill="#FF00F2" cx="301.531" cy="160.439" rx="2.786" ry="2.785"/><ellipse fill="#FF00F2" cx="264.563" cy="177.611" rx="2.786" ry="2.785"/><ellipse fill="#FF00F2" cx="268.806" cy="188.7" rx="2.786" ry="2.785"/><ellipse fill="#FF00F2" cx="313.447" cy="144.245" rx="2.786" ry="2.785"/><ellipse fill="#FF00F2" cx="334.954" cy="177.097" rx="2.786" ry="2.785"/><ellipse fill="#FF00F2" cx="299.183" cy="115.79" rx="2.786" ry="2.785"/><ellipse fill="#FF00F2" cx="310.595" cy="186.095" rx="2.786" ry="2.785"/><ellipse fill="#FF00F2" cx="306.735" cy="203.581" rx="2.786" ry="2.785"/><ellipse fill="#FF00F2" cx="321.207" cy="169.866" rx="2.786" ry="2.785"/><ellipse fill="#FF00F2" cx="192.021" cy="223.368" rx="2.786" ry="2.785"/><ellipse fill="#FF00F2" cx="306.965" cy="166.82" rx="2.786" ry="2.785"/><ellipse fill="#FF00F2" cx="295.979" cy="181.11" rx="2.786" ry="2.785"/><ellipse fill="#FF00F2" cx="315.556" cy="199.736" rx="2.786" ry="2.785"/><ellipse fill="#FF00F2" cx="286.532" cy="169.109" rx="2.786" ry="2.785"/><ellipse fill="#FF00F2" cx="301.716" cy="143.366" rx="2.786" ry="2.785"/><ellipse fill="#FF00F2" cx="323.57" cy="178.123" rx="2.786" ry="2.785"/><ellipse fill="#FF00F2" cx="280.632" cy="195.098" rx="2.786" ry="2.785"/><ellipse fill="#FF00F2" cx="317.771" cy="183.298" rx="2.786" ry="2.785"/><ellipse fill="#FF00F2" cx="317.497" cy="108.783" rx="2.786" ry="2.785"/><ellipse fill="#FF00F2" cx="329.808" cy="156.192" rx="2.786" ry="2.785"/><ellipse fill="#FF00F2" cx="279.496" cy="168.96" rx="2.786" ry="2.785"/><ellipse fill="#FF00F2" cx="272.477" cy="146.282" rx="2.786" ry="2.785"/><ellipse fill="#FF00F2" cx="274.344" cy="203.027" rx="2.786" ry="2.785"/><ellipse fill="#FF00F2" cx="270.073" cy="153.888" rx="2.786" ry="2.785"/><ellipse fill="#FF00F2" cx="338.097" cy="152.833" rx="2.786" ry="2.785"/><ellipse fill="#FF00F2" cx="320.391" cy="193.82" rx="2.786" ry="2.785"/><ellipse fill="#FF00F2" cx="315.422" cy="163.489" rx="2.786" ry="2.785"/><ellipse fill="#FF00F2" cx="263.247" cy="195.309" rx="2.786" ry="2.785"/><ellipse fill="#FF00F2" cx="282.804" cy="204.624" rx="2.786" ry="2.785"/><ellipse fill="#FF00F2" cx="313.92" cy="123.062" rx="2.786" ry="2.785"/><ellipse fill="#FF00F2" cx="262.505" cy="152.92" rx="2.786" ry="2.785"/><ellipse fill="#FF00F2" cx="330.583" cy="117.177" rx="2.786" ry="2.785"/><ellipse fill="#FF00F2" cx="298.513" cy="203.218" rx="2.786" ry="2.785"/><ellipse fill="#FF00F2" cx="274.333" cy="161.829" rx="2.786" ry="2.785"/><ellipse fill="#FF00F2" cx="329.106" cy="171.843" rx="2.786" ry="2.785"/><ellipse fill="#FF00F2" cx="309.331" cy="178.706" rx="2.786" ry="2.785"/><ellipse fill="#FF00F2" cx="300.21" cy="123.583" rx="2.786" ry="2.785"/><ellipse fill="#FF00F2" cx="330.61" cy="184.487" rx="2.786" ry="2.785"/><ellipse fill="#FF00F2" cx="261.518" cy="170.381" rx="2.786" ry="2.785"/><ellipse fill="#FF00F2" cx="302.47" cy="173.963" rx="2.786" ry="2.785"/><ellipse fill="#FF00F2" cx="276.33" cy="186.43" rx="2.786" ry="2.785"/><ellipse fill="#FF00F2" cx="294.163" cy="171.657" rx="2.786" ry="2.785"/><ellipse fill="#FF00F2" cx="254.239" cy="166.363" rx="2.786" ry="2.785"/><ellipse fill="#FF00F2" cx="172.005" cy="209.929" rx="2.786" ry="2.785"/><ellipse fill="#FF00F2" cx="175.085" cy="216.951" rx="2.786" ry="2.785"/><ellipse fill="#FF00F2" cx="279.015" cy="155.478" rx="2.786" ry="2.785"/><ellipse fill="#FF00F2" cx="338.205" cy="161.467" rx="2.786" ry="2.785"/><ellipse fill="#FF00F2" cx="305.555" cy="150.681" rx="2.786" ry="2.785"/><ellipse fill="#FF00F2" cx="316.431" cy="151.014" rx="2.786" ry="2.785"/><ellipse fill="#FF00F2" cx="307.983" cy="139.522" rx="2.786" ry="2.785"/><ellipse fill="#FF00F2" cx="166.648" cy="228.342" rx="2.786" ry="2.785"/><ellipse fill="#FF00F2" cx="166.93" cy="219.364" rx="2.786" ry="2.785"/><ellipse fill="#FF00F2" cx="184.396" cy="225.463" rx="2.786" ry="2.785"/><ellipse fill="#FF00F2" cx="282.293" cy="141.442" rx="2.786" ry="2.785"/><ellipse fill="#FF00F2" cx="189.839" cy="214.786" rx="2.786" ry="2.785"/><ellipse fill="#FF00F2" cx="154.473" cy="179.273" rx="2.786" ry="2.785"/><ellipse fill="#FF00F2" cx="188.94" cy="232.819" rx="2.786" ry="2.785"/><ellipse fill="#FF00F2" cx="174.142" cy="181.553" rx="2.786" ry="2.785"/><ellipse fill="#FF00F2" cx="160.547" cy="232.063" rx="2.786" ry="2.785"/><ellipse fill="#FF00F2" cx="162.857" cy="180.471" rx="2.786" ry="2.785"/><ellipse fill="#FF00F2" cx="157.728" cy="204.764" rx="2.786" ry="2.785"/><ellipse fill="#FF00F2" cx="165.121" cy="208.374" rx="2.786" ry="2.785"/><ellipse fill="#FF00F2" cx="162.848" cy="173.015" rx="2.786" ry="2.785"/><ellipse fill="#FF00F2" cx="150.719" cy="212.47" rx="2.786" ry="2.785"/><ellipse fill="#FF00F2" cx="157.764" cy="187.025" rx="2.786" ry="2.785"/><ellipse fill="#FF00F2" cx="171.712" cy="174.821" rx="2.786" ry="2.785"/><ellipse fill="#FF00F2" cx="182.751" cy="216.485" rx="2.786" ry="2.785"/><ellipse fill="#FF00F2" cx="158.423" cy="219.781" rx="2.786" ry="2.785"/><ellipse fill="#FF00F2" cx="170.874" cy="236.251" rx="2.786" ry="2.785"/><ellipse fill="#FF00F2" cx="183.837" cy="207.622" rx="2.786" ry="2.785"/><ellipse fill="#FF00F2" cx="159.003" cy="212.992" rx="2.786" ry="2.785"/><ellipse fill="#FF00F2" cx="178.406" cy="230.639" rx="2.786" ry="2.785"/><ellipse fill="#FF00F2" cx="175.04" cy="203.649" rx="2.786" ry="2.785"/><ellipse fill="#FF00F2" cx="179.686" cy="185.658" rx="2.786" ry="2.785"/><ellipse fill="#FF00F2" cx="168.046" cy="186.866" rx="2.786" ry="2.785"/><ellipse fill="#FF00F2" cx="154.32" cy="224.998" rx="2.786" ry="2.785"/><ellipse fill="#37D000" cx="188.5" cy="141.499" rx="2.786" ry="2.785"/><ellipse fill="#37D000" cx="188.533" cy="99.721" rx="2.786" ry="2.785"/><ellipse fill="#FFA500" cx="188.5" cy="245.942" rx="2.786" ry="2.785"/><ellipse fill="#FFA500" cx="373.957" cy="159.416" rx="2.786" ry="2.785"/><ellipse fill="#FFA500" cx="2.851" cy="159.036" rx="2.786" ry="2.785"/></g><g transform="translate(23 24)" fill="#7D7D7D"><path d="M30.512 108.545c.65.768.74 1.86.266 3.276-.473 1.417-1.27 2.686-2.395 3.808l-3.57 3.563 3.548 15.406c.075.28-.014.523-.265.73l-2.838 2.125c-.104.09-.244.134-.42.134-.06 0-.112-.008-.157-.023-.22-.043-.377-.16-.465-.353l-6.187-11.243-5.742 5.732 1.175 4.294c.075.25.016.48-.176.686l-2.13 2.125c-.132.134-.302.2-.51.2h-.043c-.22-.03-.4-.125-.532-.288l-4.19-5.577-5.588-4.183c-.162-.104-.258-.273-.288-.51-.015-.19.052-.376.2-.553l2.128-2.148c.133-.132.303-.2.51-.2.09 0 .148.01.178.023l4.3 1.173 5.744-5.732-11.264-6.175c-.207-.117-.333-.294-.377-.53-.028-.236.038-.435.2-.598l2.84-2.833c.206-.193.427-.252.664-.178l14.745 3.52 3.546-3.542c1.124-1.12 2.395-1.918 3.814-2.39 1.42-.472 2.513-.384 3.282.265zM49.723 92.472c1.716 0 3.107-1.39 3.107-3.102 0-1.713-1.39-3.1-3.107-3.1-1.717 0-3.108 1.387-3.108 3.1s1.39 3.102 3.108 3.102z"/><ellipse cx="99.445" cy="78.669" rx="3.108" ry="3.102"/><ellipse cx="40.4" cy="98.676" rx="3.108" ry="3.102"/><ellipse cx="111.876" cy="78.669" rx="3.108" ry="3.102"/><ellipse cx="87.014" cy="78.669" rx="3.108" ry="3.102"/><ellipse cx="130.699" cy="64.669" rx="3.108" ry="3.102"/><ellipse cx="130.699" cy="52.669" rx="3.108" ry="3.102"/><ellipse cx="130.699" cy="40.669" rx="3.108" ry="3.102"/><ellipse cx="130.699" cy="27.669" rx="3.108" ry="3.102"/><text font-family="Helvetica" font-size="11.151"><tspan x="55.938" y="83">LAX</tspan></text><text font-family="Helvetica" font-size="9" font-weight="260"><tspan x="140.199" y="74.567">$71</tspan></text><text font-family="Helvetica" font-size="11.151"><tspan x="121.199" y="83">IAH</tspan></text><text font-family="Helvetica" font-size="11.151"><tspan x="117.199" y="18">EWR</tspan></text><text font-family="Helvetica" font-size="9" font-weight="260"><tspan x="99" y="9">$267</tspan></text></g><g><path stroke="#FFF700" fill-opacity=".5" fill="#FFF700" d="M1265 66.054h44v63.712h-44z"/><path d="M1287.61 134.054v19.604M1297.39 133.44h-19.557M1297.39 154.27h-19.557" stroke="#FFF700" stroke-linecap="square"/><path d="M1287.61 127.928V44.613M1287.61 44.613l-3 10.8h6l-3-10.8z" stroke="#444" stroke-linecap="square" fill="#444"/><text font-family="Helvetica" font-size="7.333" font-style="italic" fill="#444" transform="translate(1265 44)"><tspan x="28.111" y="55.784">0.49 m/s</tspan></text><g><path stroke="#FFF700" fill-opacity=".5" fill="#FFF700" d="M1328.556 83.207h44v63.712h-44z"/><path d="M1351.167 67.892V78.92M1360.64 67.28h-19.557M1360.64 79.532h-19.557" stroke="#FFF700" stroke-linecap="square"/><path d="M1351.167 83.82v95.567M1351.167 179.387l3-10.8h-6l3 10.8z" stroke="#444" stroke-linecap="square" fill="#444"/><text font-family="Helvetica" font-size="7.333" font-style="italic" fill="#444" transform="translate(1328.556 67.28)"><tspan x="28.111" y="49.658">0.68 m/s</tspan></text></g></g><path fill="url(#a)" d="M0 0h1440v207H0z"/></g></svg>