<?xml version="1.0" encoding="UTF-8" standalone="no"?>
<svg width="634px" height="160px" viewBox="0 0 634 160" version="1.1" xmlns="http://www.w3.org/2000/svg" xmlns:xlink="http://www.w3.org/1999/xlink" xmlns:sketch="http://www.bohemiancoding.com/sketch/ns">
    <!-- Generator: Sketch 3.3.2 (12043) - http://www.bohemiancoding.com/sketch -->
    <title>Artboard 1</title>
    <desc>Created with Sketch.</desc>
    <defs></defs>
    <g id="Page-1" stroke="none" stroke-width="1" fill="none" fill-rule="evenodd" sketch:type="MSPage">
        <g id="Artboard-1" sketch:type="MSArtboardGroup">
            <g id="nameplate" sketch:type="MSLayerGroup" transform="translate(30.000000, 30.000000)">
                <g id="logo_v02_r02" stroke="#FFFFFF" stroke-width="4" sketch:type="MSShapeGroup">
                    <path d="M64,50 L128,72 L64,101 L0,72 L64,50 Z" id="Shape" fill="#00A5FF"></path>
                    <path d="M64,25 L128,47 L64,76 L0,47 L64,25 Z" id="Shape" fill="#3FBBFF"></path>
                    <path d="M64,0 L128,22 L64,51 L0,22 L64,0 Z" id="Shape" fill="#7FD1FF"></path>
                </g>
                <path d="M204.763,17.926 L204.763,25.097 L186.381,25.097 L186.381,86 L178.2,86 L178.2,25.097 L159.818,25.097 L159.818,17.926 L204.763,17.926 Z M221.933,14.593 L221.933,43.681 C224.963015,37.2843013 230.349628,34.086 238.093,34.086 C243.008358,34.086 246.964152,35.6009849 249.9605,38.631 C252.956848,41.6610151 254.455,45.7683074 254.455,50.953 L254.455,86 L246.476,86 L246.476,52.872 C246.476,49.1686482 245.51651,46.3070101 243.5975,44.287 C241.67849,42.2669899 239.002017,41.257 235.568,41.257 C232.133983,41.257 229.003014,42.7046522 226.175,45.6 C223.346986,48.4953478 221.933,52.6363064 221.933,58.023 L221.933,86 L214.055,86 L214.055,14.593 L221.933,14.593 Z M291.421,86.505 C283.677628,86.505 277.432524,84.1315237 272.6855,79.3845 C267.938476,74.6374763 265.565,68.2745399 265.565,60.2955 C265.565,52.3164601 267.685979,45.9703569 271.928,41.257 C276.170021,36.5436431 281.556634,34.187 288.088,34.187 C294.619366,34.187 299.770314,36.2406461 303.541,40.348 C307.311686,44.4553539 309.197,50.279629 309.197,57.821 C309.197,59.9756774 309.028668,61.9619909 308.692,63.78 L273.746,63.78 C274.352003,68.8300253 276.270984,72.7016532 279.503,75.395 C282.735016,78.0883468 287.094806,79.435 292.5825,79.435 C298.070194,79.435 302.530983,78.2566785 305.965,75.9 L305.965,83.374 C301.992313,85.4613438 297.144362,86.505 291.421,86.505 L291.421,86.505 Z M301.218,57.114 L301.218,55.094 C301.218,50.8519788 300.073345,47.4685126 297.784,44.9435 C295.494655,42.4184874 292.38052,41.156 288.4415,41.156 C284.50248,41.156 281.186347,42.5363195 278.493,45.297 C275.799653,48.0576805 274.217336,51.9966411 273.746,57.114 L301.218,57.114 Z M382.018,29.036 C377.910646,26.3426532 373.399358,24.996 368.484,24.996 C363.568642,24.996 359.899012,25.9554904 357.475,27.8745 C355.050988,29.7935096 353.839,32.3016512 353.839,35.399 C353.839,38.6983498 355.286652,41.3579899 358.182,43.378 C360.336677,44.7920071 363.029984,46.2228261 366.262,47.6705 C369.494016,49.1181739 371.715994,50.1281638 372.928,50.7005 C374.140006,51.2728362 375.70549,52.1818271 377.6245,53.4275 C379.54351,54.6731729 381.007995,55.9019939 382.018,57.114 C384.509346,60.1440152 385.755,63.7463125 385.755,67.921 C385.755,73.9136966 383.701354,78.542817 379.594,81.8085 C375.486646,85.074183 370.032701,86.707 363.232,86.707 C356.431299,86.707 350.539692,85.2593478 345.557,82.364 L345.557,73.577 C350.472358,77.2803519 356.464965,79.132 363.535,79.132 C367.777021,79.132 371.109988,78.1893428 373.534,76.304 C375.958012,74.4186572 377.17,71.6916845 377.17,68.123 C377.17,65.1603185 375.958012,62.7700091 373.534,60.952 C370.840653,58.9319899 367.709685,57.1645076 364.141,55.6495 C360.572315,54.1344924 358.030508,52.973004 356.5155,52.165 C355.000492,51.356996 353.199344,50.1786744 351.112,48.63 C347.206647,45.5326512 345.254,41.1728614 345.254,35.5505 C345.254,29.9281386 347.324479,25.484183 351.4655,22.2185 C355.606521,18.952817 360.70697,17.32 366.767,17.32 C372.82703,17.32 377.910646,18.3636562 382.018,20.451 L382.018,29.036 Z M409.894,41.257 L409.894,71.254 C409.894,76.7080273 412.452641,79.435 417.57,79.435 C420.196013,79.435 422.51899,78.6606744 424.539,77.112 L424.539,84.687 C422.316989,85.8990061 419.82568,86.505 417.065,86.505 C406.96495,86.505 401.915,81.3540515 401.915,71.052 L401.915,41.257 L393.734,41.257 L393.734,34.793 L401.915,34.793 L401.915,22.067 L409.894,22.067 L409.894,34.793 L424.034,34.793 L424.034,41.257 L409.894,41.257 Z M452.415,33.985 C465.275731,33.985 471.706,40.516268 471.706,53.579 L471.706,86 L463.828,86 L463.828,79.94 C461.201987,84.3166885 456.421368,86.505 449.486,86.505 C444.705309,86.505 440.850515,85.0910141 437.9215,82.263 C434.992485,79.4349859 433.528,75.7148564 433.528,71.1025 C433.528,66.4901436 435.396481,62.8205136 439.1335,60.0935 C442.870519,57.3664864 447.970968,56.003 454.435,56.003 L463.727,56.003 L463.727,53.377 C463.727,49.3369798 462.818009,46.2901769 461,44.2365 C459.181991,42.1828231 455.832191,41.156 450.9505,41.156 C446.068809,41.156 441.507021,42.6036522 437.265,45.499 L437.265,37.52 C441.103019,35.1633216 446.152969,33.985 452.415,33.985 L452.415,33.985 Z M463.727,62.366 L454.839,62.366 C450.529645,62.366 447.297677,63.2076582 445.143,64.891 C442.988323,66.5743418 441.911,68.6953205 441.911,71.254 C441.911,73.8126795 442.752658,75.8831588 444.436,77.4655 C446.119342,79.0478412 448.677983,79.839 452.112,79.839 C455.546017,79.839 458.340323,78.8121769 460.495,76.7585 C462.649677,74.7048231 463.727,72.0956825 463.727,68.931 L463.727,62.366 Z M510.187,79.94 C514.092353,79.94 517.728317,78.8290111 521.095,76.607 L521.095,84.182 C517.862984,86.1346764 513.890357,87.111 509.177,87.111 C501.09696,87.111 494.683524,84.5355258 489.9365,79.3845 C485.189476,74.2334742 482.816,67.98837 482.816,60.649 C482.816,53.30963 485.189476,47.0140263 489.9365,41.762 C494.683524,36.5099737 501.164292,33.884 509.379,33.884 C513.755689,33.884 517.660983,34.8266572 521.095,36.712 L521.095,44.287 C517.997651,42.1996562 514.361688,41.156 510.187,41.156 C504.396304,41.156 499.767184,43.0244813 496.2995,46.7615 C492.831816,50.4985187 491.114833,55.1276391 491.1485,60.649 C491.182167,66.1703609 492.84865,70.765815 496.148,74.4355 C499.44735,78.105185 504.12697,79.94 510.187,79.94 L510.187,79.94 Z M551.698,59.134 L572.504,86 L562.909,86 L542.305,59.134 L562.404,34.793 L571.898,34.793 L551.698,59.134 Z M533.417,86 L533.417,14.997 L541.295,14.997 L541.295,86 L533.417,86 Z" id="The-Stack" fill="#444444" sketch:type="MSShapeGroup"></path>
            </g>
        </g>
    </g>
</svg>